G04*
G04 #@! TF.GenerationSoftware,Altium Limited,Altium Designer,19.0.15 (446)*
G04*
G04 Layer_Physical_Order=1*
G04 Layer_Color=255*
%FSLAX25Y25*%
%MOIN*%
G70*
G01*
G75*
%ADD14C,0.01000*%
%ADD15C,0.00800*%
%ADD18R,0.03740X0.03347*%
%ADD19R,0.02126X0.02165*%
%ADD20R,0.02165X0.02126*%
%ADD21R,0.03347X0.03740*%
%ADD22R,0.03543X0.03937*%
%ADD23R,0.03937X0.03543*%
%ADD24R,0.05512X0.02362*%
%ADD25R,0.03937X0.02362*%
%ADD26R,0.05118X0.05512*%
%ADD27O,0.00984X0.03740*%
%ADD28O,0.03740X0.00984*%
%ADD29R,0.05709X0.05709*%
%ADD30R,0.02362X0.05709*%
%ADD31R,0.03150X0.01968*%
%ADD54C,0.01200*%
%ADD55R,0.02600X0.04000*%
%ADD56R,0.01400X0.03000*%
%ADD57R,0.02700X0.04900*%
%ADD58R,0.03200X0.06600*%
%ADD59R,0.02000X0.06600*%
%ADD60C,0.07874*%
%ADD61O,0.06496X0.15158*%
%ADD62O,0.15158X0.06496*%
%ADD63O,0.16535X0.06496*%
%ADD64C,0.06693*%
%ADD65R,0.06693X0.06693*%
%ADD66C,0.02756*%
%ADD67C,0.03150*%
G36*
X640421Y235151D02*
X640336Y235121D01*
X640261Y235070D01*
X640196Y234999D01*
X640141Y234908D01*
X640096Y234797D01*
X640061Y234665D01*
X640036Y234513D01*
X640022Y234359D01*
X640036Y234207D01*
X640060Y234057D01*
X640095Y233927D01*
X640140Y233817D01*
X640194Y233727D01*
X640259Y233657D01*
X640333Y233607D01*
X640417Y233577D01*
X640512Y233567D01*
X638516Y233555D01*
X638611Y233565D01*
X638696Y233596D01*
X638771Y233647D01*
X638836Y233718D01*
X638891Y233809D01*
X638936Y233921D01*
X638971Y234052D01*
X638996Y234203D01*
X639009Y234358D01*
X638996Y234513D01*
X638971Y234665D01*
X638936Y234797D01*
X638891Y234908D01*
X638836Y234999D01*
X638771Y235070D01*
X638696Y235121D01*
X638611Y235151D01*
X638516Y235161D01*
X640516D01*
X640421Y235151D01*
D02*
G37*
G36*
X604707Y229719D02*
X604573Y229574D01*
X604453Y229424D01*
X604347Y229268D01*
X604255Y229106D01*
X604177Y228939D01*
X604113Y228765D01*
X604064Y228585D01*
X604028Y228400D01*
X604007Y228209D01*
X604000Y228012D01*
X603000D01*
X602993Y228209D01*
X602972Y228400D01*
X602936Y228585D01*
X602887Y228765D01*
X602823Y228939D01*
X602745Y229106D01*
X602654Y229268D01*
X602548Y229424D01*
X602427Y229574D01*
X602293Y229719D01*
X602793Y230633D01*
X602934Y230506D01*
X603076Y230407D01*
X603217Y230336D01*
X603359Y230294D01*
X603500Y230280D01*
X603641Y230294D01*
X603783Y230336D01*
X603924Y230407D01*
X604066Y230506D01*
X604207Y230633D01*
X604707Y229719D01*
D02*
G37*
G36*
X640366Y228345D02*
X640281Y228315D01*
X640206Y228265D01*
X640141Y228195D01*
X640086Y228105D01*
X640041Y227995D01*
X640006Y227865D01*
X639981Y227715D01*
X639966Y227545D01*
X639961Y227355D01*
X638961D01*
X638956Y227545D01*
X638941Y227715D01*
X638916Y227865D01*
X638881Y227995D01*
X638836Y228105D01*
X638781Y228195D01*
X638716Y228265D01*
X638641Y228315D01*
X638556Y228345D01*
X638461Y228355D01*
X640461D01*
X640366Y228345D01*
D02*
G37*
G36*
X684020Y158550D02*
Y137106D01*
X682955Y136294D01*
X682820Y136277D01*
X682307Y136345D01*
Y127795D01*
Y119246D01*
X682820Y119313D01*
X682955Y119296D01*
X684020Y118484D01*
Y103382D01*
X579760D01*
Y243075D01*
X637795D01*
Y238263D01*
X637000D01*
Y236200D01*
D01*
Y234137D01*
X637795D01*
Y227160D01*
X637675Y227061D01*
X636608Y226864D01*
X636592Y226867D01*
X636098Y227197D01*
X636016Y227213D01*
Y224413D01*
X635016D01*
Y227213D01*
X634934Y227197D01*
X634531Y226928D01*
X634129Y227197D01*
X634047Y227213D01*
Y224413D01*
X633547D01*
Y223913D01*
X632026D01*
Y223799D01*
X631087Y223074D01*
X631047Y223066D01*
X628504D01*
X628075Y222981D01*
X627711Y222738D01*
X627711Y222738D01*
X627070Y222097D01*
X625870Y222594D01*
Y224059D01*
X623000D01*
Y224559D01*
X622500D01*
Y226208D01*
X622000D01*
X622095Y226218D01*
X622180Y226249D01*
X622255Y226299D01*
X622320Y226370D01*
X622375Y226461D01*
X622420Y226573D01*
X622455Y226704D01*
X622480Y226856D01*
X622495Y227028D01*
X622500Y227220D01*
Y227232D01*
X620130D01*
Y226929D01*
X618970Y226832D01*
X618930Y226832D01*
X616717D01*
X616252Y227870D01*
X616166Y228299D01*
X615923Y228663D01*
X615923Y228663D01*
X611793Y232793D01*
X611429Y233036D01*
X611000Y233122D01*
X611000Y233121D01*
X606281D01*
X606281Y233122D01*
X605852Y233036D01*
X605488Y232793D01*
X604183Y231488D01*
X603500Y231307D01*
X602817Y231488D01*
X601512Y232793D01*
X601148Y233036D01*
X600719Y233122D01*
X600719Y233121D01*
X594768D01*
X594768Y233122D01*
X594339Y233036D01*
X593975Y232793D01*
X593975Y232793D01*
X589707Y228525D01*
X589464Y228161D01*
X589378Y227732D01*
X588646Y226832D01*
X588030D01*
Y226141D01*
X588005Y226090D01*
X588000Y225983D01*
X587988Y225908D01*
X587968Y225827D01*
X587937Y225741D01*
X587894Y225649D01*
X587840Y225551D01*
X587771Y225446D01*
X587687Y225336D01*
X587589Y225221D01*
X587464Y225090D01*
X587440Y225026D01*
X585207Y222793D01*
X584964Y222429D01*
X584878Y222000D01*
X584878Y222000D01*
Y218000D01*
X584878Y218000D01*
X584964Y217571D01*
X585207Y217207D01*
X592207Y210207D01*
X592207Y210207D01*
X592571Y209964D01*
X593000Y209878D01*
X626433D01*
X626814Y209351D01*
X626858Y209271D01*
X626786Y208998D01*
X626703Y208827D01*
X626612Y208701D01*
X626518Y208605D01*
X626173Y208332D01*
X622030D01*
Y204414D01*
X622030Y203786D01*
X622030D01*
Y203214D01*
X622030D01*
Y198668D01*
X624813D01*
X624840Y198651D01*
X624893Y198663D01*
X624944Y198642D01*
X625907Y198002D01*
X625908Y197785D01*
X624830Y196683D01*
X622219D01*
Y195892D01*
X621500Y195477D01*
X620781Y195892D01*
Y196683D01*
X617219D01*
Y189774D01*
X620781D01*
Y190565D01*
X621500Y190980D01*
X622219Y190565D01*
Y189774D01*
X622983D01*
X623442Y188665D01*
X619099Y184322D01*
X613756D01*
X613756Y184322D01*
X613327Y184237D01*
X612963Y183994D01*
X604789Y175820D01*
X604727Y175797D01*
X604346Y175442D01*
X604204Y175328D01*
X604081Y175242D01*
X604053Y175226D01*
X603816D01*
X603755Y175251D01*
X603705Y175231D01*
X603651Y175243D01*
X603624Y175226D01*
X602653D01*
X602512Y175437D01*
X602512Y175437D01*
X600570Y177379D01*
X600206Y177622D01*
X599777Y177707D01*
X599777Y177707D01*
X597141D01*
X597141Y177707D01*
X596712Y177622D01*
X596348Y177379D01*
X596348Y177379D01*
X594789Y175820D01*
X594727Y175797D01*
X594346Y175442D01*
X594204Y175328D01*
X594081Y175242D01*
X594054Y175226D01*
X593816D01*
X593755Y175251D01*
X593705Y175231D01*
X593651Y175243D01*
X593624Y175226D01*
X592219D01*
Y168317D01*
X592815D01*
X592820Y168301D01*
X592835Y168207D01*
X592846Y168082D01*
X592851Y167912D01*
X592878Y167850D01*
Y166638D01*
X592878Y166638D01*
X592964Y166209D01*
X593207Y165845D01*
X594074Y164978D01*
X594097Y164916D01*
X594451Y164535D01*
X594566Y164392D01*
X594652Y164270D01*
X594668Y164242D01*
Y164005D01*
X594642Y163944D01*
X594663Y163893D01*
X594651Y163840D01*
X594668Y163813D01*
Y161030D01*
X596474D01*
X596477Y161020D01*
X596493Y160924D01*
X596504Y160797D01*
X596508Y160625D01*
X596536Y160563D01*
Y158036D01*
X596508Y157973D01*
X596504Y157801D01*
X596493Y157673D01*
X596477Y157577D01*
X596474Y157569D01*
X595286D01*
Y157569D01*
X594714D01*
Y157569D01*
X589971D01*
Y152431D01*
X591160D01*
X591162Y152423D01*
X591178Y152327D01*
X591189Y152199D01*
X591193Y152027D01*
X591221Y151964D01*
Y150051D01*
X591193Y149989D01*
X591189Y149817D01*
X591178Y149689D01*
X591162Y149593D01*
X591160Y149584D01*
X589782D01*
Y147616D01*
X589782Y147192D01*
X589757Y147155D01*
X589760Y147062D01*
X589744Y147023D01*
X589782Y146416D01*
X590036Y145237D01*
Y137620D01*
X590017Y137591D01*
X590024Y137562D01*
X590010Y137537D01*
X589991Y137308D01*
X589943Y137117D01*
X589856Y136905D01*
X589724Y136672D01*
X589544Y136420D01*
X589314Y136151D01*
X589039Y135874D01*
X588309Y135261D01*
X587871Y134943D01*
X587805Y134836D01*
X587264Y134421D01*
X586755Y133757D01*
X585555Y134092D01*
Y176571D01*
X587000D01*
Y179343D01*
X587500D01*
Y179843D01*
X590469D01*
Y182114D01*
X590263Y182202D01*
X590256Y182295D01*
X590436Y182776D01*
X590805Y183434D01*
X602102D01*
X602570Y183527D01*
X602967Y183792D01*
X608216Y189040D01*
X608273Y189062D01*
X608731Y189487D01*
X608907Y189628D01*
X609061Y189735D01*
X609130Y189774D01*
X609438D01*
X609528Y189737D01*
X609577Y189757D01*
X609629Y189745D01*
X609677Y189774D01*
X610781D01*
Y196683D01*
X607219D01*
Y192537D01*
X606981Y192285D01*
X605814Y192749D01*
X605804Y192762D01*
X605781Y192814D01*
Y196683D01*
X605183D01*
X605181Y196691D01*
X605165Y196788D01*
X605154Y196915D01*
X605149Y197088D01*
X605122Y197150D01*
Y197862D01*
X605122Y197862D01*
X605036Y198291D01*
X604793Y198655D01*
X604793Y198655D01*
X604770Y198678D01*
X605267Y199878D01*
X610201D01*
X610263Y199851D01*
X610433Y199846D01*
X610558Y199835D01*
X610651Y199820D01*
X610668Y199815D01*
Y198530D01*
X612817D01*
X612819Y198520D01*
X612835Y198424D01*
X612846Y198297D01*
X612851Y198125D01*
X612878Y198063D01*
Y197150D01*
X612851Y197088D01*
X612846Y196915D01*
X612835Y196788D01*
X612819Y196691D01*
X612817Y196683D01*
X612219D01*
Y189774D01*
X615781D01*
Y196683D01*
X615781D01*
X615743Y196900D01*
X615991Y197454D01*
X616726Y198130D01*
X617559D01*
Y201000D01*
Y203870D01*
X616249D01*
X615386Y203870D01*
X614352Y203470D01*
X610668D01*
Y202185D01*
X610651Y202180D01*
X610558Y202165D01*
X610433Y202154D01*
X610263Y202149D01*
X610201Y202122D01*
X603799D01*
X603737Y202149D01*
X603565Y202154D01*
X603437Y202165D01*
X603341Y202181D01*
X603332Y202183D01*
Y203470D01*
X598786D01*
Y203470D01*
X598214D01*
Y203470D01*
X593668D01*
Y201107D01*
X593645Y201073D01*
X593654Y201022D01*
X593631Y200975D01*
X593668Y200871D01*
Y200548D01*
X593616Y200458D01*
X593516Y200313D01*
X593182Y199918D01*
X592964Y199692D01*
X592940Y199631D01*
X588003Y194694D01*
X587738Y194298D01*
X587645Y193829D01*
Y187692D01*
X587619Y187634D01*
X587614Y187426D01*
X587600Y187267D01*
X587579Y187143D01*
X587556Y187057D01*
X587546Y187033D01*
X587538Y187029D01*
X584932D01*
Y184726D01*
X584914Y184698D01*
X584927Y184645D01*
X584906Y184595D01*
X584932Y184533D01*
Y184190D01*
X584898Y184133D01*
X584795Y183985D01*
X584452Y183581D01*
X584228Y183349D01*
X584204Y183289D01*
X583466Y182551D01*
X583201Y182154D01*
X583108Y181686D01*
Y130089D01*
X583201Y129621D01*
X583466Y129224D01*
X587507Y125183D01*
X587904Y124918D01*
X588372Y124825D01*
X631998D01*
X632466Y124918D01*
X632863Y125183D01*
X639180Y131500D01*
X639445Y131897D01*
X639538Y132365D01*
Y147662D01*
X642323Y150447D01*
X643432Y149988D01*
Y147971D01*
X648568D01*
Y147971D01*
X649768Y148457D01*
X652671Y145554D01*
Y144286D01*
X652671Y144286D01*
X652757Y143856D01*
X653000Y143492D01*
X655350Y141143D01*
X655374Y141079D01*
X655511Y140936D01*
X655596Y140837D01*
X655420Y140414D01*
X655288Y139409D01*
X655420Y138405D01*
X655808Y137469D01*
X656425Y136665D01*
X657229Y136048D01*
X658165Y135660D01*
X659169Y135528D01*
X667831D01*
X668835Y135660D01*
X669771Y136048D01*
X670575Y136665D01*
X671192Y137469D01*
X671580Y138405D01*
X671712Y139409D01*
X671580Y140414D01*
X671192Y141350D01*
X670575Y142154D01*
X669771Y142771D01*
X668835Y143158D01*
X667831Y143291D01*
X659169D01*
X658165Y143158D01*
X657229Y142771D01*
X657063Y142644D01*
X657000Y142704D01*
X656936Y142729D01*
X654915Y144750D01*
Y146018D01*
X654915Y146018D01*
X654829Y146447D01*
X654586Y146811D01*
X654586Y146811D01*
X650262Y151136D01*
X649898Y151379D01*
X649469Y151464D01*
X649124Y151744D01*
X648568Y152714D01*
Y153286D01*
X648568D01*
X648568Y153914D01*
Y155710D01*
X648592Y155769D01*
X648653Y155880D01*
X648740Y156011D01*
X649253Y156621D01*
X649483Y156857D01*
X649509Y156923D01*
X651965Y159378D01*
X656086D01*
X656149Y159351D01*
X656321Y159346D01*
X656449Y159335D01*
X656545Y159319D01*
X656554Y159317D01*
Y156553D01*
X664446D01*
Y159448D01*
Y160422D01*
D01*
Y164446D01*
X662183D01*
X662181Y164455D01*
X662165Y164551D01*
X662154Y164679D01*
X662149Y164851D01*
X662122Y164913D01*
Y178346D01*
X662149Y178408D01*
X662154Y178581D01*
X662165Y178709D01*
X662181Y178805D01*
X662183Y178813D01*
X665681D01*
Y182376D01*
X658969D01*
Y181777D01*
X658960Y181775D01*
X658864Y181759D01*
X658736Y181748D01*
X658564Y181744D01*
X658502Y181716D01*
X657276D01*
X657214Y181744D01*
X657044Y181748D01*
X656919Y181759D01*
X656825Y181775D01*
X656809Y181779D01*
Y183950D01*
X650910D01*
Y184350D01*
X647850D01*
Y180594D01*
Y176839D01*
X650910D01*
Y177239D01*
X656809D01*
Y179410D01*
X656825Y179414D01*
X656919Y179430D01*
X657044Y179441D01*
X657214Y179445D01*
X657276Y179473D01*
X658502D01*
X658564Y179445D01*
X658736Y179441D01*
X658864Y179430D01*
X658960Y179414D01*
X658969Y179411D01*
Y178813D01*
X659817D01*
X659819Y178805D01*
X659835Y178709D01*
X659846Y178581D01*
X659851Y178408D01*
X659878Y178346D01*
Y164913D01*
X659851Y164851D01*
X659846Y164679D01*
X659835Y164551D01*
X659819Y164455D01*
X659817Y164446D01*
X656554D01*
Y162321D01*
X656535Y162313D01*
X656447Y162290D01*
X656321Y162269D01*
X656159Y162255D01*
X655949Y162249D01*
X655891Y162223D01*
X652000D01*
X651532Y162130D01*
X651135Y161865D01*
X650870Y161468D01*
X650854Y161392D01*
X650707Y161293D01*
X650707Y161293D01*
X648070Y158657D01*
X648032Y158647D01*
X648011Y158613D01*
X647973Y158598D01*
X647922Y158550D01*
X644077D01*
X644035Y158590D01*
X643970Y158616D01*
X643793Y158793D01*
X643429Y159036D01*
X643000Y159122D01*
X643000Y159122D01*
X638594D01*
X634351Y163365D01*
Y166144D01*
X636240D01*
Y165744D01*
X639299D01*
Y169500D01*
X639799D01*
Y170000D01*
X643358D01*
Y173256D01*
X641019D01*
X640232Y174130D01*
Y176500D01*
X637559D01*
Y177500D01*
X640232D01*
Y179870D01*
X639929D01*
X639832Y181030D01*
X639832D01*
Y185970D01*
X638541D01*
X638295Y186330D01*
X638928Y187530D01*
X639832D01*
Y192470D01*
X637461D01*
X637413Y192500D01*
X637361Y192487D01*
X637312Y192508D01*
X637222Y192470D01*
X637020D01*
X636980Y192492D01*
X636867Y192572D01*
X636539Y192849D01*
X636349Y193032D01*
X636284Y193058D01*
X634351Y194991D01*
Y197743D01*
X635551Y198668D01*
X639831D01*
X639954Y198668D01*
X641032Y198371D01*
Y198071D01*
X643500D01*
Y200843D01*
X644500D01*
Y198071D01*
X646332D01*
X646969Y198071D01*
X648169Y198071D01*
X650000D01*
Y200843D01*
X651000D01*
Y198071D01*
X652832D01*
X653469Y198071D01*
X654669Y198071D01*
X656500D01*
Y200843D01*
X657500D01*
Y198071D01*
X659969D01*
Y198333D01*
X661030Y198668D01*
X661030Y198668D01*
X662315D01*
X662320Y198652D01*
X662335Y198558D01*
X662346Y198433D01*
X662351Y198263D01*
X662378Y198201D01*
Y194654D01*
X662351Y194592D01*
X662346Y194419D01*
X662335Y194291D01*
X662319Y194195D01*
X662317Y194187D01*
X658969D01*
Y193588D01*
X658960Y193586D01*
X658864Y193570D01*
X658736Y193559D01*
X658564Y193555D01*
X658502Y193527D01*
X657276D01*
X657214Y193555D01*
X657044Y193559D01*
X656919Y193570D01*
X656825Y193586D01*
X656809Y193590D01*
Y196356D01*
X650910D01*
Y196756D01*
X647850D01*
Y193000D01*
Y189244D01*
X650910D01*
Y189644D01*
X656809D01*
Y191221D01*
X656825Y191225D01*
X656919Y191241D01*
X657044Y191252D01*
X657214Y191256D01*
X657276Y191284D01*
X658502D01*
X658564Y191256D01*
X658736Y191252D01*
X658864Y191241D01*
X658960Y191225D01*
X658969Y191223D01*
Y190624D01*
X665681D01*
Y191221D01*
X665697Y191225D01*
X665791Y191241D01*
X665916Y191252D01*
X666086Y191256D01*
X666148Y191284D01*
X669406D01*
X669406Y191284D01*
X669835Y191369D01*
X670199Y191613D01*
X674793Y196207D01*
X674793Y196207D01*
X675036Y196571D01*
X675122Y197000D01*
Y212185D01*
X675122Y212185D01*
X675036Y212614D01*
X674793Y212978D01*
X674793Y212978D01*
X667136Y220636D01*
X666772Y220879D01*
X666343Y220964D01*
X666343Y220964D01*
X665743D01*
X665693Y220981D01*
X664906Y222020D01*
X664894Y222194D01*
X664968Y222386D01*
X664968Y223249D01*
Y224657D01*
X662000D01*
Y225157D01*
X661500D01*
Y227929D01*
X659668D01*
X659031Y227929D01*
X657831Y227929D01*
X656000D01*
Y225157D01*
X655000D01*
Y227929D01*
X653168D01*
X652531Y227929D01*
X651332Y227929D01*
X649500D01*
Y225157D01*
X649000D01*
Y224657D01*
X646032D01*
Y223249D01*
X646032Y222386D01*
X646051Y222335D01*
X646049Y222205D01*
X645995Y222118D01*
X644736Y221852D01*
X644382Y222069D01*
X644320Y222379D01*
X644079Y222740D01*
X643717Y222982D01*
X643291Y223066D01*
X640566D01*
Y224341D01*
X640582Y224421D01*
X640582Y224421D01*
Y227275D01*
X640610Y227338D01*
X640614Y227507D01*
X640625Y227633D01*
X640641Y227726D01*
X640645Y227743D01*
X641124D01*
Y230813D01*
Y233436D01*
X641157Y233498D01*
Y233498D01*
X641254Y234537D01*
X641254Y234537D01*
Y237863D01*
X641249D01*
Y243075D01*
X684020D01*
Y158550D01*
D02*
G37*
G36*
X615635Y227030D02*
X615650Y226860D01*
X615675Y226710D01*
X615710Y226580D01*
X615755Y226470D01*
X615810Y226380D01*
X615875Y226310D01*
X615950Y226260D01*
X616035Y226230D01*
X616130Y226220D01*
X614642D01*
X614640Y226230D01*
X614638Y226260D01*
X614631Y226710D01*
X614630Y227220D01*
X615630D01*
X615635Y227030D01*
D02*
G37*
G36*
X604005D02*
X604020Y226860D01*
X604045Y226710D01*
X604080Y226580D01*
X604125Y226470D01*
X604180Y226380D01*
X604245Y226310D01*
X604320Y226260D01*
X604405Y226230D01*
X604500Y226220D01*
X602500D01*
X602595Y226230D01*
X602680Y226260D01*
X602755Y226310D01*
X602820Y226380D01*
X602875Y226470D01*
X602920Y226580D01*
X602955Y226710D01*
X602980Y226860D01*
X602995Y227030D01*
X603000Y227220D01*
X604000D01*
X604005Y227030D01*
D02*
G37*
G36*
X591005D02*
X591020Y226860D01*
X591045Y226710D01*
X591080Y226580D01*
X591125Y226470D01*
X591180Y226380D01*
X591245Y226310D01*
X591320Y226260D01*
X591405Y226230D01*
X591500Y226220D01*
X589500D01*
X589595Y226230D01*
X589680Y226260D01*
X589755Y226310D01*
X589820Y226380D01*
X589875Y226470D01*
X589920Y226580D01*
X589955Y226710D01*
X589980Y226860D01*
X589995Y227030D01*
X590000Y227220D01*
X591000D01*
X591005Y227030D01*
D02*
G37*
G36*
X610974Y227793D02*
X610874Y227666D01*
X610786Y227538D01*
X610710Y227407D01*
X610646Y227275D01*
X610594Y227140D01*
X610553Y227004D01*
X610523Y226866D01*
X610521Y226848D01*
X610545Y226704D01*
X610580Y226573D01*
X610625Y226461D01*
X610680Y226370D01*
X610745Y226299D01*
X610820Y226249D01*
X610905Y226218D01*
X611000Y226208D01*
X609000D01*
X609095Y226218D01*
X609180Y226249D01*
X609255Y226299D01*
X609320Y226370D01*
X609375Y226461D01*
X609420Y226573D01*
X609455Y226704D01*
X609475Y226828D01*
X609475Y226828D01*
X609444Y226966D01*
X609401Y227100D01*
X609345Y227231D01*
X609277Y227358D01*
X609197Y227482D01*
X609104Y227603D01*
X608999Y227721D01*
X608882Y227835D01*
X611085Y227918D01*
X610974Y227793D01*
D02*
G37*
G36*
X597929Y227756D02*
X597826Y227634D01*
X597736Y227509D01*
X597658Y227382D01*
X597592Y227252D01*
X597537Y227119D01*
X597495Y226984D01*
X597465Y226846D01*
X597464Y226837D01*
X597486Y226704D01*
X597521Y226573D01*
X597566Y226461D01*
X597621Y226370D01*
X597686Y226299D01*
X597761Y226249D01*
X597846Y226218D01*
X597941Y226208D01*
X595941D01*
X596036Y226218D01*
X596121Y226249D01*
X596196Y226299D01*
X596261Y226370D01*
X596316Y226461D01*
X596361Y226573D01*
X596396Y226704D01*
X596418Y226837D01*
X596417Y226846D01*
X596387Y226984D01*
X596345Y227119D01*
X596290Y227252D01*
X596224Y227382D01*
X596146Y227509D01*
X596056Y227634D01*
X595953Y227756D01*
X595839Y227875D01*
X598043D01*
X597929Y227756D01*
D02*
G37*
G36*
X588654Y223228D02*
X588647Y223357D01*
X588625Y223458D01*
X588589Y223530D01*
X588539Y223573D01*
X588474Y223587D01*
X588395Y223573D01*
X588302Y223530D01*
X588194Y223458D01*
X588071Y223357D01*
X587935Y223228D01*
Y224642D01*
X588071Y224785D01*
X588194Y224929D01*
X588302Y225071D01*
X588395Y225213D01*
X588474Y225355D01*
X588539Y225496D01*
X588589Y225637D01*
X588625Y225777D01*
X588647Y225917D01*
X588654Y226056D01*
Y223228D01*
D02*
G37*
G36*
X647055Y218984D02*
X647045Y219079D01*
X647015Y219164D01*
X646964Y219239D01*
X646894Y219304D01*
X646803Y219359D01*
X646691Y219404D01*
X646560Y219439D01*
X646408Y219464D01*
X646236Y219479D01*
X646043Y219484D01*
Y220484D01*
X646236Y220489D01*
X646408Y220504D01*
X646560Y220529D01*
X646691Y220564D01*
X646803Y220609D01*
X646894Y220664D01*
X646964Y220729D01*
X647015Y220804D01*
X647045Y220889D01*
X647055Y220984D01*
Y218984D01*
D02*
G37*
G36*
X663955Y220748D02*
X663985Y220663D01*
X664036Y220588D01*
X664106Y220523D01*
X664197Y220468D01*
X664309Y220423D01*
X664440Y220388D01*
X664592Y220363D01*
X664764Y220348D01*
X664957Y220343D01*
Y219343D01*
X664764Y219338D01*
X664592Y219323D01*
X664440Y219298D01*
X664309Y219263D01*
X664197Y219218D01*
X664106Y219163D01*
X664036Y219098D01*
X663985Y219023D01*
X663955Y218938D01*
X663944Y218843D01*
Y220843D01*
X663955Y220748D01*
D02*
G37*
G36*
X660055Y218843D02*
X660045Y218938D01*
X660015Y219023D01*
X659964Y219098D01*
X659894Y219163D01*
X659802Y219218D01*
X659691Y219263D01*
X659560Y219298D01*
X659408Y219323D01*
X659236Y219338D01*
X659044Y219343D01*
Y220343D01*
X659236Y220348D01*
X659408Y220363D01*
X659560Y220388D01*
X659691Y220423D01*
X659802Y220468D01*
X659894Y220523D01*
X659964Y220588D01*
X660015Y220663D01*
X660045Y220748D01*
X660055Y220843D01*
Y218843D01*
D02*
G37*
G36*
X657455Y220748D02*
X657485Y220663D01*
X657536Y220588D01*
X657606Y220523D01*
X657697Y220468D01*
X657809Y220423D01*
X657940Y220388D01*
X658092Y220363D01*
X658264Y220348D01*
X658457Y220343D01*
Y219343D01*
X658264Y219338D01*
X658092Y219323D01*
X657940Y219298D01*
X657809Y219263D01*
X657697Y219218D01*
X657606Y219163D01*
X657536Y219098D01*
X657485Y219023D01*
X657455Y218938D01*
X657444Y218843D01*
Y220843D01*
X657455Y220748D01*
D02*
G37*
G36*
X653555Y218843D02*
X653545Y218938D01*
X653515Y219023D01*
X653464Y219098D01*
X653394Y219163D01*
X653302Y219218D01*
X653191Y219263D01*
X653060Y219298D01*
X652908Y219323D01*
X652736Y219338D01*
X652543Y219343D01*
Y220343D01*
X652736Y220348D01*
X652908Y220363D01*
X653060Y220388D01*
X653191Y220423D01*
X653302Y220468D01*
X653394Y220523D01*
X653464Y220588D01*
X653515Y220663D01*
X653545Y220748D01*
X653555Y220843D01*
Y218843D01*
D02*
G37*
G36*
X650955Y220748D02*
X650985Y220663D01*
X651036Y220588D01*
X651106Y220523D01*
X651197Y220468D01*
X651309Y220423D01*
X651440Y220388D01*
X651592Y220363D01*
X651764Y220348D01*
X651957Y220343D01*
Y219343D01*
X651764Y219338D01*
X651592Y219323D01*
X651440Y219298D01*
X651309Y219263D01*
X651197Y219218D01*
X651106Y219163D01*
X651036Y219098D01*
X650985Y219023D01*
X650955Y218938D01*
X650945Y218843D01*
Y220843D01*
X650955Y220748D01*
D02*
G37*
G36*
X624856Y220346D02*
X624887Y220261D01*
X624937Y220186D01*
X625008Y220121D01*
X625099Y220066D01*
X625210Y220021D01*
X625342Y219986D01*
X625494Y219961D01*
X625666Y219946D01*
X625858Y219941D01*
Y218941D01*
X625666Y218936D01*
X625494Y218921D01*
X625342Y218896D01*
X625210Y218861D01*
X625099Y218816D01*
X625008Y218761D01*
X624937Y218696D01*
X624887Y218621D01*
X624856Y218536D01*
X624846Y218441D01*
Y220441D01*
X624856Y220346D01*
D02*
G37*
G36*
X621154Y218441D02*
X621144Y218536D01*
X621113Y218621D01*
X621063Y218696D01*
X620992Y218761D01*
X620901Y218816D01*
X620790Y218861D01*
X620658Y218896D01*
X620506Y218921D01*
X620334Y218936D01*
X620142Y218941D01*
Y219941D01*
X620334Y219946D01*
X620506Y219961D01*
X620658Y219986D01*
X620790Y220021D01*
X620901Y220066D01*
X620992Y220121D01*
X621063Y220186D01*
X621113Y220261D01*
X621144Y220346D01*
X621154Y220441D01*
Y218441D01*
D02*
G37*
G36*
X618356Y220346D02*
X618387Y220261D01*
X618437Y220186D01*
X618508Y220121D01*
X618599Y220066D01*
X618710Y220021D01*
X618842Y219986D01*
X618994Y219961D01*
X619166Y219946D01*
X619358Y219941D01*
Y218941D01*
X619166Y218936D01*
X618994Y218921D01*
X618842Y218896D01*
X618710Y218861D01*
X618599Y218816D01*
X618508Y218761D01*
X618437Y218696D01*
X618387Y218621D01*
X618356Y218536D01*
X618346Y218441D01*
Y220441D01*
X618356Y220346D01*
D02*
G37*
G36*
X608154Y218441D02*
X608144Y218536D01*
X608113Y218621D01*
X608063Y218696D01*
X607992Y218761D01*
X607901Y218816D01*
X607790Y218861D01*
X607658Y218896D01*
X607506Y218921D01*
X607334Y218936D01*
X607142Y218941D01*
Y219941D01*
X607334Y219946D01*
X607506Y219961D01*
X607658Y219986D01*
X607790Y220021D01*
X607901Y220066D01*
X607992Y220121D01*
X608063Y220186D01*
X608113Y220261D01*
X608144Y220346D01*
X608154Y220441D01*
Y218441D01*
D02*
G37*
G36*
X605356Y220346D02*
X605387Y220261D01*
X605437Y220186D01*
X605508Y220121D01*
X605599Y220066D01*
X605710Y220021D01*
X605842Y219986D01*
X605994Y219961D01*
X606166Y219946D01*
X606358Y219941D01*
Y218941D01*
X606166Y218936D01*
X605994Y218921D01*
X605842Y218896D01*
X605710Y218861D01*
X605599Y218816D01*
X605508Y218761D01*
X605437Y218696D01*
X605387Y218621D01*
X605356Y218536D01*
X605346Y218441D01*
Y220441D01*
X605356Y220346D01*
D02*
G37*
G36*
X595154Y218441D02*
X595144Y218536D01*
X595113Y218621D01*
X595063Y218696D01*
X594992Y218761D01*
X594901Y218816D01*
X594790Y218861D01*
X594658Y218896D01*
X594506Y218921D01*
X594334Y218936D01*
X594142Y218941D01*
Y219941D01*
X594334Y219946D01*
X594506Y219961D01*
X594658Y219986D01*
X594790Y220021D01*
X594901Y220066D01*
X594992Y220121D01*
X595063Y220186D01*
X595113Y220261D01*
X595144Y220346D01*
X595154Y220441D01*
Y218441D01*
D02*
G37*
G36*
X592356Y220346D02*
X592387Y220261D01*
X592437Y220186D01*
X592508Y220121D01*
X592599Y220066D01*
X592710Y220021D01*
X592842Y219986D01*
X592994Y219961D01*
X593166Y219946D01*
X593358Y219941D01*
Y218941D01*
X593166Y218936D01*
X592994Y218921D01*
X592842Y218896D01*
X592710Y218861D01*
X592599Y218816D01*
X592508Y218761D01*
X592437Y218696D01*
X592387Y218621D01*
X592356Y218536D01*
X592346Y218441D01*
Y220441D01*
X592356Y220346D01*
D02*
G37*
G36*
X611801Y219116D02*
X611773Y219024D01*
Y218918D01*
X611801Y218798D01*
X611858Y218664D01*
X611943Y218515D01*
X612056Y218353D01*
X612197Y218176D01*
X612565Y217780D01*
X611858Y217073D01*
X611653Y217271D01*
X611285Y217582D01*
X611123Y217695D01*
X610974Y217780D01*
X610840Y217836D01*
X610720Y217865D01*
X610614D01*
X610522Y217836D01*
X610444Y217780D01*
X611858Y219194D01*
X611801Y219116D01*
D02*
G37*
G36*
X598802D02*
X598773Y219024D01*
Y218918D01*
X598802Y218798D01*
X598858Y218664D01*
X598943Y218515D01*
X599056Y218353D01*
X599197Y218176D01*
X599565Y217780D01*
X598858Y217073D01*
X598653Y217271D01*
X598285Y217582D01*
X598123Y217695D01*
X597974Y217780D01*
X597840Y217836D01*
X597720Y217865D01*
X597614D01*
X597522Y217836D01*
X597444Y217780D01*
X598858Y219194D01*
X598802Y219116D01*
D02*
G37*
G36*
X662500Y217071D02*
X664900D01*
X665500Y216906D01*
X665500Y208332D01*
X664683D01*
X664681Y208341D01*
X664665Y208437D01*
X664654Y208565D01*
X664649Y208737D01*
X664622Y208799D01*
Y210065D01*
X664536Y210494D01*
X664293Y210858D01*
X664293Y210858D01*
X660858Y214293D01*
X660494Y214536D01*
X660065Y214622D01*
X660065Y214621D01*
X649120D01*
X647225Y216517D01*
X647455Y217071D01*
X648500D01*
Y219843D01*
X649500D01*
Y217071D01*
X651968D01*
Y217071D01*
X652531D01*
Y217071D01*
X655000D01*
Y219843D01*
X656000D01*
Y217071D01*
X658468D01*
Y217071D01*
X659031D01*
Y217071D01*
X661500D01*
Y219843D01*
X662500D01*
Y217071D01*
D02*
G37*
G36*
X630649Y215570D02*
X630550Y215603D01*
X630442Y215613D01*
X630324Y215599D01*
X630197Y215562D01*
X630060Y215502D01*
X629914Y215419D01*
X629759Y215312D01*
X629593Y215181D01*
X629419Y215028D01*
X629235Y214851D01*
X628655Y215686D01*
X629256Y216234D01*
X630649Y215570D01*
D02*
G37*
G36*
X647863Y212707D02*
X648227Y212464D01*
X648656Y212379D01*
X659600D01*
X662378Y209600D01*
Y208799D01*
X662351Y208737D01*
X662346Y208565D01*
X662335Y208437D01*
X662319Y208341D01*
X662317Y208332D01*
X661030D01*
Y203786D01*
X660630Y203614D01*
Y201441D01*
X663500D01*
Y200441D01*
X660630D01*
Y199500D01*
X659569D01*
X659569Y202951D01*
X659969Y203386D01*
X659969Y203649D01*
Y205657D01*
X657000D01*
Y206157D01*
X656500D01*
Y208929D01*
X654069D01*
X654032Y208929D01*
X653469D01*
X653432Y208929D01*
X651000D01*
Y206157D01*
X650000D01*
Y208929D01*
X647569D01*
X647532Y208929D01*
X646969D01*
X646932Y208929D01*
X644500D01*
Y206157D01*
X643500D01*
Y208929D01*
X643000D01*
Y209000D01*
X636637D01*
Y210313D01*
X636984Y210558D01*
Y213587D01*
X637984D01*
Y210787D01*
X638066Y210803D01*
X638469Y211072D01*
X638871Y210803D01*
X638953Y210787D01*
Y213587D01*
X639453D01*
Y214087D01*
X640974D01*
Y214934D01*
X643291D01*
X643717Y215018D01*
X644079Y215260D01*
X644232Y215489D01*
X644740Y215631D01*
X644935Y215635D01*
X647863Y212707D01*
D02*
G37*
G36*
X627875Y209898D02*
X627756Y210012D01*
X627634Y210115D01*
X627509Y210205D01*
X627382Y210283D01*
X627252Y210349D01*
X627119Y210404D01*
X626984Y210446D01*
X626846Y210476D01*
X626705Y210494D01*
X626562Y210500D01*
Y211500D01*
X626705Y211506D01*
X626846Y211524D01*
X626984Y211554D01*
X627119Y211596D01*
X627252Y211651D01*
X627382Y211717D01*
X627509Y211795D01*
X627634Y211885D01*
X627756Y211988D01*
X627875Y212102D01*
Y209898D01*
D02*
G37*
G36*
X664005Y208528D02*
X664020Y208356D01*
X664045Y208204D01*
X664080Y208073D01*
X664125Y207961D01*
X664180Y207870D01*
X664245Y207799D01*
X664320Y207749D01*
X664405Y207718D01*
X664500Y207708D01*
X662500D01*
X662595Y207718D01*
X662680Y207749D01*
X662755Y207799D01*
X662820Y207870D01*
X662875Y207961D01*
X662920Y208073D01*
X662955Y208204D01*
X662980Y208356D01*
X662995Y208528D01*
X663000Y208720D01*
X664000D01*
X664005Y208528D01*
D02*
G37*
G36*
X668154Y205059D02*
X668144Y205154D01*
X668113Y205239D01*
X668063Y205314D01*
X667992Y205379D01*
X667901Y205434D01*
X667790Y205479D01*
X667658Y205514D01*
X667506Y205539D01*
X667334Y205554D01*
X667142Y205559D01*
Y206559D01*
X667334Y206564D01*
X667506Y206579D01*
X667658Y206604D01*
X667790Y206639D01*
X667901Y206684D01*
X667992Y206739D01*
X668063Y206804D01*
X668113Y206879D01*
X668144Y206964D01*
X668154Y207059D01*
Y205059D01*
D02*
G37*
G36*
X665356Y206964D02*
X665387Y206879D01*
X665437Y206804D01*
X665508Y206739D01*
X665599Y206684D01*
X665710Y206639D01*
X665842Y206604D01*
X665994Y206579D01*
X666166Y206564D01*
X666358Y206559D01*
Y205559D01*
X666166Y205554D01*
X665994Y205539D01*
X665842Y205514D01*
X665710Y205479D01*
X665599Y205434D01*
X665508Y205379D01*
X665437Y205314D01*
X665387Y205239D01*
X665356Y205154D01*
X665346Y205059D01*
Y207059D01*
X665356Y206964D01*
D02*
G37*
G36*
X626291Y205735D02*
X626264Y205644D01*
X626265Y205539D01*
X626294Y205419D01*
X626352Y205285D01*
X626438Y205136D01*
X626552Y204973D01*
X626695Y204796D01*
X627065Y204398D01*
X626358Y203691D01*
X626152Y203890D01*
X625783Y204203D01*
X625620Y204318D01*
X625471Y204404D01*
X625337Y204462D01*
X625217Y204491D01*
X625112Y204492D01*
X625021Y204465D01*
X624944Y204410D01*
X626346Y205812D01*
X626291Y205735D01*
D02*
G37*
G36*
X632986Y205734D02*
X632958Y205642D01*
Y205536D01*
X632986Y205416D01*
X633043Y205282D01*
X633128Y205133D01*
X633241Y204971D01*
X633383Y204794D01*
X633750Y204398D01*
X633043Y203691D01*
X632838Y203889D01*
X632470Y204200D01*
X632308Y204313D01*
X632159Y204398D01*
X632025Y204454D01*
X631905Y204483D01*
X631799D01*
X631707Y204454D01*
X631629Y204398D01*
X633043Y205812D01*
X632986Y205734D01*
D02*
G37*
G36*
X602718Y201905D02*
X602749Y201820D01*
X602799Y201745D01*
X602870Y201680D01*
X602961Y201625D01*
X603073Y201580D01*
X603204Y201545D01*
X603356Y201520D01*
X603528Y201505D01*
X603720Y201500D01*
Y200500D01*
X603528Y200495D01*
X603356Y200480D01*
X603204Y200455D01*
X603073Y200420D01*
X602961Y200375D01*
X602870Y200320D01*
X602799Y200255D01*
X602749Y200180D01*
X602718Y200095D01*
X602712Y200034D01*
X602714Y200029D01*
X602800Y199880D01*
X602915Y199717D01*
X603057Y199540D01*
X603427Y199142D01*
X602720Y198435D01*
X602514Y198634D01*
X602145Y198948D01*
X601982Y199062D01*
X601833Y199148D01*
X601699Y199206D01*
X601579Y199235D01*
X601474Y199236D01*
X601383Y199209D01*
X601306Y199154D01*
X602708Y200556D01*
X602653Y200479D01*
X602626Y200388D01*
X602627Y200283D01*
X602657Y200163D01*
X602708Y200043D01*
Y202000D01*
X602718Y201905D01*
D02*
G37*
G36*
X611280Y200000D02*
X611270Y200095D01*
X611240Y200180D01*
X611190Y200255D01*
X611120Y200320D01*
X611030Y200375D01*
X610920Y200420D01*
X610790Y200455D01*
X610640Y200480D01*
X610470Y200495D01*
X610280Y200500D01*
Y201500D01*
X610470Y201505D01*
X610640Y201520D01*
X610790Y201545D01*
X610920Y201580D01*
X611030Y201625D01*
X611120Y201680D01*
X611190Y201745D01*
X611240Y201820D01*
X611270Y201905D01*
X611280Y202000D01*
Y200000D01*
D02*
G37*
G36*
X595878Y199142D02*
X595789Y199214D01*
X595682Y199252D01*
X595557Y199254D01*
X595415Y199222D01*
X595254Y199154D01*
X595075Y199052D01*
X594879Y198915D01*
X594664Y198742D01*
X594181Y198293D01*
X593431Y199241D01*
X593664Y199482D01*
X594032Y199918D01*
X594166Y200111D01*
X594267Y200289D01*
X594336Y200451D01*
X594371Y200596D01*
X594374Y200726D01*
X594343Y200840D01*
X594280Y200938D01*
X595878Y199142D01*
D02*
G37*
G36*
X626291Y200617D02*
X626264Y200526D01*
X626265Y200421D01*
X626294Y200301D01*
X626352Y200167D01*
X626438Y200018D01*
X626552Y199855D01*
X626695Y199678D01*
X627065Y199280D01*
X626358Y198573D01*
X626152Y198772D01*
X625783Y199085D01*
X625620Y199200D01*
X625471Y199286D01*
X625337Y199344D01*
X625217Y199373D01*
X625112Y199374D01*
X625021Y199347D01*
X624944Y199292D01*
X626346Y200694D01*
X626291Y200617D01*
D02*
G37*
G36*
X670506Y199795D02*
X670524Y199654D01*
X670554Y199516D01*
X670596Y199381D01*
X670633Y199292D01*
X671000D01*
X670905Y199282D01*
X670820Y199251D01*
X670745Y199201D01*
X670700Y199152D01*
X670717Y199118D01*
X670795Y198991D01*
X670886Y198866D01*
X670988Y198744D01*
X671102Y198625D01*
X670518D01*
X670505Y198472D01*
X670500Y198280D01*
X669500D01*
X669495Y198472D01*
X669482Y198625D01*
X668898D01*
X669012Y198744D01*
X669114Y198866D01*
X669205Y198991D01*
X669283Y199118D01*
X669300Y199152D01*
X669255Y199201D01*
X669180Y199251D01*
X669095Y199282D01*
X669000Y199292D01*
X669367D01*
X669404Y199381D01*
X669446Y199516D01*
X669476Y199654D01*
X669494Y199795D01*
X669500Y199938D01*
X670500D01*
X670506Y199795D01*
D02*
G37*
G36*
X664405Y199270D02*
X664320Y199240D01*
X664245Y199190D01*
X664180Y199120D01*
X664125Y199030D01*
X664080Y198920D01*
X664045Y198790D01*
X664020Y198640D01*
X664005Y198470D01*
X664000Y198280D01*
X663000D01*
X662995Y198470D01*
X662980Y198640D01*
X662955Y198790D01*
X662920Y198920D01*
X662875Y199030D01*
X662820Y199120D01*
X662755Y199190D01*
X662680Y199240D01*
X662595Y199270D01*
X662500Y199280D01*
X664500D01*
X664405Y199270D01*
D02*
G37*
G36*
X614602Y199142D02*
X614583Y199132D01*
X614565Y199102D01*
X614550Y199052D01*
X614537Y198982D01*
X614526Y198892D01*
X614509Y198652D01*
X614500Y198142D01*
X613500D01*
X613495Y198334D01*
X613480Y198505D01*
X613455Y198656D01*
X613420Y198788D01*
X613375Y198899D01*
X613320Y198990D01*
X613255Y199061D01*
X613180Y199112D01*
X613095Y199143D01*
X613000Y199154D01*
X614602Y199142D01*
D02*
G37*
G36*
X614505Y196878D02*
X614520Y196706D01*
X614545Y196555D01*
X614580Y196423D01*
X614625Y196312D01*
X614680Y196221D01*
X614745Y196150D01*
X614820Y196099D01*
X614905Y196069D01*
X615000Y196059D01*
X613000D01*
X613095Y196069D01*
X613180Y196099D01*
X613255Y196150D01*
X613320Y196221D01*
X613375Y196312D01*
X613420Y196423D01*
X613455Y196555D01*
X613480Y196706D01*
X613495Y196878D01*
X613500Y197071D01*
X614500D01*
X614505Y196878D01*
D02*
G37*
G36*
X604505D02*
X604520Y196706D01*
X604545Y196555D01*
X604580Y196423D01*
X604625Y196312D01*
X604680Y196221D01*
X604745Y196150D01*
X604820Y196099D01*
X604905Y196069D01*
X605000Y196059D01*
X603000D01*
X603095Y196069D01*
X603180Y196099D01*
X603255Y196150D01*
X603320Y196221D01*
X603375Y196312D01*
X603420Y196423D01*
X603455Y196555D01*
X603480Y196706D01*
X603495Y196878D01*
X603500Y197071D01*
X604500D01*
X604505Y196878D01*
D02*
G37*
G36*
X664005Y194382D02*
X664020Y194210D01*
X664045Y194059D01*
X664080Y193927D01*
X664125Y193816D01*
X664180Y193725D01*
X664245Y193654D01*
X664320Y193603D01*
X664405Y193573D01*
X664500Y193563D01*
X662500D01*
X662595Y193573D01*
X662680Y193603D01*
X662755Y193654D01*
X662820Y193725D01*
X662875Y193816D01*
X662920Y193927D01*
X662955Y194059D01*
X662980Y194210D01*
X662995Y194382D01*
X663000Y194575D01*
X664000D01*
X664005Y194382D01*
D02*
G37*
G36*
X622843Y192228D02*
X622833Y192323D01*
X622802Y192408D01*
X622752Y192483D01*
X622681Y192548D01*
X622590Y192603D01*
X622479Y192648D01*
X622347Y192683D01*
X622195Y192708D01*
X622023Y192723D01*
X621831Y192728D01*
Y193728D01*
X622023Y193733D01*
X622195Y193748D01*
X622347Y193773D01*
X622479Y193808D01*
X622590Y193853D01*
X622681Y193908D01*
X622752Y193973D01*
X622802Y194048D01*
X622833Y194133D01*
X622843Y194228D01*
Y192228D01*
D02*
G37*
G36*
X620167Y194133D02*
X620198Y194048D01*
X620248Y193973D01*
X620319Y193908D01*
X620410Y193853D01*
X620521Y193808D01*
X620653Y193773D01*
X620805Y193748D01*
X620977Y193733D01*
X621169Y193728D01*
Y192728D01*
X620977Y192723D01*
X620805Y192708D01*
X620653Y192683D01*
X620521Y192648D01*
X620410Y192603D01*
X620319Y192548D01*
X620248Y192483D01*
X620198Y192408D01*
X620167Y192323D01*
X620157Y192228D01*
Y194228D01*
X620167Y194133D01*
D02*
G37*
G36*
X597843Y192228D02*
X597833Y192323D01*
X597802Y192408D01*
X597752Y192483D01*
X597681Y192548D01*
X597590Y192603D01*
X597479Y192648D01*
X597347Y192683D01*
X597195Y192708D01*
X597023Y192723D01*
X596831Y192728D01*
Y193728D01*
X597023Y193733D01*
X597195Y193748D01*
X597347Y193773D01*
X597479Y193808D01*
X597590Y193853D01*
X597681Y193908D01*
X597752Y193973D01*
X597802Y194048D01*
X597833Y194133D01*
X597843Y194228D01*
Y192228D01*
D02*
G37*
G36*
X595167Y194133D02*
X595198Y194048D01*
X595248Y193973D01*
X595319Y193908D01*
X595410Y193853D01*
X595521Y193808D01*
X595653Y193773D01*
X595805Y193748D01*
X595977Y193733D01*
X596169Y193728D01*
Y192728D01*
X595977Y192723D01*
X595805Y192708D01*
X595653Y192683D01*
X595521Y192648D01*
X595410Y192603D01*
X595319Y192548D01*
X595248Y192483D01*
X595198Y192408D01*
X595167Y192323D01*
X595157Y192228D01*
Y194228D01*
X595167Y194133D01*
D02*
G37*
G36*
X665079Y193311D02*
X665109Y193226D01*
X665159Y193151D01*
X665229Y193086D01*
X665319Y193031D01*
X665429Y192986D01*
X665559Y192951D01*
X665709Y192926D01*
X665879Y192911D01*
X666069Y192906D01*
Y191906D01*
X665879Y191901D01*
X665709Y191886D01*
X665559Y191861D01*
X665429Y191826D01*
X665319Y191781D01*
X665229Y191726D01*
X665159Y191661D01*
X665109Y191586D01*
X665079Y191501D01*
X665069Y191406D01*
Y193406D01*
X665079Y193311D01*
D02*
G37*
G36*
X659593Y191406D02*
X659583Y191501D01*
X659552Y191586D01*
X659502Y191661D01*
X659431Y191726D01*
X659340Y191781D01*
X659229Y191826D01*
X659097Y191861D01*
X658945Y191886D01*
X658773Y191901D01*
X658581Y191906D01*
Y192906D01*
X658773Y192911D01*
X658945Y192926D01*
X659097Y192951D01*
X659229Y192986D01*
X659340Y193031D01*
X659431Y193086D01*
X659502Y193151D01*
X659552Y193226D01*
X659583Y193311D01*
X659593Y193406D01*
Y191406D01*
D02*
G37*
G36*
X656207Y193311D02*
X656237Y193226D01*
X656287Y193151D01*
X656357Y193086D01*
X656447Y193031D01*
X656557Y192986D01*
X656687Y192951D01*
X656837Y192926D01*
X657007Y192911D01*
X657197Y192906D01*
Y191906D01*
X657007Y191901D01*
X656837Y191886D01*
X656687Y191861D01*
X656557Y191826D01*
X656447Y191781D01*
X656357Y191726D01*
X656287Y191661D01*
X656237Y191586D01*
X656207Y191501D01*
X656197Y191406D01*
Y193406D01*
X656207Y193311D01*
D02*
G37*
G36*
X636103Y192367D02*
X636471Y192056D01*
X636633Y191943D01*
X636782Y191858D01*
X636916Y191802D01*
X637036Y191773D01*
X637142D01*
X637234Y191802D01*
X637312Y191858D01*
X635898Y190444D01*
X635954Y190522D01*
X635983Y190614D01*
Y190720D01*
X635954Y190840D01*
X635898Y190974D01*
X635813Y191123D01*
X635700Y191285D01*
X635558Y191462D01*
X635191Y191858D01*
X635898Y192565D01*
X636103Y192367D01*
D02*
G37*
G36*
X609528Y190386D02*
X609435Y190454D01*
X609324Y190488D01*
X609197D01*
X609053Y190454D01*
X608892Y190386D01*
X608713Y190284D01*
X608518Y190148D01*
X608306Y189979D01*
X607831Y189538D01*
X606982Y190386D01*
X607220Y190632D01*
X607593Y191073D01*
X607729Y191269D01*
X607831Y191447D01*
X607899Y191608D01*
X607933Y191752D01*
Y191879D01*
X607899Y191990D01*
X607831Y192083D01*
X609528Y190386D01*
D02*
G37*
G36*
X634035Y189479D02*
X634008Y189388D01*
X634009Y189283D01*
X634038Y189163D01*
X634096Y189029D01*
X634182Y188880D01*
X634297Y188717D01*
X634439Y188540D01*
X634809Y188142D01*
X634102Y187435D01*
X633896Y187634D01*
X633527Y187947D01*
X633364Y188062D01*
X633215Y188148D01*
X633081Y188206D01*
X632961Y188235D01*
X632856Y188236D01*
X632765Y188209D01*
X632688Y188154D01*
X634090Y189556D01*
X634035Y189479D01*
D02*
G37*
G36*
X589457Y186417D02*
X587669D01*
X587782Y186429D01*
X587885Y186465D01*
X587975Y186525D01*
X588053Y186609D01*
X588119Y186717D01*
X588172Y186849D01*
X588214Y187005D01*
X588244Y187185D01*
X588263Y187389D01*
X588269Y187617D01*
X589468D01*
X589457Y186417D01*
D02*
G37*
G36*
X589457Y185743D02*
X589493Y185641D01*
X589554Y185551D01*
X589638Y185473D01*
X589747Y185407D01*
X589881Y185353D01*
X590038Y185311D01*
X590220Y185281D01*
X590426Y185263D01*
X590657Y185257D01*
Y184057D01*
X590426Y184051D01*
X590220Y184033D01*
X590038Y184003D01*
X589881Y183961D01*
X589747Y183907D01*
X589638Y183841D01*
X589554Y183763D01*
X589493Y183673D01*
X589457Y183571D01*
X589444Y183457D01*
Y185857D01*
X589457Y185743D01*
D02*
G37*
G36*
X587241Y182910D02*
X587148Y182976D01*
X587039Y183009D01*
X586912Y183008D01*
X586768Y182973D01*
X586607Y182904D01*
X586429Y182801D01*
X586233Y182664D01*
X586021Y182493D01*
X585543Y182049D01*
X584695Y182898D01*
X584934Y183145D01*
X585310Y183588D01*
X585447Y183783D01*
X585549Y183961D01*
X585619Y184123D01*
X585654Y184266D01*
X585655Y184393D01*
X585622Y184502D01*
X585556Y184595D01*
X587241Y182910D01*
D02*
G37*
G36*
X630168Y190522D02*
Y187530D01*
X632388D01*
X632775Y187170D01*
X632514Y186305D01*
X632181Y185970D01*
X630168D01*
Y183206D01*
X630138Y183157D01*
X630151Y183106D01*
X630130Y183056D01*
X630168Y182966D01*
Y182764D01*
X630145Y182724D01*
X630066Y182611D01*
X629789Y182283D01*
X629605Y182093D01*
X629580Y182028D01*
X628875Y181323D01*
X628632Y180959D01*
X628546Y180530D01*
X628546Y180530D01*
Y167000D01*
X628546Y167000D01*
X628632Y166571D01*
X628719Y166439D01*
Y166288D01*
X628719Y166288D01*
X628805Y165859D01*
X629048Y165495D01*
X637336Y157207D01*
X637336Y157207D01*
X637700Y156964D01*
X638129Y156878D01*
X642535D01*
X642788Y156626D01*
X642792Y156602D01*
X642845Y156566D01*
X642869Y156506D01*
X643037Y156331D01*
X643171Y156179D01*
X643278Y156043D01*
X643358Y155927D01*
X643412Y155834D01*
X643432Y155789D01*
Y155726D01*
X643414Y155698D01*
X643427Y155645D01*
X643406Y155595D01*
X643432Y155533D01*
Y155190D01*
X643398Y155133D01*
X643295Y154985D01*
X642952Y154581D01*
X642728Y154349D01*
X642704Y154289D01*
X637450Y149034D01*
X637184Y148637D01*
X637091Y148169D01*
Y132872D01*
X635627Y131408D01*
X634360Y131838D01*
X634290Y132369D01*
X633833Y133473D01*
X633612Y133762D01*
X633586Y133873D01*
X633586Y133873D01*
X633586Y133873D01*
X633206Y134407D01*
X632573Y135359D01*
X632106Y136159D01*
X631941Y136487D01*
X631816Y136776D01*
X631733Y137014D01*
X631690Y137194D01*
X631674Y137370D01*
X631649Y137417D01*
Y145949D01*
X631677Y146011D01*
X631681Y146183D01*
X631692Y146311D01*
X631708Y146407D01*
X631710Y146416D01*
X633218D01*
Y149584D01*
X632226D01*
X632224Y149593D01*
X632208Y149689D01*
X632197Y149817D01*
X632193Y149989D01*
X632165Y150051D01*
Y151967D01*
X632193Y152031D01*
X632196Y152206D01*
X632205Y152342D01*
X632216Y152431D01*
X632529Y152431D01*
X632566Y153039D01*
X632557Y153063D01*
X632560Y153134D01*
X632529Y153187D01*
Y157569D01*
X628414D01*
X627786Y157569D01*
X626586Y157569D01*
X625183D01*
X625181Y157579D01*
X625165Y157675D01*
X625154Y157801D01*
X625149Y157973D01*
X625122Y158036D01*
Y161063D01*
X625149Y161125D01*
X625154Y161297D01*
X625165Y161425D01*
X625181Y161521D01*
X625183Y161530D01*
X626832D01*
Y166470D01*
X625183D01*
X625181Y166479D01*
X625165Y166575D01*
X625154Y166703D01*
X625149Y166875D01*
X625122Y166937D01*
Y167850D01*
X625149Y167912D01*
X625154Y168082D01*
X625165Y168207D01*
X625180Y168301D01*
X625185Y168317D01*
X625781D01*
Y175226D01*
X622219D01*
Y168317D01*
X622815D01*
X622820Y168301D01*
X622835Y168207D01*
X622846Y168082D01*
X622851Y167912D01*
X622878Y167850D01*
Y166937D01*
X622851Y166875D01*
X622846Y166703D01*
X622841Y166646D01*
X621727Y166472D01*
X621708Y166470D01*
X621684Y166470D01*
X621128Y166470D01*
X620122Y167039D01*
Y167850D01*
X620149Y167912D01*
X620154Y168082D01*
X620165Y168207D01*
X620180Y168301D01*
X620185Y168317D01*
X620781D01*
Y175226D01*
X617219D01*
Y168317D01*
X617815D01*
X617820Y168301D01*
X617835Y168207D01*
X617846Y168082D01*
X617851Y167912D01*
X617878Y167850D01*
Y166937D01*
X617851Y166875D01*
X617846Y166703D01*
X617835Y166575D01*
X617819Y166479D01*
X617817Y166470D01*
X617168D01*
Y164685D01*
X617152Y164680D01*
X617058Y164665D01*
X616933Y164654D01*
X616763Y164649D01*
X616701Y164622D01*
X615799D01*
X615737Y164649D01*
X615565Y164654D01*
X615437Y164665D01*
X615341Y164681D01*
X615332Y164683D01*
Y165970D01*
X611414D01*
X610786Y165970D01*
X609586Y165970D01*
X607843D01*
X607795Y166000D01*
X607743Y165987D01*
X607694Y166007D01*
X607354Y166246D01*
X606761Y166905D01*
X606822Y167669D01*
X607004Y167917D01*
X608500D01*
Y171772D01*
X609500D01*
Y167917D01*
X611181D01*
Y167926D01*
X612219Y168317D01*
X612381Y168317D01*
X615781D01*
Y175226D01*
X612381D01*
X612219Y175226D01*
X611181Y175618D01*
Y175626D01*
X609335D01*
X608876Y176735D01*
X614220Y182079D01*
X619563D01*
X619563Y182079D01*
X619992Y182164D01*
X620356Y182407D01*
X628968Y191019D01*
X630168Y190522D01*
D02*
G37*
G36*
X637312Y181642D02*
X637234Y181699D01*
X637142Y181727D01*
X637036D01*
X636916Y181699D01*
X636782Y181642D01*
X636633Y181557D01*
X636471Y181444D01*
X636294Y181302D01*
X635898Y180935D01*
X635191Y181642D01*
X635389Y181847D01*
X635700Y182215D01*
X635813Y182377D01*
X635898Y182526D01*
X635954Y182660D01*
X635983Y182780D01*
Y182886D01*
X635954Y182978D01*
X635898Y183056D01*
X637312Y181642D01*
D02*
G37*
G36*
X632194D02*
X632116Y181699D01*
X632024Y181727D01*
X631918D01*
X631798Y181699D01*
X631664Y181642D01*
X631515Y181557D01*
X631353Y181444D01*
X631176Y181302D01*
X630780Y180935D01*
X630073Y181642D01*
X630271Y181847D01*
X630582Y182215D01*
X630695Y182377D01*
X630780Y182526D01*
X630836Y182660D01*
X630865Y182780D01*
Y182886D01*
X630836Y182978D01*
X630780Y183056D01*
X632194Y181642D01*
D02*
G37*
G36*
X659593Y179594D02*
X659583Y179689D01*
X659552Y179774D01*
X659502Y179849D01*
X659431Y179914D01*
X659340Y179969D01*
X659229Y180014D01*
X659097Y180049D01*
X658945Y180074D01*
X658773Y180089D01*
X658581Y180094D01*
Y181094D01*
X658773Y181099D01*
X658945Y181114D01*
X659097Y181139D01*
X659229Y181174D01*
X659340Y181219D01*
X659431Y181274D01*
X659502Y181339D01*
X659552Y181414D01*
X659583Y181499D01*
X659593Y181594D01*
Y179594D01*
D02*
G37*
G36*
X656207Y181499D02*
X656237Y181414D01*
X656287Y181339D01*
X656357Y181274D01*
X656447Y181219D01*
X656557Y181174D01*
X656687Y181139D01*
X656837Y181114D01*
X657007Y181099D01*
X657197Y181094D01*
Y180094D01*
X657007Y180089D01*
X656837Y180074D01*
X656687Y180049D01*
X656557Y180014D01*
X656447Y179969D01*
X656357Y179914D01*
X656287Y179849D01*
X656237Y179774D01*
X656207Y179689D01*
X656197Y179594D01*
Y181594D01*
X656207Y181499D01*
D02*
G37*
G36*
X661905Y179427D02*
X661820Y179397D01*
X661745Y179346D01*
X661680Y179275D01*
X661625Y179184D01*
X661580Y179073D01*
X661545Y178941D01*
X661520Y178790D01*
X661505Y178618D01*
X661500Y178425D01*
X660500D01*
X660495Y178618D01*
X660480Y178790D01*
X660455Y178941D01*
X660420Y179073D01*
X660375Y179184D01*
X660320Y179275D01*
X660255Y179346D01*
X660180Y179397D01*
X660095Y179427D01*
X660000Y179437D01*
X662000D01*
X661905Y179427D01*
D02*
G37*
G36*
X605876Y174614D02*
X605677Y174408D01*
X605364Y174039D01*
X605249Y173876D01*
X605163Y173727D01*
X605105Y173593D01*
X605076Y173473D01*
X605075Y173368D01*
X605102Y173276D01*
X605157Y173200D01*
X603755Y174602D01*
X603832Y174547D01*
X603923Y174520D01*
X604028Y174521D01*
X604148Y174550D01*
X604282Y174608D01*
X604431Y174694D01*
X604594Y174808D01*
X604771Y174951D01*
X605169Y175321D01*
X605876Y174614D01*
D02*
G37*
G36*
X595876D02*
X595677Y174408D01*
X595364Y174039D01*
X595249Y173876D01*
X595163Y173727D01*
X595105Y173593D01*
X595076Y173473D01*
X595075Y173368D01*
X595102Y173276D01*
X595157Y173200D01*
X593755Y174602D01*
X593832Y174547D01*
X593923Y174520D01*
X594028Y174521D01*
X594148Y174550D01*
X594282Y174608D01*
X594431Y174694D01*
X594594Y174808D01*
X594771Y174951D01*
X595169Y175321D01*
X595876Y174614D01*
D02*
G37*
G36*
X633346Y175144D02*
X633261Y175113D01*
X633186Y175063D01*
X633121Y174992D01*
X633066Y174901D01*
X633021Y174790D01*
X632986Y174658D01*
X632961Y174506D01*
X632946Y174334D01*
X632941Y174142D01*
X631941D01*
X631936Y174334D01*
X631921Y174506D01*
X631896Y174658D01*
X631861Y174790D01*
X631816Y174901D01*
X631761Y174992D01*
X631696Y175063D01*
X631621Y175113D01*
X631536Y175144D01*
X631441Y175154D01*
X633441D01*
X633346Y175144D01*
D02*
G37*
G36*
X632946Y173052D02*
X632961Y172880D01*
X632986Y172728D01*
X633021Y172596D01*
X633066Y172485D01*
X633121Y172394D01*
X633186Y172323D01*
X633261Y172272D01*
X633346Y172242D01*
X633441Y172232D01*
X631441D01*
X631536Y172242D01*
X631621Y172272D01*
X631696Y172323D01*
X631761Y172394D01*
X631816Y172485D01*
X631861Y172596D01*
X631896Y172728D01*
X631921Y172880D01*
X631936Y173052D01*
X631941Y173244D01*
X632941D01*
X632946Y173052D01*
D02*
G37*
G36*
X624905Y168919D02*
X624820Y168889D01*
X624745Y168839D01*
X624680Y168769D01*
X624625Y168679D01*
X624580Y168569D01*
X624545Y168439D01*
X624520Y168289D01*
X624505Y168119D01*
X624500Y167929D01*
X623500D01*
X623495Y168119D01*
X623480Y168289D01*
X623455Y168439D01*
X623420Y168569D01*
X623375Y168679D01*
X623320Y168769D01*
X623255Y168839D01*
X623180Y168889D01*
X623095Y168919D01*
X623000Y168929D01*
X625000D01*
X624905Y168919D01*
D02*
G37*
G36*
X619905D02*
X619820Y168889D01*
X619745Y168839D01*
X619680Y168769D01*
X619625Y168679D01*
X619580Y168569D01*
X619545Y168439D01*
X619520Y168289D01*
X619505Y168119D01*
X619500Y167929D01*
X618500D01*
X618495Y168119D01*
X618480Y168289D01*
X618455Y168439D01*
X618420Y168569D01*
X618375Y168679D01*
X618320Y168769D01*
X618255Y168839D01*
X618180Y168889D01*
X618095Y168919D01*
X618000Y168929D01*
X620000D01*
X619905Y168919D01*
D02*
G37*
G36*
X599905D02*
X599820Y168889D01*
X599745Y168839D01*
X599680Y168769D01*
X599625Y168679D01*
X599580Y168569D01*
X599545Y168439D01*
X599520Y168289D01*
X599505Y168119D01*
X599500Y167929D01*
X598500D01*
X598495Y168119D01*
X598480Y168289D01*
X598455Y168439D01*
X598420Y168569D01*
X598375Y168679D01*
X598320Y168769D01*
X598255Y168839D01*
X598180Y168889D01*
X598095Y168919D01*
X598000Y168929D01*
X600000D01*
X599905Y168919D01*
D02*
G37*
G36*
X594905D02*
X594820Y168889D01*
X594745Y168839D01*
X594680Y168769D01*
X594625Y168679D01*
X594580Y168569D01*
X594545Y168439D01*
X594520Y168289D01*
X594505Y168119D01*
X594500Y167929D01*
X593500D01*
X593495Y168119D01*
X593480Y168289D01*
X593455Y168439D01*
X593420Y168569D01*
X593375Y168679D01*
X593320Y168769D01*
X593255Y168839D01*
X593180Y168889D01*
X593095Y168919D01*
X593000Y168929D01*
X595000D01*
X594905Y168919D01*
D02*
G37*
G36*
X624505Y166666D02*
X624520Y166494D01*
X624545Y166342D01*
X624580Y166210D01*
X624625Y166099D01*
X624680Y166008D01*
X624745Y165937D01*
X624820Y165887D01*
X624905Y165856D01*
X625000Y165846D01*
X623000D01*
X623095Y165856D01*
X623180Y165887D01*
X623255Y165937D01*
X623320Y166008D01*
X623375Y166099D01*
X623420Y166210D01*
X623455Y166342D01*
X623480Y166494D01*
X623495Y166666D01*
X623500Y166858D01*
X624500D01*
X624505Y166666D01*
D02*
G37*
G36*
X619505D02*
X619520Y166494D01*
X619545Y166342D01*
X619580Y166210D01*
X619625Y166099D01*
X619680Y166008D01*
X619745Y165937D01*
X619820Y165887D01*
X619905Y165856D01*
X620000Y165846D01*
X618000D01*
X618095Y165856D01*
X618180Y165887D01*
X618255Y165937D01*
X618320Y166008D01*
X618375Y166099D01*
X618420Y166210D01*
X618455Y166342D01*
X618480Y166494D01*
X618495Y166666D01*
X618500Y166858D01*
X619500D01*
X619505Y166666D01*
D02*
G37*
G36*
X606485Y165867D02*
X606852Y165556D01*
X607015Y165443D01*
X607164Y165358D01*
X607298Y165302D01*
X607418Y165273D01*
X607524D01*
X607616Y165302D01*
X607694Y165358D01*
X606280Y163944D01*
X606336Y164022D01*
X606365Y164114D01*
Y164220D01*
X606336Y164340D01*
X606280Y164474D01*
X606195Y164623D01*
X606082Y164785D01*
X605940Y164962D01*
X605573Y165358D01*
X606280Y166065D01*
X606485Y165867D01*
D02*
G37*
G36*
X600604Y165866D02*
X600973Y165552D01*
X601136Y165438D01*
X601285Y165352D01*
X601419Y165294D01*
X601539Y165265D01*
X601644Y165264D01*
X601735Y165291D01*
X601812Y165346D01*
X600410Y163944D01*
X600465Y164021D01*
X600492Y164112D01*
X600491Y164217D01*
X600461Y164337D01*
X600404Y164471D01*
X600318Y164620D01*
X600203Y164783D01*
X600061Y164960D01*
X599691Y165358D01*
X600398Y166065D01*
X600604Y165866D01*
D02*
G37*
G36*
X595486D02*
X595855Y165552D01*
X596018Y165438D01*
X596167Y165352D01*
X596301Y165294D01*
X596421Y165265D01*
X596526Y165264D01*
X596617Y165291D01*
X596694Y165346D01*
X595292Y163944D01*
X595347Y164021D01*
X595374Y164112D01*
X595373Y164217D01*
X595343Y164337D01*
X595286Y164471D01*
X595200Y164620D01*
X595085Y164783D01*
X594943Y164960D01*
X594573Y165358D01*
X595280Y166065D01*
X595486Y165866D01*
D02*
G37*
G36*
X661505Y164642D02*
X661520Y164470D01*
X661545Y164318D01*
X661580Y164187D01*
X661625Y164076D01*
X661680Y163984D01*
X661745Y163914D01*
X661820Y163863D01*
X661905Y163833D01*
X662000Y163822D01*
X660000D01*
X660095Y163833D01*
X660180Y163863D01*
X660255Y163914D01*
X660320Y163984D01*
X660375Y164076D01*
X660420Y164187D01*
X660455Y164318D01*
X660480Y164470D01*
X660495Y164642D01*
X660500Y164834D01*
X661500D01*
X661505Y164642D01*
D02*
G37*
G36*
X617780Y162500D02*
X617770Y162595D01*
X617740Y162680D01*
X617690Y162755D01*
X617620Y162820D01*
X617530Y162875D01*
X617420Y162920D01*
X617290Y162955D01*
X617140Y162980D01*
X616970Y162995D01*
X616780Y163000D01*
Y164000D01*
X616970Y164005D01*
X617140Y164020D01*
X617290Y164045D01*
X617420Y164080D01*
X617530Y164125D01*
X617620Y164180D01*
X617690Y164245D01*
X617740Y164320D01*
X617770Y164405D01*
X617780Y164500D01*
Y162500D01*
D02*
G37*
G36*
X614718Y164405D02*
X614749Y164320D01*
X614799Y164245D01*
X614870Y164180D01*
X614961Y164125D01*
X615072Y164080D01*
X615204Y164045D01*
X615356Y164020D01*
X615528Y164005D01*
X615720Y164000D01*
Y163000D01*
X615528Y162995D01*
X615356Y162980D01*
X615204Y162955D01*
X615072Y162920D01*
X614961Y162875D01*
X614870Y162820D01*
X614799Y162755D01*
X614749Y162680D01*
X614718Y162595D01*
X614708Y162500D01*
Y164500D01*
X614718Y164405D01*
D02*
G37*
G36*
X624905Y162144D02*
X624820Y162113D01*
X624745Y162063D01*
X624680Y161992D01*
X624625Y161901D01*
X624580Y161790D01*
X624545Y161658D01*
X624520Y161506D01*
X624505Y161334D01*
X624500Y161142D01*
X623500D01*
X623495Y161334D01*
X623480Y161506D01*
X623455Y161658D01*
X623420Y161790D01*
X623375Y161901D01*
X623320Y161992D01*
X623255Y162063D01*
X623180Y162113D01*
X623095Y162144D01*
X623000Y162154D01*
X625000D01*
X624905Y162144D01*
D02*
G37*
G36*
X616763Y162351D02*
X616933Y162346D01*
X617058Y162335D01*
X617152Y162320D01*
X617168Y162315D01*
Y161530D01*
X621086D01*
X621684Y161530D01*
X621708Y161530D01*
X621727Y161528D01*
X622841Y161354D01*
X622846Y161297D01*
X622851Y161125D01*
X622878Y161063D01*
Y158034D01*
X622851Y157971D01*
X622847Y157798D01*
X622837Y157665D01*
X622824Y157569D01*
X622471Y157569D01*
X622434Y156961D01*
X622442Y156941D01*
X622439Y156875D01*
X622471Y156818D01*
Y152431D01*
X626586D01*
X627214Y152431D01*
X628414Y152431D01*
X629860D01*
X629863Y152421D01*
X629879Y152325D01*
X629890Y152199D01*
X629894Y152027D01*
X629922Y151964D01*
Y150051D01*
X629894Y149989D01*
X629890Y149817D01*
X629879Y149689D01*
X629863Y149593D01*
X629860Y149584D01*
X628869D01*
Y146416D01*
X629345D01*
X629347Y146407D01*
X629363Y146311D01*
X629374Y146183D01*
X629378Y146011D01*
X629406Y145949D01*
Y137620D01*
X629387Y137591D01*
X629394Y137562D01*
X629381Y137537D01*
X629361Y137308D01*
X629313Y137117D01*
X629226Y136905D01*
X629094Y136672D01*
X628914Y136420D01*
X628684Y136151D01*
X628409Y135874D01*
X627679Y135261D01*
X627241Y134943D01*
X627175Y134836D01*
X626634Y134421D01*
X625907Y133473D01*
X625566Y132650D01*
X625474Y132627D01*
X624424D01*
X624332Y132650D01*
X623991Y133473D01*
X623263Y134421D01*
X622316Y135148D01*
X621212Y135605D01*
X620028Y135761D01*
X618843Y135605D01*
X617739Y135148D01*
X616792Y134421D01*
X616065Y133473D01*
X615607Y132369D01*
X615451Y131185D01*
X615607Y130001D01*
X616065Y128897D01*
X616391Y128472D01*
X615799Y127271D01*
X604571D01*
X603979Y128472D01*
X604306Y128897D01*
X604763Y130001D01*
X604919Y131185D01*
X604763Y132369D01*
X604306Y133473D01*
X603578Y134421D01*
X602631Y135148D01*
X601527Y135605D01*
X600343Y135761D01*
X599158Y135605D01*
X598054Y135148D01*
X597107Y134421D01*
X596379Y133473D01*
X596038Y132650D01*
X595946Y132627D01*
X594896D01*
X594804Y132650D01*
X594463Y133473D01*
X594242Y133762D01*
X594216Y133873D01*
X594216Y133873D01*
X594216Y133874D01*
X593836Y134407D01*
X593203Y135359D01*
X592736Y136159D01*
X592571Y136487D01*
X592446Y136776D01*
X592363Y137014D01*
X592320Y137194D01*
X592304Y137370D01*
X592279Y137417D01*
Y145949D01*
X592307Y146011D01*
X592311Y146183D01*
X592322Y146310D01*
X592338Y146406D01*
X592341Y146416D01*
X594131D01*
Y149584D01*
X593526D01*
X593523Y149593D01*
X593507Y149689D01*
X593496Y149817D01*
X593492Y149989D01*
X593464Y150051D01*
Y151964D01*
X593492Y152027D01*
X593496Y152199D01*
X593507Y152327D01*
X593523Y152423D01*
X593526Y152431D01*
X594714D01*
Y152431D01*
X595286D01*
Y152431D01*
X600029D01*
Y157569D01*
X598840D01*
X598838Y157577D01*
X598822Y157673D01*
X598811Y157801D01*
X598807Y157973D01*
X598779Y158036D01*
Y160564D01*
X599786Y161030D01*
X600214Y161030D01*
X602157D01*
X602205Y161000D01*
X602257Y161013D01*
X602306Y160993D01*
X602396Y161030D01*
X602598D01*
X602638Y161007D01*
X602751Y160928D01*
X603079Y160651D01*
X603269Y160468D01*
X603334Y160442D01*
X603878Y159898D01*
Y157937D01*
X603851Y157875D01*
X603846Y157703D01*
X603835Y157575D01*
X603819Y157478D01*
X603817Y157470D01*
X602168D01*
Y152530D01*
X605852D01*
X606886Y152130D01*
X607749Y152130D01*
X609059D01*
Y155000D01*
Y157870D01*
X607294Y157870D01*
X606865Y157895D01*
X606122Y158754D01*
Y160362D01*
X607210Y161030D01*
X609586D01*
X610214Y161030D01*
X611414Y161030D01*
X615332D01*
Y162317D01*
X615341Y162319D01*
X615437Y162335D01*
X615565Y162346D01*
X615737Y162351D01*
X615799Y162378D01*
X616701D01*
X616763Y162351D01*
D02*
G37*
G36*
X603664Y162978D02*
X603635Y162886D01*
Y162780D01*
X603664Y162660D01*
X603720Y162526D01*
X603805Y162377D01*
X603918Y162215D01*
X604060Y162038D01*
X604427Y161642D01*
X603720Y160935D01*
X603515Y161133D01*
X603148Y161444D01*
X602985Y161557D01*
X602836Y161642D01*
X602702Y161698D01*
X602582Y161727D01*
X602476D01*
X602384Y161698D01*
X602306Y161642D01*
X603720Y163056D01*
X603664Y162978D01*
D02*
G37*
G36*
X598602Y161642D02*
X598518Y161632D01*
X598442Y161602D01*
X598375Y161552D01*
X598317Y161482D01*
X598269Y161392D01*
X598229Y161282D01*
X598197Y161152D01*
X598175Y161002D01*
X598162Y160832D01*
X598157Y160642D01*
X597157D01*
X597152Y160834D01*
X597137Y161005D01*
X597112Y161157D01*
X597077Y161288D01*
X597032Y161399D01*
X596977Y161490D01*
X596912Y161562D01*
X596837Y161612D01*
X596752Y161643D01*
X596657Y161654D01*
X598602Y161642D01*
D02*
G37*
G36*
X657177Y159800D02*
Y159500D01*
X657167Y159595D01*
X657137Y159680D01*
X657087Y159755D01*
X657016Y159820D01*
X656924Y159875D01*
X656813Y159920D01*
X656682Y159955D01*
X656530Y159980D01*
X656358Y159995D01*
X656166Y160000D01*
Y160395D01*
X655966Y160400D01*
Y161600D01*
X656196Y161606D01*
X656402Y161624D01*
X656584Y161654D01*
X656741Y161696D01*
X656875Y161750D01*
X656984Y161816D01*
X657068Y161894D01*
X657129Y161984D01*
X657165Y162086D01*
X657177Y162200D01*
Y159800D01*
D02*
G37*
G36*
X649017Y157310D02*
X648771Y157057D01*
X648219Y156400D01*
X648096Y156215D01*
X648004Y156047D01*
X647943Y155895D01*
X647913Y155761D01*
X647913Y155643D01*
X647944Y155542D01*
X647003Y157405D01*
X647059Y157329D01*
X647134Y157286D01*
X647228Y157276D01*
X647341Y157299D01*
X647473Y157354D01*
X647624Y157442D01*
X647794Y157563D01*
X647983Y157718D01*
X648417Y158124D01*
X649017Y157310D01*
D02*
G37*
G36*
X624505Y157765D02*
X624520Y157593D01*
X624545Y157442D01*
X624580Y157310D01*
X624625Y157199D01*
X624680Y157108D01*
X624745Y157037D01*
X624820Y156986D01*
X624905Y156955D01*
X625000Y156945D01*
X623083Y156957D01*
X623162Y156966D01*
X623233Y156997D01*
X623296Y157046D01*
X623350Y157116D01*
X623396Y157206D01*
X623433Y157317D01*
X623462Y157447D01*
X623483Y157597D01*
X623496Y157766D01*
X623500Y157957D01*
X624500D01*
X624505Y157765D01*
D02*
G37*
G36*
X598162Y157764D02*
X598177Y157592D01*
X598202Y157440D01*
X598237Y157309D01*
X598282Y157197D01*
X598337Y157106D01*
X598402Y157036D01*
X598477Y156985D01*
X598562Y156955D01*
X598657Y156945D01*
X596657D01*
X596752Y156955D01*
X596837Y156985D01*
X596912Y157036D01*
X596977Y157106D01*
X597032Y157197D01*
X597077Y157309D01*
X597112Y157440D01*
X597137Y157592D01*
X597152Y157764D01*
X597157Y157957D01*
X598157D01*
X598162Y157764D01*
D02*
G37*
G36*
X605505Y157666D02*
X605520Y157494D01*
X605545Y157342D01*
X605580Y157210D01*
X605625Y157099D01*
X605680Y157008D01*
X605745Y156937D01*
X605820Y156887D01*
X605905Y156856D01*
X606000Y156846D01*
X604000D01*
X604095Y156856D01*
X604180Y156887D01*
X604255Y156937D01*
X604320Y157008D01*
X604375Y157099D01*
X604420Y157210D01*
X604455Y157342D01*
X604480Y157494D01*
X604495Y157666D01*
X604500Y157858D01*
X605500D01*
X605505Y157666D01*
D02*
G37*
G36*
X643810Y157904D02*
X644206Y157563D01*
X644376Y157442D01*
X644527Y157354D01*
X644659Y157299D01*
X644772Y157276D01*
X644866Y157286D01*
X644941Y157329D01*
X644997Y157405D01*
X644073Y155577D01*
X645741Y153910D01*
X645648Y153976D01*
X645539Y154009D01*
X645412Y154008D01*
X645268Y153973D01*
X645107Y153904D01*
X644929Y153801D01*
X644733Y153664D01*
X644521Y153493D01*
X644043Y153049D01*
X643195Y153898D01*
X643434Y154145D01*
X643810Y154588D01*
X643947Y154783D01*
X644050Y154961D01*
X644119Y155122D01*
X644154Y155266D01*
X644155Y155393D01*
X644122Y155502D01*
X644071Y155573D01*
X644056Y155542D01*
X644068Y155577D01*
X644056Y155595D01*
X644069Y155581D01*
X644090Y155640D01*
X644101Y155747D01*
X644089Y155863D01*
X644053Y155990D01*
X643992Y156127D01*
X643909Y156273D01*
X643801Y156429D01*
X643670Y156595D01*
X643515Y156771D01*
X643336Y156957D01*
X643583Y158124D01*
X643810Y157904D01*
D02*
G37*
G36*
X631917Y153043D02*
X631846Y153033D01*
X631782Y153004D01*
X631727Y152954D01*
X631678Y152884D01*
X631637Y152794D01*
X631603Y152683D01*
X631577Y152553D01*
X631558Y152403D01*
X631547Y152234D01*
X631543Y152043D01*
X630543D01*
X630538Y152235D01*
X630523Y152407D01*
X630498Y152558D01*
X630463Y152690D01*
X630418Y152801D01*
X630363Y152892D01*
X630298Y152963D01*
X630223Y153014D01*
X630138Y153045D01*
X630043Y153056D01*
X631917Y153043D01*
D02*
G37*
G36*
X593248Y153045D02*
X593163Y153015D01*
X593088Y152964D01*
X593023Y152894D01*
X592968Y152803D01*
X592923Y152691D01*
X592888Y152560D01*
X592863Y152408D01*
X592848Y152236D01*
X592843Y152043D01*
X591843D01*
X591838Y152236D01*
X591823Y152408D01*
X591798Y152560D01*
X591763Y152691D01*
X591718Y152803D01*
X591663Y152894D01*
X591598Y152964D01*
X591523Y153015D01*
X591438Y153045D01*
X591343Y153056D01*
X593343D01*
X593248Y153045D01*
D02*
G37*
G36*
X647955Y151248D02*
X647985Y151163D01*
X648036Y151088D01*
X648106Y151023D01*
X648198Y150968D01*
X648309Y150923D01*
X648440Y150888D01*
X648592Y150863D01*
X648764Y150848D01*
X648956Y150843D01*
Y149843D01*
X648764Y149838D01*
X648592Y149823D01*
X648440Y149798D01*
X648309Y149763D01*
X648198Y149718D01*
X648106Y149663D01*
X648036Y149598D01*
X647985Y149523D01*
X647955Y149438D01*
X647944Y149343D01*
Y151343D01*
X647955Y151248D01*
D02*
G37*
G36*
X631548Y149780D02*
X631563Y149608D01*
X631588Y149456D01*
X631623Y149325D01*
X631668Y149213D01*
X631723Y149122D01*
X631788Y149051D01*
X631863Y149001D01*
X631948Y148970D01*
X632043Y148960D01*
X630043D01*
X630138Y148970D01*
X630223Y149001D01*
X630298Y149051D01*
X630363Y149122D01*
X630418Y149213D01*
X630463Y149325D01*
X630498Y149456D01*
X630523Y149608D01*
X630538Y149780D01*
X630543Y149972D01*
X631543D01*
X631548Y149780D01*
D02*
G37*
G36*
X592848D02*
X592863Y149608D01*
X592888Y149456D01*
X592923Y149325D01*
X592968Y149213D01*
X593023Y149122D01*
X593088Y149051D01*
X593163Y149001D01*
X593248Y148970D01*
X593343Y148960D01*
X591343D01*
X591438Y148970D01*
X591523Y149001D01*
X591598Y149051D01*
X591663Y149122D01*
X591718Y149213D01*
X591763Y149325D01*
X591798Y149456D01*
X591823Y149608D01*
X591838Y149780D01*
X591843Y149972D01*
X592843D01*
X592848Y149780D01*
D02*
G37*
G36*
X631433Y147030D02*
X631348Y146999D01*
X631273Y146949D01*
X631208Y146878D01*
X631153Y146787D01*
X631108Y146675D01*
X631073Y146544D01*
X631048Y146392D01*
X631033Y146220D01*
X631028Y146028D01*
X630028D01*
X630023Y146220D01*
X630008Y146392D01*
X629983Y146544D01*
X629948Y146675D01*
X629903Y146787D01*
X629848Y146878D01*
X629783Y146949D01*
X629708Y146999D01*
X629623Y147030D01*
X629528Y147040D01*
X631528D01*
X631433Y147030D01*
D02*
G37*
G36*
X592062Y147029D02*
X591977Y146998D01*
X591902Y146947D01*
X591837Y146876D01*
X591782Y146785D01*
X591737Y146674D01*
X591702Y146542D01*
X591677Y146391D01*
X591662Y146219D01*
X591657Y146028D01*
X590657D01*
X590655Y146218D01*
X590615Y146668D01*
X590591Y146778D01*
X590562Y146868D01*
X590528Y146938D01*
X590489Y146988D01*
X590444Y147018D01*
X590394Y147028D01*
X592157Y147040D01*
X592062Y147029D01*
D02*
G37*
G36*
X656707Y142085D02*
X656854Y141959D01*
X656992Y141857D01*
X657121Y141777D01*
X657241Y141720D01*
X657352Y141686D01*
X657454Y141676D01*
X657547Y141688D01*
X657631Y141724D01*
X657705Y141783D01*
X656296Y140373D01*
X656355Y140448D01*
X656390Y140532D01*
X656403Y140625D01*
X656392Y140726D01*
X656359Y140837D01*
X656302Y140957D01*
X656222Y141086D01*
X656119Y141224D01*
X655993Y141371D01*
X655844Y141527D01*
X656551Y142235D01*
X656707Y142085D01*
D02*
G37*
G36*
X591657Y137310D02*
X591678Y137089D01*
X591739Y136833D01*
X591840Y136540D01*
X591982Y136212D01*
X592165Y135849D01*
X592652Y135015D01*
X593301Y134039D01*
X593687Y133497D01*
X588252Y134417D01*
X588709Y134749D01*
X589479Y135396D01*
X589792Y135710D01*
X590056Y136020D01*
X590273Y136323D01*
X590441Y136621D01*
X590561Y136913D01*
X590633Y137200D01*
X590657Y137481D01*
X591657Y137310D01*
D02*
G37*
G36*
X631028Y137310D02*
X631048Y137089D01*
X631109Y136832D01*
X631210Y136540D01*
X631352Y136212D01*
X631535Y135849D01*
X632022Y135015D01*
X632671Y134038D01*
X633057Y133497D01*
X627622Y134417D01*
X628079Y134749D01*
X628849Y135396D01*
X629162Y135710D01*
X629426Y136020D01*
X629643Y136323D01*
X629811Y136621D01*
X629931Y136913D01*
X630003Y137200D01*
X630028Y137481D01*
X631028Y137310D01*
D02*
G37*
%LPC*%
G36*
X636000Y235700D02*
X634417D01*
Y234137D01*
X636000D01*
Y235700D01*
D02*
G37*
G36*
X662500Y227929D02*
Y225657D01*
X664968D01*
Y227929D01*
X662500D01*
D02*
G37*
G36*
X648500D02*
X646032D01*
Y225657D01*
X648500D01*
Y227929D01*
D02*
G37*
G36*
X625870Y227232D02*
X623500D01*
Y227220D01*
X623505Y227028D01*
X623520Y226856D01*
X623545Y226704D01*
X623580Y226573D01*
X623625Y226461D01*
X623680Y226370D01*
X623745Y226299D01*
X623820Y226249D01*
X623905Y226218D01*
X624000Y226208D01*
X623500D01*
Y225059D01*
X625870D01*
Y227232D01*
D02*
G37*
G36*
X633047Y227213D02*
X632965Y227197D01*
X632471Y226867D01*
X632142Y226374D01*
X632026Y225791D01*
Y224913D01*
X633047D01*
Y227213D01*
D02*
G37*
G36*
X618559Y203870D02*
Y201500D01*
X620732D01*
Y203870D01*
X618559D01*
D02*
G37*
G36*
X620732Y200500D02*
X618559D01*
Y198130D01*
X620732D01*
Y200500D01*
D02*
G37*
G36*
X646850Y196756D02*
X643791D01*
Y193500D01*
X646850D01*
Y196756D01*
D02*
G37*
G36*
Y192500D02*
X643791D01*
Y189244D01*
X646850D01*
Y192500D01*
D02*
G37*
G36*
X664506Y188681D02*
X662037D01*
Y187000D01*
X663506D01*
Y187681D01*
X664506Y188681D01*
D02*
G37*
G36*
X661037D02*
X658569D01*
Y187000D01*
X661037D01*
Y188681D01*
D02*
G37*
G36*
X663506Y186000D02*
X662037D01*
Y184319D01*
X664506D01*
X663506Y185319D01*
Y186000D01*
D02*
G37*
G36*
X661037D02*
X658569D01*
Y184319D01*
X661037D01*
Y186000D01*
D02*
G37*
G36*
X646850Y184350D02*
X643791D01*
Y181094D01*
X646850D01*
Y184350D01*
D02*
G37*
G36*
Y180094D02*
X643791D01*
Y176839D01*
X646850D01*
Y180094D01*
D02*
G37*
G36*
X590469Y178843D02*
X588000D01*
Y176571D01*
X590469D01*
Y178843D01*
D02*
G37*
G36*
X643358Y169000D02*
X640299D01*
Y165744D01*
X643358D01*
Y169000D01*
D02*
G37*
G36*
X670843Y164818D02*
Y161000D01*
X674661D01*
X674577Y161635D01*
X674139Y162692D01*
X673443Y163600D01*
X672535Y164297D01*
X671477Y164735D01*
X670843Y164818D01*
D02*
G37*
G36*
X669843D02*
X669208Y164735D01*
X668151Y164297D01*
X667243Y163600D01*
X666546Y162692D01*
X666108Y161635D01*
X666024Y161000D01*
X669843D01*
Y164818D01*
D02*
G37*
G36*
X674661Y160000D02*
X670843D01*
Y156182D01*
X671477Y156265D01*
X672535Y156703D01*
X673443Y157400D01*
X674139Y158308D01*
X674577Y159365D01*
X674650Y159920D01*
X674661Y160000D01*
D02*
G37*
G36*
X669843D02*
X665757D01*
X665726Y159967D01*
X666058Y159746D01*
X666108Y159365D01*
X666546Y158308D01*
X667243Y157400D01*
X668151Y156703D01*
X669208Y156265D01*
X669843Y156182D01*
Y160000D01*
D02*
G37*
G36*
X681307Y136345D02*
X680698Y136265D01*
X679665Y135837D01*
X678777Y135156D01*
X678096Y134268D01*
X677668Y133235D01*
X677522Y132126D01*
Y128295D01*
X681307D01*
Y136345D01*
D02*
G37*
G36*
Y127295D02*
X677522D01*
Y123464D01*
X677668Y122355D01*
X678096Y121322D01*
X678777Y120435D01*
X679665Y119754D01*
X680698Y119326D01*
X681307Y119246D01*
Y127295D01*
D02*
G37*
G36*
X668520Y119285D02*
X664000D01*
Y115500D01*
X672739D01*
X672658Y116109D01*
X672230Y117142D01*
X671549Y118030D01*
X670662Y118711D01*
X669629Y119139D01*
X668520Y119285D01*
D02*
G37*
G36*
X663000D02*
X658480D01*
X657371Y119139D01*
X656338Y118711D01*
X655451Y118030D01*
X654770Y117142D01*
X654342Y116109D01*
X654261Y115500D01*
X663000D01*
Y119285D01*
D02*
G37*
G36*
X610685Y116414D02*
Y112000D01*
X615099D01*
X614995Y112789D01*
X614498Y113990D01*
X613706Y115021D01*
X612675Y115813D01*
X611474Y116310D01*
X610685Y116414D01*
D02*
G37*
G36*
X609685D02*
X608896Y116310D01*
X607695Y115813D01*
X606664Y115021D01*
X605873Y113990D01*
X605375Y112789D01*
X605271Y112000D01*
X609685D01*
Y116414D01*
D02*
G37*
G36*
X672739Y114500D02*
X664000D01*
Y110715D01*
X668520D01*
X669593Y110856D01*
X669584Y110964D01*
X669581Y110984D01*
X669035D01*
X669143Y111095D01*
X669239Y111208D01*
X669323Y111321D01*
X669358Y111375D01*
X669342Y111378D01*
X669273Y111368D01*
X669197Y111336D01*
X669403Y111447D01*
X669459Y111551D01*
X669510Y111668D01*
X669549Y111785D01*
X669577Y111904D01*
X669594Y112024D01*
X669600Y112145D01*
X670400D01*
X670406Y112024D01*
X670411Y111989D01*
X670792Y112194D01*
X670718Y112145D01*
X670651Y112081D01*
X670592Y112003D01*
X670541Y111911D01*
X670498Y111804D01*
X670473Y111719D01*
X670490Y111668D01*
X670541Y111551D01*
X670603Y111435D01*
X670677Y111321D01*
X670686Y111308D01*
X671549Y111970D01*
X672230Y112858D01*
X672658Y113891D01*
X672739Y114500D01*
D02*
G37*
G36*
X663000D02*
X654261D01*
X654342Y113891D01*
X654770Y112858D01*
X655451Y111970D01*
X656338Y111289D01*
X657371Y110861D01*
X658480Y110715D01*
X663000D01*
Y114500D01*
D02*
G37*
G36*
X629870Y115487D02*
X628838Y115351D01*
X627877Y114953D01*
X627051Y114319D01*
X626417Y113493D01*
X626019Y112532D01*
X625883Y111500D01*
X626019Y110468D01*
X626417Y109507D01*
X627051Y108681D01*
X627877Y108047D01*
X628838Y107649D01*
X629870Y107513D01*
X630902Y107649D01*
X631863Y108047D01*
X632689Y108681D01*
X633323Y109507D01*
X633721Y110468D01*
X633857Y111500D01*
X633721Y112532D01*
X633323Y113493D01*
X632689Y114319D01*
X631863Y114953D01*
X630902Y115351D01*
X629870Y115487D01*
D02*
G37*
G36*
X590500D02*
X589468Y115351D01*
X588507Y114953D01*
X587681Y114319D01*
X587047Y113493D01*
X586649Y112532D01*
X586513Y111500D01*
X586649Y110468D01*
X587047Y109507D01*
X587681Y108681D01*
X588507Y108047D01*
X589468Y107649D01*
X590500Y107513D01*
X591532Y107649D01*
X592493Y108047D01*
X593319Y108681D01*
X593953Y109507D01*
X594351Y110468D01*
X594487Y111500D01*
X594351Y112532D01*
X593953Y113493D01*
X593319Y114319D01*
X592493Y114953D01*
X591532Y115351D01*
X590500Y115487D01*
D02*
G37*
G36*
X615099Y111000D02*
X610685D01*
Y106586D01*
X611474Y106690D01*
X612675Y107187D01*
X613706Y107979D01*
X614498Y109010D01*
X614995Y110211D01*
X615099Y111000D01*
D02*
G37*
G36*
X609685D02*
X605271D01*
X605375Y110211D01*
X605873Y109010D01*
X606664Y107979D01*
X607695Y107187D01*
X608896Y106690D01*
X609685Y106586D01*
Y111000D01*
D02*
G37*
G36*
X640974Y213087D02*
X639953D01*
Y210787D01*
X640035Y210803D01*
X640529Y211133D01*
X640858Y211626D01*
X640974Y212209D01*
Y213087D01*
D02*
G37*
G36*
X657500Y208929D02*
Y206657D01*
X659969D01*
Y208929D01*
X657500D01*
D02*
G37*
G36*
X610059Y157870D02*
Y155500D01*
X611062D01*
X611205Y155506D01*
X611220Y155508D01*
Y156000D01*
X611230Y155905D01*
X611260Y155820D01*
X611310Y155745D01*
X611380Y155680D01*
X611470Y155625D01*
X611574Y155582D01*
X611619Y155596D01*
X611752Y155651D01*
X611882Y155717D01*
X612009Y155795D01*
X612134Y155886D01*
X612232Y155968D01*
Y157870D01*
X610059D01*
D02*
G37*
G36*
X611062Y154500D02*
X610059D01*
Y152130D01*
X612232D01*
Y154032D01*
X612134Y154114D01*
X612009Y154205D01*
X611882Y154283D01*
X611752Y154349D01*
X611619Y154404D01*
X611574Y154418D01*
X611470Y154375D01*
X611380Y154320D01*
X611310Y154255D01*
X611260Y154180D01*
X611230Y154095D01*
X611220Y154000D01*
Y154492D01*
X611205Y154494D01*
X611062Y154500D01*
D01*
D02*
G37*
G36*
X601618Y149984D02*
X599543D01*
Y148500D01*
X600062D01*
X600205Y148506D01*
X600346Y148524D01*
X600484Y148554D01*
X600606Y148592D01*
Y148972D01*
X600616Y148882D01*
X600646Y148802D01*
X600696Y148731D01*
X600766Y148670D01*
X600777Y148664D01*
X600882Y148717D01*
X601009Y148795D01*
X601134Y148886D01*
X601256Y148988D01*
X601375Y149102D01*
Y148508D01*
X601416Y148505D01*
X601606Y148500D01*
X601618D01*
Y149984D01*
D02*
G37*
G36*
X626531D02*
X624457D01*
Y148500D01*
X626531D01*
Y149984D01*
D02*
G37*
G36*
X598543D02*
X596469D01*
Y148500D01*
X598543D01*
Y149984D01*
D02*
G37*
G36*
X623457D02*
X621382D01*
Y148596D01*
X621516Y148554D01*
X621654Y148524D01*
X621718Y148516D01*
X621754Y148519D01*
X621904Y148542D01*
X622034Y148576D01*
X622144Y148618D01*
X622234Y148670D01*
X622304Y148731D01*
X622354Y148802D01*
X622384Y148882D01*
X622394Y148972D01*
Y148500D01*
X623457D01*
Y149984D01*
D02*
G37*
G36*
Y147500D02*
X622394D01*
Y147028D01*
X622384Y147117D01*
X622354Y147198D01*
X622304Y147269D01*
X622234Y147330D01*
X622144Y147382D01*
X622034Y147424D01*
X621904Y147458D01*
X621754Y147481D01*
X621718Y147484D01*
X621654Y147476D01*
X621516Y147446D01*
X621382Y147404D01*
Y146016D01*
X623457D01*
Y147500D01*
D02*
G37*
G36*
X601618D02*
X601606D01*
D01*
X601416Y147495D01*
X601375Y147492D01*
Y146898D01*
X601256Y147012D01*
X601134Y147115D01*
X601009Y147205D01*
X600882Y147283D01*
X600777Y147336D01*
X600766Y147330D01*
X600696Y147269D01*
X600646Y147198D01*
X600616Y147117D01*
X600606Y147028D01*
Y147408D01*
X600484Y147446D01*
X600346Y147476D01*
X600205Y147494D01*
X600062Y147500D01*
D01*
X599543D01*
Y146016D01*
X601618D01*
Y147500D01*
D02*
G37*
G36*
X626531D02*
X624457D01*
Y146016D01*
X626531D01*
Y147500D01*
D02*
G37*
G36*
X598543D02*
X596469D01*
Y146016D01*
X598543D01*
Y147500D01*
D02*
G37*
%LPD*%
D14*
X639516Y236145D02*
X639571Y236200D01*
X639516Y232551D02*
Y236145D01*
X639461Y232496D02*
X639516Y232551D01*
X639461Y224421D02*
Y229425D01*
X639453Y224413D02*
X639461Y224421D01*
X652000Y160500D02*
X659000D01*
X660500D01*
X661000D02*
Y179913D01*
X651500Y160500D02*
X652000D01*
X649469Y150343D02*
X653793Y146018D01*
Y144286D02*
Y146018D01*
Y144286D02*
X658579Y139500D01*
X661000D01*
X646000Y150343D02*
X649469D01*
X592343Y148386D02*
Y155000D01*
X591642Y148000D02*
X591957D01*
X591157Y147516D02*
X591642Y148000D01*
X591157Y132000D02*
Y147516D01*
X630528Y132000D02*
Y147516D01*
X586000Y222000D02*
X589000Y225000D01*
X586000Y218000D02*
Y222000D01*
Y218000D02*
X593000Y211000D01*
X629000D01*
X629668Y167000D02*
Y180530D01*
X643000Y158000D02*
X644500Y156500D01*
X638129Y158000D02*
X643000D01*
X629841Y166288D02*
X638129Y158000D01*
X629841Y166288D02*
Y166827D01*
X629668Y167000D02*
X629841Y166827D01*
X647929Y156929D02*
X651500Y160500D01*
X647469Y156929D02*
X647929D01*
X646500Y155961D02*
X647469Y156929D01*
X670000Y197500D02*
Y200941D01*
X660406Y192406D02*
X661000Y193000D01*
X655594Y192406D02*
X660406D01*
X655000Y193000D02*
X655594Y192406D01*
X653650Y193000D02*
X655000D01*
X663500D02*
Y200941D01*
X669406Y192406D02*
X674000Y197000D01*
X664406Y192406D02*
X669406D01*
X664000Y192000D02*
X664406Y192406D01*
X674000Y197000D02*
Y212185D01*
X666343Y219843D02*
X674000Y212185D01*
X662000Y219843D02*
X666343D01*
X655500D02*
X661343D01*
X649000D02*
X655500D01*
X649000D02*
Y220000D01*
X648984Y219984D02*
X649000Y220000D01*
X641913Y219984D02*
X648984D01*
X653650Y180594D02*
X661681D01*
X661000Y179913D02*
X661681Y180594D01*
X662325D01*
X632441Y171059D02*
X633000Y170500D01*
X632441Y171059D02*
Y177000D01*
X629668Y180530D02*
X632441Y183303D01*
Y183500D01*
X633000Y178000D02*
X633244D01*
X633614Y178370D01*
Y179358D01*
X637559Y183303D01*
Y183500D01*
X636386Y184614D02*
X636500Y184500D01*
X636386Y184614D02*
Y185858D01*
X632441Y189803D02*
X636386Y185858D01*
X632441Y189803D02*
Y190000D01*
X602000Y199862D02*
Y201000D01*
X612941D01*
X601059D02*
X602000D01*
X601000D02*
X601059D01*
X613000Y200000D02*
X613630D01*
X614000Y199630D01*
Y193228D02*
Y199630D01*
X602000Y199862D02*
X604000Y197862D01*
Y193228D02*
Y197862D01*
X663500Y206059D02*
X670000D01*
X628589Y210589D02*
X629000Y211000D01*
X637287Y206059D02*
X637484D01*
X635516Y207831D02*
X637287Y206059D01*
X635516Y207831D02*
Y213587D01*
X611000Y232000D02*
X615130Y227870D01*
X606281Y232000D02*
X611000D01*
X615130Y225732D02*
Y227870D01*
Y225732D02*
X616303Y224559D01*
X616500D01*
X603500Y229219D02*
X606281Y232000D01*
X603500Y224559D02*
Y229219D01*
X600719Y232000D02*
X603500Y229219D01*
X594768Y232000D02*
X600719D01*
X590500Y227732D02*
X594768Y232000D01*
X596941Y224618D02*
Y229000D01*
Y224618D02*
X597000Y224559D01*
X590500D02*
Y227732D01*
X609941Y229000D02*
X610000Y228941D01*
Y224559D02*
Y228941D01*
X622941Y229000D02*
X623000Y228941D01*
Y224559D02*
Y228941D01*
X590500Y219441D02*
X597000D01*
X602638Y214000D02*
X627677D01*
X597197Y219441D02*
X602638Y214000D01*
X597000Y219441D02*
X597197D01*
X627677Y214000D02*
X629724Y216047D01*
X631087D01*
X603500Y219441D02*
X610000D01*
X613638Y216000D02*
X626000D01*
X610197Y219441D02*
X613638Y216000D01*
X610000Y219441D02*
X610197D01*
X626000Y216000D02*
X628008Y218008D01*
X631079D01*
X631087Y218016D01*
X623000Y219441D02*
X626000D01*
X616500D02*
X623000D01*
X626000D02*
X628504Y221945D01*
X631079D01*
X631087Y221953D01*
X594000Y193228D02*
X599000D01*
X636311Y202114D02*
X637484Y200941D01*
X635327Y202114D02*
X636311D01*
X631283Y206157D02*
X635327Y202114D01*
X631087Y206157D02*
X631283D01*
X629815Y202114D02*
X631087Y200843D01*
X628642Y202114D02*
X629815D01*
X624697Y206059D02*
X628642Y202114D01*
X624500Y206059D02*
X624697D01*
Y200941D02*
X628638Y197000D01*
Y192275D02*
Y197000D01*
X619563Y183201D02*
X628638Y192275D01*
X601719Y168462D02*
Y174644D01*
X603296Y166885D02*
X604753D01*
X607941Y163697D01*
X601719Y168462D02*
X603296Y166885D01*
X596941Y163500D02*
Y163697D01*
X594000Y166638D02*
X596941Y163697D01*
X594000Y166638D02*
Y171772D01*
X599000Y166756D02*
X602059Y163697D01*
Y163500D02*
Y163697D01*
X607941Y163500D02*
Y163697D01*
X619000Y164441D02*
Y171772D01*
Y164441D02*
X619441Y164000D01*
X618941Y163500D02*
X619441Y164000D01*
X594000Y171772D02*
Y173445D01*
X597141Y176586D01*
X599777D01*
X601719Y174644D01*
X599000Y166756D02*
Y171772D01*
X604000D02*
Y173445D01*
X613756Y183201D01*
X619563D01*
X628835Y196803D02*
X630953D01*
X624697Y200941D02*
X628835Y196803D01*
X619000Y193228D02*
X624000D01*
X624500Y200941D02*
X624697D01*
X624500D02*
X624697D01*
X630953Y196803D02*
X637559Y190197D01*
Y190000D02*
Y190197D01*
X624000Y155843D02*
Y171772D01*
Y155843D02*
X624843Y155000D01*
X613059Y163500D02*
X618941D01*
X602059Y163303D02*
Y163500D01*
X605000Y155559D02*
Y160362D01*
X602059Y163303D02*
X605000Y160362D01*
X604441Y155000D02*
X605000Y155559D01*
X596941Y163500D02*
X597657Y162784D01*
Y155000D02*
Y162784D01*
X591957Y148000D02*
X592343Y148386D01*
X609559Y155000D02*
X613500D01*
X599043Y148000D02*
X602500D01*
X619500D02*
X623957D01*
X630157Y155000D02*
X631043Y154114D01*
Y148000D02*
Y154114D01*
X641913Y218016D02*
X644140D01*
X660065Y213500D02*
X663500Y210065D01*
Y206059D02*
Y210065D01*
X648656Y213500D02*
X660065D01*
X644140Y218016D02*
X648656Y213500D01*
D15*
X670000Y110000D02*
Y114020D01*
X662631Y119000D02*
X665020D01*
D18*
X610000Y224559D02*
D03*
Y219441D02*
D03*
X623000Y224559D02*
D03*
Y219441D02*
D03*
X616500D02*
D03*
Y224559D02*
D03*
X603500Y219441D02*
D03*
Y224559D02*
D03*
X597000D02*
D03*
Y219441D02*
D03*
X590500D02*
D03*
Y224559D02*
D03*
X624500Y200941D02*
D03*
Y206059D02*
D03*
X637484Y200941D02*
D03*
Y206059D02*
D03*
X663500D02*
D03*
Y200941D02*
D03*
X670000D02*
D03*
Y206059D02*
D03*
D19*
X639461Y232496D02*
D03*
Y229425D02*
D03*
D20*
X636500Y236200D02*
D03*
X639571D02*
D03*
D21*
X595941Y201000D02*
D03*
X637559Y183500D02*
D03*
X632441D02*
D03*
X637559Y190000D02*
D03*
X632441D02*
D03*
X637559Y177000D02*
D03*
X632441D02*
D03*
X624559Y164000D02*
D03*
X619441D02*
D03*
X596941Y163500D02*
D03*
X602059D02*
D03*
X604441Y155000D02*
D03*
X609559D02*
D03*
X613059Y163500D02*
D03*
X607941D02*
D03*
X601059Y201000D02*
D03*
X618059D02*
D03*
X612941D02*
D03*
D22*
X597657Y155000D02*
D03*
X592343D02*
D03*
X624843D02*
D03*
X630157D02*
D03*
D23*
X657000Y206157D02*
D03*
Y200843D02*
D03*
X650500Y206157D02*
D03*
Y200843D02*
D03*
X644000Y206157D02*
D03*
Y200843D02*
D03*
X646000Y150343D02*
D03*
Y155657D02*
D03*
X587500Y179343D02*
D03*
Y184657D02*
D03*
X662000Y219843D02*
D03*
Y225157D02*
D03*
X655500Y219843D02*
D03*
Y225157D02*
D03*
X649000Y219843D02*
D03*
Y225157D02*
D03*
X631087Y206157D02*
D03*
Y200843D02*
D03*
D24*
X662325Y180594D02*
D03*
Y192406D02*
D03*
D25*
X661537Y186500D02*
D03*
D26*
X647350Y193000D02*
D03*
X653650D02*
D03*
X647350Y180594D02*
D03*
X653650D02*
D03*
X633500Y169500D02*
D03*
X639799D02*
D03*
D27*
X639453Y224413D02*
D03*
X637484D02*
D03*
X635516D02*
D03*
X633547D02*
D03*
Y213587D02*
D03*
X635516D02*
D03*
X637484D02*
D03*
X639453D02*
D03*
D28*
X631087Y221953D02*
D03*
Y219984D02*
D03*
Y218016D02*
D03*
Y216047D02*
D03*
X641913D02*
D03*
Y218016D02*
D03*
Y219984D02*
D03*
Y221953D02*
D03*
D29*
X636500Y219000D02*
D03*
D30*
X624000Y193228D02*
D03*
X619000D02*
D03*
X614000D02*
D03*
X609000D02*
D03*
X604000D02*
D03*
X599000D02*
D03*
X594000D02*
D03*
X624000Y171772D02*
D03*
X619000D02*
D03*
X614000D02*
D03*
X609000D02*
D03*
X604000D02*
D03*
X599000D02*
D03*
X594000D02*
D03*
D31*
X591957Y148000D02*
D03*
X599043D02*
D03*
X631043D02*
D03*
X623957D02*
D03*
D54*
X584332Y130089D02*
Y181686D01*
Y130089D02*
X588372Y126048D01*
X631998D01*
X638315Y132365D01*
Y148169D01*
X645803Y155657D01*
X646000D01*
X587303Y184657D02*
X587500D01*
X652000Y161000D02*
X659000D01*
X595941Y200803D02*
Y201000D01*
X594868Y199730D02*
X595941Y200803D01*
X594769Y199730D02*
X594868D01*
X588869Y193829D02*
X594769Y199730D01*
X587697Y184657D02*
X588869Y185829D01*
Y193829D01*
X587303Y184657D02*
X602102D01*
X609000Y191555D02*
Y193228D01*
X602102Y184657D02*
X609000Y191555D01*
X584332Y181686D02*
X587303Y184657D01*
D55*
X640400Y211800D02*
D03*
D56*
X632600Y226200D02*
D03*
D57*
X636450Y237450D02*
D03*
D58*
X635100Y236900D02*
D03*
D59*
X639600Y239800D02*
D03*
D60*
X610185Y111500D02*
D03*
X600343Y131185D02*
D03*
X590500D02*
D03*
X620028D02*
D03*
X629870D02*
D03*
D61*
X681807Y127795D02*
D03*
D62*
X663500Y139409D02*
D03*
D63*
Y115000D02*
D03*
D64*
X670343Y160500D02*
D03*
D65*
X660500D02*
D03*
D66*
X634094Y236221D02*
D03*
X675000Y141000D02*
D03*
X592520Y159449D02*
D03*
X670000Y110000D02*
D03*
X660000D02*
D03*
X586614Y234252D02*
D03*
D03*
X582677Y228346D02*
D03*
Y216535D02*
D03*
Y196850D02*
D03*
Y206693D02*
D03*
X680000Y230000D02*
D03*
Y210000D02*
D03*
Y190000D02*
D03*
Y170000D02*
D03*
Y150000D02*
D03*
Y110000D02*
D03*
X670000Y230000D02*
D03*
X675000Y220000D02*
D03*
Y180000D02*
D03*
X670000Y170000D02*
D03*
Y150000D02*
D03*
Y130000D02*
D03*
X675000Y120000D02*
D03*
X660000Y230000D02*
D03*
Y150000D02*
D03*
Y130000D02*
D03*
X650000Y230000D02*
D03*
Y170000D02*
D03*
Y130000D02*
D03*
Y110000D02*
D03*
X645000Y160000D02*
D03*
Y140000D02*
D03*
X640000Y130000D02*
D03*
X645000Y120000D02*
D03*
X640000Y110000D02*
D03*
X635000Y140000D02*
D03*
Y120000D02*
D03*
X620000Y230000D02*
D03*
X625000Y140000D02*
D03*
Y120000D02*
D03*
X620000Y110000D02*
D03*
X610000Y150000D02*
D03*
X615000Y140000D02*
D03*
X610000Y130000D02*
D03*
X615000Y120000D02*
D03*
X605000Y180000D02*
D03*
Y140000D02*
D03*
Y120000D02*
D03*
X600000Y110000D02*
D03*
X590000Y210000D02*
D03*
X595000Y180000D02*
D03*
Y140000D02*
D03*
Y120000D02*
D03*
X588583Y163386D02*
D03*
Y171260D02*
D03*
X624016Y179134D02*
D03*
X618110D02*
D03*
X608268Y185039D02*
D03*
X600394Y181102D02*
D03*
X594488Y206693D02*
D03*
X606299D02*
D03*
X616142D02*
D03*
X681102Y240158D02*
D03*
X677165D02*
D03*
X673228D02*
D03*
X669291D02*
D03*
X665354D02*
D03*
X661417D02*
D03*
D03*
X657480D02*
D03*
X653543D02*
D03*
D03*
X649606D02*
D03*
X645669D02*
D03*
Y236221D02*
D03*
Y232283D02*
D03*
X629921Y228346D02*
D03*
Y232283D02*
D03*
X633858D02*
D03*
X629921Y236221D02*
D03*
Y240158D02*
D03*
X625984D02*
D03*
X622047D02*
D03*
X618110D02*
D03*
X614173D02*
D03*
D03*
X610236D02*
D03*
X606299D02*
D03*
X602362D02*
D03*
X598425D02*
D03*
X590551D02*
D03*
X594488D02*
D03*
X586614D02*
D03*
X582677D02*
D03*
X636500Y219000D02*
D03*
D67*
X670000Y197500D02*
D03*
X646000Y211000D02*
D03*
X629000D02*
D03*
X609941Y229000D02*
D03*
X596941D02*
D03*
X613500Y155000D02*
D03*
X602500Y148000D02*
D03*
X619500D02*
D03*
M02*
