G04*
G04 #@! TF.GenerationSoftware,Altium Limited,Altium Designer,19.0.15 (446)*
G04*
G04 Layer_Color=8388736*
%FSLAX25Y25*%
%MOIN*%
G70*
G01*
G75*
%ADD32R,0.08500X0.16063*%
%ADD33R,0.04140X0.03747*%
%ADD34R,0.02526X0.02565*%
%ADD35R,0.02565X0.02526*%
%ADD36R,0.03747X0.04140*%
%ADD37R,0.03943X0.04337*%
%ADD38R,0.04337X0.03943*%
%ADD39R,0.05912X0.02762*%
%ADD40R,0.04337X0.02762*%
%ADD41R,0.05518X0.05912*%
%ADD42O,0.01384X0.04140*%
%ADD43O,0.04140X0.01384*%
%ADD44R,0.06109X0.06109*%
%ADD45R,0.02762X0.06109*%
%ADD46R,0.03550X0.02368*%
%ADD47C,0.08274*%
%ADD48C,0.00400*%
%ADD49O,0.06896X0.15558*%
%ADD50O,0.15558X0.06896*%
%ADD51O,0.16935X0.06896*%
%ADD52C,0.07093*%
%ADD53R,0.07093X0.07093*%
G36*
X675651Y190437D02*
X675674Y190430D01*
X675689Y190426D01*
X675689Y190426D01*
X675689D01*
X675698Y190421D01*
X675724Y190407D01*
X675724Y190407D01*
X675724Y190407D01*
X675754Y190382D01*
X675754Y190382D01*
X676247Y189890D01*
X676247Y189890D01*
X676247Y189890D01*
X676260Y189874D01*
X676271Y189860D01*
X676271Y189860D01*
X676271Y189860D01*
X676279Y189846D01*
X676290Y189825D01*
X676290Y189825D01*
D01*
X676294Y189814D01*
X676301Y189787D01*
Y189787D01*
X676301Y189787D01*
X676304Y189764D01*
X676305Y189748D01*
Y189748D01*
Y189748D01*
X676305Y183252D01*
X676302Y183213D01*
X676290Y183175D01*
X676272Y183141D01*
X676247Y183110D01*
X675754Y182618D01*
X675724Y182593D01*
X675701Y182581D01*
X675689Y182574D01*
X675651Y182563D01*
X675612Y182559D01*
X675612Y182559D01*
X666065D01*
X666026Y182563D01*
X665988Y182574D01*
X665953Y182593D01*
X665923Y182618D01*
X663364Y185177D01*
X663339Y185207D01*
X663320Y185242D01*
X663309Y185280D01*
X663305Y185319D01*
Y187681D01*
X663309Y187720D01*
X663320Y187758D01*
X663339Y187793D01*
X663364Y187823D01*
X665923Y190382D01*
X665953Y190407D01*
X665988Y190426D01*
X666026Y190437D01*
X666065Y190441D01*
X675612D01*
X675651Y190437D01*
D02*
G37*
D32*
X639250Y238032D02*
D03*
D33*
X610000Y224559D02*
D03*
Y219441D02*
D03*
X623000Y224559D02*
D03*
Y219441D02*
D03*
X616500D02*
D03*
Y224559D02*
D03*
X603500Y219441D02*
D03*
Y224559D02*
D03*
X597000D02*
D03*
Y219441D02*
D03*
X590500D02*
D03*
Y224559D02*
D03*
X624500Y200941D02*
D03*
Y206059D02*
D03*
X637484Y200941D02*
D03*
Y206059D02*
D03*
X663500D02*
D03*
Y200941D02*
D03*
X670000D02*
D03*
Y206059D02*
D03*
D34*
X639461Y232496D02*
D03*
Y229425D02*
D03*
D35*
X636500Y236200D02*
D03*
X639571D02*
D03*
D36*
X595941Y201000D02*
D03*
X637559Y183500D02*
D03*
X632441D02*
D03*
X637559Y190000D02*
D03*
X632441D02*
D03*
X637559Y177000D02*
D03*
X632441D02*
D03*
X624559Y164000D02*
D03*
X619441D02*
D03*
X596941Y163500D02*
D03*
X602059D02*
D03*
X604441Y155000D02*
D03*
X609559D02*
D03*
X613059Y163500D02*
D03*
X607941D02*
D03*
X601059Y201000D02*
D03*
X618059D02*
D03*
X612941D02*
D03*
D37*
X597657Y155000D02*
D03*
X592343D02*
D03*
X624843D02*
D03*
X630157D02*
D03*
D38*
X657000Y206157D02*
D03*
Y200843D02*
D03*
X650500Y206157D02*
D03*
Y200843D02*
D03*
X644000Y206157D02*
D03*
Y200843D02*
D03*
X646000Y150343D02*
D03*
Y155657D02*
D03*
X587500Y179343D02*
D03*
Y184657D02*
D03*
X662000Y219843D02*
D03*
Y225157D02*
D03*
X655500Y219843D02*
D03*
Y225157D02*
D03*
X649000Y219843D02*
D03*
Y225157D02*
D03*
X631087Y206157D02*
D03*
Y200843D02*
D03*
D39*
X662325Y180594D02*
D03*
Y192406D02*
D03*
D40*
X661537Y186500D02*
D03*
D41*
X647350Y193000D02*
D03*
X653650D02*
D03*
X647350Y180594D02*
D03*
X653650D02*
D03*
X633500Y169500D02*
D03*
X639799D02*
D03*
D42*
X639453Y224413D02*
D03*
X637484D02*
D03*
X635516D02*
D03*
X633547D02*
D03*
Y213587D02*
D03*
X635516D02*
D03*
X637484D02*
D03*
X639453D02*
D03*
D43*
X631087Y221953D02*
D03*
Y219984D02*
D03*
Y218016D02*
D03*
Y216047D02*
D03*
X641913D02*
D03*
Y218016D02*
D03*
Y219984D02*
D03*
Y221953D02*
D03*
D44*
X636500Y219000D02*
D03*
D45*
X624000Y193228D02*
D03*
X619000D02*
D03*
X614000D02*
D03*
X609000D02*
D03*
X604000D02*
D03*
X599000D02*
D03*
X594000D02*
D03*
X624000Y171772D02*
D03*
X619000D02*
D03*
X614000D02*
D03*
X609000D02*
D03*
X604000D02*
D03*
X599000D02*
D03*
X594000D02*
D03*
D46*
X591957Y148000D02*
D03*
X599043D02*
D03*
X631043D02*
D03*
X623957D02*
D03*
D47*
X610185Y111500D02*
D03*
X600343Y131185D02*
D03*
X590500D02*
D03*
X620028D02*
D03*
X629870D02*
D03*
D48*
Y111500D02*
D03*
X590500D02*
D03*
D49*
X681807Y127795D02*
D03*
D50*
X663500Y139409D02*
D03*
D51*
Y115000D02*
D03*
D52*
X670343Y160500D02*
D03*
D53*
X660500D02*
D03*
M02*
