G04*
G04 #@! TF.GenerationSoftware,Altium Limited,Altium Designer,19.0.15 (446)*
G04*
G04 Layer_Color=65535*
%FSLAX25Y25*%
%MOIN*%
G70*
G01*
G75*
%ADD10C,0.00984*%
%ADD11C,0.00787*%
%ADD12C,0.02362*%
%ADD13C,0.00591*%
%ADD14C,0.01000*%
%ADD15C,0.00800*%
%ADD16R,0.00701X0.02000*%
%ADD17R,0.00787X0.01862*%
D10*
X662315Y195752D02*
G03*
X662315Y195752I-492J0D01*
G01*
X643094Y228252D02*
G03*
X643094Y228252I-492J0D01*
G01*
X627839Y193228D02*
G03*
X627839Y193228I-492J0D01*
G01*
D11*
X677232Y160500D02*
G03*
X677232Y160500I-11811J0D01*
G01*
X672758Y177445D02*
Y181185D01*
X664382Y177445D02*
X672758D01*
Y191815D02*
Y195555D01*
X664382D02*
X672758D01*
X648165Y160500D02*
X652165D01*
X650165Y158500D02*
Y162500D01*
X641520Y225693D02*
X643193D01*
Y224020D02*
Y225693D01*
Y212307D02*
Y213980D01*
X641520Y212307D02*
X643193D01*
X629807D02*
X631480D01*
X629807D02*
Y213980D01*
Y225693D02*
X631480D01*
X629807Y224020D02*
Y225693D01*
X591677Y188799D02*
X626323D01*
X591677Y176201D02*
X626323D01*
Y188799D01*
X591677Y176201D02*
Y188799D01*
X594713Y146819D02*
Y149181D01*
X596681Y148394D02*
Y148984D01*
X594713Y148000D02*
X596681Y148984D01*
X594713Y148000D02*
X596681Y147016D01*
Y148394D01*
X628287Y146819D02*
Y149181D01*
X626319Y147016D02*
Y147606D01*
Y147016D02*
X628287Y148000D01*
X626319Y148984D02*
X628287Y148000D01*
X626319Y147606D02*
Y148984D01*
D12*
X623567Y184862D02*
G03*
X623567Y184862I-1181J0D01*
G01*
D13*
X607244Y222000D02*
X612756D01*
X612000Y227000D02*
X612756D01*
Y217000D02*
Y227000D01*
X612000Y217000D02*
X612756D01*
X607244D02*
X608000D01*
X607244D02*
Y227000D01*
X608000D01*
X620244Y222000D02*
X625756D01*
X625000Y227000D02*
X625756D01*
Y217000D02*
Y227000D01*
X625000Y217000D02*
X625756D01*
X620244D02*
X621000D01*
X620244D02*
Y227000D01*
X621000D01*
X613744Y222000D02*
X619256D01*
X613744Y217000D02*
X614500D01*
X613744D02*
Y227000D01*
X614500D01*
X618500D02*
X619256D01*
Y217000D02*
Y227000D01*
X618500Y217000D02*
X619256D01*
X600744Y222000D02*
X606256D01*
X600744Y217000D02*
X601500D01*
X600744D02*
Y227000D01*
X601500D01*
X605500D02*
X606256D01*
Y217000D02*
Y227000D01*
X605500Y217000D02*
X606256D01*
X594244Y222000D02*
X599756D01*
X599000Y227000D02*
X599756D01*
Y217000D02*
Y227000D01*
X599000Y217000D02*
X599756D01*
X594244D02*
X595000D01*
X594244D02*
Y227000D01*
X595000D01*
X587744Y222000D02*
X593256D01*
X587744Y217000D02*
X588500D01*
X587744D02*
Y227000D01*
X588500D01*
X592500D02*
X593256D01*
Y217000D02*
Y227000D01*
X592500Y217000D02*
X593256D01*
X637689Y234405D02*
X638280D01*
X637689Y227516D02*
Y234405D01*
Y227516D02*
X638280D01*
X640642D02*
X641232D01*
Y234405D01*
X640642D02*
X641232D01*
X634590Y234428D02*
Y235019D01*
Y234428D02*
X641480D01*
Y235019D01*
Y237381D02*
Y237972D01*
X634590D02*
X641480D01*
X634590Y237381D02*
Y237972D01*
X600000Y157000D02*
Y157756D01*
X590000D02*
X600000D01*
X590000Y157000D02*
Y157756D01*
Y152244D02*
Y153000D01*
Y152244D02*
X600000D01*
Y153000D01*
X595000Y152244D02*
Y157756D01*
X654244Y208500D02*
X655000D01*
X654244Y198500D02*
Y208500D01*
Y198500D02*
X655000D01*
X659000D02*
X659756D01*
Y208500D01*
X659000D02*
X659756D01*
X654244Y203500D02*
X659756D01*
X647744Y208500D02*
X648500D01*
X647744Y198500D02*
Y208500D01*
Y198500D02*
X648500D01*
X652500D02*
X653256D01*
Y208500D01*
X652500D02*
X653256D01*
X647744Y203500D02*
X653256D01*
X641244Y208500D02*
X642000D01*
X641244Y198500D02*
Y208500D01*
Y198500D02*
X642000D01*
X646000D02*
X646756D01*
Y208500D01*
X646000D02*
X646756D01*
X641244Y203500D02*
X646756D01*
X647575Y147488D02*
X648756D01*
Y158512D01*
X647575D02*
X648756D01*
X643244D02*
X644425D01*
X643244Y147488D02*
Y158512D01*
Y147488D02*
X644425D01*
X643244Y153000D02*
X648756D01*
X650500Y189457D02*
Y196543D01*
X657193Y194969D02*
Y196543D01*
X643807D02*
X657193D01*
X643807Y194969D02*
Y196543D01*
Y189457D02*
Y191032D01*
Y189457D02*
X657193D01*
Y191032D01*
X650500Y177051D02*
Y184138D01*
X657193Y182563D02*
Y184138D01*
X643807D02*
X657193D01*
X643807Y182563D02*
Y184138D01*
Y177051D02*
Y178626D01*
Y177051D02*
X657193D01*
Y178626D01*
X589500Y177000D02*
X590256D01*
Y187000D01*
X589500D02*
X590256D01*
X584744D02*
X585500D01*
X584744Y177000D02*
Y187000D01*
Y177000D02*
X585500D01*
X584744Y182000D02*
X590256D01*
X664000Y217500D02*
X664756D01*
Y227500D01*
X664000D02*
X664756D01*
X659244D02*
X660000D01*
X659244Y217500D02*
Y227500D01*
Y217500D02*
X660000D01*
X659244Y222500D02*
X664756D01*
X657500Y217500D02*
X658256D01*
Y227500D01*
X657500D02*
X658256D01*
X652744D02*
X653500D01*
X652744Y217500D02*
Y227500D01*
Y217500D02*
X653500D01*
X652744Y222500D02*
X658256D01*
X651000Y217500D02*
X651756D01*
Y227500D01*
X651000D02*
X651756D01*
X646244D02*
X647000D01*
X646244Y217500D02*
Y227500D01*
Y217500D02*
X647000D01*
X646244Y222500D02*
X651756D01*
X635000Y180744D02*
Y186256D01*
X640000Y180744D02*
Y181500D01*
X630000Y180744D02*
X640000D01*
X630000D02*
Y181500D01*
Y185500D02*
Y186256D01*
X640000D01*
Y185500D02*
Y186256D01*
X635000Y187244D02*
Y192756D01*
X640000Y187244D02*
Y188000D01*
X630000Y187244D02*
X640000D01*
X630000D02*
Y188000D01*
Y192000D02*
Y192756D01*
X640000D01*
Y192000D02*
Y192756D01*
X635000Y174244D02*
Y179756D01*
X640000Y174244D02*
Y175000D01*
X630000Y174244D02*
X640000D01*
X630000D02*
Y175000D01*
Y179000D02*
Y179756D01*
X640000D01*
Y179000D02*
Y179756D01*
X636650Y165957D02*
Y173043D01*
X643343Y171469D02*
Y173043D01*
X629957D02*
X643343D01*
X629957Y171469D02*
Y173043D01*
Y165957D02*
Y167532D01*
Y165957D02*
X643343D01*
Y167532D01*
X628331Y208500D02*
X629087D01*
X628331Y198500D02*
Y208500D01*
Y198500D02*
X629087D01*
X633087D02*
X633843D01*
Y208500D01*
X633087D02*
X633843D01*
X628331Y203500D02*
X633843D01*
X621744D02*
X627256D01*
X621744Y198500D02*
X622500D01*
X621744D02*
Y208500D01*
X622500D01*
X626500D02*
X627256D01*
Y198500D02*
Y208500D01*
X626500Y198500D02*
X627256D01*
X634728Y203500D02*
X640240D01*
X634728Y198500D02*
X635484D01*
X634728D02*
Y208500D01*
X635484D01*
X639484D02*
X640240D01*
Y198500D02*
Y208500D01*
X639484Y198500D02*
X640240D01*
X601799Y145500D02*
Y146500D01*
X589000Y145500D02*
X601799D01*
X589201D02*
Y147500D01*
X588500D02*
X589201D01*
X588500Y145500D02*
Y147500D01*
Y145500D02*
X589201D01*
X588500Y150500D02*
X589201D01*
X588500Y148500D02*
Y150500D01*
Y148500D02*
X589201D01*
Y150500D01*
X589000D02*
X601799D01*
Y149500D02*
Y150500D01*
X621201Y149500D02*
Y150500D01*
X634000D01*
X633799Y148500D02*
Y150500D01*
Y148500D02*
X634500D01*
Y150500D01*
X633799D02*
X634500D01*
X633799Y145500D02*
X634500D01*
Y147500D01*
X633799D02*
X634500D01*
X633799Y145500D02*
Y147500D01*
X621201Y145500D02*
X634000D01*
X621201D02*
Y146500D01*
X622000Y161244D02*
Y166756D01*
X627000Y161244D02*
Y162000D01*
X617000Y161244D02*
X627000D01*
X617000D02*
Y162000D01*
Y166000D02*
Y166756D01*
X627000D01*
Y166000D02*
Y166756D01*
X599500Y160744D02*
Y166256D01*
X594500Y165500D02*
Y166256D01*
X604500D01*
Y165500D02*
Y166256D01*
Y160744D02*
Y161500D01*
X594500Y160744D02*
X604500D01*
X594500D02*
Y161500D01*
X607000Y152244D02*
Y157756D01*
X602000Y157000D02*
Y157756D01*
X612000D01*
Y157000D02*
Y157756D01*
Y152244D02*
Y153000D01*
X602000Y152244D02*
X612000D01*
X602000D02*
Y153000D01*
X660744Y203500D02*
X666256D01*
X665500Y208500D02*
X666256D01*
Y198500D02*
Y208500D01*
X665500Y198500D02*
X666256D01*
X660744D02*
X661500D01*
X660744D02*
Y208500D01*
X661500D01*
X610500Y160744D02*
Y166256D01*
X615500Y160744D02*
Y161500D01*
X605500Y160744D02*
X615500D01*
X605500D02*
Y161500D01*
Y165500D02*
Y166256D01*
X615500D01*
Y165500D02*
Y166256D01*
X622500Y152244D02*
Y153000D01*
Y152244D02*
X632500D01*
Y153000D01*
Y157000D02*
Y157756D01*
X622500D02*
X632500D01*
X622500Y157000D02*
Y157756D01*
X627500Y152244D02*
Y157756D01*
X667244Y203500D02*
X672756D01*
X667244Y198500D02*
X668000D01*
X667244D02*
Y208500D01*
X668000D01*
X672000D02*
X672756D01*
Y198500D02*
Y208500D01*
X672000Y198500D02*
X672756D01*
X598500Y198244D02*
Y203756D01*
X603500Y198244D02*
Y199000D01*
X593500Y198244D02*
X603500D01*
X593500D02*
Y199000D01*
Y203000D02*
Y203756D01*
X603500D01*
Y203000D02*
Y203756D01*
X615500Y198244D02*
Y203756D01*
X620500Y198244D02*
Y199000D01*
X610500Y198244D02*
X620500D01*
X610500D02*
Y199000D01*
Y203000D02*
Y203756D01*
X620500D01*
Y203000D02*
Y203756D01*
D14*
X633807Y99689D02*
Y142996D01*
X586563D02*
X633807D01*
X586563Y99689D02*
Y142996D01*
Y99689D02*
X633807D01*
X623965D02*
X633807D01*
X623965Y85909D02*
Y99689D01*
X596406Y85909D02*
X623965D01*
X596406D02*
Y99689D01*
X673343Y141378D02*
X681217D01*
Y137441D02*
Y141378D01*
Y93346D02*
Y117756D01*
X645783Y141378D02*
X653657D01*
X645783Y93346D02*
Y141378D01*
X663500Y85472D02*
X681217D01*
Y93346D01*
X645783Y85472D02*
Y93346D01*
Y85472D02*
X663500D01*
D15*
X598800Y228400D02*
X594801D01*
Y230399D01*
X595468Y231066D01*
X596801D01*
X597467Y230399D01*
Y228400D01*
Y229733D02*
X598800Y231066D01*
Y232399D02*
Y233732D01*
Y233065D01*
X594801D01*
X595468Y232399D01*
X594801Y235731D02*
Y238397D01*
X595468D01*
X598134Y235731D01*
X598800D01*
X611700Y228600D02*
X607701D01*
Y230599D01*
X608368Y231266D01*
X609701D01*
X610367Y230599D01*
Y228600D01*
Y229933D02*
X611700Y231266D01*
Y232599D02*
Y233932D01*
Y233265D01*
X607701D01*
X608368Y232599D01*
X607701Y238597D02*
X608368Y237264D01*
X609701Y235931D01*
X611034D01*
X611700Y236597D01*
Y237930D01*
X611034Y238597D01*
X610367D01*
X609701Y237930D01*
Y235931D01*
X624800Y228800D02*
X620801D01*
Y230799D01*
X621468Y231466D01*
X622801D01*
X623467Y230799D01*
Y228800D01*
Y230133D02*
X624800Y231466D01*
Y232799D02*
Y234132D01*
Y233465D01*
X620801D01*
X621468Y232799D01*
X620801Y238797D02*
Y236131D01*
X622801D01*
X622134Y237464D01*
Y238130D01*
X622801Y238797D01*
X624134D01*
X624800Y238130D01*
Y236797D01*
X624134Y236131D01*
X592500Y228400D02*
X588501D01*
Y230399D01*
X589168Y231066D01*
X590501D01*
X591167Y230399D01*
Y228400D01*
Y229733D02*
X592500Y231066D01*
Y232399D02*
Y233732D01*
Y233065D01*
X588501D01*
X589168Y232399D01*
X592500Y238397D02*
Y235731D01*
X589834Y238397D01*
X589168D01*
X588501Y237730D01*
Y236397D01*
X589168Y235731D01*
X605600Y228500D02*
X601601D01*
Y230499D01*
X602268Y231166D01*
X603601D01*
X604267Y230499D01*
Y228500D01*
Y229833D02*
X605600Y231166D01*
Y232499D02*
Y233832D01*
Y233165D01*
X601601D01*
X602268Y232499D01*
X605600Y235831D02*
Y237164D01*
Y236497D01*
X601601D01*
X602268Y235831D01*
X618200Y228500D02*
X614201D01*
Y230499D01*
X614868Y231166D01*
X616201D01*
X616867Y230499D01*
Y228500D01*
Y229833D02*
X618200Y231166D01*
Y232499D02*
Y233832D01*
Y233165D01*
X614201D01*
X614868Y232499D01*
Y235831D02*
X614201Y236497D01*
Y237830D01*
X614868Y238497D01*
X617534D01*
X618200Y237830D01*
Y236497D01*
X617534Y235831D01*
X614868D01*
D16*
X588850Y146500D02*
D03*
X634150Y149500D02*
D03*
D17*
X588807Y149431D02*
D03*
X634193Y146569D02*
D03*
M02*
