G04*
G04 #@! TF.GenerationSoftware,Altium Limited,Altium Designer,19.0.15 (446)*
G04*
G04 Layer_Physical_Order=2*
G04 Layer_Color=16711680*
%FSLAX25Y25*%
%MOIN*%
G70*
G01*
G75*
%ADD14C,0.01000*%
%ADD15C,0.00800*%
%ADD60C,0.07874*%
%ADD61O,0.06496X0.15158*%
%ADD62O,0.15158X0.06496*%
%ADD63O,0.16535X0.06496*%
%ADD64C,0.06693*%
%ADD65R,0.06693X0.06693*%
%ADD66C,0.02756*%
%ADD67C,0.03150*%
G36*
X684020Y137106D02*
X682955Y136294D01*
X682820Y136277D01*
X682307Y136345D01*
Y127795D01*
Y119246D01*
X682820Y119313D01*
X682955Y119296D01*
X684020Y118484D01*
Y103382D01*
X579760D01*
Y243075D01*
X684020D01*
Y137106D01*
D02*
G37*
%LPC*%
G36*
X646000Y213217D02*
X645151Y213049D01*
X644452Y212581D01*
X644426Y212571D01*
X644322Y212472D01*
X644234Y212398D01*
X644148Y212335D01*
X644064Y212284D01*
X643981Y212242D01*
X643899Y212208D01*
X643818Y212183D01*
X643735Y212165D01*
X643650Y212154D01*
X643535Y212149D01*
X643476Y212122D01*
X631524D01*
X631465Y212149D01*
X631350Y212154D01*
X631265Y212165D01*
X631182Y212183D01*
X631101Y212208D01*
X631019Y212242D01*
X630936Y212284D01*
X630852Y212335D01*
X630766Y212398D01*
X630678Y212472D01*
X630574Y212571D01*
X630548Y212581D01*
X629849Y213049D01*
X629000Y213217D01*
X628151Y213049D01*
X627432Y212568D01*
X626951Y211849D01*
X626783Y211000D01*
X626951Y210151D01*
X627432Y209432D01*
X628151Y208951D01*
X629000Y208783D01*
X629849Y208951D01*
X630548Y209419D01*
X630574Y209429D01*
X630678Y209528D01*
X630766Y209602D01*
X630852Y209665D01*
X630936Y209716D01*
X631019Y209758D01*
X631101Y209792D01*
X631182Y209817D01*
X631265Y209835D01*
X631350Y209846D01*
X631465Y209851D01*
X631524Y209878D01*
X643476D01*
X643535Y209851D01*
X643650Y209846D01*
X643735Y209835D01*
X643818Y209817D01*
X643899Y209792D01*
X643981Y209758D01*
X644064Y209716D01*
X644148Y209665D01*
X644234Y209602D01*
X644322Y209528D01*
X644426Y209429D01*
X644452Y209419D01*
X645151Y208951D01*
X646000Y208783D01*
X646849Y208951D01*
X647568Y209432D01*
X648049Y210151D01*
X648217Y211000D01*
X648049Y211849D01*
X647568Y212568D01*
X646849Y213049D01*
X646000Y213217D01*
D02*
G37*
G36*
X670843Y164818D02*
Y161000D01*
X674661D01*
X674577Y161635D01*
X674139Y162692D01*
X673443Y163600D01*
X672535Y164297D01*
X671477Y164735D01*
X670843Y164818D01*
D02*
G37*
G36*
X669843D02*
X669208Y164735D01*
X668151Y164297D01*
X667243Y163600D01*
X666546Y162692D01*
X666108Y161635D01*
X666024Y161000D01*
X669843D01*
Y164818D01*
D02*
G37*
G36*
X664446Y164446D02*
X656554D01*
Y156553D01*
X664446D01*
Y164446D01*
D02*
G37*
G36*
X674661Y160000D02*
X670843D01*
Y156182D01*
X671477Y156265D01*
X672535Y156703D01*
X673443Y157400D01*
X674139Y158308D01*
X674577Y159365D01*
X674661Y160000D01*
D02*
G37*
G36*
X669843D02*
X666024D01*
X666108Y159365D01*
X666546Y158308D01*
X667243Y157400D01*
X668151Y156703D01*
X669208Y156265D01*
X669843Y156182D01*
Y160000D01*
D02*
G37*
G36*
X667831Y143291D02*
X659169D01*
X658165Y143158D01*
X657229Y142771D01*
X656425Y142154D01*
X655808Y141350D01*
X655420Y140414D01*
X655288Y139409D01*
X655420Y138405D01*
X655808Y137469D01*
X656425Y136665D01*
X657229Y136048D01*
X658165Y135660D01*
X659169Y135528D01*
X667831D01*
X668835Y135660D01*
X669771Y136048D01*
X670575Y136665D01*
X671192Y137469D01*
X671580Y138405D01*
X671712Y139409D01*
X671580Y140414D01*
X671192Y141350D01*
X670575Y142154D01*
X669771Y142771D01*
X668835Y143158D01*
X667831Y143291D01*
D02*
G37*
G36*
X629870Y135761D02*
X628686Y135605D01*
X627582Y135148D01*
X626634Y134421D01*
X625907Y133473D01*
X625566Y132650D01*
X625474Y132627D01*
X624424D01*
X624332Y132650D01*
X623991Y133473D01*
X623263Y134421D01*
X622316Y135148D01*
X621212Y135605D01*
X620028Y135761D01*
X618843Y135605D01*
X617739Y135148D01*
X616792Y134421D01*
X616065Y133473D01*
X615607Y132369D01*
X615451Y131185D01*
X615607Y130001D01*
X616065Y128897D01*
X616792Y127949D01*
X617739Y127222D01*
X618843Y126765D01*
X620028Y126609D01*
X621212Y126765D01*
X622316Y127222D01*
X623263Y127949D01*
X623991Y128897D01*
X624332Y129720D01*
X624424Y129743D01*
X625474D01*
X625566Y129720D01*
X625907Y128897D01*
X626634Y127949D01*
X627582Y127222D01*
X628686Y126765D01*
X629870Y126609D01*
X631054Y126765D01*
X632158Y127222D01*
X633106Y127949D01*
X633833Y128897D01*
X634290Y130001D01*
X634446Y131185D01*
X634290Y132369D01*
X633833Y133473D01*
X633106Y134421D01*
X632158Y135148D01*
X631054Y135605D01*
X629870Y135761D01*
D02*
G37*
G36*
X600343D02*
X599158Y135605D01*
X598054Y135148D01*
X597107Y134421D01*
X596379Y133473D01*
X596038Y132650D01*
X595946Y132627D01*
X594896D01*
X594804Y132650D01*
X594463Y133473D01*
X593736Y134421D01*
X592788Y135148D01*
X591684Y135605D01*
X590500Y135761D01*
X589316Y135605D01*
X588212Y135148D01*
X587264Y134421D01*
X586537Y133473D01*
X586080Y132369D01*
X585924Y131185D01*
X586080Y130001D01*
X586537Y128897D01*
X587264Y127949D01*
X588212Y127222D01*
X589316Y126765D01*
X590500Y126609D01*
X591684Y126765D01*
X592788Y127222D01*
X593736Y127949D01*
X594463Y128897D01*
X594804Y129720D01*
X594896Y129743D01*
X595946D01*
X596038Y129720D01*
X596379Y128897D01*
X597107Y127949D01*
X598054Y127222D01*
X599158Y126765D01*
X600343Y126609D01*
X601527Y126765D01*
X602631Y127222D01*
X603578Y127949D01*
X604306Y128897D01*
X604763Y130001D01*
X604919Y131185D01*
X604763Y132369D01*
X604306Y133473D01*
X603578Y134421D01*
X602631Y135148D01*
X601527Y135605D01*
X600343Y135761D01*
D02*
G37*
G36*
X681307Y136345D02*
X680698Y136265D01*
X679665Y135837D01*
X678777Y135156D01*
X678096Y134268D01*
X677668Y133235D01*
X677522Y132126D01*
Y128295D01*
X681307D01*
Y136345D01*
D02*
G37*
G36*
Y127295D02*
X677522D01*
Y123464D01*
X677668Y122355D01*
X678096Y121322D01*
X678777Y120435D01*
X679665Y119754D01*
X680698Y119326D01*
X681307Y119246D01*
Y127295D01*
D02*
G37*
G36*
X668520Y119285D02*
X664000D01*
Y115500D01*
X672739D01*
X672658Y116109D01*
X672230Y117142D01*
X671549Y118030D01*
X670662Y118711D01*
X669629Y119139D01*
X668520Y119285D01*
D02*
G37*
G36*
X663000D02*
X658480D01*
X657371Y119139D01*
X656338Y118711D01*
X655451Y118030D01*
X654770Y117142D01*
X654342Y116109D01*
X654261Y115500D01*
X663000D01*
Y119285D01*
D02*
G37*
G36*
X610685Y116414D02*
Y112000D01*
X615099D01*
X614995Y112789D01*
X614498Y113990D01*
X613706Y115021D01*
X612675Y115813D01*
X611474Y116310D01*
X610685Y116414D01*
D02*
G37*
G36*
X609685D02*
X608896Y116310D01*
X607695Y115813D01*
X606664Y115021D01*
X605873Y113990D01*
X605375Y112789D01*
X605271Y112000D01*
X609685D01*
Y116414D01*
D02*
G37*
G36*
X672739Y114500D02*
X664000D01*
Y110715D01*
X668520D01*
X669593Y110856D01*
X669584Y110964D01*
X669581Y110984D01*
X669035D01*
X669143Y111095D01*
X669239Y111208D01*
X669323Y111321D01*
X669358Y111375D01*
X669342Y111378D01*
X669273Y111368D01*
X669197Y111336D01*
X669403Y111447D01*
X669459Y111551D01*
X669510Y111668D01*
X669549Y111785D01*
X669577Y111904D01*
X669594Y112024D01*
X669600Y112145D01*
X670400D01*
X670406Y112024D01*
X670411Y111989D01*
X670792Y112194D01*
X670718Y112145D01*
X670651Y112081D01*
X670592Y112003D01*
X670541Y111911D01*
X670498Y111804D01*
X670473Y111719D01*
X670490Y111668D01*
X670541Y111551D01*
X670603Y111435D01*
X670677Y111321D01*
X670686Y111308D01*
X671549Y111970D01*
X672230Y112858D01*
X672658Y113891D01*
X672739Y114500D01*
D02*
G37*
G36*
X663000D02*
X654261D01*
X654342Y113891D01*
X654770Y112858D01*
X655451Y111970D01*
X656338Y111289D01*
X657371Y110861D01*
X658480Y110715D01*
X663000D01*
Y114500D01*
D02*
G37*
G36*
X629870Y115487D02*
X628838Y115351D01*
X627877Y114953D01*
X627051Y114319D01*
X626417Y113493D01*
X626019Y112532D01*
X625883Y111500D01*
X626019Y110468D01*
X626417Y109507D01*
X627051Y108681D01*
X627877Y108047D01*
X628838Y107649D01*
X629870Y107513D01*
X630902Y107649D01*
X631863Y108047D01*
X632689Y108681D01*
X633323Y109507D01*
X633721Y110468D01*
X633857Y111500D01*
X633721Y112532D01*
X633323Y113493D01*
X632689Y114319D01*
X631863Y114953D01*
X630902Y115351D01*
X629870Y115487D01*
D02*
G37*
G36*
X590500D02*
X589468Y115351D01*
X588507Y114953D01*
X587681Y114319D01*
X587047Y113493D01*
X586649Y112532D01*
X586513Y111500D01*
X586649Y110468D01*
X587047Y109507D01*
X587681Y108681D01*
X588507Y108047D01*
X589468Y107649D01*
X590500Y107513D01*
X591532Y107649D01*
X592493Y108047D01*
X593319Y108681D01*
X593953Y109507D01*
X594351Y110468D01*
X594487Y111500D01*
X594351Y112532D01*
X593953Y113493D01*
X593319Y114319D01*
X592493Y114953D01*
X591532Y115351D01*
X590500Y115487D01*
D02*
G37*
G36*
X615099Y111000D02*
X610685D01*
Y106586D01*
X611474Y106690D01*
X612675Y107187D01*
X613706Y107979D01*
X614498Y109010D01*
X614995Y110211D01*
X615099Y111000D01*
D02*
G37*
G36*
X609685D02*
X605271D01*
X605375Y110211D01*
X605873Y109010D01*
X606664Y107979D01*
X607695Y107187D01*
X608896Y106690D01*
X609685Y106586D01*
Y111000D01*
D02*
G37*
%LPD*%
G36*
X644875Y209898D02*
X644756Y210012D01*
X644634Y210115D01*
X644509Y210205D01*
X644382Y210283D01*
X644252Y210349D01*
X644119Y210404D01*
X643984Y210446D01*
X643846Y210476D01*
X643705Y210494D01*
X643562Y210500D01*
Y211500D01*
X643705Y211506D01*
X643846Y211524D01*
X643984Y211554D01*
X644119Y211596D01*
X644252Y211651D01*
X644382Y211717D01*
X644509Y211795D01*
X644634Y211885D01*
X644756Y211988D01*
X644875Y212102D01*
Y209898D01*
D02*
G37*
G36*
X630244Y211988D02*
X630366Y211885D01*
X630491Y211795D01*
X630618Y211717D01*
X630748Y211651D01*
X630881Y211596D01*
X631016Y211554D01*
X631154Y211524D01*
X631295Y211506D01*
X631438Y211500D01*
Y210500D01*
X631295Y210494D01*
X631154Y210476D01*
X631016Y210446D01*
X630881Y210404D01*
X630748Y210349D01*
X630618Y210283D01*
X630491Y210205D01*
X630366Y210115D01*
X630244Y210012D01*
X630125Y209898D01*
Y212102D01*
X630244Y211988D01*
D02*
G37*
D14*
X629000Y211000D02*
X646000D01*
D15*
X670000Y110000D02*
Y114020D01*
D60*
X610185Y111500D02*
D03*
X600343Y131185D02*
D03*
X590500D02*
D03*
X620028D02*
D03*
X629870D02*
D03*
D61*
X681807Y127795D02*
D03*
D62*
X663500Y139409D02*
D03*
D63*
Y115000D02*
D03*
D64*
X670343Y160500D02*
D03*
D65*
X660500D02*
D03*
D66*
X634094Y236221D02*
D03*
X675000Y141000D02*
D03*
X592520Y159449D02*
D03*
X670000Y110000D02*
D03*
X660000D02*
D03*
X586614Y234252D02*
D03*
D03*
X582677Y228346D02*
D03*
Y216535D02*
D03*
Y196850D02*
D03*
Y206693D02*
D03*
X680000Y230000D02*
D03*
Y210000D02*
D03*
Y190000D02*
D03*
Y170000D02*
D03*
Y150000D02*
D03*
Y110000D02*
D03*
X670000Y230000D02*
D03*
X675000Y220000D02*
D03*
Y180000D02*
D03*
X670000Y170000D02*
D03*
Y150000D02*
D03*
Y130000D02*
D03*
X675000Y120000D02*
D03*
X660000Y230000D02*
D03*
Y150000D02*
D03*
Y130000D02*
D03*
X650000Y230000D02*
D03*
Y170000D02*
D03*
Y130000D02*
D03*
Y110000D02*
D03*
X645000Y160000D02*
D03*
Y140000D02*
D03*
X640000Y130000D02*
D03*
X645000Y120000D02*
D03*
X640000Y110000D02*
D03*
X635000Y140000D02*
D03*
Y120000D02*
D03*
X620000Y230000D02*
D03*
X625000Y140000D02*
D03*
Y120000D02*
D03*
X620000Y110000D02*
D03*
X610000Y150000D02*
D03*
X615000Y140000D02*
D03*
X610000Y130000D02*
D03*
X615000Y120000D02*
D03*
X605000Y180000D02*
D03*
Y140000D02*
D03*
Y120000D02*
D03*
X600000Y110000D02*
D03*
X590000Y210000D02*
D03*
X595000Y180000D02*
D03*
Y140000D02*
D03*
Y120000D02*
D03*
X588583Y163386D02*
D03*
Y171260D02*
D03*
X624016Y179134D02*
D03*
X618110D02*
D03*
X608268Y185039D02*
D03*
X600394Y181102D02*
D03*
X594488Y206693D02*
D03*
X606299D02*
D03*
X616142D02*
D03*
X681102Y240158D02*
D03*
X677165D02*
D03*
X673228D02*
D03*
X669291D02*
D03*
X665354D02*
D03*
X661417D02*
D03*
D03*
X657480D02*
D03*
X653543D02*
D03*
D03*
X649606D02*
D03*
X645669D02*
D03*
Y236221D02*
D03*
Y232283D02*
D03*
X629921Y228346D02*
D03*
Y232283D02*
D03*
X633858D02*
D03*
X629921Y236221D02*
D03*
Y240158D02*
D03*
X625984D02*
D03*
X622047D02*
D03*
X618110D02*
D03*
X614173D02*
D03*
D03*
X610236D02*
D03*
X606299D02*
D03*
X602362D02*
D03*
X598425D02*
D03*
X590551D02*
D03*
X594488D02*
D03*
X586614D02*
D03*
X582677D02*
D03*
X636500Y219000D02*
D03*
D67*
X670000Y197500D02*
D03*
X646000Y211000D02*
D03*
X629000D02*
D03*
X609941Y229000D02*
D03*
X596941D02*
D03*
X613500Y155000D02*
D03*
X602500Y148000D02*
D03*
X619500D02*
D03*
M02*
