M48
;Layer_Color=9474304
;FILE_FORMAT=2:5
INCH,LZ
;TYPE=PLATED
T01F00S00C0.01575
T03F00S00C0.03346
T04F00S00C0.03937
T05F00S00C0.04724
;TYPE=NON_PLATED
T06F00S00C0.05906
T07F00S00C0.11811
%
T01
X0003937Y0015748
X0019685
X0035433
X0051181
X0070473Y0019685
X0082677Y0019685
X0094488
X0094095Y0043307
X0101969
Y0066929
X0094095
X0079603Y0080489
X0075603
X0071862Y0080461
X0061776Y0082323
X0054724Y0082677
X0047949Y0082854
X0046Y0095
X0055
X0064
X00735
X0086221Y0098425
X0094095
X0101969
Y0106299
X0094095
X0086221
X0063Y0109
X0042
X0037Y0095
X0015354Y0098425
Y0090551
X000748
Y0098425
Y0106299
X0015354
X00045Y0083
Y0075
Y00665
X0013Y00685
Y00745
X0026Y0073
X0022Y0069
X0032Y00685
X004Y0068
X0047504Y0063496
X0054724Y0059055
Y0051181
Y0043307
X0032311Y0044764
X0026Y0047
X0023228Y0122047
X0031102
X0038976
Y0129921
X004685
X0043307Y0133858
X004685Y0137795
X0043307Y0141732
X004685Y0145669
X0038976
X0031102
Y0137795
X0038976
X0031102Y0129921
X0023228
X0043307Y0125984
X0059055
X0062599Y0129921
X0059055Y0133858
X0062599Y0137795
X0070473
X0066929Y0141732
Y0133858
X0070473Y0129921
X0066929Y0125984
X0070473Y0122047
X0078347
Y0114173
X0086221
Y0122047
X007874Y0145669
X0070866
X0062992
T03
X0084561Y0055331
X0094404
T04
X0055Y01405
T05
X000748Y0026528
X0017323
X0037008
X004685
X0027165Y0006843
T06
X000748Y0006843
X004685
T07
X0059055Y0011811
Y0027559
X0098425Y0122047
Y0137795
X0011811
Y0122047
M30
