G04*
G04 #@! TF.GenerationSoftware,Altium Limited,Altium Designer,23.10.1 (27)*
G04*
G04 Layer_Color=32896*
%FSLAX25Y25*%
%MOIN*%
G70*
G04*
G04 #@! TF.SameCoordinates,6BE5E326-444D-4DDB-8984-30915AB2A72B*
G04*
G04*
G04 #@! TF.FilePolarity,Positive*
G04*
G01*
G75*
%ADD14C,0.01000*%
%ADD65C,0.00025*%
D14*
X36252Y35252D02*
Y66748D01*
X2787Y51000D02*
X52000D01*
X2787Y66748D02*
X52000D01*
X2787Y35252D02*
Y66748D01*
Y35252D02*
X52000D01*
Y54937D01*
Y51000D02*
Y66748D01*
X28952Y47186D02*
X34284D01*
Y43188D01*
X31618D01*
X34284D01*
Y39189D01*
X26286D02*
Y44521D01*
X23620Y47186D01*
X20954Y44521D01*
Y39189D01*
Y43188D01*
X26286D01*
X18289Y47186D02*
X15623D01*
X16956D01*
Y39189D01*
X18289D01*
X15623D01*
X11624Y47186D02*
Y39189D01*
X6293D01*
X34284Y54937D02*
Y62934D01*
X30285D01*
X28952Y61602D01*
Y58936D01*
X30285Y57603D01*
X34284D01*
X26286Y54937D02*
Y60269D01*
X23620Y62934D01*
X20954Y60269D01*
Y54937D01*
Y58936D01*
X26286D01*
X12957Y61602D02*
X14290Y62934D01*
X16956D01*
X18289Y61602D01*
Y60269D01*
X16956Y58936D01*
X14290D01*
X12957Y57603D01*
Y56270D01*
X14290Y54937D01*
X16956D01*
X18289Y56270D01*
X4960Y61602D02*
X6293Y62934D01*
X8958D01*
X10291Y61602D01*
Y60269D01*
X8958Y58936D01*
X6293D01*
X4960Y57603D01*
Y56270D01*
X6293Y54937D01*
X8958D01*
X10291Y56270D01*
D65*
X72669Y137688D02*
X72944D01*
X72594Y137663D02*
X73019D01*
X72544Y137638D02*
X73069D01*
X72494Y137613D02*
X73119D01*
X72469Y137588D02*
X73144D01*
X72419Y137563D02*
X73194D01*
X72394Y137538D02*
X73219D01*
X72369Y137513D02*
X73244D01*
X72344Y137488D02*
X73269D01*
X72344Y137463D02*
X73294D01*
X72319Y137438D02*
X73294D01*
X72294Y137413D02*
X73319D01*
X72294Y137388D02*
X73319D01*
X72269Y137363D02*
X73344D01*
X72269Y137338D02*
X73344D01*
X72244Y137313D02*
X73369D01*
X72244Y137288D02*
X73369D01*
X72244Y137263D02*
X73369D01*
X72219Y137238D02*
X73394D01*
X72219Y137213D02*
X73394D01*
X72219Y137188D02*
X73394D01*
X72219Y137163D02*
X73394D01*
X72219Y137138D02*
X73394D01*
X72219Y137113D02*
X73394D01*
X72219Y137088D02*
X73394D01*
X72219Y137063D02*
X73394D01*
X72219Y137038D02*
X73394D01*
X72219Y137013D02*
X73394D01*
X72219Y136988D02*
X73394D01*
X72244Y136963D02*
X73369D01*
X72244Y136938D02*
X73369D01*
X72244Y136913D02*
X73369D01*
X72269Y136888D02*
X73344D01*
X72269Y136863D02*
X73344D01*
X72294Y136838D02*
X73319D01*
X72294Y136813D02*
X73319D01*
X72319Y136788D02*
X73294D01*
X72319Y136763D02*
X73294D01*
X72344Y136738D02*
X73269D01*
X72369Y136713D02*
X73244D01*
X72394Y136688D02*
X73219D01*
X72419Y136663D02*
X73194D01*
X72444Y136638D02*
X73169D01*
X72494Y136613D02*
X73119D01*
X72544Y136588D02*
X73094D01*
X72594Y136563D02*
X73019D01*
X72669Y136538D02*
X72944D01*
X73669Y136238D02*
X73969D01*
X71644D02*
X71944D01*
X73594Y136213D02*
X74044D01*
X71569D02*
X72019D01*
X73544Y136188D02*
X74094D01*
X71519D02*
X72069D01*
X73494Y136163D02*
X74144D01*
X71469D02*
X72119D01*
X73469Y136138D02*
X74194D01*
X71419D02*
X72144D01*
X73444Y136113D02*
X74219D01*
X71394D02*
X72169D01*
X73419Y136088D02*
X74244D01*
X71369D02*
X72194D01*
X73394Y136063D02*
X74269D01*
X71344D02*
X72219D01*
X73369Y136038D02*
X74294D01*
X71319D02*
X72244D01*
X73344Y136013D02*
X74294D01*
X71319D02*
X72269D01*
X73319Y135988D02*
X74319D01*
X71294D02*
X72294D01*
X73319Y135963D02*
X74344D01*
X71269D02*
X72294D01*
X73294Y135938D02*
X74344D01*
X71269D02*
X72319D01*
X73294Y135913D02*
X74369D01*
X71244D02*
X72319D01*
X73269Y135888D02*
X74369D01*
X71244D02*
X72344D01*
X73269Y135863D02*
X74394D01*
X71219D02*
X72344D01*
X73269Y135838D02*
X74394D01*
X71219D02*
X72344D01*
X75644Y135813D02*
X75969D01*
X73244D02*
X74394D01*
X71219D02*
X72369D01*
X69644D02*
X69969D01*
X75594Y135788D02*
X76044D01*
X73244D02*
X74394D01*
X71219D02*
X72369D01*
X69569D02*
X70019D01*
X75544Y135763D02*
X76094D01*
X73244D02*
X74419D01*
X71194D02*
X72369D01*
X69519D02*
X70069D01*
X75494Y135738D02*
X76144D01*
X73244D02*
X74419D01*
X71194D02*
X72369D01*
X69469D02*
X70119D01*
X75444Y135713D02*
X76169D01*
X73244D02*
X74419D01*
X71194D02*
X72369D01*
X69444D02*
X70169D01*
X75419Y135688D02*
X76219D01*
X73244D02*
X74419D01*
X71194D02*
X72369D01*
X69394D02*
X70194D01*
X75394Y135663D02*
X76244D01*
X73244D02*
X74419D01*
X71194D02*
X72369D01*
X69369D02*
X70219D01*
X75369Y135638D02*
X76269D01*
X73244D02*
X74419D01*
X71194D02*
X72369D01*
X69344D02*
X70244D01*
X75344Y135613D02*
X76269D01*
X73244D02*
X74419D01*
X71194D02*
X72369D01*
X69344D02*
X70269D01*
X75344Y135588D02*
X76294D01*
X73244D02*
X74419D01*
X71194D02*
X72369D01*
X69319D02*
X70269D01*
X75319Y135563D02*
X76319D01*
X73244D02*
X74394D01*
X71219D02*
X72369D01*
X69294D02*
X70294D01*
X75294Y135538D02*
X76319D01*
X73244D02*
X74394D01*
X71219D02*
X72369D01*
X69294D02*
X70319D01*
X75294Y135513D02*
X76344D01*
X73244D02*
X74394D01*
X71219D02*
X72369D01*
X69269D02*
X70319D01*
X75269Y135488D02*
X76344D01*
X73269D02*
X74394D01*
X71219D02*
X72344D01*
X69269D02*
X70344D01*
X75269Y135463D02*
X76369D01*
X73269D02*
X74369D01*
X71244D02*
X72344D01*
X69244D02*
X70344D01*
X75269Y135438D02*
X76369D01*
X73269D02*
X74369D01*
X71244D02*
X72344D01*
X69244D02*
X70344D01*
X75244Y135413D02*
X76394D01*
X73294D02*
X74369D01*
X71244D02*
X72319D01*
X69219D02*
X70369D01*
X75244Y135388D02*
X76394D01*
X73294D02*
X74344D01*
X71269D02*
X72319D01*
X69219D02*
X70369D01*
X75244Y135363D02*
X76394D01*
X73319D02*
X74344D01*
X71294D02*
X72294D01*
X69219D02*
X70369D01*
X75244Y135338D02*
X76394D01*
X73344D02*
X74319D01*
X71294D02*
X72269D01*
X69219D02*
X70369D01*
X75219Y135313D02*
X76394D01*
X73344D02*
X74294D01*
X71319D02*
X72269D01*
X69219D02*
X70394D01*
X75219Y135288D02*
X76394D01*
X73369D02*
X74269D01*
X71344D02*
X72244D01*
X69219D02*
X70394D01*
X75219Y135263D02*
X76419D01*
X73394D02*
X74244D01*
X71369D02*
X72219D01*
X69194D02*
X70394D01*
X75219Y135238D02*
X76419D01*
X73419D02*
X74219D01*
X71394D02*
X72194D01*
X69194D02*
X70394D01*
X75219Y135213D02*
X76419D01*
X73444D02*
X74194D01*
X71419D02*
X72169D01*
X69219D02*
X70394D01*
X75219Y135188D02*
X76394D01*
X73469D02*
X74169D01*
X71444D02*
X72144D01*
X69219D02*
X70394D01*
X75219Y135163D02*
X76394D01*
X73519D02*
X74144D01*
X71469D02*
X72094D01*
X69219D02*
X70394D01*
X75244Y135138D02*
X76394D01*
X73569D02*
X74094D01*
X71519D02*
X72044D01*
X69219D02*
X70369D01*
X75244Y135113D02*
X76394D01*
X73619D02*
X74019D01*
X71594D02*
X71994D01*
X69219D02*
X70369D01*
X75244Y135088D02*
X76394D01*
X73694D02*
X73944D01*
X71669D02*
X71919D01*
X69219D02*
X70369D01*
X75244Y135063D02*
X76369D01*
X69244D02*
X70369D01*
X75269Y135038D02*
X76369D01*
X69244D02*
X70344D01*
X75269Y135013D02*
X76369D01*
X69244D02*
X70344D01*
X77519Y134988D02*
X77819D01*
X75294D02*
X76344D01*
X69269D02*
X70319D01*
X67794D02*
X68094D01*
X77444Y134963D02*
X77894D01*
X75294D02*
X76344D01*
X69269D02*
X70319D01*
X67719D02*
X68169D01*
X77394Y134938D02*
X77944D01*
X75319D02*
X76319D01*
X69294D02*
X70294D01*
X67669D02*
X68219D01*
X77344Y134913D02*
X77994D01*
X75319D02*
X76294D01*
X72719D02*
X72894D01*
X69319D02*
X70294D01*
X67619D02*
X68269D01*
X77319Y134888D02*
X78044D01*
X75344D02*
X76294D01*
X72619D02*
X72994D01*
X69319D02*
X70269D01*
X67569D02*
X68294D01*
X77294Y134863D02*
X78069D01*
X75369D02*
X76269D01*
X72544D02*
X73069D01*
X69344D02*
X70244D01*
X67544D02*
X68319D01*
X77269Y134838D02*
X78094D01*
X75394D02*
X76244D01*
X72494D02*
X73119D01*
X69369D02*
X70219D01*
X67519D02*
X68344D01*
X77244Y134813D02*
X78119D01*
X75419D02*
X76219D01*
X72469D02*
X73144D01*
X69394D02*
X70194D01*
X67494D02*
X68369D01*
X77219Y134788D02*
X78144D01*
X75444D02*
X76194D01*
X72444D02*
X73169D01*
X69419D02*
X70169D01*
X67469D02*
X68394D01*
X77194Y134763D02*
X78144D01*
X75469D02*
X76169D01*
X72394D02*
X73219D01*
X69444D02*
X70144D01*
X67469D02*
X68419D01*
X77169Y134738D02*
X78169D01*
X75519D02*
X76119D01*
X74269D02*
X74594D01*
X72369D02*
X73244D01*
X71019D02*
X71344D01*
X69494D02*
X70094D01*
X67444D02*
X68444D01*
X77169Y134713D02*
X78194D01*
X75544D02*
X76069D01*
X74194D02*
X74669D01*
X72344D02*
X73269D01*
X70944D02*
X71419D01*
X69544D02*
X70069D01*
X67419D02*
X68444D01*
X77144Y134688D02*
X78194D01*
X75619D02*
X76019D01*
X74144D02*
X74719D01*
X72344D02*
X73269D01*
X70894D02*
X71469D01*
X69594D02*
X69994D01*
X67419D02*
X68469D01*
X77144Y134663D02*
X78219D01*
X75719D02*
X75919D01*
X74119D02*
X74769D01*
X72319D02*
X73294D01*
X70844D02*
X71494D01*
X69694D02*
X69894D01*
X67394D02*
X68469D01*
X77119Y134638D02*
X78219D01*
X74069D02*
X74794D01*
X72294D02*
X73319D01*
X70819D02*
X71544D01*
X67394D02*
X68494D01*
X77119Y134613D02*
X78244D01*
X74044D02*
X74819D01*
X72294D02*
X73319D01*
X70794D02*
X71569D01*
X67369D02*
X68494D01*
X77119Y134588D02*
X78244D01*
X74019D02*
X74844D01*
X72269D02*
X73344D01*
X70769D02*
X71594D01*
X67369D02*
X68494D01*
X77094Y134563D02*
X78244D01*
X73994D02*
X74869D01*
X72269D02*
X73344D01*
X70744D02*
X71619D01*
X67369D02*
X68519D01*
X77094Y134538D02*
X78244D01*
X73969D02*
X74894D01*
X72244D02*
X73369D01*
X70719D02*
X71644D01*
X67369D02*
X68519D01*
X77094Y134513D02*
X78269D01*
X73944D02*
X74919D01*
X72244D02*
X73369D01*
X70694D02*
X71669D01*
X67344D02*
X68519D01*
X77094Y134488D02*
X78269D01*
X73944D02*
X74944D01*
X72244D02*
X73369D01*
X70669D02*
X71669D01*
X67344D02*
X68519D01*
X77094Y134463D02*
X78269D01*
X73919D02*
X74944D01*
X72219D02*
X73394D01*
X70669D02*
X71694D01*
X67344D02*
X68519D01*
X80594Y134438D02*
X80769D01*
X77094D02*
X78269D01*
X73919D02*
X74969D01*
X72219D02*
X73394D01*
X70644D02*
X71694D01*
X67344D02*
X68519D01*
X64869D02*
X65019D01*
X80494Y134413D02*
X80869D01*
X77094D02*
X78269D01*
X73894D02*
X74969D01*
X72219D02*
X73394D01*
X70644D02*
X71719D01*
X67344D02*
X68519D01*
X64744D02*
X65119D01*
X80419Y134388D02*
X80919D01*
X77094D02*
X78269D01*
X73894D02*
X74994D01*
X72219D02*
X73394D01*
X70619D02*
X71719D01*
X67344D02*
X68519D01*
X64694D02*
X65194D01*
X80369Y134363D02*
X80969D01*
X77094D02*
X78269D01*
X73869D02*
X74994D01*
X72219D02*
X73394D01*
X70619D02*
X71744D01*
X67344D02*
X68519D01*
X64644D02*
X65244D01*
X80344Y134338D02*
X81019D01*
X77094D02*
X78269D01*
X73869D02*
X74994D01*
X72219D02*
X73394D01*
X70619D02*
X71744D01*
X67344D02*
X68519D01*
X64594D02*
X65269D01*
X80294Y134313D02*
X81044D01*
X77094D02*
X78269D01*
X73869D02*
X75019D01*
X72219D02*
X73394D01*
X70594D02*
X71744D01*
X67344D02*
X68519D01*
X64569D02*
X65319D01*
X80269Y134288D02*
X81069D01*
X77094D02*
X78244D01*
X73844D02*
X75019D01*
X72219D02*
X73394D01*
X70594D02*
X71769D01*
X67369D02*
X68519D01*
X64544D02*
X65344D01*
X80244Y134263D02*
X81094D01*
X77094D02*
X78244D01*
X75844D02*
X76169D01*
X73844D02*
X75019D01*
X72219D02*
X73394D01*
X70594D02*
X71769D01*
X69444D02*
X69769D01*
X67369D02*
X68519D01*
X64519D02*
X65369D01*
X80219Y134238D02*
X81119D01*
X77119D02*
X78244D01*
X75769D02*
X76244D01*
X73844D02*
X75019D01*
X72219D02*
X73394D01*
X70594D02*
X71769D01*
X69369D02*
X69844D01*
X67369D02*
X68494D01*
X64494D02*
X65394D01*
X80219Y134213D02*
X81144D01*
X77119D02*
X78244D01*
X75719D02*
X76294D01*
X73844D02*
X75019D01*
X72219D02*
X73394D01*
X70594D02*
X71769D01*
X69319D02*
X69894D01*
X67394D02*
X68494D01*
X64469D02*
X65394D01*
X80194Y134188D02*
X81169D01*
X77119D02*
X78219D01*
X75669D02*
X76319D01*
X73844D02*
X75019D01*
X72244D02*
X73369D01*
X70594D02*
X71769D01*
X69294D02*
X69944D01*
X67394D02*
X68494D01*
X64444D02*
X65419D01*
X80169Y134163D02*
X81169D01*
X77144D02*
X78219D01*
X75644D02*
X76369D01*
X73844D02*
X75019D01*
X72244D02*
X73369D01*
X70594D02*
X71769D01*
X69244D02*
X69969D01*
X67394D02*
X68469D01*
X64444D02*
X65444D01*
X80169Y134138D02*
X81194D01*
X77144D02*
X78194D01*
X75619D02*
X76394D01*
X73844D02*
X75019D01*
X72244D02*
X73369D01*
X70594D02*
X71769D01*
X69219D02*
X69994D01*
X67419D02*
X68469D01*
X64419D02*
X65444D01*
X80144Y134113D02*
X81219D01*
X77169D02*
X78194D01*
X75594D02*
X76419D01*
X73844D02*
X75019D01*
X72269D02*
X73369D01*
X70594D02*
X71769D01*
X69194D02*
X70019D01*
X67419D02*
X68444D01*
X64394D02*
X65469D01*
X80144Y134088D02*
X81219D01*
X77194D02*
X78169D01*
X75569D02*
X76444D01*
X73844D02*
X75019D01*
X72269D02*
X73344D01*
X70594D02*
X71769D01*
X69169D02*
X70044D01*
X67444D02*
X68419D01*
X64394D02*
X65469D01*
X80119Y134063D02*
X81219D01*
X77194D02*
X78144D01*
X75544D02*
X76469D01*
X73844D02*
X75019D01*
X72269D02*
X73344D01*
X70594D02*
X71769D01*
X69144D02*
X70069D01*
X67469D02*
X68419D01*
X64394D02*
X65494D01*
X80119Y134038D02*
X81244D01*
X77219D02*
X78119D01*
X75519D02*
X76494D01*
X73869D02*
X75019D01*
X72294D02*
X73319D01*
X70594D02*
X71744D01*
X69119D02*
X70094D01*
X67494D02*
X68394D01*
X64369D02*
X65494D01*
X80119Y134013D02*
X81244D01*
X77244D02*
X78119D01*
X75494D02*
X76494D01*
X73869D02*
X74994D01*
X72319D02*
X73294D01*
X70619D02*
X71744D01*
X69119D02*
X70119D01*
X67494D02*
X68369D01*
X64369D02*
X65519D01*
X80094Y133988D02*
X81244D01*
X77269D02*
X78094D01*
X75494D02*
X76519D01*
X73869D02*
X74994D01*
X72319D02*
X73294D01*
X70619D02*
X71744D01*
X69094D02*
X70119D01*
X67519D02*
X68344D01*
X64369D02*
X65519D01*
X80094Y133963D02*
X81269D01*
X77294D02*
X78044D01*
X75469D02*
X76519D01*
X73869D02*
X74994D01*
X72344D02*
X73269D01*
X70619D02*
X71744D01*
X69094D02*
X70144D01*
X67569D02*
X68319D01*
X64344D02*
X65519D01*
X80094Y133938D02*
X81269D01*
X77319D02*
X78019D01*
X75469D02*
X76544D01*
X73894D02*
X74969D01*
X72369D02*
X73244D01*
X70644D02*
X71719D01*
X69069D02*
X70144D01*
X67594D02*
X68294D01*
X64344D02*
X65519D01*
X80094Y133913D02*
X81269D01*
X77369D02*
X77994D01*
X75444D02*
X76544D01*
X73894D02*
X74969D01*
X72394D02*
X73219D01*
X70644D02*
X71719D01*
X69069D02*
X70169D01*
X67619D02*
X68244D01*
X64344D02*
X65519D01*
X80094Y133888D02*
X81269D01*
X77419D02*
X77944D01*
X75444D02*
X76569D01*
X73919D02*
X74944D01*
X72419D02*
X73194D01*
X70669D02*
X71694D01*
X69044D02*
X70169D01*
X67669D02*
X68194D01*
X64344D02*
X65519D01*
X80094Y133863D02*
X81269D01*
X77469D02*
X77894D01*
X75444D02*
X76569D01*
X73919D02*
X74944D01*
X72444D02*
X73169D01*
X70669D02*
X71694D01*
X69044D02*
X70169D01*
X67719D02*
X68144D01*
X64344D02*
X65519D01*
X80094Y133838D02*
X81269D01*
X77544D02*
X77794D01*
X75419D02*
X76569D01*
X73944D02*
X74919D01*
X72469D02*
X73144D01*
X70694D02*
X71669D01*
X69044D02*
X70194D01*
X67819D02*
X68069D01*
X64344D02*
X65519D01*
X80094Y133813D02*
X81269D01*
X75419D02*
X76569D01*
X73969D02*
X74919D01*
X72519D02*
X73094D01*
X70694D02*
X71644D01*
X69044D02*
X70194D01*
X64344D02*
X65519D01*
X80094Y133788D02*
X81269D01*
X79169D02*
X79494D01*
X75419D02*
X76594D01*
X73994D02*
X74894D01*
X72569D02*
X73044D01*
X70719D02*
X71619D01*
X69019D02*
X70194D01*
X66119D02*
X66444D01*
X64344D02*
X65519D01*
X80094Y133763D02*
X81269D01*
X79094D02*
X79569D01*
X75419D02*
X76594D01*
X73994D02*
X74869D01*
X72644D02*
X72969D01*
X70744D02*
X71619D01*
X69019D02*
X70194D01*
X66044D02*
X66519D01*
X64344D02*
X65519D01*
X80094Y133738D02*
X81269D01*
X79044D02*
X79619D01*
X75419D02*
X76594D01*
X74019D02*
X74844D01*
X70769D02*
X71594D01*
X69019D02*
X70194D01*
X65994D02*
X66569D01*
X64344D02*
X65519D01*
X80094Y133713D02*
X81244D01*
X78994D02*
X79644D01*
X75419D02*
X76594D01*
X74069D02*
X74819D01*
X70794D02*
X71544D01*
X69019D02*
X70194D01*
X65969D02*
X66619D01*
X64369D02*
X65519D01*
X80119Y133688D02*
X81244D01*
X78969D02*
X79694D01*
X75419D02*
X76594D01*
X74094D02*
X74769D01*
X70844D02*
X71519D01*
X69019D02*
X70194D01*
X65919D02*
X66644D01*
X64369D02*
X65494D01*
X80119Y133663D02*
X81244D01*
X78919D02*
X79719D01*
X75419D02*
X76594D01*
X74119D02*
X74744D01*
X70869D02*
X71494D01*
X69019D02*
X70194D01*
X65894D02*
X66694D01*
X64369D02*
X65494D01*
X80119Y133638D02*
X81219D01*
X78894D02*
X79744D01*
X75419D02*
X76594D01*
X74169D02*
X74694D01*
X70919D02*
X71444D01*
X69019D02*
X70194D01*
X65869D02*
X66719D01*
X64394D02*
X65494D01*
X80144Y133613D02*
X81219D01*
X78869D02*
X79769D01*
X75419D02*
X76594D01*
X74244D02*
X74644D01*
X70969D02*
X71369D01*
X69019D02*
X70194D01*
X65844D02*
X66744D01*
X64394D02*
X65469D01*
X80144Y133588D02*
X81194D01*
X78869D02*
X79794D01*
X75419D02*
X76594D01*
X74319D02*
X74544D01*
X71069D02*
X71294D01*
X69019D02*
X70194D01*
X65819D02*
X66744D01*
X64419D02*
X65469D01*
X80169Y133563D02*
X81194D01*
X78844D02*
X79794D01*
X75419D02*
X76569D01*
X69044D02*
X70194D01*
X65819D02*
X66769D01*
X64419D02*
X65444D01*
X80169Y133538D02*
X81169D01*
X78819D02*
X79819D01*
X75419D02*
X76569D01*
X69044D02*
X70194D01*
X65794D02*
X66794D01*
X64444D02*
X65444D01*
X80194Y133513D02*
X81169D01*
X78819D02*
X79844D01*
X77394D02*
X77494D01*
X75444D02*
X76569D01*
X69044D02*
X70169D01*
X68119D02*
X68219D01*
X65769D02*
X66794D01*
X64444D02*
X65419D01*
X80219Y133488D02*
X81144D01*
X78794D02*
X79844D01*
X77269D02*
X77619D01*
X75444D02*
X76544D01*
X69069D02*
X70169D01*
X67994D02*
X68344D01*
X65769D02*
X66819D01*
X64469D02*
X65394D01*
X80244Y133463D02*
X81119D01*
X78794D02*
X79869D01*
X77194D02*
X77694D01*
X75444D02*
X76544D01*
X69069D02*
X70169D01*
X67919D02*
X68419D01*
X65744D02*
X66819D01*
X64494D02*
X65394D01*
X80244Y133438D02*
X81094D01*
X78769D02*
X79869D01*
X77144D02*
X77744D01*
X75469D02*
X76544D01*
X69069D02*
X70144D01*
X67869D02*
X68469D01*
X65744D02*
X66844D01*
X64519D02*
X65369D01*
X80269Y133413D02*
X81069D01*
X78769D02*
X79894D01*
X77119D02*
X77769D01*
X75469D02*
X76519D01*
X73894D02*
X74119D01*
X71494D02*
X71719D01*
X69094D02*
X70144D01*
X67844D02*
X68494D01*
X65744D02*
X66844D01*
X64544D02*
X65344D01*
X80319Y133388D02*
X81044D01*
X78744D02*
X79894D01*
X77069D02*
X77819D01*
X75494D02*
X76519D01*
X73819D02*
X74219D01*
X71394D02*
X71794D01*
X69119D02*
X70119D01*
X67794D02*
X68544D01*
X65719D02*
X66869D01*
X64569D02*
X65294D01*
X80344Y133363D02*
X81019D01*
X78744D02*
X79894D01*
X77044D02*
X77844D01*
X75519D02*
X76494D01*
X73744D02*
X74269D01*
X71344D02*
X71869D01*
X69119D02*
X70094D01*
X67769D02*
X68569D01*
X65719D02*
X66869D01*
X64594D02*
X65269D01*
X80394Y133338D02*
X80969D01*
X78744D02*
X79894D01*
X77019D02*
X77869D01*
X75519D02*
X76469D01*
X73719D02*
X74319D01*
X71294D02*
X71919D01*
X69144D02*
X70094D01*
X67744D02*
X68594D01*
X65719D02*
X66869D01*
X64644D02*
X65219D01*
X80444Y133313D02*
X80919D01*
X78744D02*
X79919D01*
X76994D02*
X77894D01*
X75544D02*
X76444D01*
X73669D02*
X74369D01*
X71244D02*
X71944D01*
X69169D02*
X70069D01*
X67719D02*
X68619D01*
X65719D02*
X66869D01*
X64694D02*
X65169D01*
X80494Y133288D02*
X80844D01*
X78744D02*
X79919D01*
X76969D02*
X77919D01*
X75569D02*
X76419D01*
X73644D02*
X74394D01*
X71219D02*
X71969D01*
X69194D02*
X70044D01*
X67694D02*
X68644D01*
X65694D02*
X66869D01*
X64769D02*
X65119D01*
X80644Y133263D02*
X80719D01*
X78744D02*
X79919D01*
X76969D02*
X77919D01*
X75594D02*
X76394D01*
X73619D02*
X74419D01*
X71194D02*
X71994D01*
X69219D02*
X70019D01*
X67694D02*
X68644D01*
X65694D02*
X66869D01*
X64894D02*
X64969D01*
X78744Y133238D02*
X79919D01*
X76944D02*
X77944D01*
X75619D02*
X76369D01*
X73594D02*
X74444D01*
X71169D02*
X72019D01*
X69244D02*
X69994D01*
X67669D02*
X68669D01*
X65694D02*
X66894D01*
X78744Y133213D02*
X79919D01*
X76919D02*
X77969D01*
X75669D02*
X76344D01*
X73569D02*
X74469D01*
X71144D02*
X72044D01*
X69269D02*
X69944D01*
X67644D02*
X68694D01*
X65694D02*
X66894D01*
X78744Y133188D02*
X79919D01*
X76919D02*
X77969D01*
X75694D02*
X76294D01*
X73544D02*
X74494D01*
X71119D02*
X72069D01*
X69319D02*
X69919D01*
X67644D02*
X68694D01*
X65694D02*
X66869D01*
X78744Y133163D02*
X79919D01*
X76894D02*
X77994D01*
X75744D02*
X76269D01*
X73519D02*
X74494D01*
X71119D02*
X72094D01*
X69344D02*
X69869D01*
X67619D02*
X68719D01*
X65694D02*
X66869D01*
X78744Y133138D02*
X79919D01*
X76894D02*
X77994D01*
X75794D02*
X76194D01*
X73519D02*
X74519D01*
X71094D02*
X72094D01*
X69419D02*
X69819D01*
X67619D02*
X68719D01*
X65694D02*
X66869D01*
X78744Y133113D02*
X79894D01*
X76894D02*
X77994D01*
X75894D02*
X76119D01*
X73494D02*
X74544D01*
X71069D02*
X72119D01*
X69519D02*
X69719D01*
X67619D02*
X68719D01*
X65719D02*
X66869D01*
X78744Y133088D02*
X79894D01*
X76869D02*
X78019D01*
X73469D02*
X74544D01*
X71069D02*
X72144D01*
X67594D02*
X68744D01*
X65719D02*
X66869D01*
X78744Y133063D02*
X79894D01*
X76869D02*
X78019D01*
X73469D02*
X74569D01*
X71044D02*
X72144D01*
X67594D02*
X68744D01*
X65719D02*
X66869D01*
X78769Y133038D02*
X79894D01*
X76869D02*
X78019D01*
X73469D02*
X74569D01*
X71044D02*
X72144D01*
X67594D02*
X68744D01*
X65719D02*
X66844D01*
X78769Y133013D02*
X79869D01*
X76869D02*
X78019D01*
X73444D02*
X74569D01*
X71044D02*
X72169D01*
X67594D02*
X68744D01*
X65744D02*
X66844D01*
X78769Y132988D02*
X79869D01*
X76844D02*
X78044D01*
X73444D02*
X74594D01*
X71019D02*
X72169D01*
X67569D02*
X68769D01*
X65744D02*
X66844D01*
X78794Y132963D02*
X79844D01*
X76844D02*
X78044D01*
X73444D02*
X74594D01*
X71019D02*
X72169D01*
X67569D02*
X68769D01*
X65769D02*
X66819D01*
X78794Y132938D02*
X79844D01*
X76844D02*
X78044D01*
X73444D02*
X74594D01*
X71019D02*
X72169D01*
X67569D02*
X68769D01*
X65769D02*
X66819D01*
X78819Y132913D02*
X79819D01*
X76844D02*
X78044D01*
X73419D02*
X74594D01*
X71019D02*
X72194D01*
X67569D02*
X68769D01*
X65794D02*
X66794D01*
X78844Y132888D02*
X79819D01*
X76844D02*
X78044D01*
X73419D02*
X74594D01*
X71019D02*
X72194D01*
X67569D02*
X68769D01*
X65794D02*
X66769D01*
X78844Y132863D02*
X79794D01*
X76844D02*
X78044D01*
X73419D02*
X74594D01*
X71019D02*
X72194D01*
X67569D02*
X68769D01*
X65819D02*
X66769D01*
X78869Y132838D02*
X79769D01*
X76869D02*
X78019D01*
X73419D02*
X74594D01*
X71019D02*
X72194D01*
X67594D02*
X68744D01*
X65844D02*
X66744D01*
X78894Y132813D02*
X79744D01*
X76869D02*
X78019D01*
X73419D02*
X74594D01*
X71019D02*
X72194D01*
X67594D02*
X68744D01*
X65869D02*
X66719D01*
X78919Y132788D02*
X79719D01*
X76869D02*
X78019D01*
X73419D02*
X74594D01*
X71019D02*
X72194D01*
X67594D02*
X68744D01*
X65894D02*
X66694D01*
X78944Y132763D02*
X79694D01*
X76869D02*
X78019D01*
X73419D02*
X74594D01*
X71019D02*
X72194D01*
X67594D02*
X68744D01*
X65919D02*
X66669D01*
X78969Y132738D02*
X79669D01*
X76894D02*
X77994D01*
X73419D02*
X74594D01*
X71019D02*
X72194D01*
X67619D02*
X68719D01*
X65944D02*
X66644D01*
X79019Y132713D02*
X79619D01*
X76894D02*
X77994D01*
X73444D02*
X74594D01*
X71019D02*
X72169D01*
X67619D02*
X68719D01*
X65994D02*
X66594D01*
X79069Y132688D02*
X79594D01*
X76894D02*
X77994D01*
X73444D02*
X74594D01*
X71019D02*
X72169D01*
X67619D02*
X68719D01*
X66044D02*
X66544D01*
X79119Y132663D02*
X79519D01*
X76919D02*
X77969D01*
X73444D02*
X74569D01*
X71044D02*
X72169D01*
X67644D02*
X68694D01*
X66094D02*
X66494D01*
X79219Y132638D02*
X79419D01*
X76919D02*
X77969D01*
X73444D02*
X74569D01*
X71044D02*
X72169D01*
X67644D02*
X68694D01*
X66194D02*
X66394D01*
X76944Y132613D02*
X77944D01*
X73469D02*
X74569D01*
X71044D02*
X72144D01*
X67669D02*
X68669D01*
X76969Y132588D02*
X77919D01*
X76169D02*
X76394D01*
X73469D02*
X74544D01*
X71069D02*
X72144D01*
X69219D02*
X69444D01*
X67694D02*
X68669D01*
X76969Y132563D02*
X77919D01*
X76094D02*
X76494D01*
X73494D02*
X74544D01*
X71069D02*
X72119D01*
X69119D02*
X69519D01*
X67694D02*
X68644D01*
X76994Y132538D02*
X77894D01*
X76019D02*
X76544D01*
X73494D02*
X74519D01*
X71094D02*
X72119D01*
X69069D02*
X69594D01*
X67719D02*
X68619D01*
X77019Y132513D02*
X77869D01*
X75969D02*
X76594D01*
X73519D02*
X74519D01*
X71094D02*
X72094D01*
X69019D02*
X69644D01*
X67744D02*
X68594D01*
X77044Y132488D02*
X77844D01*
X75944D02*
X76619D01*
X73544D02*
X74494D01*
X71119D02*
X72069D01*
X68994D02*
X69669D01*
X67769D02*
X68569D01*
X78594Y132463D02*
X78844D01*
X77069D02*
X77819D01*
X75919D02*
X76669D01*
X73544D02*
X74469D01*
X71144D02*
X72069D01*
X68944D02*
X69694D01*
X67794D02*
X68544D01*
X66769D02*
X67019D01*
X78494Y132438D02*
X78919D01*
X77094D02*
X77794D01*
X75869D02*
X76694D01*
X73569D02*
X74444D01*
X71169D02*
X72044D01*
X68919D02*
X69744D01*
X67819D02*
X68519D01*
X66694D02*
X67119D01*
X78444Y132413D02*
X78969D01*
X77144D02*
X77744D01*
X75844D02*
X76719D01*
X73594D02*
X74419D01*
X71194D02*
X72019D01*
X68894D02*
X69769D01*
X67869D02*
X68469D01*
X66644D02*
X67169D01*
X78394Y132388D02*
X79019D01*
X77194D02*
X77694D01*
X75844D02*
X76744D01*
X73619D02*
X74394D01*
X71219D02*
X71994D01*
X68869D02*
X69769D01*
X67919D02*
X68419D01*
X66594D02*
X67219D01*
X78369Y132363D02*
X79069D01*
X77244D02*
X77644D01*
X75819D02*
X76769D01*
X73644D02*
X74369D01*
X71244D02*
X71969D01*
X68844D02*
X69794D01*
X67969D02*
X68369D01*
X66544D02*
X67244D01*
X78319Y132338D02*
X79094D01*
X77369D02*
X77519D01*
X75794D02*
X76769D01*
X73694D02*
X74344D01*
X71269D02*
X71919D01*
X68844D02*
X69819D01*
X68094D02*
X68244D01*
X66519D02*
X67294D01*
X78294Y132313D02*
X79119D01*
X75769D02*
X76794D01*
X73744D02*
X74294D01*
X71319D02*
X71869D01*
X68819D02*
X69844D01*
X66494D02*
X67319D01*
X80569Y132288D02*
X80794D01*
X78269D02*
X79144D01*
X75769D02*
X76794D01*
X73794D02*
X74244D01*
X71369D02*
X71819D01*
X68819D02*
X69844D01*
X66469D02*
X67344D01*
X64819D02*
X65044D01*
X80494Y132263D02*
X80894D01*
X78244D02*
X79169D01*
X75744D02*
X76819D01*
X73869D02*
X74169D01*
X71444D02*
X71744D01*
X68794D02*
X69869D01*
X66444D02*
X67369D01*
X64719D02*
X65119D01*
X80419Y132238D02*
X80944D01*
X78244D02*
X79194D01*
X75744D02*
X76819D01*
X68794D02*
X69869D01*
X66419D02*
X67369D01*
X64669D02*
X65194D01*
X80369Y132213D02*
X80994D01*
X78219D02*
X79194D01*
X75719D02*
X76844D01*
X68769D02*
X69894D01*
X66419D02*
X67394D01*
X64619D02*
X65244D01*
X80344Y132188D02*
X81019D01*
X78194D02*
X79219D01*
X75719D02*
X76844D01*
X68769D02*
X69894D01*
X66394D02*
X67419D01*
X64594D02*
X65269D01*
X80319Y132163D02*
X81069D01*
X78194D02*
X79219D01*
X75719D02*
X76844D01*
X68769D02*
X69894D01*
X66394D02*
X67419D01*
X64544D02*
X65294D01*
X80269Y132138D02*
X81094D01*
X78169D02*
X79244D01*
X75719D02*
X76869D01*
X72794D02*
X72819D01*
X68744D02*
X69894D01*
X66369D02*
X67444D01*
X64519D02*
X65344D01*
X80244Y132113D02*
X81119D01*
X78169D02*
X79244D01*
X75694D02*
X76869D01*
X72644D02*
X72969D01*
X68744D02*
X69919D01*
X66369D02*
X67444D01*
X64494D02*
X65369D01*
X80244Y132088D02*
X81144D01*
X78144D02*
X79269D01*
X75694D02*
X76869D01*
X72569D02*
X73044D01*
X68744D02*
X69919D01*
X66344D02*
X67469D01*
X64469D02*
X65369D01*
X80219Y132063D02*
X81169D01*
X78144D02*
X79269D01*
X75694D02*
X76869D01*
X72519D02*
X73094D01*
X68744D02*
X69919D01*
X66344D02*
X67469D01*
X64444D02*
X65394D01*
X80194Y132038D02*
X81169D01*
X78144D02*
X79269D01*
X75694D02*
X76869D01*
X72469D02*
X73144D01*
X68744D02*
X69919D01*
X66344D02*
X67469D01*
X64444D02*
X65419D01*
X80169Y132013D02*
X81194D01*
X78144D02*
X79294D01*
X75694D02*
X76869D01*
X72444D02*
X73169D01*
X68744D02*
X69919D01*
X66319D02*
X67494D01*
X64419D02*
X65444D01*
X80169Y131988D02*
X81194D01*
X78119D02*
X79294D01*
X75694D02*
X76869D01*
X72419D02*
X73194D01*
X68744D02*
X69919D01*
X66319D02*
X67494D01*
X64419D02*
X65444D01*
X80144Y131963D02*
X81219D01*
X78119D02*
X79294D01*
X75694D02*
X76869D01*
X72394D02*
X73219D01*
X68744D02*
X69919D01*
X66319D02*
X67494D01*
X64394D02*
X65469D01*
X80144Y131938D02*
X81219D01*
X78119D02*
X79294D01*
X75694D02*
X76869D01*
X72369D02*
X73244D01*
X68744D02*
X69919D01*
X66319D02*
X67494D01*
X64394D02*
X65469D01*
X80119Y131913D02*
X81244D01*
X78119D02*
X79294D01*
X75694D02*
X76869D01*
X72344D02*
X73269D01*
X68744D02*
X69919D01*
X66319D02*
X67494D01*
X64369D02*
X65494D01*
X80119Y131888D02*
X81244D01*
X78119D02*
X79294D01*
X75694D02*
X76869D01*
X72319D02*
X73294D01*
X68744D02*
X69919D01*
X66319D02*
X67494D01*
X64369D02*
X65494D01*
X80119Y131863D02*
X81244D01*
X78119D02*
X79294D01*
X75719D02*
X76869D01*
X72319D02*
X73319D01*
X68744D02*
X69894D01*
X66319D02*
X67494D01*
X64369D02*
X65494D01*
X80119Y131838D02*
X81269D01*
X78119D02*
X79294D01*
X75719D02*
X76844D01*
X72294D02*
X73319D01*
X68769D02*
X69894D01*
X66319D02*
X67494D01*
X64344D02*
X65494D01*
X80094Y131813D02*
X81269D01*
X78119D02*
X79294D01*
X75719D02*
X76844D01*
X72269D02*
X73344D01*
X68769D02*
X69894D01*
X66319D02*
X67494D01*
X64344D02*
X65519D01*
X80094Y131788D02*
X81269D01*
X78119D02*
X79294D01*
X75744D02*
X76844D01*
X72269D02*
X73344D01*
X68769D02*
X69869D01*
X66319D02*
X67494D01*
X64344D02*
X65519D01*
X80094Y131763D02*
X81269D01*
X78119D02*
X79294D01*
X75744D02*
X76819D01*
X72244D02*
X73369D01*
X68794D02*
X69869D01*
X66319D02*
X67494D01*
X64344D02*
X65519D01*
X80094Y131738D02*
X81269D01*
X78144D02*
X79294D01*
X75769D02*
X76819D01*
X72244D02*
X73369D01*
X68794D02*
X69844D01*
X66344D02*
X67469D01*
X64344D02*
X65519D01*
X80094Y131713D02*
X81269D01*
X78144D02*
X79269D01*
X75769D02*
X76794D01*
X72244D02*
X73369D01*
X68819D02*
X69844D01*
X66344D02*
X67469D01*
X64344D02*
X65519D01*
X80094Y131688D02*
X81269D01*
X78144D02*
X79269D01*
X75794D02*
X76794D01*
X72244D02*
X73369D01*
X68844D02*
X69819D01*
X66344D02*
X67469D01*
X64344D02*
X65519D01*
X80094Y131663D02*
X81269D01*
X78169D02*
X79269D01*
X75794D02*
X76769D01*
X72219D02*
X73394D01*
X68844D02*
X69819D01*
X66344D02*
X67444D01*
X64344D02*
X65519D01*
X80094Y131638D02*
X81269D01*
X78169D02*
X79244D01*
X75819D02*
X76744D01*
X72219D02*
X73394D01*
X68869D02*
X69794D01*
X66369D02*
X67444D01*
X64344D02*
X65519D01*
X80094Y131613D02*
X81269D01*
X78194D02*
X79244D01*
X75844D02*
X76719D01*
X72219D02*
X73394D01*
X68894D02*
X69769D01*
X66369D02*
X67419D01*
X64344D02*
X65519D01*
X80094Y131588D02*
X81269D01*
X78194D02*
X79219D01*
X75869D02*
X76694D01*
X72219D02*
X73394D01*
X68919D02*
X69744D01*
X66394D02*
X67419D01*
X64344D02*
X65519D01*
X80119Y131563D02*
X81269D01*
X78219D02*
X79194D01*
X75894D02*
X76669D01*
X72219D02*
X73394D01*
X68944D02*
X69719D01*
X66419D02*
X67394D01*
X64344D02*
X65494D01*
X80119Y131538D02*
X81244D01*
X78219D02*
X79194D01*
X75919D02*
X76644D01*
X72219D02*
X73394D01*
X68969D02*
X69694D01*
X66419D02*
X67394D01*
X64369D02*
X65494D01*
X80119Y131513D02*
X81244D01*
X78244D02*
X79169D01*
X75969D02*
X76619D01*
X72219D02*
X73394D01*
X68994D02*
X69644D01*
X66444D02*
X67369D01*
X64369D02*
X65494D01*
X80144Y131488D02*
X81244D01*
X78269D02*
X79144D01*
X75994D02*
X76569D01*
X72219D02*
X73394D01*
X69044D02*
X69619D01*
X66469D02*
X67344D01*
X64369D02*
X65469D01*
X80144Y131463D02*
X81219D01*
X78294D02*
X79119D01*
X76044D02*
X76519D01*
X72219D02*
X73394D01*
X69094D02*
X69569D01*
X66494D02*
X67319D01*
X64394D02*
X65469D01*
X80169Y131438D02*
X81219D01*
X78319D02*
X79094D01*
X76119D02*
X76444D01*
X72219D02*
X73394D01*
X69169D02*
X69494D01*
X66519D02*
X67294D01*
X64394D02*
X65444D01*
X80169Y131413D02*
X81194D01*
X78344D02*
X79069D01*
X72219D02*
X73394D01*
X66544D02*
X67269D01*
X64419D02*
X65444D01*
X80194Y131388D02*
X81194D01*
X78394D02*
X79019D01*
X72244D02*
X73369D01*
X66594D02*
X67219D01*
X64419D02*
X65419D01*
X80194Y131363D02*
X81169D01*
X78419D02*
X78994D01*
X72244D02*
X73369D01*
X66619D02*
X67194D01*
X64444D02*
X65419D01*
X80219Y131338D02*
X81144D01*
X78494D02*
X78944D01*
X72244D02*
X73369D01*
X66669D02*
X67119D01*
X64469D02*
X65394D01*
X80244Y131313D02*
X81119D01*
X78569D02*
X78869D01*
X72269D02*
X73344D01*
X66769D02*
X67044D01*
X64494D02*
X65369D01*
X80269Y131288D02*
X81094D01*
X72269D02*
X73344D01*
X64519D02*
X65344D01*
X80294Y131263D02*
X81069D01*
X72294D02*
X73319D01*
X64544D02*
X65319D01*
X80319Y131238D02*
X81044D01*
X72294D02*
X73319D01*
X64569D02*
X65294D01*
X80369Y131213D02*
X81019D01*
X72319D02*
X73294D01*
X64594D02*
X65244D01*
X80394Y131188D02*
X80969D01*
X79569D02*
X79919D01*
X72344D02*
X73269D01*
X65694D02*
X66044D01*
X64644D02*
X65219D01*
X80444Y131163D02*
X80919D01*
X79519D02*
X79994D01*
X72369D02*
X73244D01*
X65619D02*
X66094D01*
X64694D02*
X65169D01*
X80519Y131138D02*
X80844D01*
X79469D02*
X80044D01*
X72369D02*
X73244D01*
X65569D02*
X66144D01*
X64769D02*
X65094D01*
X79419Y131113D02*
X80069D01*
X72419D02*
X73219D01*
X65544D02*
X66194D01*
X79394Y131088D02*
X80119D01*
X72444D02*
X73169D01*
X65494D02*
X66219D01*
X79344Y131063D02*
X80144D01*
X72469D02*
X73144D01*
X65469D02*
X66269D01*
X79319Y131038D02*
X80169D01*
X78044D02*
X78244D01*
X72519D02*
X73094D01*
X67369D02*
X67569D01*
X65444D02*
X66294D01*
X79294Y131013D02*
X80194D01*
X77944D02*
X78319D01*
X72544D02*
X73069D01*
X67294D02*
X67669D01*
X65419D02*
X66319D01*
X79294Y130988D02*
X80219D01*
X77869D02*
X78394D01*
X72619D02*
X72994D01*
X67219D02*
X67744D01*
X65394D02*
X66319D01*
X79269Y130963D02*
X80219D01*
X77844D02*
X78444D01*
X72719D02*
X72894D01*
X67169D02*
X67769D01*
X65394D02*
X66344D01*
X79244Y130938D02*
X80244D01*
X77794D02*
X78469D01*
X67144D02*
X67819D01*
X65369D02*
X66369D01*
X79244Y130913D02*
X80269D01*
X77769D02*
X78519D01*
X67094D02*
X67844D01*
X65344D02*
X66369D01*
X79219Y130888D02*
X80269D01*
X77744D02*
X78544D01*
X67069D02*
X67869D01*
X65344D02*
X66394D01*
X79219Y130863D02*
X80294D01*
X77719D02*
X78569D01*
X67044D02*
X67894D01*
X65319D02*
X66394D01*
X79194Y130838D02*
X80294D01*
X77694D02*
X78594D01*
X67019D02*
X67919D01*
X65319D02*
X66419D01*
X79194Y130813D02*
X80319D01*
X77669D02*
X78594D01*
X67019D02*
X67944D01*
X65319D02*
X66419D01*
X79169Y130788D02*
X80319D01*
X77644D02*
X78619D01*
X66994D02*
X67969D01*
X65294D02*
X66444D01*
X79169Y130763D02*
X80319D01*
X77619D02*
X78644D01*
X66969D02*
X67994D01*
X65294D02*
X66444D01*
X79169Y130738D02*
X80319D01*
X77619D02*
X78644D01*
X66969D02*
X67994D01*
X65294D02*
X66444D01*
X79169Y130713D02*
X80344D01*
X77594D02*
X78669D01*
X66944D02*
X68019D01*
X65294D02*
X66444D01*
X79169Y130688D02*
X80344D01*
X77594D02*
X78669D01*
X66944D02*
X68019D01*
X65269D02*
X66444D01*
X79169Y130663D02*
X80344D01*
X77594D02*
X78694D01*
X66919D02*
X68044D01*
X65269D02*
X66444D01*
X79144Y130638D02*
X80344D01*
X77569D02*
X78694D01*
X66919D02*
X68044D01*
X65269D02*
X66469D01*
X79144Y130613D02*
X80344D01*
X77569D02*
X78694D01*
X66919D02*
X68044D01*
X65269D02*
X66469D01*
X79169Y130588D02*
X80344D01*
X77569D02*
X78719D01*
X66894D02*
X68044D01*
X65269D02*
X66469D01*
X79169Y130563D02*
X80344D01*
X77544D02*
X78719D01*
X66894D02*
X68069D01*
X65269D02*
X66444D01*
X79169Y130538D02*
X80344D01*
X77544D02*
X78719D01*
X66894D02*
X68069D01*
X65269D02*
X66444D01*
X81544Y130513D02*
X81869D01*
X79169D02*
X80319D01*
X77544D02*
X78719D01*
X66894D02*
X68069D01*
X65294D02*
X66444D01*
X63744D02*
X64069D01*
X81469Y130488D02*
X81944D01*
X79169D02*
X80319D01*
X77544D02*
X78719D01*
X76594D02*
X76894D01*
X68719D02*
X69019D01*
X66894D02*
X68069D01*
X65294D02*
X66444D01*
X63669D02*
X64144D01*
X81419Y130463D02*
X81994D01*
X79169D02*
X80319D01*
X77544D02*
X78719D01*
X76519D02*
X76969D01*
X68644D02*
X69094D01*
X66894D02*
X68069D01*
X65294D02*
X66444D01*
X63619D02*
X64194D01*
X81369Y130438D02*
X82019D01*
X79194D02*
X80319D01*
X77544D02*
X78719D01*
X76469D02*
X77019D01*
X68594D02*
X69144D01*
X66894D02*
X68069D01*
X65294D02*
X66419D01*
X63594D02*
X64244D01*
X81344Y130413D02*
X82069D01*
X79194D02*
X80294D01*
X77544D02*
X78719D01*
X76419D02*
X77069D01*
X68544D02*
X69194D01*
X66894D02*
X68069D01*
X65319D02*
X66419D01*
X63544D02*
X64269D01*
X81319Y130388D02*
X82094D01*
X79194D02*
X80294D01*
X77544D02*
X78719D01*
X76394D02*
X77094D01*
X68519D02*
X69219D01*
X66894D02*
X68069D01*
X65319D02*
X66419D01*
X63519D02*
X64294D01*
X81294Y130363D02*
X82119D01*
X79219D02*
X80269D01*
X77544D02*
X78719D01*
X76344D02*
X77144D01*
X68494D02*
X69269D01*
X66894D02*
X68069D01*
X65344D02*
X66394D01*
X63494D02*
X64319D01*
X81269Y130338D02*
X82144D01*
X79219D02*
X80269D01*
X77544D02*
X78719D01*
X76319D02*
X77169D01*
X68444D02*
X69294D01*
X66894D02*
X68069D01*
X65344D02*
X66394D01*
X63469D02*
X64344D01*
X81244Y130313D02*
X82169D01*
X79244D02*
X80244D01*
X77569D02*
X78719D01*
X76294D02*
X77194D01*
X68419D02*
X69319D01*
X66894D02*
X68044D01*
X65369D02*
X66369D01*
X63444D02*
X64369D01*
X81219Y130288D02*
X82194D01*
X79269D02*
X80244D01*
X77569D02*
X78694D01*
X76269D02*
X77194D01*
X68419D02*
X69344D01*
X66919D02*
X68044D01*
X65369D02*
X66344D01*
X63419D02*
X64394D01*
X81194Y130263D02*
X82194D01*
X79269D02*
X80219D01*
X77569D02*
X78694D01*
X76269D02*
X77219D01*
X68394D02*
X69344D01*
X66919D02*
X68044D01*
X65394D02*
X66344D01*
X63419D02*
X64419D01*
X81194Y130238D02*
X82219D01*
X79294D02*
X80194D01*
X77594D02*
X78694D01*
X76244D02*
X77244D01*
X68369D02*
X69369D01*
X66919D02*
X68019D01*
X65419D02*
X66319D01*
X63394D02*
X64419D01*
X81169Y130213D02*
X82219D01*
X79319D02*
X80169D01*
X77594D02*
X78669D01*
X76219D02*
X77244D01*
X68369D02*
X69394D01*
X66944D02*
X68019D01*
X65444D02*
X66294D01*
X63394D02*
X64444D01*
X81169Y130188D02*
X82244D01*
X79344D02*
X80144D01*
X77619D02*
X78669D01*
X76219D02*
X77269D01*
X68344D02*
X69394D01*
X66944D02*
X67994D01*
X65469D02*
X66269D01*
X63369D02*
X64444D01*
X81144Y130163D02*
X82244D01*
X79369D02*
X80119D01*
X77619D02*
X78644D01*
X76194D02*
X77269D01*
X68344D02*
X69419D01*
X66969D02*
X67994D01*
X65494D02*
X66244D01*
X63369D02*
X64469D01*
X81144Y130138D02*
X82269D01*
X79419D02*
X80094D01*
X77644D02*
X78644D01*
X76194D02*
X77294D01*
X68319D02*
X69419D01*
X66969D02*
X67969D01*
X65519D02*
X66219D01*
X63344D02*
X64469D01*
X81144Y130113D02*
X82269D01*
X79444D02*
X80044D01*
X77644D02*
X78619D01*
X76194D02*
X77294D01*
X68319D02*
X69419D01*
X66994D02*
X67969D01*
X65569D02*
X66169D01*
X63344D02*
X64469D01*
X81119Y130088D02*
X82269D01*
X79494D02*
X79994D01*
X77669D02*
X78594D01*
X76169D02*
X77319D01*
X68294D02*
X69444D01*
X67019D02*
X67944D01*
X65619D02*
X66119D01*
X63344D02*
X64494D01*
X81119Y130063D02*
X82294D01*
X79544D02*
X79944D01*
X77694D02*
X78569D01*
X76169D02*
X77319D01*
X68294D02*
X69444D01*
X67044D02*
X67919D01*
X65669D02*
X66069D01*
X63319D02*
X64494D01*
X81119Y130038D02*
X82294D01*
X79644D02*
X79844D01*
X77719D02*
X78544D01*
X76169D02*
X77319D01*
X68294D02*
X69444D01*
X67069D02*
X67894D01*
X65769D02*
X65969D01*
X63319D02*
X64494D01*
X81119Y130013D02*
X82294D01*
X77744D02*
X78519D01*
X76169D02*
X77319D01*
X68294D02*
X69444D01*
X67094D02*
X67869D01*
X63319D02*
X64494D01*
X81119Y129988D02*
X82294D01*
X77769D02*
X78494D01*
X76144D02*
X77319D01*
X68294D02*
X69469D01*
X67119D02*
X67844D01*
X63319D02*
X64494D01*
X81119Y129963D02*
X82294D01*
X77819D02*
X78469D01*
X76144D02*
X77319D01*
X68294D02*
X69469D01*
X67144D02*
X67794D01*
X63319D02*
X64494D01*
X81119Y129938D02*
X82294D01*
X77844D02*
X78419D01*
X76144D02*
X77344D01*
X68269D02*
X69469D01*
X67194D02*
X67769D01*
X63319D02*
X64494D01*
X81119Y129913D02*
X82294D01*
X77894D02*
X78369D01*
X76144D02*
X77344D01*
X68269D02*
X69469D01*
X67244D02*
X67719D01*
X63319D02*
X64494D01*
X81119Y129888D02*
X82294D01*
X77969D02*
X78294D01*
X76144D02*
X77344D01*
X68294D02*
X69469D01*
X67319D02*
X67644D01*
X63319D02*
X64494D01*
X81119Y129863D02*
X82294D01*
X76144D02*
X77319D01*
X68294D02*
X69469D01*
X63319D02*
X64494D01*
X81119Y129838D02*
X82294D01*
X76144D02*
X77319D01*
X68294D02*
X69469D01*
X63319D02*
X64494D01*
X81119Y129813D02*
X82269D01*
X76169D02*
X77319D01*
X68294D02*
X69444D01*
X63344D02*
X64494D01*
X81144Y129788D02*
X82269D01*
X76169D02*
X77319D01*
X68294D02*
X69444D01*
X63344D02*
X64469D01*
X81144Y129763D02*
X82269D01*
X80444D02*
X80594D01*
X76169D02*
X77319D01*
X68294D02*
X69444D01*
X65019D02*
X65169D01*
X63344D02*
X64469D01*
X81144Y129738D02*
X82269D01*
X80319D02*
X80719D01*
X76169D02*
X77294D01*
X68319D02*
X69444D01*
X64894D02*
X65294D01*
X63344D02*
X64469D01*
X81169Y129713D02*
X82244D01*
X80269D02*
X80769D01*
X76194D02*
X77294D01*
X68319D02*
X69419D01*
X64844D02*
X65344D01*
X63369D02*
X64444D01*
X81169Y129688D02*
X82244D01*
X80219D02*
X80819D01*
X76194D02*
X77294D01*
X68319D02*
X69419D01*
X64794D02*
X65394D01*
X63369D02*
X64444D01*
X81194Y129663D02*
X82219D01*
X80169D02*
X80869D01*
X76219D02*
X77269D01*
X68344D02*
X69394D01*
X64744D02*
X65444D01*
X63394D02*
X64419D01*
X81194Y129638D02*
X82219D01*
X80144D02*
X80894D01*
X76219D02*
X77269D01*
X68344D02*
X69394D01*
X64719D02*
X65469D01*
X63394D02*
X64419D01*
X81219Y129613D02*
X82194D01*
X80119D02*
X80919D01*
X76244D02*
X77244D01*
X68369D02*
X69369D01*
X64694D02*
X65494D01*
X63419D02*
X64394D01*
X81244Y129588D02*
X82169D01*
X80094D02*
X80944D01*
X76244D02*
X77244D01*
X68369D02*
X69369D01*
X64669D02*
X65519D01*
X63444D02*
X64394D01*
X81244Y129563D02*
X82144D01*
X80069D02*
X80969D01*
X76269D02*
X77219D01*
X68394D02*
X69344D01*
X64644D02*
X65544D01*
X63469D02*
X64369D01*
X81269Y129538D02*
X82144D01*
X80044D02*
X80994D01*
X76294D02*
X77194D01*
X68419D02*
X69319D01*
X64619D02*
X65569D01*
X63469D02*
X64344D01*
X81294Y129513D02*
X82119D01*
X80019D02*
X80994D01*
X76319D02*
X77169D01*
X68444D02*
X69294D01*
X64619D02*
X65594D01*
X63494D02*
X64319D01*
X81319Y129488D02*
X82069D01*
X80019D02*
X81019D01*
X76344D02*
X77144D01*
X68469D02*
X69269D01*
X64594D02*
X65594D01*
X63544D02*
X64294D01*
X81369Y129463D02*
X82044D01*
X79994D02*
X81044D01*
X76369D02*
X77119D01*
X68494D02*
X69244D01*
X64569D02*
X65619D01*
X63569D02*
X64244D01*
X81394Y129438D02*
X82019D01*
X79994D02*
X81044D01*
X76394D02*
X77094D01*
X68519D02*
X69219D01*
X64569D02*
X65619D01*
X63594D02*
X64219D01*
X81444Y129413D02*
X81969D01*
X79969D02*
X81069D01*
X76444D02*
X77044D01*
X68569D02*
X69169D01*
X64544D02*
X65644D01*
X63644D02*
X64169D01*
X81494Y129388D02*
X81894D01*
X79969D02*
X81069D01*
X76469D02*
X76994D01*
X68619D02*
X69144D01*
X64544D02*
X65644D01*
X63719D02*
X64119D01*
X81594Y129363D02*
X81819D01*
X79944D02*
X81069D01*
X76544D02*
X76944D01*
X68669D02*
X69069D01*
X64544D02*
X65669D01*
X63794D02*
X64019D01*
X79944Y129338D02*
X81094D01*
X76619D02*
X76844D01*
X68769D02*
X68994D01*
X64519D02*
X65669D01*
X79944Y129313D02*
X81094D01*
X64519D02*
X65669D01*
X79944Y129288D02*
X81094D01*
X64519D02*
X65669D01*
X79944Y129263D02*
X81094D01*
X64519D02*
X65669D01*
X79919Y129238D02*
X81119D01*
X64494D02*
X65694D01*
X79919Y129213D02*
X81119D01*
X64494D02*
X65694D01*
X79919Y129188D02*
X81119D01*
X64494D02*
X65694D01*
X79919Y129163D02*
X81119D01*
X64494D02*
X65694D01*
X79919Y129138D02*
X81119D01*
X64494D02*
X65694D01*
X79919Y129113D02*
X81094D01*
X64519D02*
X65694D01*
X79944Y129088D02*
X81094D01*
X64519D02*
X65669D01*
X79944Y129063D02*
X81094D01*
X64519D02*
X65669D01*
X79944Y129038D02*
X81094D01*
X64519D02*
X65669D01*
X79944Y129013D02*
X81094D01*
X70619D02*
X74369D01*
X64519D02*
X65669D01*
X79969Y128988D02*
X81069D01*
X70619D02*
X74469D01*
X64544D02*
X65644D01*
X79969Y128963D02*
X81069D01*
X70619D02*
X74519D01*
X64544D02*
X65644D01*
X79969Y128938D02*
X81069D01*
X79194D02*
X79494D01*
X70619D02*
X74569D01*
X66119D02*
X66419D01*
X64544D02*
X65644D01*
X79994Y128913D02*
X81044D01*
X79119D02*
X79569D01*
X70619D02*
X74619D01*
X66044D02*
X66494D01*
X64569D02*
X65619D01*
X79994Y128888D02*
X81044D01*
X79069D02*
X79619D01*
X70619D02*
X74644D01*
X65994D02*
X66544D01*
X64569D02*
X65619D01*
X80019Y128863D02*
X81019D01*
X79019D02*
X79669D01*
X70619D02*
X74694D01*
X65944D02*
X66594D01*
X64594D02*
X65594D01*
X80044Y128838D02*
X80994D01*
X78994D02*
X79694D01*
X70619D02*
X74719D01*
X65919D02*
X66619D01*
X64619D02*
X65569D01*
X80044Y128813D02*
X80994D01*
X78969D02*
X79719D01*
X70619D02*
X74744D01*
X65894D02*
X66644D01*
X64619D02*
X65569D01*
X80069Y128788D02*
X80969D01*
X78944D02*
X79744D01*
X70619D02*
X74769D01*
X65869D02*
X66694D01*
X64644D02*
X65544D01*
X80094Y128763D02*
X80944D01*
X78919D02*
X79769D01*
X70619D02*
X74794D01*
X65844D02*
X66694D01*
X64669D02*
X65519D01*
X80119Y128738D02*
X80919D01*
X78894D02*
X79794D01*
X70619D02*
X74819D01*
X65819D02*
X66719D01*
X64694D02*
X65494D01*
X80144Y128713D02*
X80894D01*
X78869D02*
X79819D01*
X70619D02*
X74819D01*
X65794D02*
X66744D01*
X64719D02*
X65469D01*
X80194Y128688D02*
X80844D01*
X78844D02*
X79844D01*
X70619D02*
X74844D01*
X65769D02*
X66769D01*
X64769D02*
X65419D01*
X80219Y128663D02*
X80819D01*
X78844D02*
X79844D01*
X70619D02*
X74869D01*
X65769D02*
X66769D01*
X64794D02*
X65394D01*
X80269Y128638D02*
X80769D01*
X78819D02*
X79869D01*
X70619D02*
X74869D01*
X65744D02*
X66794D01*
X64844D02*
X65344D01*
X80344Y128613D02*
X80694D01*
X78819D02*
X79869D01*
X70619D02*
X74894D01*
X65744D02*
X66794D01*
X64919D02*
X65269D01*
X82219Y128588D02*
X82444D01*
X80494D02*
X80544D01*
X78794D02*
X79894D01*
X70619D02*
X74919D01*
X65719D02*
X66819D01*
X65069D02*
X65119D01*
X63169D02*
X63394D01*
X82119Y128563D02*
X82544D01*
X78794D02*
X79894D01*
X70619D02*
X74919D01*
X65719D02*
X66819D01*
X63069D02*
X63494D01*
X82069Y128538D02*
X82594D01*
X78769D02*
X79919D01*
X70619D02*
X74919D01*
X65694D02*
X66844D01*
X63019D02*
X63544D01*
X82019Y128513D02*
X82644D01*
X78769D02*
X79919D01*
X70619D02*
X74944D01*
X65694D02*
X66844D01*
X62969D02*
X63594D01*
X81994Y128488D02*
X82669D01*
X78769D02*
X79919D01*
X70619D02*
X74944D01*
X65694D02*
X66844D01*
X62944D02*
X63619D01*
X81944Y128463D02*
X82719D01*
X78769D02*
X79919D01*
X70619D02*
X74969D01*
X65694D02*
X66844D01*
X62894D02*
X63669D01*
X81919Y128438D02*
X82744D01*
X78769D02*
X79919D01*
X70619D02*
X74969D01*
X65694D02*
X66869D01*
X62869D02*
X63694D01*
X81894Y128413D02*
X82769D01*
X78744D02*
X79944D01*
X70619D02*
X74969D01*
X65669D02*
X66869D01*
X62844D02*
X63719D01*
X81869Y128388D02*
X82794D01*
X78744D02*
X79944D01*
X70619D02*
X74969D01*
X65669D02*
X66869D01*
X62819D02*
X63744D01*
X81869Y128363D02*
X82794D01*
X78744D02*
X79944D01*
X70619D02*
X74994D01*
X65669D02*
X66869D01*
X62819D02*
X63744D01*
X81844Y128338D02*
X82819D01*
X78744D02*
X79944D01*
X70619D02*
X74994D01*
X65669D02*
X66869D01*
X62794D02*
X63769D01*
X81819Y128313D02*
X82844D01*
X78744D02*
X79944D01*
X70619D02*
X74994D01*
X65669D02*
X66869D01*
X62769D02*
X63794D01*
X81819Y128288D02*
X82844D01*
X78769D02*
X79919D01*
X70619D02*
X74994D01*
X65694D02*
X66869D01*
X62769D02*
X63794D01*
X81794Y128263D02*
X82869D01*
X78769D02*
X79919D01*
X70619D02*
X74994D01*
X65694D02*
X66844D01*
X62744D02*
X63819D01*
X81794Y128238D02*
X82869D01*
X78769D02*
X79919D01*
X70619D02*
X74994D01*
X65694D02*
X66844D01*
X62744D02*
X63819D01*
X81769Y128213D02*
X82894D01*
X78769D02*
X79919D01*
X70619D02*
X74994D01*
X65694D02*
X66844D01*
X62719D02*
X63844D01*
X81769Y128188D02*
X82894D01*
X80869D02*
X81119D01*
X78769D02*
X79919D01*
X70619D02*
X74994D01*
X65694D02*
X66844D01*
X64494D02*
X64744D01*
X62719D02*
X63844D01*
X81769Y128163D02*
X82894D01*
X80769D02*
X81219D01*
X78794D02*
X79894D01*
X70619D02*
X74994D01*
X65719D02*
X66819D01*
X64394D02*
X64844D01*
X62719D02*
X63844D01*
X81744Y128138D02*
X82919D01*
X80719D02*
X81269D01*
X78794D02*
X79894D01*
X70619D02*
X74994D01*
X65719D02*
X66819D01*
X64344D02*
X64894D01*
X62694D02*
X63869D01*
X81744Y128113D02*
X82919D01*
X80669D02*
X81319D01*
X78819D02*
X79869D01*
X70619D02*
X74994D01*
X65744D02*
X66794D01*
X64294D02*
X64944D01*
X62694D02*
X63869D01*
X81744Y128088D02*
X82919D01*
X80644D02*
X81344D01*
X78819D02*
X79869D01*
X70619D02*
X75019D01*
X65744D02*
X66794D01*
X64269D02*
X64969D01*
X62694D02*
X63869D01*
X81744Y128063D02*
X82919D01*
X80619D02*
X81369D01*
X78844D02*
X79844D01*
X74044D02*
X75019D01*
X65769D02*
X66769D01*
X64244D02*
X64994D01*
X62694D02*
X63869D01*
X81744Y128038D02*
X82919D01*
X80594D02*
X81394D01*
X78844D02*
X79844D01*
X74044D02*
X75019D01*
X65769D02*
X66769D01*
X64219D02*
X65019D01*
X62694D02*
X63869D01*
X81744Y128013D02*
X82919D01*
X80569D02*
X81419D01*
X78869D02*
X79819D01*
X74044D02*
X75019D01*
X65794D02*
X66744D01*
X64194D02*
X65044D01*
X62694D02*
X63869D01*
X81744Y127988D02*
X82919D01*
X80544D02*
X81444D01*
X78894D02*
X79794D01*
X74044D02*
X75019D01*
X65819D02*
X66719D01*
X64169D02*
X65069D01*
X62694D02*
X63869D01*
X81744Y127963D02*
X82919D01*
X80519D02*
X81469D01*
X78919D02*
X79769D01*
X74044D02*
X75019D01*
X65844D02*
X66694D01*
X64144D02*
X65094D01*
X62694D02*
X63869D01*
X81744Y127938D02*
X82919D01*
X80494D02*
X81494D01*
X78944D02*
X79744D01*
X74044D02*
X75019D01*
X65869D02*
X66669D01*
X64119D02*
X65119D01*
X62694D02*
X63869D01*
X81744Y127913D02*
X82919D01*
X80494D02*
X81494D01*
X78969D02*
X79719D01*
X74044D02*
X75019D01*
X65894D02*
X66644D01*
X64119D02*
X65119D01*
X62694D02*
X63869D01*
X81744Y127888D02*
X82919D01*
X80469D02*
X81519D01*
X78994D02*
X79694D01*
X74044D02*
X75019D01*
X65919D02*
X66619D01*
X64094D02*
X65144D01*
X62694D02*
X63869D01*
X81769Y127863D02*
X82894D01*
X80469D02*
X81519D01*
X79019D02*
X79669D01*
X74044D02*
X75019D01*
X65944D02*
X66594D01*
X64094D02*
X65144D01*
X62719D02*
X63844D01*
X81769Y127838D02*
X82894D01*
X80444D02*
X81544D01*
X79069D02*
X79619D01*
X74044D02*
X75019D01*
X65994D02*
X66544D01*
X64069D02*
X65169D01*
X62719D02*
X63844D01*
X81769Y127813D02*
X82894D01*
X80444D02*
X81544D01*
X79119D02*
X79569D01*
X74044D02*
X75019D01*
X66044D02*
X66494D01*
X64069D02*
X65169D01*
X62719D02*
X63844D01*
X81794Y127788D02*
X82869D01*
X80419D02*
X81569D01*
X79219D02*
X79469D01*
X74044D02*
X75019D01*
X66144D02*
X66394D01*
X64044D02*
X65194D01*
X62744D02*
X63819D01*
X81794Y127763D02*
X82869D01*
X80419D02*
X81569D01*
X74044D02*
X75019D01*
X64044D02*
X65194D01*
X62744D02*
X63819D01*
X81819Y127738D02*
X82869D01*
X80419D02*
X81569D01*
X74044D02*
X75019D01*
X64044D02*
X65194D01*
X62744D02*
X63819D01*
X81819Y127713D02*
X82844D01*
X80419D02*
X81569D01*
X74044D02*
X75019D01*
X64044D02*
X65194D01*
X62769D02*
X63794D01*
X81844Y127688D02*
X82819D01*
X80419D02*
X81569D01*
X74044D02*
X74994D01*
X64044D02*
X65219D01*
X62794D02*
X63769D01*
X81844Y127663D02*
X82819D01*
X80394D02*
X81594D01*
X74044D02*
X74994D01*
X64019D02*
X65219D01*
X62794D02*
X63769D01*
X81869Y127638D02*
X82794D01*
X80394D02*
X81594D01*
X74044D02*
X74994D01*
X64019D02*
X65219D01*
X62819D02*
X63744D01*
X81894Y127613D02*
X82769D01*
X80394D02*
X81594D01*
X74044D02*
X74994D01*
X64019D02*
X65219D01*
X62844D02*
X63719D01*
X81919Y127588D02*
X82744D01*
X80394D02*
X81594D01*
X74044D02*
X74994D01*
X64019D02*
X65219D01*
X62869D02*
X63694D01*
X81944Y127563D02*
X82719D01*
X80394D02*
X81594D01*
X74044D02*
X74994D01*
X64019D02*
X65219D01*
X62894D02*
X63669D01*
X81969Y127538D02*
X82694D01*
X80419D02*
X81569D01*
X74044D02*
X74994D01*
X64044D02*
X65194D01*
X62919D02*
X63644D01*
X82019Y127513D02*
X82644D01*
X80419D02*
X81569D01*
X74044D02*
X74994D01*
X64044D02*
X65194D01*
X62969D02*
X63594D01*
X82044Y127488D02*
X82619D01*
X80419D02*
X81569D01*
X74044D02*
X74994D01*
X64044D02*
X65194D01*
X62994D02*
X63569D01*
X82094Y127463D02*
X82569D01*
X80419D02*
X81569D01*
X74044D02*
X74994D01*
X64044D02*
X65194D01*
X63044D02*
X63519D01*
X82169Y127438D02*
X82494D01*
X80419D02*
X81569D01*
X74044D02*
X74994D01*
X64044D02*
X65194D01*
X63119D02*
X63444D01*
X80444Y127413D02*
X81544D01*
X74044D02*
X74994D01*
X64069D02*
X65169D01*
X80444Y127388D02*
X81544D01*
X74044D02*
X74994D01*
X64069D02*
X65169D01*
X80469Y127363D02*
X81519D01*
X74044D02*
X74994D01*
X64094D02*
X65144D01*
X80469Y127338D02*
X81519D01*
X74044D02*
X74994D01*
X64094D02*
X65144D01*
X80494Y127313D02*
X81494D01*
X74044D02*
X74994D01*
X64119D02*
X65119D01*
X80494Y127288D02*
X81494D01*
X74044D02*
X74994D01*
X64119D02*
X65119D01*
X80519Y127263D02*
X81469D01*
X74044D02*
X74994D01*
X64144D02*
X65094D01*
X80544Y127238D02*
X81444D01*
X74044D02*
X74994D01*
X64169D02*
X65069D01*
X80569Y127213D02*
X81419D01*
X74044D02*
X74994D01*
X64194D02*
X65044D01*
X80594Y127188D02*
X81394D01*
X74044D02*
X74994D01*
X64219D02*
X65019D01*
X80619Y127163D02*
X81369D01*
X74044D02*
X74994D01*
X64244D02*
X64994D01*
X80644Y127138D02*
X81344D01*
X74044D02*
X74994D01*
X64269D02*
X64969D01*
X80669Y127113D02*
X81319D01*
X74044D02*
X74994D01*
X64294D02*
X64944D01*
X80719Y127088D02*
X81269D01*
X74044D02*
X74994D01*
X64344D02*
X64894D01*
X80769Y127063D02*
X81219D01*
X74044D02*
X74994D01*
X64394D02*
X64844D01*
X80844Y127038D02*
X81144D01*
X74044D02*
X74994D01*
X64494D02*
X64769D01*
X74044Y127013D02*
X74994D01*
X74044Y126988D02*
X74994D01*
X74044Y126963D02*
X74994D01*
X74044Y126938D02*
X74994D01*
X74044Y126913D02*
X74994D01*
X74044Y126888D02*
X74994D01*
X74044Y126863D02*
X74994D01*
X74044Y126838D02*
X74994D01*
X74044Y126813D02*
X74994D01*
X74044Y126788D02*
X74994D01*
X74044Y126763D02*
X74994D01*
X74044Y126738D02*
X74994D01*
X74044Y126713D02*
X74994D01*
X74019Y126688D02*
X74994D01*
X71394Y126663D02*
X74994D01*
X71394Y126638D02*
X74994D01*
X71394Y126613D02*
X74994D01*
X71394Y126588D02*
X74994D01*
X85194Y126563D02*
X85444D01*
X83819D02*
X84069D01*
X82419D02*
X82669D01*
X81019D02*
X81269D01*
X79644D02*
X79894D01*
X78244D02*
X78494D01*
X76844D02*
X77094D01*
X71394D02*
X74994D01*
X68519D02*
X68769D01*
X67119D02*
X67369D01*
X65719D02*
X65969D01*
X64344D02*
X64594D01*
X62944D02*
X63194D01*
X61544D02*
X61794D01*
X60169D02*
X60419D01*
X85119Y126538D02*
X85544D01*
X83719D02*
X84144D01*
X82344D02*
X82744D01*
X80944D02*
X81369D01*
X79544D02*
X79969D01*
X78169D02*
X78569D01*
X76769D02*
X77194D01*
X71394D02*
X74994D01*
X68419D02*
X68844D01*
X67044D02*
X67444D01*
X65644D02*
X66069D01*
X64244D02*
X64669D01*
X62869D02*
X63269D01*
X61469D02*
X61894D01*
X60069D02*
X60494D01*
X85069Y126513D02*
X85594D01*
X83669D02*
X84194D01*
X82269D02*
X82819D01*
X80894D02*
X81419D01*
X79494D02*
X80019D01*
X78094D02*
X78644D01*
X76719D02*
X77244D01*
X71394D02*
X74994D01*
X68369D02*
X68894D01*
X66969D02*
X67519D01*
X65594D02*
X66119D01*
X64194D02*
X64719D01*
X62794D02*
X63344D01*
X61419D02*
X61944D01*
X60019D02*
X60544D01*
X85019Y126488D02*
X85644D01*
X83619D02*
X84244D01*
X82244D02*
X82844D01*
X80844D02*
X81469D01*
X79444D02*
X80069D01*
X78069D02*
X78694D01*
X76669D02*
X77294D01*
X71394D02*
X74994D01*
X68319D02*
X68944D01*
X66944D02*
X67544D01*
X65544D02*
X66169D01*
X64144D02*
X64769D01*
X62769D02*
X63369D01*
X61369D02*
X61994D01*
X59969D02*
X60594D01*
X84969Y126463D02*
X85669D01*
X83594D02*
X84294D01*
X82194D02*
X82894D01*
X80819D02*
X81494D01*
X79419D02*
X80119D01*
X78019D02*
X78719D01*
X76644D02*
X77319D01*
X71394D02*
X74994D01*
X68294D02*
X68969D01*
X66894D02*
X67594D01*
X65494D02*
X66194D01*
X64119D02*
X64819D01*
X62719D02*
X63419D01*
X61319D02*
X62019D01*
X59944D02*
X60644D01*
X84944Y126438D02*
X85719D01*
X83569D02*
X84319D01*
X82169D02*
X82919D01*
X80769D02*
X81544D01*
X79394D02*
X80144D01*
X77994D02*
X78744D01*
X76594D02*
X77369D01*
X71419D02*
X74994D01*
X68244D02*
X69019D01*
X66869D02*
X67619D01*
X65469D02*
X66219D01*
X64069D02*
X64844D01*
X62694D02*
X63444D01*
X61294D02*
X62069D01*
X59894D02*
X60669D01*
X84919Y126413D02*
X85744D01*
X83519D02*
X84344D01*
X82144D02*
X82944D01*
X80744D02*
X81569D01*
X79344D02*
X80169D01*
X77969D02*
X78769D01*
X76569D02*
X77394D01*
X71419D02*
X74994D01*
X68219D02*
X69044D01*
X66844D02*
X67644D01*
X65444D02*
X66269D01*
X64044D02*
X64869D01*
X62669D02*
X63469D01*
X61269D02*
X62094D01*
X59869D02*
X60694D01*
X84894Y126388D02*
X85769D01*
X83494D02*
X84369D01*
X82119D02*
X82969D01*
X80719D02*
X81594D01*
X79319D02*
X80194D01*
X77944D02*
X78794D01*
X76544D02*
X77419D01*
X71419D02*
X74994D01*
X68194D02*
X69069D01*
X66819D02*
X67669D01*
X65419D02*
X66294D01*
X64019D02*
X64894D01*
X62644D02*
X63494D01*
X61244D02*
X62119D01*
X59844D02*
X60719D01*
X84869Y126363D02*
X85794D01*
X83494D02*
X84394D01*
X82094D02*
X82994D01*
X80694D02*
X81619D01*
X79319D02*
X80219D01*
X77919D02*
X78819D01*
X76519D02*
X77444D01*
X71419D02*
X74994D01*
X68169D02*
X69094D01*
X66794D02*
X67694D01*
X65394D02*
X66294D01*
X63994D02*
X64919D01*
X62619D02*
X63519D01*
X61219D02*
X62144D01*
X59819D02*
X60744D01*
X84844Y126338D02*
X85794D01*
X83469D02*
X84419D01*
X82069D02*
X83019D01*
X80669D02*
X81619D01*
X79294D02*
X80244D01*
X77894D02*
X78844D01*
X76494D02*
X77444D01*
X71444D02*
X74994D01*
X68169D02*
X69119D01*
X66769D02*
X67719D01*
X65369D02*
X66319D01*
X63994D02*
X64944D01*
X62594D02*
X63544D01*
X61194D02*
X62144D01*
X59819D02*
X60769D01*
X84844Y126313D02*
X85819D01*
X83444D02*
X84419D01*
X82044D02*
X83044D01*
X80669D02*
X81644D01*
X79269D02*
X80244D01*
X77869D02*
X78869D01*
X76494D02*
X77469D01*
X71444D02*
X74994D01*
X68144D02*
X69119D01*
X66744D02*
X67744D01*
X65369D02*
X66344D01*
X63969D02*
X64944D01*
X62569D02*
X63569D01*
X61194D02*
X62169D01*
X59794D02*
X60769D01*
X84819Y126288D02*
X85844D01*
X83419D02*
X84444D01*
X82044D02*
X83044D01*
X80644D02*
X81669D01*
X79244D02*
X80269D01*
X77869D02*
X78869D01*
X76469D02*
X77494D01*
X71444D02*
X74994D01*
X68119D02*
X69144D01*
X66744D02*
X67744D01*
X65344D02*
X66369D01*
X63944D02*
X64969D01*
X62569D02*
X63569D01*
X61169D02*
X62194D01*
X59769D02*
X60794D01*
X84794Y126263D02*
X85844D01*
X83419D02*
X84469D01*
X82019D02*
X83069D01*
X80644D02*
X81669D01*
X79244D02*
X80294D01*
X77844D02*
X78894D01*
X76469D02*
X77494D01*
X71469D02*
X74994D01*
X68119D02*
X69144D01*
X66719D02*
X67769D01*
X65319D02*
X66369D01*
X63944D02*
X64969D01*
X62544D02*
X63594D01*
X61144D02*
X62194D01*
X59769D02*
X60819D01*
X84794Y126238D02*
X85869D01*
X83394D02*
X84469D01*
X82019D02*
X83069D01*
X80619D02*
X81694D01*
X79219D02*
X80294D01*
X77844D02*
X78894D01*
X76444D02*
X77519D01*
X71469D02*
X74994D01*
X68094D02*
X69169D01*
X66719D02*
X67769D01*
X65319D02*
X66394D01*
X63919D02*
X64994D01*
X62544D02*
X63594D01*
X61144D02*
X62219D01*
X59744D02*
X60819D01*
X84794Y126213D02*
X85869D01*
X83394D02*
X84494D01*
X81994D02*
X83094D01*
X80619D02*
X81694D01*
X79219D02*
X80319D01*
X77819D02*
X78919D01*
X76444D02*
X77519D01*
X71494D02*
X74994D01*
X68094D02*
X69169D01*
X66694D02*
X67794D01*
X65294D02*
X66394D01*
X63919D02*
X64994D01*
X62519D02*
X63619D01*
X61119D02*
X62219D01*
X59744D02*
X60844D01*
X84769Y126188D02*
X85894D01*
X83369D02*
X84494D01*
X81994D02*
X83094D01*
X80594D02*
X81719D01*
X79219D02*
X80319D01*
X77819D02*
X78919D01*
X76419D02*
X77544D01*
X71494D02*
X74994D01*
X68069D02*
X69194D01*
X66694D02*
X67794D01*
X65294D02*
X66394D01*
X63894D02*
X65019D01*
X62519D02*
X63619D01*
X61119D02*
X62244D01*
X59719D02*
X60844D01*
X84769Y126163D02*
X85894D01*
X83369D02*
X84494D01*
X81969D02*
X83119D01*
X80594D02*
X81719D01*
X79194D02*
X80319D01*
X77819D02*
X78944D01*
X76419D02*
X77544D01*
X71519D02*
X74994D01*
X68069D02*
X69194D01*
X66669D02*
X67794D01*
X65294D02*
X66419D01*
X63894D02*
X65019D01*
X62494D02*
X63644D01*
X61119D02*
X62244D01*
X59719D02*
X60844D01*
X84744Y126138D02*
X85894D01*
X83369D02*
X84519D01*
X81969D02*
X83119D01*
X80594D02*
X81719D01*
X79194D02*
X80344D01*
X77794D02*
X78944D01*
X76419D02*
X77544D01*
X71519D02*
X74994D01*
X68069D02*
X69194D01*
X66669D02*
X67819D01*
X65269D02*
X66419D01*
X63894D02*
X65019D01*
X62494D02*
X63644D01*
X61094D02*
X62244D01*
X59719D02*
X60869D01*
X84744Y126113D02*
X85919D01*
X83369D02*
X84519D01*
X81969D02*
X83119D01*
X80569D02*
X81719D01*
X79194D02*
X80344D01*
X77794D02*
X78944D01*
X76394D02*
X77569D01*
X71544D02*
X74994D01*
X68044D02*
X69219D01*
X66669D02*
X67819D01*
X65269D02*
X66419D01*
X63894D02*
X65044D01*
X62494D02*
X63644D01*
X61094D02*
X62244D01*
X59719D02*
X60869D01*
X84744Y126088D02*
X85919D01*
X83344D02*
X84519D01*
X81969D02*
X83119D01*
X80569D02*
X81744D01*
X79169D02*
X80344D01*
X77794D02*
X78944D01*
X76394D02*
X77569D01*
X71569D02*
X74994D01*
X68044D02*
X69219D01*
X66669D02*
X67819D01*
X65269D02*
X66444D01*
X63869D02*
X65044D01*
X62494D02*
X63644D01*
X61094D02*
X62269D01*
X59694D02*
X60869D01*
X84744Y126063D02*
X85919D01*
X83344D02*
X84519D01*
X81969D02*
X83119D01*
X80569D02*
X81744D01*
X79169D02*
X80344D01*
X77794D02*
X78969D01*
X76394D02*
X77569D01*
X71569D02*
X74994D01*
X68044D02*
X69219D01*
X66644D02*
X67819D01*
X65269D02*
X66444D01*
X63869D02*
X65044D01*
X62494D02*
X63644D01*
X61094D02*
X62269D01*
X59694D02*
X60869D01*
X84744Y126038D02*
X85919D01*
X83344D02*
X84519D01*
X81944D02*
X83144D01*
X80569D02*
X81744D01*
X79169D02*
X80344D01*
X77794D02*
X78969D01*
X76394D02*
X77569D01*
X71594D02*
X74994D01*
X68044D02*
X69219D01*
X66644D02*
X67819D01*
X65269D02*
X66444D01*
X63869D02*
X65044D01*
X62469D02*
X63669D01*
X61094D02*
X62269D01*
X59694D02*
X60869D01*
X84744Y126013D02*
X85919D01*
X83344D02*
X84519D01*
X81944D02*
X83144D01*
X80569D02*
X81744D01*
X79169D02*
X80344D01*
X77769D02*
X78969D01*
X76394D02*
X77569D01*
X71619D02*
X74994D01*
X68044D02*
X69219D01*
X66644D02*
X67844D01*
X65269D02*
X66444D01*
X63869D02*
X65044D01*
X62469D02*
X63669D01*
X61094D02*
X62269D01*
X59694D02*
X60869D01*
X84744Y125988D02*
X85919D01*
X83344D02*
X84519D01*
X81944D02*
X83144D01*
X80569D02*
X81744D01*
X79169D02*
X80344D01*
X77769D02*
X78969D01*
X76394D02*
X77569D01*
X71644D02*
X74994D01*
X68044D02*
X69219D01*
X66644D02*
X67844D01*
X65269D02*
X66444D01*
X63869D02*
X65044D01*
X62469D02*
X63669D01*
X61094D02*
X62269D01*
X59694D02*
X60869D01*
X84744Y125963D02*
X85919D01*
X83344D02*
X84519D01*
X81944D02*
X83144D01*
X80569D02*
X81744D01*
X79169D02*
X80344D01*
X77769D02*
X78969D01*
X76394D02*
X77569D01*
X71669D02*
X74994D01*
X68044D02*
X69219D01*
X66644D02*
X67844D01*
X65269D02*
X66444D01*
X63869D02*
X65044D01*
X62469D02*
X63669D01*
X61094D02*
X62269D01*
X59694D02*
X60869D01*
X84744Y125938D02*
X85919D01*
X83344D02*
X84519D01*
X81944D02*
X83144D01*
X80569D02*
X81744D01*
X79169D02*
X80344D01*
X77794D02*
X78969D01*
X76394D02*
X77569D01*
X71694D02*
X74994D01*
X68044D02*
X69219D01*
X66644D02*
X67819D01*
X65269D02*
X66444D01*
X63869D02*
X65044D01*
X62469D02*
X63669D01*
X61094D02*
X62269D01*
X59694D02*
X60869D01*
X84744Y125913D02*
X85919D01*
X83344D02*
X84519D01*
X81969D02*
X83144D01*
X80569D02*
X81744D01*
X79169D02*
X80344D01*
X77794D02*
X78969D01*
X76394D02*
X77569D01*
X71744D02*
X74994D01*
X68044D02*
X69219D01*
X66644D02*
X67819D01*
X65269D02*
X66444D01*
X63869D02*
X65044D01*
X62494D02*
X63644D01*
X61094D02*
X62269D01*
X59694D02*
X60869D01*
X84744Y125888D02*
X85919D01*
X83344D02*
X84519D01*
X81969D02*
X83119D01*
X80569D02*
X81744D01*
X79169D02*
X80344D01*
X77794D02*
X78944D01*
X76394D02*
X77569D01*
X71769D02*
X74994D01*
X68044D02*
X69219D01*
X66669D02*
X67819D01*
X65269D02*
X66444D01*
X63869D02*
X65044D01*
X62494D02*
X63644D01*
X61094D02*
X62269D01*
X59694D02*
X60869D01*
X84744Y125863D02*
X85919D01*
X83369D02*
X84519D01*
X81969D02*
X83119D01*
X80569D02*
X81744D01*
X79194D02*
X80344D01*
X77794D02*
X78944D01*
X76394D02*
X77569D01*
X71819D02*
X74994D01*
X68044D02*
X69219D01*
X66669D02*
X67819D01*
X65269D02*
X66419D01*
X63869D02*
X65044D01*
X62494D02*
X63644D01*
X61094D02*
X62244D01*
X59719D02*
X60869D01*
X84744Y125838D02*
X85894D01*
X83369D02*
X84519D01*
X81969D02*
X83119D01*
X80569D02*
X81719D01*
X79194D02*
X80344D01*
X77794D02*
X78944D01*
X76419D02*
X77544D01*
X71869D02*
X74994D01*
X68069D02*
X69194D01*
X66669D02*
X67819D01*
X65269D02*
X66419D01*
X63894D02*
X65044D01*
X62494D02*
X63644D01*
X61094D02*
X62244D01*
X59719D02*
X60869D01*
X84769Y125813D02*
X85894D01*
X83369D02*
X84494D01*
X81969D02*
X83119D01*
X80594D02*
X81719D01*
X79194D02*
X80319D01*
X77794D02*
X78944D01*
X76419D02*
X77544D01*
X71919D02*
X74994D01*
X68069D02*
X69194D01*
X66669D02*
X67819D01*
X65294D02*
X66419D01*
X63894D02*
X65019D01*
X62494D02*
X63644D01*
X61119D02*
X62244D01*
X59719D02*
X60844D01*
X84769Y125788D02*
X85894D01*
X83369D02*
X84494D01*
X81994D02*
X83094D01*
X80594D02*
X81719D01*
X79194D02*
X80319D01*
X77819D02*
X78919D01*
X76419D02*
X77544D01*
X71969D02*
X74994D01*
X68069D02*
X69194D01*
X66694D02*
X67794D01*
X65294D02*
X66419D01*
X63894D02*
X65019D01*
X62519D02*
X63619D01*
X61119D02*
X62244D01*
X59719D02*
X60844D01*
X84769Y125763D02*
X85869D01*
X83394D02*
X84494D01*
X81994D02*
X83094D01*
X80594D02*
X81694D01*
X79219D02*
X80319D01*
X77819D02*
X78919D01*
X76444D02*
X77519D01*
X72094D02*
X74994D01*
X68094D02*
X69169D01*
X66694D02*
X67794D01*
X65294D02*
X66394D01*
X63919D02*
X65019D01*
X62519D02*
X63619D01*
X61119D02*
X62219D01*
X59744D02*
X60844D01*
X84794Y125738D02*
X85869D01*
X83394D02*
X84469D01*
X82019D02*
X83094D01*
X80619D02*
X81694D01*
X79219D02*
X80294D01*
X77844D02*
X78919D01*
X76444D02*
X77519D01*
X74044D02*
X74994D01*
X68094D02*
X69169D01*
X66694D02*
X67769D01*
X65319D02*
X66394D01*
X63919D02*
X64994D01*
X62519D02*
X63594D01*
X61144D02*
X62219D01*
X59744D02*
X60819D01*
X84794Y125713D02*
X85844D01*
X83419D02*
X84469D01*
X82019D02*
X83069D01*
X80619D02*
X81669D01*
X79244D02*
X80294D01*
X77844D02*
X78894D01*
X76444D02*
X77494D01*
X74044D02*
X74994D01*
X68119D02*
X69169D01*
X66719D02*
X67769D01*
X65319D02*
X66369D01*
X63944D02*
X64994D01*
X62544D02*
X63594D01*
X61144D02*
X62194D01*
X59769D02*
X60819D01*
X84819Y125688D02*
X85844D01*
X83419D02*
X84444D01*
X82044D02*
X83044D01*
X80644D02*
X81669D01*
X79244D02*
X80269D01*
X77869D02*
X78894D01*
X76469D02*
X77494D01*
X74044D02*
X74994D01*
X68119D02*
X69144D01*
X66719D02*
X67744D01*
X65344D02*
X66369D01*
X63944D02*
X64969D01*
X62569D02*
X63569D01*
X61169D02*
X62194D01*
X59769D02*
X60794D01*
X84844Y125663D02*
X85819D01*
X83444D02*
X84444D01*
X82044D02*
X83044D01*
X80669D02*
X81644D01*
X79269D02*
X80269D01*
X77869D02*
X78869D01*
X76494D02*
X77469D01*
X74044D02*
X74994D01*
X68144D02*
X69119D01*
X66744D02*
X67744D01*
X65344D02*
X66344D01*
X63969D02*
X64944D01*
X62569D02*
X63569D01*
X61169D02*
X62169D01*
X59794D02*
X60794D01*
X84844Y125638D02*
X85794D01*
X83469D02*
X84419D01*
X82069D02*
X83019D01*
X80669D02*
X81644D01*
X79294D02*
X80244D01*
X77894D02*
X78844D01*
X76494D02*
X77469D01*
X74044D02*
X74994D01*
X68144D02*
X69119D01*
X66769D02*
X67719D01*
X65369D02*
X66319D01*
X63969D02*
X64944D01*
X62594D02*
X63544D01*
X61194D02*
X62144D01*
X59819D02*
X60769D01*
X84869Y125613D02*
X85794D01*
X83469D02*
X84394D01*
X82094D02*
X82994D01*
X80694D02*
X81619D01*
X79294D02*
X80219D01*
X77919D02*
X78819D01*
X76519D02*
X77444D01*
X74044D02*
X74994D01*
X68169D02*
X69094D01*
X66794D02*
X67694D01*
X65394D02*
X66319D01*
X63994D02*
X64919D01*
X62619D02*
X63519D01*
X61219D02*
X62144D01*
X59819D02*
X60744D01*
X84894Y125588D02*
X85769D01*
X83494D02*
X84369D01*
X82119D02*
X82994D01*
X80719D02*
X81594D01*
X79319D02*
X80194D01*
X77944D02*
X78819D01*
X76544D02*
X77419D01*
X74044D02*
X74994D01*
X68194D02*
X69069D01*
X66794D02*
X67669D01*
X65419D02*
X66294D01*
X64019D02*
X64894D01*
X62619D02*
X63494D01*
X61244D02*
X62119D01*
X59844D02*
X60719D01*
X84919Y125563D02*
X85744D01*
X83519D02*
X84344D01*
X82119D02*
X82969D01*
X80744D02*
X81569D01*
X79344D02*
X80169D01*
X77969D02*
X78794D01*
X76569D02*
X77394D01*
X74044D02*
X74994D01*
X68219D02*
X69044D01*
X66819D02*
X67644D01*
X65444D02*
X66269D01*
X64044D02*
X64869D01*
X62644D02*
X63494D01*
X61269D02*
X62094D01*
X59869D02*
X60694D01*
X84944Y125538D02*
X85719D01*
X83544D02*
X84319D01*
X82169D02*
X82944D01*
X80769D02*
X81544D01*
X79369D02*
X80144D01*
X77994D02*
X78769D01*
X76594D02*
X77369D01*
X74044D02*
X74994D01*
X68244D02*
X69019D01*
X66844D02*
X67619D01*
X65469D02*
X66244D01*
X64069D02*
X64844D01*
X62694D02*
X63444D01*
X61294D02*
X62069D01*
X59894D02*
X60669D01*
X84969Y125513D02*
X85694D01*
X83569D02*
X84294D01*
X82194D02*
X82894D01*
X80794D02*
X81519D01*
X79419D02*
X80119D01*
X78019D02*
X78719D01*
X76619D02*
X77344D01*
X74044D02*
X74994D01*
X68269D02*
X68994D01*
X66894D02*
X67594D01*
X65494D02*
X66194D01*
X64094D02*
X64819D01*
X62719D02*
X63419D01*
X61319D02*
X62044D01*
X59919D02*
X60644D01*
X85019Y125488D02*
X85644D01*
X83619D02*
X84244D01*
X82219D02*
X82869D01*
X80844D02*
X81469D01*
X79444D02*
X80094D01*
X78044D02*
X78694D01*
X76669D02*
X77294D01*
X74044D02*
X74994D01*
X68319D02*
X68944D01*
X66919D02*
X67569D01*
X65519D02*
X66169D01*
X64144D02*
X64769D01*
X62744D02*
X63394D01*
X61369D02*
X61994D01*
X59969D02*
X60594D01*
X85044Y125463D02*
X85594D01*
X83669D02*
X84219D01*
X82269D02*
X82819D01*
X80869D02*
X81444D01*
X79494D02*
X80044D01*
X78094D02*
X78644D01*
X76694D02*
X77269D01*
X74044D02*
X74994D01*
X68344D02*
X68919D01*
X66969D02*
X67519D01*
X65569D02*
X66119D01*
X64194D02*
X64744D01*
X62794D02*
X63344D01*
X61394D02*
X61944D01*
X60019D02*
X60569D01*
X85094Y125438D02*
X85544D01*
X83719D02*
X84169D01*
X82319D02*
X82769D01*
X80919D02*
X81369D01*
X79544D02*
X79994D01*
X78144D02*
X78594D01*
X76744D02*
X77194D01*
X74044D02*
X74994D01*
X68419D02*
X68869D01*
X67019D02*
X67469D01*
X65619D02*
X66069D01*
X64244D02*
X64694D01*
X62844D02*
X63294D01*
X61444D02*
X61894D01*
X60069D02*
X60519D01*
X85169Y125413D02*
X85469D01*
X83794D02*
X84094D01*
X82394D02*
X82694D01*
X80994D02*
X81294D01*
X79619D02*
X79919D01*
X78219D02*
X78519D01*
X76819D02*
X77119D01*
X74044D02*
X74994D01*
X68494D02*
X68794D01*
X67094D02*
X67394D01*
X65694D02*
X65994D01*
X64319D02*
X64619D01*
X62919D02*
X63219D01*
X61519D02*
X61819D01*
X60144D02*
X60444D01*
X74044Y125388D02*
X74994D01*
X74044Y125363D02*
X74994D01*
X74044Y125338D02*
X74994D01*
X74044Y125313D02*
X74994D01*
X74044Y125288D02*
X74994D01*
X74044Y125263D02*
X74994D01*
X74044Y125238D02*
X74994D01*
X52144D02*
X55844D01*
X74044Y125213D02*
X74994D01*
X52119D02*
X55944D01*
X74044Y125188D02*
X74994D01*
X52119D02*
X56019D01*
X36244D02*
X36594D01*
X74044Y125163D02*
X74994D01*
X52119D02*
X56069D01*
X36169D02*
X36594D01*
X74044Y125138D02*
X74994D01*
X52119D02*
X56119D01*
X36094D02*
X36594D01*
X74044Y125113D02*
X74994D01*
X52119D02*
X56169D01*
X36044D02*
X36594D01*
X74044Y125088D02*
X74994D01*
X52119D02*
X56194D01*
X35994D02*
X36594D01*
X74044Y125063D02*
X74994D01*
X52119D02*
X56219D01*
X35969D02*
X36594D01*
X74044Y125038D02*
X74994D01*
X52119D02*
X56244D01*
X35919D02*
X36594D01*
X74044Y125013D02*
X74994D01*
X52119D02*
X56269D01*
X35894D02*
X36594D01*
X74044Y124988D02*
X74994D01*
X52119D02*
X56294D01*
X35869D02*
X36594D01*
X74044Y124963D02*
X74994D01*
X52119D02*
X56319D01*
X35844D02*
X36594D01*
X80894Y124938D02*
X81094D01*
X74044D02*
X74994D01*
X64519D02*
X64719D01*
X52119D02*
X56344D01*
X35819D02*
X36594D01*
X80794Y124913D02*
X81194D01*
X74044D02*
X74994D01*
X64419D02*
X64819D01*
X52119D02*
X56369D01*
X35794D02*
X36594D01*
X80744Y124888D02*
X81244D01*
X74044D02*
X74994D01*
X64369D02*
X64869D01*
X52119D02*
X56369D01*
X35769D02*
X36594D01*
X80694Y124863D02*
X81294D01*
X74044D02*
X74994D01*
X64319D02*
X64919D01*
X52119D02*
X56394D01*
X35744D02*
X36594D01*
X80644Y124838D02*
X81344D01*
X74044D02*
X74994D01*
X64269D02*
X64969D01*
X52119D02*
X56419D01*
X35744D02*
X36594D01*
X80619Y124813D02*
X81369D01*
X74044D02*
X74994D01*
X64244D02*
X64994D01*
X52119D02*
X56419D01*
X35719D02*
X36594D01*
X80594Y124788D02*
X81394D01*
X74044D02*
X74994D01*
X64219D02*
X65019D01*
X52119D02*
X56444D01*
X35694D02*
X36594D01*
X80569Y124763D02*
X81419D01*
X74044D02*
X74994D01*
X64194D02*
X65044D01*
X52119D02*
X56444D01*
X35694D02*
X36594D01*
X80544Y124738D02*
X81444D01*
X74044D02*
X74994D01*
X64169D02*
X65069D01*
X52119D02*
X56469D01*
X35669D02*
X36594D01*
X80519Y124713D02*
X81469D01*
X74044D02*
X74994D01*
X64144D02*
X65094D01*
X52119D02*
X56469D01*
X35669D02*
X36594D01*
X80494Y124688D02*
X81494D01*
X74044D02*
X74994D01*
X64119D02*
X65119D01*
X52119D02*
X56469D01*
X35644D02*
X36594D01*
X80494Y124663D02*
X81494D01*
X74044D02*
X74994D01*
X64119D02*
X65119D01*
X52119D02*
X56494D01*
X35644D02*
X36594D01*
X80469Y124638D02*
X81519D01*
X74044D02*
X74994D01*
X64094D02*
X65144D01*
X52119D02*
X56494D01*
X35644D02*
X36594D01*
X80469Y124613D02*
X81519D01*
X74044D02*
X74994D01*
X64094D02*
X65144D01*
X52119D02*
X56494D01*
X35619D02*
X36594D01*
X80444Y124588D02*
X81544D01*
X74044D02*
X74994D01*
X64069D02*
X65169D01*
X52119D02*
X56494D01*
X35619D02*
X36594D01*
X80444Y124563D02*
X81544D01*
X74044D02*
X74994D01*
X64069D02*
X65169D01*
X52119D02*
X56519D01*
X35619D02*
X36594D01*
X82194Y124538D02*
X82469D01*
X80419D02*
X81544D01*
X74044D02*
X74994D01*
X64069D02*
X65194D01*
X63144D02*
X63419D01*
X52119D02*
X56519D01*
X35619D02*
X36594D01*
X82119Y124513D02*
X82544D01*
X80419D02*
X81569D01*
X74044D02*
X74994D01*
X64044D02*
X65194D01*
X63069D02*
X63494D01*
X52119D02*
X56519D01*
X35594D02*
X36594D01*
X82069Y124488D02*
X82594D01*
X80419D02*
X81569D01*
X74044D02*
X74994D01*
X64044D02*
X65194D01*
X63019D02*
X63544D01*
X52119D02*
X56519D01*
X35594D02*
X36594D01*
X82019Y124463D02*
X82644D01*
X80419D02*
X81569D01*
X74044D02*
X74994D01*
X64044D02*
X65194D01*
X62969D02*
X63594D01*
X52119D02*
X56519D01*
X35594D02*
X36594D01*
X81994Y124438D02*
X82669D01*
X80419D02*
X81569D01*
X74044D02*
X74994D01*
X64044D02*
X65194D01*
X62944D02*
X63619D01*
X52119D02*
X56519D01*
X35594D02*
X36594D01*
X81944Y124413D02*
X82719D01*
X80394D02*
X81594D01*
X74044D02*
X74994D01*
X64019D02*
X65219D01*
X62894D02*
X63669D01*
X52119D02*
X56519D01*
X35594D02*
X36594D01*
X81919Y124388D02*
X82744D01*
X80394D02*
X81594D01*
X74044D02*
X74994D01*
X64019D02*
X65219D01*
X62869D02*
X63694D01*
X52119D02*
X56519D01*
X35594D02*
X36594D01*
X81894Y124363D02*
X82769D01*
X80394D02*
X81594D01*
X74044D02*
X74994D01*
X64019D02*
X65219D01*
X62844D02*
X63719D01*
X52119D02*
X56519D01*
X35594D02*
X36594D01*
X81869Y124338D02*
X82794D01*
X80394D02*
X81594D01*
X74044D02*
X74994D01*
X64019D02*
X65219D01*
X62819D02*
X63744D01*
X52119D02*
X56519D01*
X35594D02*
X36594D01*
X81869Y124313D02*
X82819D01*
X80394D02*
X81594D01*
X74044D02*
X74994D01*
X64019D02*
X65219D01*
X62819D02*
X63744D01*
X52119D02*
X56519D01*
X35594D02*
X36594D01*
X81844Y124288D02*
X82819D01*
X80394D02*
X81569D01*
X74044D02*
X74994D01*
X64044D02*
X65219D01*
X62794D02*
X63769D01*
X55544D02*
X56519D01*
X35594D02*
X36594D01*
X81819Y124263D02*
X82844D01*
X80419D02*
X81569D01*
X74044D02*
X74994D01*
X64044D02*
X65194D01*
X62769D02*
X63794D01*
X55544D02*
X56519D01*
X35594D02*
X36594D01*
X81819Y124238D02*
X82844D01*
X80419D02*
X81569D01*
X74044D02*
X74994D01*
X64044D02*
X65194D01*
X62769D02*
X63794D01*
X55544D02*
X56519D01*
X81794Y124213D02*
X82869D01*
X80419D02*
X81569D01*
X74044D02*
X74994D01*
X64044D02*
X65194D01*
X62744D02*
X63819D01*
X55544D02*
X56519D01*
X81794Y124188D02*
X82869D01*
X80419D02*
X81569D01*
X79244D02*
X79444D01*
X74044D02*
X74994D01*
X66169D02*
X66369D01*
X64044D02*
X65194D01*
X62744D02*
X63819D01*
X55544D02*
X56519D01*
X81769Y124163D02*
X82894D01*
X80444D02*
X81544D01*
X79144D02*
X79544D01*
X74044D02*
X74994D01*
X66069D02*
X66469D01*
X64069D02*
X65169D01*
X62719D02*
X63844D01*
X55544D02*
X56519D01*
X81769Y124138D02*
X82894D01*
X80444D02*
X81544D01*
X79094D02*
X79594D01*
X74044D02*
X74994D01*
X66019D02*
X66519D01*
X64069D02*
X65169D01*
X62719D02*
X63844D01*
X55544D02*
X56519D01*
X81769Y124113D02*
X82894D01*
X80444D02*
X81544D01*
X79044D02*
X79644D01*
X74044D02*
X74994D01*
X65969D02*
X66569D01*
X64069D02*
X65169D01*
X62719D02*
X63844D01*
X55544D02*
X56519D01*
X81744Y124088D02*
X82919D01*
X80469D02*
X81519D01*
X78994D02*
X79694D01*
X74044D02*
X74994D01*
X65919D02*
X66619D01*
X64094D02*
X65144D01*
X62694D02*
X63869D01*
X55544D02*
X56519D01*
X81744Y124063D02*
X82919D01*
X80469D02*
X81494D01*
X78969D02*
X79719D01*
X74044D02*
X74994D01*
X65894D02*
X66644D01*
X64119D02*
X65144D01*
X62694D02*
X63869D01*
X55544D02*
X56519D01*
X81744Y124038D02*
X82919D01*
X80494D02*
X81494D01*
X78944D02*
X79744D01*
X74044D02*
X74994D01*
X65869D02*
X66669D01*
X64119D02*
X65119D01*
X62694D02*
X63869D01*
X55544D02*
X56519D01*
X81744Y124013D02*
X82919D01*
X80519D02*
X81469D01*
X78919D02*
X79769D01*
X74044D02*
X74994D01*
X65844D02*
X66694D01*
X64144D02*
X65094D01*
X62694D02*
X63869D01*
X55544D02*
X56519D01*
X81744Y123988D02*
X82919D01*
X80544D02*
X81444D01*
X78894D02*
X79794D01*
X74044D02*
X74994D01*
X65819D02*
X66719D01*
X64169D02*
X65094D01*
X62694D02*
X63869D01*
X55544D02*
X56519D01*
X81744Y123963D02*
X82919D01*
X80544D02*
X81444D01*
X78869D02*
X79819D01*
X74044D02*
X74994D01*
X65794D02*
X66744D01*
X64169D02*
X65069D01*
X62694D02*
X63869D01*
X55544D02*
X56519D01*
X81744Y123938D02*
X82919D01*
X80569D02*
X81419D01*
X78844D02*
X79844D01*
X74044D02*
X74994D01*
X65769D02*
X66769D01*
X64194D02*
X65044D01*
X62694D02*
X63869D01*
X55544D02*
X56519D01*
X81744Y123913D02*
X82919D01*
X80594D02*
X81394D01*
X78844D02*
X79844D01*
X74044D02*
X74994D01*
X65769D02*
X66769D01*
X64219D02*
X65019D01*
X62694D02*
X63869D01*
X55544D02*
X56519D01*
X81744Y123888D02*
X82919D01*
X80644D02*
X81344D01*
X78819D02*
X79869D01*
X74044D02*
X74994D01*
X65744D02*
X66794D01*
X64269D02*
X64969D01*
X62694D02*
X63869D01*
X55544D02*
X56519D01*
X81744Y123863D02*
X82919D01*
X80669D02*
X81319D01*
X78819D02*
X79869D01*
X74044D02*
X74994D01*
X65744D02*
X66794D01*
X64294D02*
X64944D01*
X62694D02*
X63869D01*
X55544D02*
X56519D01*
X49719D02*
X50044D01*
X44644D02*
X45219D01*
X81744Y123838D02*
X82919D01*
X80719D02*
X81269D01*
X78794D02*
X79894D01*
X74044D02*
X74994D01*
X65719D02*
X66819D01*
X64344D02*
X64894D01*
X62694D02*
X63869D01*
X55544D02*
X56519D01*
X49519D02*
X50244D01*
X44644D02*
X45419D01*
X41794D02*
X42319D01*
X38844D02*
X39369D01*
X36244D02*
X36594D01*
X33894D02*
X34969D01*
X30944D02*
X31294D01*
X28119D02*
X28644D01*
X25169D02*
X25694D01*
X81769Y123813D02*
X82894D01*
X80769D02*
X81219D01*
X78794D02*
X79894D01*
X74044D02*
X74994D01*
X65719D02*
X66819D01*
X64394D02*
X64844D01*
X62719D02*
X63844D01*
X55544D02*
X56519D01*
X49394D02*
X50369D01*
X44644D02*
X45569D01*
X41644D02*
X42469D01*
X38694D02*
X39519D01*
X36144D02*
X36594D01*
X33894D02*
X34969D01*
X30944D02*
X31394D01*
X27969D02*
X28794D01*
X25019D02*
X25844D01*
X81769Y123788D02*
X82894D01*
X80844D02*
X81144D01*
X78769D02*
X79894D01*
X74044D02*
X74994D01*
X65719D02*
X66844D01*
X64469D02*
X64769D01*
X62719D02*
X63844D01*
X55544D02*
X56519D01*
X49294D02*
X50469D01*
X44644D02*
X45669D01*
X41519D02*
X42569D01*
X38594D02*
X39619D01*
X36094D02*
X36594D01*
X33894D02*
X34969D01*
X30944D02*
X31469D01*
X27869D02*
X28894D01*
X24919D02*
X25969D01*
X81769Y123763D02*
X82894D01*
X78769D02*
X79919D01*
X74044D02*
X74994D01*
X65694D02*
X66844D01*
X62719D02*
X63844D01*
X55544D02*
X56519D01*
X49219D02*
X50544D01*
X44644D02*
X45769D01*
X41444D02*
X42644D01*
X38494D02*
X39719D01*
X36044D02*
X36594D01*
X33894D02*
X34969D01*
X30944D02*
X31519D01*
X27769D02*
X28994D01*
X24844D02*
X26044D01*
X81794Y123738D02*
X82869D01*
X78769D02*
X79919D01*
X74044D02*
X74994D01*
X65694D02*
X66844D01*
X62744D02*
X63819D01*
X55544D02*
X56519D01*
X49144D02*
X50619D01*
X44644D02*
X45844D01*
X41369D02*
X42719D01*
X38419D02*
X39794D01*
X35994D02*
X36594D01*
X33894D02*
X34969D01*
X30944D02*
X31569D01*
X27694D02*
X29069D01*
X24769D02*
X26119D01*
X81794Y123713D02*
X82869D01*
X78769D02*
X79919D01*
X74044D02*
X74994D01*
X65694D02*
X66844D01*
X62744D02*
X63819D01*
X55544D02*
X56519D01*
X49094D02*
X50669D01*
X44644D02*
X45919D01*
X41294D02*
X42794D01*
X38369D02*
X39844D01*
X35944D02*
X36594D01*
X33894D02*
X34969D01*
X30944D02*
X31594D01*
X27644D02*
X29119D01*
X24694D02*
X26194D01*
X81819Y123688D02*
X82869D01*
X78769D02*
X79919D01*
X74044D02*
X74994D01*
X65694D02*
X66844D01*
X62744D02*
X63794D01*
X55544D02*
X56519D01*
X49019D02*
X50744D01*
X44644D02*
X45994D01*
X41244D02*
X42844D01*
X38294D02*
X39919D01*
X35919D02*
X36594D01*
X33894D02*
X34969D01*
X30944D02*
X31644D01*
X27569D02*
X29194D01*
X24644D02*
X26244D01*
X81819Y123663D02*
X82844D01*
X78744D02*
X79944D01*
X74044D02*
X74994D01*
X65669D02*
X66869D01*
X62769D02*
X63794D01*
X55544D02*
X56519D01*
X48969D02*
X50794D01*
X44644D02*
X46044D01*
X41194D02*
X42919D01*
X38244D02*
X39969D01*
X35894D02*
X36594D01*
X33894D02*
X34969D01*
X30944D02*
X31669D01*
X27519D02*
X29244D01*
X24569D02*
X26294D01*
X81844Y123638D02*
X82819D01*
X78744D02*
X79944D01*
X74044D02*
X74994D01*
X65669D02*
X66869D01*
X62794D02*
X63769D01*
X55544D02*
X56519D01*
X48919D02*
X50844D01*
X44644D02*
X46119D01*
X41144D02*
X42969D01*
X38194D02*
X40019D01*
X35869D02*
X36594D01*
X33894D02*
X34969D01*
X30944D02*
X31694D01*
X27469D02*
X29294D01*
X24519D02*
X26344D01*
X81844Y123613D02*
X82819D01*
X78744D02*
X79944D01*
X74044D02*
X74994D01*
X65669D02*
X66869D01*
X62794D02*
X63769D01*
X55544D02*
X56519D01*
X48869D02*
X50894D01*
X44644D02*
X46169D01*
X41094D02*
X43019D01*
X38144D02*
X40069D01*
X35844D02*
X36594D01*
X33894D02*
X34969D01*
X30944D02*
X31744D01*
X27419D02*
X29344D01*
X24494D02*
X26394D01*
X81869Y123588D02*
X82794D01*
X78744D02*
X79944D01*
X74044D02*
X74994D01*
X65669D02*
X66869D01*
X62819D02*
X63744D01*
X55544D02*
X56519D01*
X48844D02*
X50944D01*
X44644D02*
X46219D01*
X41044D02*
X43044D01*
X38094D02*
X40119D01*
X35819D02*
X36594D01*
X33894D02*
X34969D01*
X30944D02*
X31769D01*
X27369D02*
X29394D01*
X24444D02*
X26444D01*
X81894Y123563D02*
X82769D01*
X78744D02*
X79944D01*
X74044D02*
X74994D01*
X65669D02*
X66869D01*
X62844D02*
X63719D01*
X55544D02*
X56519D01*
X48794D02*
X50969D01*
X44644D02*
X46244D01*
X40994D02*
X43094D01*
X38069D02*
X40144D01*
X35794D02*
X36594D01*
X33894D02*
X34969D01*
X30944D02*
X31794D01*
X27344D02*
X29419D01*
X24394D02*
X26494D01*
X81919Y123538D02*
X82744D01*
X78744D02*
X79919D01*
X74044D02*
X74994D01*
X65694D02*
X66869D01*
X62869D02*
X63694D01*
X55544D02*
X56519D01*
X48744D02*
X51019D01*
X44644D02*
X46294D01*
X40969D02*
X43144D01*
X38019D02*
X40194D01*
X35769D02*
X36594D01*
X33894D02*
X34969D01*
X30944D02*
X31819D01*
X27294D02*
X29469D01*
X24344D02*
X26519D01*
X81944Y123513D02*
X82719D01*
X78769D02*
X79919D01*
X74044D02*
X74994D01*
X65694D02*
X66844D01*
X62894D02*
X63669D01*
X55544D02*
X56519D01*
X48719D02*
X51044D01*
X44644D02*
X46344D01*
X40919D02*
X43169D01*
X37994D02*
X40219D01*
X35744D02*
X36594D01*
X33894D02*
X34969D01*
X30944D02*
X31819D01*
X27269D02*
X29494D01*
X24319D02*
X26569D01*
X81969Y123488D02*
X82694D01*
X78769D02*
X79919D01*
X74044D02*
X74994D01*
X65694D02*
X66844D01*
X62919D02*
X63644D01*
X55544D02*
X56519D01*
X48669D02*
X51094D01*
X44644D02*
X46369D01*
X40894D02*
X43219D01*
X37944D02*
X40269D01*
X35719D02*
X36594D01*
X33894D02*
X34969D01*
X30944D02*
X31844D01*
X27219D02*
X29544D01*
X24269D02*
X26594D01*
X82019Y123463D02*
X82644D01*
X78769D02*
X79919D01*
X74044D02*
X74994D01*
X65694D02*
X66844D01*
X62969D02*
X63594D01*
X55544D02*
X56519D01*
X48644D02*
X51119D01*
X44644D02*
X46419D01*
X40844D02*
X43244D01*
X37919D02*
X40294D01*
X35719D02*
X36594D01*
X33894D02*
X34969D01*
X30944D02*
X31869D01*
X27194D02*
X29569D01*
X24244D02*
X26644D01*
X82044Y123438D02*
X82619D01*
X78769D02*
X79919D01*
X74044D02*
X74994D01*
X65694D02*
X66844D01*
X62994D02*
X63569D01*
X55544D02*
X56519D01*
X48619D02*
X51169D01*
X44644D02*
X46444D01*
X40819D02*
X43269D01*
X37869D02*
X40344D01*
X35694D02*
X36594D01*
X33894D02*
X34969D01*
X30944D02*
X31894D01*
X27144D02*
X29619D01*
X24219D02*
X26669D01*
X82119Y123413D02*
X82544D01*
X78794D02*
X79894D01*
X74044D02*
X74994D01*
X65719D02*
X66819D01*
X63069D02*
X63494D01*
X55544D02*
X56519D01*
X48569D02*
X51194D01*
X44644D02*
X46469D01*
X40794D02*
X43319D01*
X37844D02*
X40369D01*
X35694D02*
X36594D01*
X33894D02*
X34969D01*
X30944D02*
X31894D01*
X27119D02*
X29644D01*
X24169D02*
X26694D01*
X82194Y123388D02*
X82469D01*
X78794D02*
X79894D01*
X74044D02*
X74994D01*
X65719D02*
X66819D01*
X63144D02*
X63419D01*
X55544D02*
X56519D01*
X48544D02*
X51219D01*
X44644D02*
X46519D01*
X40769D02*
X43344D01*
X37819D02*
X40394D01*
X35669D02*
X36594D01*
X33894D02*
X34969D01*
X30944D02*
X31919D01*
X27094D02*
X29669D01*
X24144D02*
X26719D01*
X80369Y123363D02*
X80669D01*
X78794D02*
X79894D01*
X74044D02*
X74994D01*
X65719D02*
X66819D01*
X64944D02*
X65244D01*
X55544D02*
X56519D01*
X48519D02*
X51244D01*
X44644D02*
X46544D01*
X40719D02*
X43369D01*
X37794D02*
X40419D01*
X35669D02*
X36594D01*
X33894D02*
X34969D01*
X30944D02*
X31919D01*
X27069D02*
X29694D01*
X24119D02*
X26769D01*
X80294Y123338D02*
X80744D01*
X78819D02*
X79869D01*
X74044D02*
X74994D01*
X65744D02*
X66794D01*
X64869D02*
X65319D01*
X55544D02*
X56519D01*
X48494D02*
X51269D01*
X44644D02*
X46569D01*
X40694D02*
X43394D01*
X37769D02*
X40444D01*
X35644D02*
X36594D01*
X33894D02*
X34969D01*
X30944D02*
X31944D01*
X27044D02*
X29719D01*
X24094D02*
X26794D01*
X80244Y123313D02*
X80794D01*
X78819D02*
X79869D01*
X74044D02*
X74994D01*
X65769D02*
X66794D01*
X64819D02*
X65369D01*
X55544D02*
X56519D01*
X48469D02*
X51294D01*
X44644D02*
X46594D01*
X40669D02*
X43419D01*
X37744D02*
X40469D01*
X35644D02*
X36594D01*
X33894D02*
X34969D01*
X30944D02*
X31944D01*
X27019D02*
X29744D01*
X24069D02*
X26819D01*
X80194Y123288D02*
X80844D01*
X78844D02*
X79844D01*
X74044D02*
X74994D01*
X65769D02*
X66769D01*
X64769D02*
X65419D01*
X55544D02*
X56519D01*
X48444D02*
X51319D01*
X44644D02*
X46619D01*
X40644D02*
X43444D01*
X37719D02*
X40519D01*
X35619D02*
X36594D01*
X33894D02*
X34969D01*
X30944D02*
X31969D01*
X26969D02*
X29769D01*
X24044D02*
X26844D01*
X80169Y123263D02*
X80869D01*
X78869D02*
X79819D01*
X74044D02*
X74994D01*
X65794D02*
X66744D01*
X64744D02*
X65444D01*
X55544D02*
X56519D01*
X48419D02*
X51369D01*
X44644D02*
X46644D01*
X40619D02*
X43469D01*
X37694D02*
X40544D01*
X35619D02*
X36594D01*
X33894D02*
X34969D01*
X30944D02*
X31969D01*
X26944D02*
X29794D01*
X24019D02*
X26869D01*
X80119Y123238D02*
X80919D01*
X78869D02*
X79794D01*
X74044D02*
X74994D01*
X65819D02*
X66744D01*
X64719D02*
X65494D01*
X55544D02*
X56519D01*
X48394D02*
X51394D01*
X44644D02*
X46669D01*
X40594D02*
X43494D01*
X37669D02*
X40569D01*
X35619D02*
X36594D01*
X33894D02*
X34969D01*
X30944D02*
X31994D01*
X26944D02*
X29819D01*
X23994D02*
X26894D01*
X80094Y123213D02*
X80944D01*
X78894D02*
X79794D01*
X74044D02*
X74994D01*
X65819D02*
X66719D01*
X64669D02*
X65519D01*
X55544D02*
X56519D01*
X48369D02*
X51394D01*
X44644D02*
X46694D01*
X37644D02*
X43519D01*
X35619D02*
X36594D01*
X33894D02*
X34969D01*
X30944D02*
X31994D01*
X23969D02*
X29844D01*
X80069Y123188D02*
X80969D01*
X78919D02*
X79769D01*
X74044D02*
X74994D01*
X65844D02*
X66694D01*
X64644D02*
X65544D01*
X55544D02*
X56519D01*
X48344D02*
X51419D01*
X44644D02*
X46719D01*
X37619D02*
X43544D01*
X35594D02*
X36594D01*
X33894D02*
X34969D01*
X30944D02*
X31994D01*
X23944D02*
X29869D01*
X80069Y123163D02*
X80969D01*
X78944D02*
X79744D01*
X74044D02*
X74994D01*
X65869D02*
X66669D01*
X64644D02*
X65544D01*
X55544D02*
X56519D01*
X48319D02*
X51444D01*
X44644D02*
X46744D01*
X37594D02*
X43569D01*
X35594D02*
X36594D01*
X33894D02*
X34969D01*
X30944D02*
X32019D01*
X23919D02*
X29894D01*
X80044Y123138D02*
X80994D01*
X78994D02*
X79694D01*
X74044D02*
X74994D01*
X65919D02*
X66619D01*
X64619D02*
X65569D01*
X55544D02*
X56519D01*
X48294D02*
X51469D01*
X44644D02*
X46744D01*
X37569D02*
X43594D01*
X35594D02*
X36594D01*
X33894D02*
X34969D01*
X30944D02*
X32019D01*
X23894D02*
X29919D01*
X80019Y123113D02*
X81019D01*
X79019D02*
X79669D01*
X74044D02*
X74994D01*
X65944D02*
X66594D01*
X64594D02*
X65594D01*
X55544D02*
X56519D01*
X48269D02*
X51494D01*
X44644D02*
X46769D01*
X37544D02*
X43619D01*
X35594D02*
X36594D01*
X33894D02*
X34969D01*
X30944D02*
X32019D01*
X23869D02*
X29944D01*
X80019Y123088D02*
X81019D01*
X79069D02*
X79619D01*
X74044D02*
X74994D01*
X65994D02*
X66544D01*
X64594D02*
X65619D01*
X55544D02*
X56519D01*
X48244D02*
X51519D01*
X44644D02*
X46794D01*
X37519D02*
X43619D01*
X35594D02*
X36594D01*
X33894D02*
X34969D01*
X30944D02*
X32019D01*
X23869D02*
X29969D01*
X79994Y123063D02*
X81044D01*
X79119D02*
X79569D01*
X74044D02*
X74994D01*
X66044D02*
X66494D01*
X64569D02*
X65619D01*
X55544D02*
X56519D01*
X48219D02*
X51544D01*
X44644D02*
X46819D01*
X37519D02*
X43644D01*
X35594D02*
X36594D01*
X33894D02*
X34969D01*
X30944D02*
X32019D01*
X23844D02*
X29969D01*
X79969Y123038D02*
X81044D01*
X79169D02*
X79494D01*
X74044D02*
X74994D01*
X66119D02*
X66444D01*
X64569D02*
X65644D01*
X55544D02*
X56519D01*
X48219D02*
X51544D01*
X44644D02*
X46819D01*
X37494D02*
X43669D01*
X35594D02*
X36594D01*
X33894D02*
X34969D01*
X30944D02*
X32044D01*
X23819D02*
X29994D01*
X79969Y123013D02*
X81069D01*
X74044D02*
X74994D01*
X64544D02*
X65644D01*
X55544D02*
X56519D01*
X48194D02*
X51569D01*
X44644D02*
X46844D01*
X37469D02*
X43694D01*
X35594D02*
X36594D01*
X33894D02*
X34969D01*
X30944D02*
X32044D01*
X23794D02*
X30019D01*
X79969Y122988D02*
X81069D01*
X74044D02*
X74994D01*
X64544D02*
X65644D01*
X55544D02*
X56519D01*
X48169D02*
X51594D01*
X44644D02*
X46869D01*
X37444D02*
X43694D01*
X35594D02*
X36594D01*
X33894D02*
X34969D01*
X30944D02*
X32044D01*
X23794D02*
X30044D01*
X79944Y122963D02*
X81094D01*
X74044D02*
X74994D01*
X64519D02*
X65669D01*
X55544D02*
X56519D01*
X48169D02*
X51619D01*
X44644D02*
X46869D01*
X37444D02*
X43719D01*
X35594D02*
X36594D01*
X33894D02*
X34969D01*
X30944D02*
X32044D01*
X23769D02*
X30044D01*
X79944Y122938D02*
X81094D01*
X74044D02*
X74994D01*
X64519D02*
X65669D01*
X55544D02*
X56519D01*
X50069D02*
X51619D01*
X48144D02*
X49694D01*
X44644D02*
X46894D01*
X37419D02*
X43744D01*
X35594D02*
X36594D01*
X33894D02*
X34969D01*
X30944D02*
X32044D01*
X23744D02*
X30069D01*
X79944Y122913D02*
X81094D01*
X64519D02*
X65669D01*
X55544D02*
X56519D01*
X50169D02*
X51644D01*
X48119D02*
X49594D01*
X44644D02*
X46894D01*
X37394D02*
X43744D01*
X35594D02*
X36594D01*
X33894D02*
X34969D01*
X30944D02*
X32044D01*
X23744D02*
X30094D01*
X79944Y122888D02*
X81094D01*
X64519D02*
X65669D01*
X52919D02*
X56519D01*
X50244D02*
X51669D01*
X48119D02*
X49544D01*
X44644D02*
X46919D01*
X37394D02*
X43769D01*
X35594D02*
X36594D01*
X33894D02*
X34969D01*
X30944D02*
X32044D01*
X23719D02*
X30094D01*
X79944Y122863D02*
X81094D01*
X64519D02*
X65694D01*
X52919D02*
X56519D01*
X50294D02*
X51669D01*
X48094D02*
X49469D01*
X45169D02*
X46944D01*
X37369D02*
X43794D01*
X35594D02*
X36594D01*
X33894D02*
X34969D01*
X30944D02*
X32044D01*
X23694D02*
X30119D01*
X79919Y122838D02*
X81119D01*
X64494D02*
X65694D01*
X52919D02*
X56519D01*
X50344D02*
X51694D01*
X48069D02*
X49419D01*
X45319D02*
X46944D01*
X37369D02*
X43794D01*
X35594D02*
X36594D01*
X33894D02*
X34969D01*
X30944D02*
X32044D01*
X23694D02*
X30119D01*
X79919Y122813D02*
X81119D01*
X64494D02*
X65694D01*
X52919D02*
X56519D01*
X50394D02*
X51694D01*
X48069D02*
X49394D01*
X45419D02*
X46969D01*
X42194D02*
X43819D01*
X39244D02*
X41919D01*
X37344D02*
X38969D01*
X35594D02*
X36594D01*
X33894D02*
X34969D01*
X30944D02*
X32044D01*
X28519D02*
X30144D01*
X25569D02*
X28244D01*
X23669D02*
X25294D01*
X79919Y122788D02*
X81119D01*
X64494D02*
X65694D01*
X52919D02*
X56519D01*
X50419D02*
X51719D01*
X48044D02*
X49344D01*
X45494D02*
X46969D01*
X42294D02*
X43819D01*
X39369D02*
X41794D01*
X37344D02*
X38869D01*
X35594D02*
X36594D01*
X33894D02*
X34969D01*
X30944D02*
X32044D01*
X28644D02*
X30169D01*
X25694D02*
X28119D01*
X23669D02*
X25194D01*
X79919Y122763D02*
X81119D01*
X64494D02*
X65694D01*
X52919D02*
X56519D01*
X50444D02*
X51719D01*
X48044D02*
X49319D01*
X45544D02*
X46994D01*
X42369D02*
X43844D01*
X39444D02*
X41719D01*
X37319D02*
X38769D01*
X35594D02*
X36594D01*
X33894D02*
X34969D01*
X30944D02*
X32044D01*
X28719D02*
X30169D01*
X25769D02*
X28044D01*
X23644D02*
X25119D01*
X79919Y122738D02*
X81119D01*
X64494D02*
X65694D01*
X52919D02*
X56519D01*
X50494D02*
X51744D01*
X48019D02*
X49294D01*
X45594D02*
X46994D01*
X42444D02*
X43844D01*
X39494D02*
X41669D01*
X37294D02*
X38719D01*
X35594D02*
X36594D01*
X33894D02*
X34969D01*
X30944D02*
X32044D01*
X28769D02*
X30194D01*
X25819D02*
X27994D01*
X23644D02*
X25044D01*
X79944Y122713D02*
X81094D01*
X64519D02*
X65669D01*
X52919D02*
X56519D01*
X50519D02*
X51744D01*
X48019D02*
X49269D01*
X45644D02*
X46994D01*
X42494D02*
X43869D01*
X39544D02*
X41619D01*
X37294D02*
X38669D01*
X35594D02*
X36594D01*
X33894D02*
X34969D01*
X30944D02*
X32044D01*
X28819D02*
X30194D01*
X25869D02*
X27944D01*
X23619D02*
X24994D01*
X79944Y122688D02*
X81094D01*
X64519D02*
X65669D01*
X52919D02*
X56519D01*
X50544D02*
X51769D01*
X47994D02*
X49244D01*
X45669D02*
X47019D01*
X42519D02*
X43869D01*
X39594D02*
X41569D01*
X37294D02*
X38619D01*
X35594D02*
X36594D01*
X33894D02*
X34969D01*
X30944D02*
X32044D01*
X28869D02*
X30219D01*
X25919D02*
X27894D01*
X23619D02*
X24969D01*
X79944Y122663D02*
X81094D01*
X64519D02*
X65669D01*
X52919D02*
X56519D01*
X50569D02*
X51769D01*
X47994D02*
X49219D01*
X45719D02*
X47019D01*
X42569D02*
X43894D01*
X39619D02*
X41519D01*
X37269D02*
X38594D01*
X35594D02*
X36594D01*
X33894D02*
X34969D01*
X30944D02*
X32044D01*
X28894D02*
X30219D01*
X25969D02*
X27869D01*
X23594D02*
X24919D01*
X79944Y122638D02*
X81094D01*
X76669D02*
X76819D01*
X68794D02*
X68944D01*
X64519D02*
X65669D01*
X52919D02*
X56519D01*
X50594D02*
X51794D01*
X47969D02*
X49194D01*
X45744D02*
X47044D01*
X42594D02*
X43894D01*
X39669D02*
X41494D01*
X37269D02*
X38544D01*
X35594D02*
X36594D01*
X33894D02*
X34969D01*
X30944D02*
X32044D01*
X28944D02*
X30219D01*
X25994D02*
X27819D01*
X23594D02*
X24894D01*
X81644Y122613D02*
X81769D01*
X79944D02*
X81094D01*
X76569D02*
X76919D01*
X68694D02*
X69044D01*
X64519D02*
X65669D01*
X63844D02*
X63969D01*
X52944D02*
X56519D01*
X50619D02*
X51794D01*
X47969D02*
X49169D01*
X45769D02*
X47044D01*
X42644D02*
X43919D01*
X39694D02*
X41469D01*
X37244D02*
X38519D01*
X35594D02*
X36594D01*
X33894D02*
X34969D01*
X30944D02*
X32044D01*
X28969D02*
X30244D01*
X26019D02*
X27794D01*
X23569D02*
X24844D01*
X81519Y122588D02*
X81894D01*
X79969D02*
X81069D01*
X76494D02*
X76994D01*
X68619D02*
X69119D01*
X64544D02*
X65644D01*
X63719D02*
X64094D01*
X52944D02*
X56519D01*
X50644D02*
X51819D01*
X47944D02*
X49144D01*
X45794D02*
X47044D01*
X42669D02*
X43919D01*
X39719D02*
X41444D01*
X37244D02*
X38494D01*
X35594D02*
X36594D01*
X33894D02*
X34969D01*
X30944D02*
X32044D01*
X28994D02*
X30244D01*
X26044D02*
X27769D01*
X23569D02*
X24819D01*
X81469Y122563D02*
X81944D01*
X79969D02*
X81069D01*
X76444D02*
X77044D01*
X68569D02*
X69169D01*
X64544D02*
X65644D01*
X63669D02*
X64144D01*
X52944D02*
X56519D01*
X50644D02*
X51819D01*
X47944D02*
X49119D01*
X45819D02*
X47069D01*
X42694D02*
X43919D01*
X39744D02*
X41394D01*
X37219D02*
X38469D01*
X35594D02*
X36594D01*
X33894D02*
X34969D01*
X30944D02*
X32044D01*
X29019D02*
X30269D01*
X26094D02*
X27744D01*
X23569D02*
X24794D01*
X81419Y122538D02*
X81994D01*
X79994D02*
X81044D01*
X76394D02*
X77069D01*
X68544D02*
X69219D01*
X64569D02*
X65619D01*
X63619D02*
X64194D01*
X52969D02*
X56519D01*
X50669D02*
X51844D01*
X47919D02*
X49119D01*
X45844D02*
X47069D01*
X42719D02*
X43944D01*
X39769D02*
X41369D01*
X37219D02*
X38444D01*
X35594D02*
X36594D01*
X33894D02*
X34969D01*
X30944D02*
X32044D01*
X29044D02*
X30269D01*
X26119D02*
X27719D01*
X23544D02*
X24769D01*
X81369Y122513D02*
X82044D01*
X79994D02*
X81044D01*
X76369D02*
X77119D01*
X68494D02*
X69244D01*
X64569D02*
X65619D01*
X63569D02*
X64244D01*
X52969D02*
X56519D01*
X50694D02*
X51844D01*
X47919D02*
X49094D01*
X45869D02*
X47069D01*
X42744D02*
X43944D01*
X39794D02*
X41369D01*
X37219D02*
X38419D01*
X35594D02*
X36594D01*
X33894D02*
X34969D01*
X30944D02*
X32044D01*
X29069D02*
X30269D01*
X26119D02*
X27694D01*
X23544D02*
X24744D01*
X81344Y122488D02*
X82069D01*
X80019D02*
X81019D01*
X76344D02*
X77144D01*
X68469D02*
X69269D01*
X64594D02*
X65594D01*
X63544D02*
X64269D01*
X52969D02*
X56519D01*
X50694D02*
X51844D01*
X47919D02*
X49069D01*
X45894D02*
X47094D01*
X42769D02*
X43944D01*
X39819D02*
X41344D01*
X37194D02*
X38394D01*
X35594D02*
X36594D01*
X33894D02*
X34969D01*
X30944D02*
X32044D01*
X29094D02*
X30294D01*
X26144D02*
X27669D01*
X23544D02*
X24719D01*
X81294Y122463D02*
X82094D01*
X80019D02*
X81019D01*
X76319D02*
X77169D01*
X68444D02*
X69294D01*
X64594D02*
X65594D01*
X63519D02*
X64319D01*
X52994D02*
X56519D01*
X50719D02*
X51869D01*
X47894D02*
X49069D01*
X45919D02*
X47094D01*
X42769D02*
X43969D01*
X39844D02*
X41319D01*
X37194D02*
X38369D01*
X35594D02*
X36594D01*
X33894D02*
X34969D01*
X30944D02*
X32044D01*
X29119D02*
X30294D01*
X26169D02*
X27644D01*
X23519D02*
X24719D01*
X81269Y122438D02*
X82119D01*
X80044D02*
X80994D01*
X76294D02*
X77194D01*
X68419D02*
X69319D01*
X64619D02*
X65569D01*
X63494D02*
X64344D01*
X52994D02*
X56519D01*
X50744D02*
X51869D01*
X47894D02*
X49044D01*
X45944D02*
X47094D01*
X42794D02*
X43969D01*
X39869D02*
X41294D01*
X37194D02*
X38369D01*
X35594D02*
X36594D01*
X33894D02*
X34969D01*
X30944D02*
X32044D01*
X29119D02*
X30294D01*
X26194D02*
X27619D01*
X23519D02*
X24694D01*
X81269Y122413D02*
X82144D01*
X80069D02*
X80969D01*
X76269D02*
X77219D01*
X68394D02*
X69344D01*
X64644D02*
X65544D01*
X63469D02*
X64344D01*
X53019D02*
X56519D01*
X50744D02*
X51869D01*
X47894D02*
X49044D01*
X45969D02*
X47119D01*
X42819D02*
X43969D01*
X39869D02*
X41269D01*
X37169D02*
X38344D01*
X35594D02*
X36594D01*
X33894D02*
X34969D01*
X30944D02*
X32044D01*
X29144D02*
X30319D01*
X26219D02*
X27619D01*
X23519D02*
X24669D01*
X81244Y122388D02*
X82169D01*
X80094D02*
X80944D01*
X76244D02*
X77219D01*
X68394D02*
X69369D01*
X64669D02*
X65519D01*
X63444D02*
X64369D01*
X53019D02*
X56519D01*
X50769D02*
X51894D01*
X47869D02*
X49019D01*
X45969D02*
X47119D01*
X42844D02*
X43994D01*
X39894D02*
X41269D01*
X37169D02*
X38319D01*
X35594D02*
X36594D01*
X33894D02*
X34969D01*
X30944D02*
X32044D01*
X29169D02*
X30319D01*
X26219D02*
X27594D01*
X23494D02*
X24669D01*
X81219Y122363D02*
X82194D01*
X80119D02*
X80919D01*
X76244D02*
X77244D01*
X68369D02*
X69369D01*
X64694D02*
X65494D01*
X63419D02*
X64394D01*
X53044D02*
X56519D01*
X50769D02*
X51894D01*
X47869D02*
X49019D01*
X45994D02*
X47119D01*
X42844D02*
X43994D01*
X39919D02*
X41244D01*
X37169D02*
X38319D01*
X35594D02*
X36594D01*
X33894D02*
X34969D01*
X30944D02*
X32044D01*
X29169D02*
X30319D01*
X26244D02*
X27594D01*
X23494D02*
X24644D01*
X81194Y122338D02*
X82194D01*
X80144D02*
X80894D01*
X76219D02*
X77269D01*
X68344D02*
X69394D01*
X64719D02*
X65469D01*
X63419D02*
X64419D01*
X53044D02*
X56519D01*
X50769D02*
X51894D01*
X47869D02*
X49019D01*
X46019D02*
X47119D01*
X42869D02*
X43994D01*
X39919D02*
X41244D01*
X37169D02*
X38294D01*
X35594D02*
X36594D01*
X33894D02*
X34969D01*
X30944D02*
X32044D01*
X29194D02*
X30319D01*
X26244D02*
X27569D01*
X23494D02*
X24619D01*
X81194Y122313D02*
X82219D01*
X80169D02*
X80869D01*
X76219D02*
X77269D01*
X68344D02*
X69394D01*
X64744D02*
X65444D01*
X63394D02*
X64419D01*
X53069D02*
X56519D01*
X50794D02*
X51919D01*
X47869D02*
X48994D01*
X46019D02*
X47144D01*
X42869D02*
X43994D01*
X39944D02*
X41219D01*
X37144D02*
X38294D01*
X35594D02*
X36594D01*
X33894D02*
X34969D01*
X30944D02*
X32044D01*
X29194D02*
X30344D01*
X26269D02*
X27544D01*
X23494D02*
X24619D01*
X81169Y122288D02*
X82244D01*
X80219D02*
X80819D01*
X76194D02*
X77294D01*
X68319D02*
X69419D01*
X64794D02*
X65394D01*
X63369D02*
X64444D01*
X53094D02*
X56519D01*
X50794D02*
X51919D01*
X47844D02*
X48994D01*
X46044D02*
X47144D01*
X42894D02*
X44019D01*
X39944D02*
X41219D01*
X37144D02*
X38269D01*
X35594D02*
X36594D01*
X33894D02*
X34969D01*
X30944D02*
X32044D01*
X29219D02*
X30344D01*
X26269D02*
X27544D01*
X23469D02*
X24594D01*
X81169Y122263D02*
X82244D01*
X80244D02*
X80794D01*
X76194D02*
X77294D01*
X68319D02*
X69419D01*
X64819D02*
X65369D01*
X63369D02*
X64444D01*
X53119D02*
X56519D01*
X50794D02*
X51919D01*
X47844D02*
X48994D01*
X46044D02*
X47144D01*
X42894D02*
X44019D01*
X39969D02*
X41194D01*
X37144D02*
X38269D01*
X35594D02*
X36594D01*
X33894D02*
X34969D01*
X30944D02*
X32044D01*
X29219D02*
X30344D01*
X26294D02*
X27544D01*
X23469D02*
X24594D01*
X81144Y122238D02*
X82244D01*
X80319D02*
X80719D01*
X76169D02*
X77294D01*
X68319D02*
X69444D01*
X64894D02*
X65294D01*
X63369D02*
X64469D01*
X53144D02*
X56519D01*
X50819D02*
X51919D01*
X47844D02*
X48969D01*
X46069D02*
X47144D01*
X42919D02*
X44019D01*
X39969D02*
X41194D01*
X37144D02*
X38244D01*
X35594D02*
X36594D01*
X33894D02*
X34969D01*
X30944D02*
X32044D01*
X29244D02*
X30344D01*
X26294D02*
X27519D01*
X23469D02*
X24569D01*
X81144Y122213D02*
X82269D01*
X80394D02*
X80644D01*
X76169D02*
X77319D01*
X68294D02*
X69444D01*
X64969D02*
X65219D01*
X63344D02*
X64469D01*
X53169D02*
X56519D01*
X50819D02*
X51919D01*
X47844D02*
X48969D01*
X46069D02*
X47144D01*
X42919D02*
X44019D01*
X39969D02*
X41169D01*
X37119D02*
X38244D01*
X35594D02*
X36594D01*
X33894D02*
X34969D01*
X30944D02*
X32044D01*
X29244D02*
X30369D01*
X26319D02*
X27519D01*
X23469D02*
X24569D01*
X81144Y122188D02*
X82269D01*
X76169D02*
X77319D01*
X68294D02*
X69444D01*
X63344D02*
X64469D01*
X53194D02*
X56519D01*
X50819D02*
X51944D01*
X47819D02*
X48969D01*
X46094D02*
X47169D01*
X42919D02*
X44019D01*
X39994D02*
X41169D01*
X37119D02*
X38219D01*
X35594D02*
X36594D01*
X33894D02*
X34969D01*
X30944D02*
X32044D01*
X29269D02*
X30369D01*
X26319D02*
X27494D01*
X23469D02*
X24569D01*
X81119Y122163D02*
X82269D01*
X76169D02*
X77319D01*
X68294D02*
X69444D01*
X63344D02*
X64494D01*
X53219D02*
X56519D01*
X50819D02*
X51944D01*
X47819D02*
X48969D01*
X46094D02*
X47169D01*
X42944D02*
X44044D01*
X39994D02*
X41169D01*
X37119D02*
X38219D01*
X35594D02*
X36594D01*
X33894D02*
X34969D01*
X30944D02*
X32044D01*
X29269D02*
X30369D01*
X26319D02*
X27494D01*
X23444D02*
X24544D01*
X81119Y122138D02*
X82294D01*
X76169D02*
X77319D01*
X68294D02*
X69469D01*
X63319D02*
X64494D01*
X53244D02*
X56519D01*
X50819D02*
X51944D01*
X47819D02*
X48969D01*
X46119D02*
X47169D01*
X42944D02*
X44044D01*
X39994D02*
X41144D01*
X37119D02*
X38219D01*
X35594D02*
X36594D01*
X33894D02*
X34969D01*
X30944D02*
X32044D01*
X29269D02*
X30369D01*
X26344D02*
X27494D01*
X23444D02*
X24544D01*
X81119Y122113D02*
X82294D01*
X76144D02*
X77319D01*
X68294D02*
X69469D01*
X63319D02*
X64494D01*
X53269D02*
X56519D01*
X50819D02*
X51944D01*
X47819D02*
X48969D01*
X46119D02*
X47169D01*
X42944D02*
X44044D01*
X40019D02*
X41144D01*
X37119D02*
X38219D01*
X35594D02*
X36594D01*
X33894D02*
X34969D01*
X30944D02*
X32044D01*
X29269D02*
X30369D01*
X26344D02*
X27494D01*
X23444D02*
X24544D01*
X81119Y122088D02*
X82294D01*
X77994D02*
X78269D01*
X76144D02*
X77344D01*
X68294D02*
X69469D01*
X67344D02*
X67619D01*
X63319D02*
X64494D01*
X53319D02*
X56519D01*
X50819D02*
X51944D01*
X47819D02*
X48969D01*
X46119D02*
X47169D01*
X42944D02*
X44044D01*
X40019D02*
X41144D01*
X37119D02*
X38194D01*
X35594D02*
X36594D01*
X33894D02*
X34969D01*
X30944D02*
X32044D01*
X29294D02*
X30369D01*
X26344D02*
X27469D01*
X23444D02*
X24544D01*
X81119Y122063D02*
X82294D01*
X77919D02*
X78369D01*
X76144D02*
X77344D01*
X68269D02*
X69469D01*
X67244D02*
X67694D01*
X63319D02*
X64494D01*
X53369D02*
X56519D01*
X50844D02*
X51969D01*
X47819D02*
X48969D01*
X46144D02*
X47194D01*
X42969D02*
X44044D01*
X40019D02*
X41144D01*
X37119D02*
X38194D01*
X35594D02*
X36594D01*
X33894D02*
X34969D01*
X30944D02*
X32044D01*
X29294D02*
X30369D01*
X26344D02*
X27469D01*
X23444D02*
X24544D01*
X81119Y122038D02*
X82294D01*
X77869D02*
X78419D01*
X76144D02*
X77344D01*
X68269D02*
X69469D01*
X67194D02*
X67744D01*
X63319D02*
X64494D01*
X53419D02*
X56519D01*
X50844D02*
X51969D01*
X47794D02*
X48969D01*
X46144D02*
X47194D01*
X42969D02*
X44044D01*
X40019D02*
X41144D01*
X37094D02*
X38194D01*
X35594D02*
X36594D01*
X33894D02*
X34969D01*
X30944D02*
X32044D01*
X29294D02*
X30394D01*
X26344D02*
X27469D01*
X23444D02*
X24519D01*
X81119Y122013D02*
X82294D01*
X77819D02*
X78444D01*
X76144D02*
X77344D01*
X68294D02*
X69469D01*
X67169D02*
X67794D01*
X63319D02*
X64494D01*
X53469D02*
X56519D01*
X50844D02*
X51969D01*
X47794D02*
X48969D01*
X46144D02*
X47194D01*
X42969D02*
X44044D01*
X40019D02*
X41144D01*
X37094D02*
X38194D01*
X35594D02*
X36594D01*
X33894D02*
X34969D01*
X30944D02*
X32044D01*
X29294D02*
X30394D01*
X26369D02*
X27469D01*
X23444D02*
X24519D01*
X81119Y121988D02*
X82294D01*
X77769D02*
X78494D01*
X76144D02*
X77319D01*
X68294D02*
X69469D01*
X67119D02*
X67844D01*
X63319D02*
X64494D01*
X53569D02*
X56519D01*
X50819D02*
X51969D01*
X47794D02*
X48969D01*
X46169D02*
X47194D01*
X42969D02*
X44044D01*
X40019D02*
X41119D01*
X37094D02*
X38194D01*
X35594D02*
X36594D01*
X33894D02*
X34969D01*
X30944D02*
X32044D01*
X29294D02*
X30394D01*
X26369D02*
X27469D01*
X23444D02*
X24519D01*
X81119Y121963D02*
X82294D01*
X77744D02*
X78519D01*
X76169D02*
X77319D01*
X68294D02*
X69469D01*
X67094D02*
X67869D01*
X63319D02*
X64494D01*
X55544D02*
X56519D01*
X50819D02*
X51969D01*
X47794D02*
X48969D01*
X46169D02*
X47194D01*
X42969D02*
X44069D01*
X40019D02*
X41119D01*
X37094D02*
X38194D01*
X35594D02*
X36594D01*
X33894D02*
X34969D01*
X30944D02*
X32044D01*
X29294D02*
X30394D01*
X26369D02*
X27469D01*
X23419D02*
X24519D01*
X81119Y121938D02*
X82294D01*
X79694D02*
X79794D01*
X77719D02*
X78544D01*
X76169D02*
X77319D01*
X68294D02*
X69444D01*
X67069D02*
X67894D01*
X65819D02*
X65919D01*
X63319D02*
X64494D01*
X55544D02*
X56519D01*
X50819D02*
X51969D01*
X47794D02*
X48969D01*
X46169D02*
X47194D01*
X42969D02*
X44069D01*
X40044D02*
X41119D01*
X37094D02*
X38194D01*
X35594D02*
X36594D01*
X33894D02*
X34969D01*
X30944D02*
X32044D01*
X29294D02*
X30394D01*
X26369D02*
X27469D01*
X23419D02*
X24519D01*
X81119Y121913D02*
X82294D01*
X79569D02*
X79919D01*
X77694D02*
X78569D01*
X76169D02*
X77319D01*
X68294D02*
X69444D01*
X67044D02*
X67919D01*
X65694D02*
X66044D01*
X63319D02*
X64494D01*
X55544D02*
X56519D01*
X47794D02*
X51969D01*
X46169D02*
X47194D01*
X42969D02*
X44069D01*
X40044D02*
X41119D01*
X37094D02*
X38194D01*
X35594D02*
X36594D01*
X33894D02*
X34969D01*
X30944D02*
X32044D01*
X29294D02*
X30394D01*
X26369D02*
X27469D01*
X23419D02*
X24519D01*
X81119Y121888D02*
X82269D01*
X79494D02*
X79994D01*
X77669D02*
X78594D01*
X76169D02*
X77319D01*
X68294D02*
X69444D01*
X67019D02*
X67944D01*
X65619D02*
X66119D01*
X63344D02*
X64494D01*
X55544D02*
X56519D01*
X47794D02*
X51969D01*
X46169D02*
X47194D01*
X42969D02*
X44069D01*
X40044D02*
X41119D01*
X37094D02*
X38194D01*
X35594D02*
X36594D01*
X33894D02*
X34969D01*
X30944D02*
X32044D01*
X29294D02*
X30394D01*
X26369D02*
X27444D01*
X23419D02*
X24519D01*
X81144Y121863D02*
X82269D01*
X79444D02*
X80044D01*
X77669D02*
X78619D01*
X76169D02*
X77294D01*
X68319D02*
X69444D01*
X66994D02*
X67944D01*
X65569D02*
X66169D01*
X63344D02*
X64469D01*
X55544D02*
X56519D01*
X47794D02*
X51969D01*
X46194D02*
X47194D01*
X42969D02*
X44069D01*
X40044D02*
X41119D01*
X37094D02*
X38194D01*
X35594D02*
X36594D01*
X33894D02*
X34969D01*
X30944D02*
X32044D01*
X29294D02*
X30394D01*
X26369D02*
X27444D01*
X23419D02*
X24519D01*
X81144Y121838D02*
X82269D01*
X79419D02*
X80069D01*
X77644D02*
X78619D01*
X76194D02*
X77294D01*
X68319D02*
X69419D01*
X66994D02*
X67969D01*
X65544D02*
X66194D01*
X63344D02*
X64469D01*
X55544D02*
X56519D01*
X47794D02*
X51969D01*
X46194D02*
X47194D01*
X42969D02*
X44069D01*
X40044D02*
X41119D01*
X37094D02*
X38194D01*
X35594D02*
X36594D01*
X33894D02*
X34969D01*
X30944D02*
X32044D01*
X29294D02*
X30394D01*
X26369D02*
X27444D01*
X23419D02*
X24519D01*
X81144Y121813D02*
X82244D01*
X79369D02*
X80119D01*
X77619D02*
X78644D01*
X76194D02*
X77294D01*
X68319D02*
X69419D01*
X66969D02*
X67994D01*
X65494D02*
X66244D01*
X63369D02*
X64469D01*
X55544D02*
X56519D01*
X47794D02*
X51969D01*
X46194D02*
X47219D01*
X42969D02*
X44069D01*
X40044D02*
X41119D01*
X37094D02*
X38194D01*
X35594D02*
X36594D01*
X33894D02*
X34969D01*
X30944D02*
X32044D01*
X29294D02*
X30394D01*
X26369D02*
X27444D01*
X23419D02*
X24519D01*
X81169Y121788D02*
X82244D01*
X79344D02*
X80144D01*
X77619D02*
X78669D01*
X76219D02*
X77269D01*
X68344D02*
X69394D01*
X66944D02*
X67994D01*
X65469D02*
X66269D01*
X63369D02*
X64444D01*
X55544D02*
X56519D01*
X47794D02*
X51969D01*
X46194D02*
X47219D01*
X42969D02*
X44069D01*
X40044D02*
X41119D01*
X37094D02*
X38194D01*
X35594D02*
X36594D01*
X33894D02*
X34969D01*
X30944D02*
X32044D01*
X29294D02*
X30394D01*
X26369D02*
X27444D01*
X23419D02*
X24519D01*
X81169Y121763D02*
X82244D01*
X79319D02*
X80169D01*
X77594D02*
X78669D01*
X76219D02*
X77269D01*
X68344D02*
X69394D01*
X66944D02*
X68019D01*
X65444D02*
X66294D01*
X63369D02*
X64444D01*
X55544D02*
X56519D01*
X47794D02*
X51969D01*
X46194D02*
X47219D01*
X42969D02*
X44069D01*
X40044D02*
X41119D01*
X37094D02*
X38194D01*
X35594D02*
X36594D01*
X33894D02*
X34969D01*
X30944D02*
X32044D01*
X29294D02*
X30394D01*
X26369D02*
X27444D01*
X23419D02*
X24519D01*
X81194Y121738D02*
X82219D01*
X79294D02*
X80194D01*
X77594D02*
X78694D01*
X76244D02*
X77244D01*
X68369D02*
X69369D01*
X66919D02*
X68019D01*
X65419D02*
X66319D01*
X63394D02*
X64419D01*
X55544D02*
X56519D01*
X47794D02*
X51969D01*
X46194D02*
X47219D01*
X42969D02*
X44069D01*
X40044D02*
X41119D01*
X37094D02*
X38194D01*
X35594D02*
X36594D01*
X33894D02*
X34969D01*
X30944D02*
X32044D01*
X29294D02*
X30394D01*
X26369D02*
X27444D01*
X23419D02*
X24519D01*
X81194Y121713D02*
X82194D01*
X79269D02*
X80219D01*
X77569D02*
X78694D01*
X76244D02*
X77219D01*
X68394D02*
X69369D01*
X66919D02*
X68044D01*
X65394D02*
X66344D01*
X63419D02*
X64419D01*
X55544D02*
X56519D01*
X47794D02*
X51969D01*
X46194D02*
X47219D01*
X42969D02*
X44069D01*
X40044D02*
X41119D01*
X37094D02*
X38194D01*
X35594D02*
X36594D01*
X33894D02*
X34969D01*
X30944D02*
X32044D01*
X29294D02*
X30394D01*
X26369D02*
X27444D01*
X23419D02*
X24519D01*
X81219Y121688D02*
X82194D01*
X79269D02*
X80244D01*
X77569D02*
X78694D01*
X76269D02*
X77219D01*
X68394D02*
X69344D01*
X66919D02*
X68044D01*
X65394D02*
X66344D01*
X63419D02*
X64394D01*
X55544D02*
X56519D01*
X47794D02*
X51969D01*
X46194D02*
X47219D01*
X42969D02*
X44069D01*
X40044D02*
X41119D01*
X37094D02*
X38194D01*
X35594D02*
X36594D01*
X33894D02*
X34969D01*
X30944D02*
X32044D01*
X29294D02*
X30394D01*
X26369D02*
X27444D01*
X23419D02*
X24519D01*
X81244Y121663D02*
X82169D01*
X79244D02*
X80244D01*
X77569D02*
X78719D01*
X76294D02*
X77194D01*
X68419D02*
X69319D01*
X66894D02*
X68044D01*
X65369D02*
X66369D01*
X63444D02*
X64369D01*
X55544D02*
X56519D01*
X47794D02*
X51969D01*
X46194D02*
X47219D01*
X42969D02*
X44069D01*
X40044D02*
X41119D01*
X37094D02*
X38194D01*
X35594D02*
X36594D01*
X33894D02*
X34969D01*
X30944D02*
X32044D01*
X29294D02*
X30394D01*
X26369D02*
X27444D01*
X23419D02*
X24519D01*
X81244Y121638D02*
X82144D01*
X79219D02*
X80269D01*
X77569D02*
X78719D01*
X76319D02*
X77169D01*
X68444D02*
X69294D01*
X66894D02*
X68069D01*
X65344D02*
X66394D01*
X63469D02*
X64369D01*
X55544D02*
X56519D01*
X47794D02*
X51969D01*
X46194D02*
X47219D01*
X42969D02*
X44069D01*
X40044D02*
X41119D01*
X37094D02*
X38194D01*
X35594D02*
X36594D01*
X33894D02*
X34969D01*
X30944D02*
X32044D01*
X29294D02*
X30394D01*
X26369D02*
X27444D01*
X23419D02*
X24519D01*
X81269Y121613D02*
X82119D01*
X79219D02*
X80269D01*
X77544D02*
X78719D01*
X76344D02*
X77144D01*
X68469D02*
X69269D01*
X66894D02*
X68069D01*
X65344D02*
X66394D01*
X63494D02*
X64344D01*
X55544D02*
X56519D01*
X47819D02*
X51969D01*
X46194D02*
X47219D01*
X42969D02*
X44069D01*
X40044D02*
X41119D01*
X37094D02*
X38194D01*
X35594D02*
X36594D01*
X33894D02*
X34969D01*
X30944D02*
X32044D01*
X29294D02*
X30394D01*
X26369D02*
X27444D01*
X23419D02*
X24519D01*
X81294Y121588D02*
X82094D01*
X79194D02*
X80294D01*
X77544D02*
X78719D01*
X76369D02*
X77119D01*
X68494D02*
X69244D01*
X66894D02*
X68069D01*
X65319D02*
X66419D01*
X63519D02*
X64319D01*
X55544D02*
X56519D01*
X47819D02*
X51969D01*
X46194D02*
X47219D01*
X42969D02*
X44069D01*
X40044D02*
X41119D01*
X37094D02*
X38194D01*
X35594D02*
X36594D01*
X33894D02*
X34969D01*
X30944D02*
X32044D01*
X29294D02*
X30394D01*
X26369D02*
X27444D01*
X23419D02*
X24519D01*
X81344Y121563D02*
X82069D01*
X79194D02*
X80294D01*
X77544D02*
X78719D01*
X76419D02*
X77069D01*
X68544D02*
X69194D01*
X66894D02*
X68069D01*
X65319D02*
X66419D01*
X63544D02*
X64269D01*
X55544D02*
X56519D01*
X47819D02*
X51969D01*
X46194D02*
X47219D01*
X42969D02*
X44069D01*
X40044D02*
X41119D01*
X37094D02*
X38194D01*
X35594D02*
X36594D01*
X33894D02*
X34969D01*
X30944D02*
X32044D01*
X29294D02*
X30394D01*
X26369D02*
X27444D01*
X23419D02*
X24519D01*
X81369Y121538D02*
X82044D01*
X79194D02*
X80319D01*
X77544D02*
X78719D01*
X76444D02*
X77044D01*
X68569D02*
X69169D01*
X66894D02*
X68069D01*
X65294D02*
X66419D01*
X63569D02*
X64244D01*
X55544D02*
X56519D01*
X47819D02*
X51969D01*
X46194D02*
X47219D01*
X42969D02*
X44069D01*
X40044D02*
X41119D01*
X37094D02*
X38194D01*
X35594D02*
X36594D01*
X33894D02*
X34969D01*
X30944D02*
X32044D01*
X29294D02*
X30394D01*
X26369D02*
X27444D01*
X23419D02*
X24519D01*
X81419Y121513D02*
X81994D01*
X79169D02*
X80319D01*
X77544D02*
X78719D01*
X76494D02*
X76994D01*
X68619D02*
X69119D01*
X66894D02*
X68069D01*
X65294D02*
X66444D01*
X63619D02*
X64194D01*
X55544D02*
X56519D01*
X47844D02*
X51969D01*
X46194D02*
X47219D01*
X42969D02*
X44069D01*
X40044D02*
X41119D01*
X37094D02*
X38194D01*
X35594D02*
X36594D01*
X33894D02*
X34969D01*
X30944D02*
X32044D01*
X29294D02*
X30394D01*
X26369D02*
X27444D01*
X23419D02*
X24519D01*
X81444Y121488D02*
X81944D01*
X79169D02*
X80319D01*
X77544D02*
X78719D01*
X76569D02*
X76919D01*
X68694D02*
X69044D01*
X66894D02*
X68069D01*
X65294D02*
X66444D01*
X63669D02*
X64169D01*
X55544D02*
X56519D01*
X47844D02*
X51969D01*
X46194D02*
X47219D01*
X42969D02*
X44069D01*
X40044D02*
X41119D01*
X37094D02*
X38194D01*
X35594D02*
X36594D01*
X33894D02*
X34969D01*
X30944D02*
X32044D01*
X29294D02*
X30394D01*
X26369D02*
X27444D01*
X23419D02*
X24519D01*
X81519Y121463D02*
X81894D01*
X79169D02*
X80319D01*
X77544D02*
X78719D01*
X76669D02*
X76794D01*
X68819D02*
X68944D01*
X66894D02*
X68069D01*
X65294D02*
X66444D01*
X63719D02*
X64094D01*
X55544D02*
X56519D01*
X47869D02*
X51969D01*
X46194D02*
X47219D01*
X42969D02*
X44069D01*
X40044D02*
X41119D01*
X37094D02*
X38194D01*
X35594D02*
X36594D01*
X33894D02*
X34969D01*
X30944D02*
X32044D01*
X29294D02*
X30394D01*
X26369D02*
X27444D01*
X23419D02*
X24519D01*
X81644Y121438D02*
X81769D01*
X79169D02*
X80344D01*
X77544D02*
X78719D01*
X66894D02*
X68069D01*
X65294D02*
X66444D01*
X63844D02*
X63969D01*
X55544D02*
X56519D01*
X47869D02*
X51969D01*
X46194D02*
X47219D01*
X42969D02*
X44069D01*
X40044D02*
X41119D01*
X37094D02*
X38194D01*
X35594D02*
X36594D01*
X33894D02*
X34969D01*
X30944D02*
X32044D01*
X29294D02*
X30394D01*
X26369D02*
X27444D01*
X23419D02*
X24519D01*
X79169Y121413D02*
X80344D01*
X77544D02*
X78719D01*
X66894D02*
X68069D01*
X65269D02*
X66444D01*
X55544D02*
X56519D01*
X47894D02*
X51969D01*
X46194D02*
X47219D01*
X42969D02*
X44069D01*
X40044D02*
X41119D01*
X37094D02*
X38194D01*
X35594D02*
X36594D01*
X33894D02*
X34969D01*
X30944D02*
X32044D01*
X29294D02*
X30394D01*
X26369D02*
X27444D01*
X23419D02*
X24519D01*
X79169Y121388D02*
X80344D01*
X77569D02*
X78719D01*
X66894D02*
X68044D01*
X65269D02*
X66444D01*
X55544D02*
X56519D01*
X47919D02*
X51969D01*
X46194D02*
X47219D01*
X42969D02*
X44069D01*
X40044D02*
X41119D01*
X37094D02*
X38194D01*
X35594D02*
X36594D01*
X33894D02*
X34969D01*
X30944D02*
X32044D01*
X29294D02*
X30394D01*
X26369D02*
X27444D01*
X23419D02*
X24519D01*
X79144Y121363D02*
X80344D01*
X77569D02*
X78719D01*
X66919D02*
X68044D01*
X65269D02*
X66469D01*
X55544D02*
X56519D01*
X47919D02*
X51969D01*
X46194D02*
X47219D01*
X42969D02*
X44069D01*
X40044D02*
X41119D01*
X37094D02*
X38194D01*
X35594D02*
X36594D01*
X33894D02*
X34969D01*
X30944D02*
X32044D01*
X29294D02*
X30394D01*
X26369D02*
X27444D01*
X23419D02*
X24519D01*
X79144Y121338D02*
X80344D01*
X77569D02*
X78694D01*
X66919D02*
X68044D01*
X65269D02*
X66469D01*
X55544D02*
X56519D01*
X47944D02*
X51969D01*
X46194D02*
X47219D01*
X42969D02*
X44069D01*
X40044D02*
X41119D01*
X37094D02*
X38194D01*
X35594D02*
X36594D01*
X33894D02*
X34969D01*
X30944D02*
X32044D01*
X29294D02*
X30394D01*
X26369D02*
X27444D01*
X23419D02*
X24519D01*
X79169Y121313D02*
X80344D01*
X77569D02*
X78694D01*
X66919D02*
X68044D01*
X65269D02*
X66444D01*
X55544D02*
X56519D01*
X47969D02*
X51969D01*
X46194D02*
X47219D01*
X42969D02*
X44069D01*
X40044D02*
X41119D01*
X37094D02*
X38194D01*
X35594D02*
X36594D01*
X33894D02*
X34969D01*
X30944D02*
X32044D01*
X29294D02*
X30394D01*
X26369D02*
X27444D01*
X23419D02*
X24519D01*
X79169Y121288D02*
X80344D01*
X77594D02*
X78669D01*
X66944D02*
X68019D01*
X65269D02*
X66444D01*
X55544D02*
X56519D01*
X48019D02*
X51969D01*
X46194D02*
X47219D01*
X42969D02*
X44069D01*
X40044D02*
X41119D01*
X37094D02*
X38194D01*
X35594D02*
X36594D01*
X33894D02*
X34969D01*
X30944D02*
X32044D01*
X29294D02*
X30394D01*
X26369D02*
X27444D01*
X23419D02*
X24519D01*
X79169Y121263D02*
X80344D01*
X77594D02*
X78669D01*
X66944D02*
X68019D01*
X65269D02*
X66444D01*
X55544D02*
X56519D01*
X48044D02*
X51969D01*
X46194D02*
X47219D01*
X42969D02*
X44069D01*
X40044D02*
X41119D01*
X37094D02*
X38194D01*
X35594D02*
X36594D01*
X33894D02*
X34969D01*
X30944D02*
X32044D01*
X29294D02*
X30394D01*
X26369D02*
X27444D01*
X23419D02*
X24519D01*
X79169Y121238D02*
X80319D01*
X77619D02*
X78669D01*
X66944D02*
X67994D01*
X65294D02*
X66444D01*
X55544D02*
X56519D01*
X48094D02*
X51969D01*
X46194D02*
X47219D01*
X42969D02*
X44069D01*
X40044D02*
X41119D01*
X37094D02*
X38194D01*
X35594D02*
X36594D01*
X33894D02*
X34969D01*
X30944D02*
X32044D01*
X29294D02*
X30394D01*
X26369D02*
X27444D01*
X23419D02*
X24519D01*
X79169Y121213D02*
X80319D01*
X77619D02*
X78644D01*
X66969D02*
X67994D01*
X65294D02*
X66444D01*
X55544D02*
X56519D01*
X48144D02*
X51969D01*
X46194D02*
X47219D01*
X42969D02*
X44069D01*
X40044D02*
X41119D01*
X37094D02*
X38194D01*
X35594D02*
X36594D01*
X33894D02*
X34969D01*
X30944D02*
X32044D01*
X29294D02*
X30394D01*
X26369D02*
X27444D01*
X23419D02*
X24519D01*
X79169Y121188D02*
X80319D01*
X77644D02*
X78619D01*
X66994D02*
X67969D01*
X65294D02*
X66444D01*
X55544D02*
X56519D01*
X48219D02*
X51969D01*
X46194D02*
X47219D01*
X42969D02*
X44069D01*
X40044D02*
X41119D01*
X37094D02*
X38194D01*
X35594D02*
X36594D01*
X33894D02*
X34969D01*
X30944D02*
X32044D01*
X29294D02*
X30394D01*
X26369D02*
X27444D01*
X23419D02*
X24519D01*
X79194Y121163D02*
X80319D01*
X77669D02*
X78619D01*
X66994D02*
X67944D01*
X65294D02*
X66419D01*
X55544D02*
X56519D01*
X50819D02*
X51969D01*
X46194D02*
X47219D01*
X42969D02*
X44069D01*
X40044D02*
X41119D01*
X37094D02*
X38194D01*
X35594D02*
X36594D01*
X33894D02*
X34969D01*
X30944D02*
X32044D01*
X29294D02*
X30394D01*
X26369D02*
X27444D01*
X23419D02*
X24519D01*
X79194Y121138D02*
X80294D01*
X77669D02*
X78594D01*
X67019D02*
X67944D01*
X65319D02*
X66419D01*
X55544D02*
X56519D01*
X50819D02*
X51969D01*
X46194D02*
X47219D01*
X42969D02*
X44069D01*
X40044D02*
X41119D01*
X37094D02*
X38194D01*
X35594D02*
X36594D01*
X33894D02*
X34969D01*
X30944D02*
X32044D01*
X29294D02*
X30394D01*
X26369D02*
X27444D01*
X23419D02*
X24519D01*
X79194Y121113D02*
X80294D01*
X77694D02*
X78569D01*
X67044D02*
X67919D01*
X65319D02*
X66419D01*
X55544D02*
X56519D01*
X50819D02*
X51969D01*
X46194D02*
X47219D01*
X42969D02*
X44069D01*
X40044D02*
X41119D01*
X37094D02*
X38194D01*
X35594D02*
X36594D01*
X33894D02*
X34969D01*
X30944D02*
X32044D01*
X29294D02*
X30394D01*
X26369D02*
X27444D01*
X23419D02*
X24519D01*
X79219Y121088D02*
X80269D01*
X77719D02*
X78544D01*
X67069D02*
X67894D01*
X65344D02*
X66394D01*
X55544D02*
X56519D01*
X50819D02*
X51969D01*
X46194D02*
X47219D01*
X42969D02*
X44069D01*
X40044D02*
X41119D01*
X37094D02*
X38194D01*
X35594D02*
X36594D01*
X33894D02*
X34969D01*
X30944D02*
X32044D01*
X29294D02*
X30394D01*
X26369D02*
X27444D01*
X23419D02*
X24519D01*
X79219Y121063D02*
X80269D01*
X77744D02*
X78519D01*
X67094D02*
X67869D01*
X65344D02*
X66394D01*
X55544D02*
X56519D01*
X50819D02*
X51969D01*
X46194D02*
X47219D01*
X42969D02*
X44069D01*
X40044D02*
X41119D01*
X37094D02*
X38194D01*
X35594D02*
X36594D01*
X33894D02*
X34969D01*
X30969D02*
X32044D01*
X29294D02*
X30394D01*
X26369D02*
X27444D01*
X23419D02*
X24519D01*
X79244Y121038D02*
X80244D01*
X77794D02*
X78494D01*
X67119D02*
X67819D01*
X65369D02*
X66369D01*
X55544D02*
X56519D01*
X50844D02*
X51969D01*
X46194D02*
X47219D01*
X42969D02*
X44069D01*
X40044D02*
X41119D01*
X37094D02*
X38194D01*
X35594D02*
X36594D01*
X33869D02*
X34969D01*
X30969D02*
X32044D01*
X29294D02*
X30394D01*
X26369D02*
X27444D01*
X23419D02*
X24519D01*
X79269Y121013D02*
X80244D01*
X77819D02*
X78444D01*
X67169D02*
X67794D01*
X65369D02*
X66344D01*
X55544D02*
X56519D01*
X50844D02*
X51969D01*
X46194D02*
X47219D01*
X42969D02*
X44069D01*
X40044D02*
X41119D01*
X37094D02*
X38194D01*
X35594D02*
X36594D01*
X33869D02*
X34969D01*
X30969D02*
X32044D01*
X29294D02*
X30394D01*
X26369D02*
X27444D01*
X23419D02*
X24519D01*
X79269Y120988D02*
X80219D01*
X77869D02*
X78394D01*
X72644D02*
X72969D01*
X67219D02*
X67744D01*
X65394D02*
X66344D01*
X55544D02*
X56519D01*
X50844D02*
X51969D01*
X46194D02*
X47219D01*
X42969D02*
X44069D01*
X40044D02*
X41119D01*
X37094D02*
X38194D01*
X35594D02*
X36594D01*
X33869D02*
X34969D01*
X30969D02*
X32069D01*
X29294D02*
X30394D01*
X26369D02*
X27444D01*
X23419D02*
X24519D01*
X79294Y120963D02*
X80194D01*
X77919D02*
X78344D01*
X72569D02*
X73044D01*
X67269D02*
X67694D01*
X65419D02*
X66319D01*
X55544D02*
X56519D01*
X50844D02*
X51944D01*
X46194D02*
X47219D01*
X42969D02*
X44069D01*
X40044D02*
X41119D01*
X37094D02*
X38194D01*
X35594D02*
X36594D01*
X33869D02*
X34969D01*
X30969D02*
X32069D01*
X29294D02*
X30394D01*
X26369D02*
X27444D01*
X23419D02*
X24519D01*
X79319Y120938D02*
X80169D01*
X78019D02*
X78269D01*
X72519D02*
X73094D01*
X67344D02*
X67619D01*
X65444D02*
X66294D01*
X55544D02*
X56519D01*
X50819D02*
X51944D01*
X46194D02*
X47219D01*
X42969D02*
X44069D01*
X40044D02*
X41119D01*
X37094D02*
X38194D01*
X35594D02*
X36594D01*
X33869D02*
X34969D01*
X30969D02*
X32069D01*
X29294D02*
X30394D01*
X26369D02*
X27444D01*
X23419D02*
X24519D01*
X79344Y120913D02*
X80144D01*
X72469D02*
X73144D01*
X65469D02*
X66269D01*
X55544D02*
X56519D01*
X50819D02*
X51944D01*
X46194D02*
X47219D01*
X42969D02*
X44069D01*
X40044D02*
X41119D01*
X37094D02*
X38194D01*
X35594D02*
X36594D01*
X33844D02*
X34944D01*
X30969D02*
X32069D01*
X29294D02*
X30394D01*
X26369D02*
X27444D01*
X23419D02*
X24519D01*
X79369Y120888D02*
X80119D01*
X72444D02*
X73169D01*
X65494D02*
X66244D01*
X55544D02*
X56519D01*
X50819D02*
X51944D01*
X46194D02*
X47219D01*
X42969D02*
X44069D01*
X40044D02*
X41119D01*
X37094D02*
X38194D01*
X35594D02*
X36594D01*
X33844D02*
X34944D01*
X30969D02*
X32094D01*
X29294D02*
X30394D01*
X26369D02*
X27444D01*
X23419D02*
X24519D01*
X79419Y120863D02*
X80094D01*
X72419D02*
X73194D01*
X65519D02*
X66194D01*
X55544D02*
X56519D01*
X50819D02*
X51944D01*
X46194D02*
X47219D01*
X42969D02*
X44069D01*
X40044D02*
X41119D01*
X37094D02*
X38194D01*
X35594D02*
X36594D01*
X33844D02*
X34944D01*
X30994D02*
X32094D01*
X29294D02*
X30394D01*
X26369D02*
X27444D01*
X23419D02*
X24519D01*
X80544Y120838D02*
X80819D01*
X79444D02*
X80044D01*
X72394D02*
X73219D01*
X65569D02*
X66169D01*
X64794D02*
X65069D01*
X55544D02*
X56519D01*
X50819D02*
X51919D01*
X46194D02*
X47219D01*
X42969D02*
X44069D01*
X40044D02*
X41119D01*
X37094D02*
X38194D01*
X35594D02*
X36594D01*
X33819D02*
X34944D01*
X30994D02*
X32094D01*
X29294D02*
X30394D01*
X26369D02*
X27444D01*
X23419D02*
X24519D01*
X80469Y120813D02*
X80894D01*
X79494D02*
X79994D01*
X72369D02*
X73244D01*
X65619D02*
X66119D01*
X64719D02*
X65144D01*
X55544D02*
X56519D01*
X50819D02*
X51919D01*
X46194D02*
X47219D01*
X42969D02*
X44069D01*
X40044D02*
X41119D01*
X37094D02*
X38194D01*
X35594D02*
X36594D01*
X33819D02*
X34944D01*
X30994D02*
X32119D01*
X29294D02*
X30394D01*
X26369D02*
X27444D01*
X23419D02*
X24519D01*
X80419Y120788D02*
X80944D01*
X79569D02*
X79944D01*
X72344D02*
X73269D01*
X65669D02*
X66044D01*
X64669D02*
X65194D01*
X55544D02*
X56519D01*
X50819D02*
X51919D01*
X46194D02*
X47219D01*
X42969D02*
X44069D01*
X40044D02*
X41119D01*
X37094D02*
X38194D01*
X35594D02*
X36594D01*
X33819D02*
X34944D01*
X30994D02*
X32119D01*
X29294D02*
X30394D01*
X26369D02*
X27444D01*
X23419D02*
X24519D01*
X80369Y120763D02*
X80994D01*
X79669D02*
X79819D01*
X72319D02*
X73294D01*
X65794D02*
X65944D01*
X64619D02*
X65244D01*
X55544D02*
X56519D01*
X50794D02*
X51919D01*
X46194D02*
X47219D01*
X42969D02*
X44069D01*
X40044D02*
X41119D01*
X37094D02*
X38194D01*
X35594D02*
X36594D01*
X33794D02*
X34919D01*
X30994D02*
X32119D01*
X29294D02*
X30394D01*
X26369D02*
X27444D01*
X23419D02*
X24519D01*
X80344Y120738D02*
X81044D01*
X72319D02*
X73294D01*
X64569D02*
X65269D01*
X55544D02*
X56519D01*
X50794D02*
X51894D01*
X46194D02*
X47219D01*
X42969D02*
X44069D01*
X40044D02*
X41119D01*
X37094D02*
X38194D01*
X35594D02*
X36594D01*
X33794D02*
X34919D01*
X31019D02*
X32144D01*
X29294D02*
X30394D01*
X26369D02*
X27444D01*
X23419D02*
X24519D01*
X80294Y120713D02*
X81069D01*
X72294D02*
X73319D01*
X64544D02*
X65319D01*
X55544D02*
X56519D01*
X50794D02*
X51894D01*
X46194D02*
X47219D01*
X42969D02*
X44069D01*
X40044D02*
X41119D01*
X37094D02*
X38194D01*
X35594D02*
X36594D01*
X33769D02*
X34919D01*
X31019D02*
X32169D01*
X29294D02*
X30394D01*
X26369D02*
X27444D01*
X23419D02*
X24519D01*
X80269Y120688D02*
X81094D01*
X72269D02*
X73344D01*
X64519D02*
X65344D01*
X55544D02*
X56519D01*
X50769D02*
X51894D01*
X46194D02*
X47219D01*
X42969D02*
X44069D01*
X40044D02*
X41119D01*
X37094D02*
X38194D01*
X35594D02*
X36594D01*
X33769D02*
X34919D01*
X31019D02*
X32169D01*
X29294D02*
X30394D01*
X26369D02*
X27444D01*
X23419D02*
X24519D01*
X80244Y120663D02*
X81119D01*
X78594D02*
X78819D01*
X72269D02*
X73344D01*
X66794D02*
X67019D01*
X64494D02*
X65369D01*
X55544D02*
X56519D01*
X50769D02*
X51894D01*
X46194D02*
X47219D01*
X42969D02*
X44069D01*
X40044D02*
X41119D01*
X37094D02*
X38194D01*
X35594D02*
X36594D01*
X33744D02*
X34894D01*
X31019D02*
X32194D01*
X29294D02*
X30394D01*
X26369D02*
X27444D01*
X23419D02*
X24519D01*
X80219Y120638D02*
X81144D01*
X78494D02*
X78919D01*
X72269D02*
X73369D01*
X66694D02*
X67119D01*
X64469D02*
X65394D01*
X55544D02*
X56519D01*
X50769D02*
X51869D01*
X46194D02*
X47219D01*
X42969D02*
X44069D01*
X40044D02*
X41119D01*
X37094D02*
X38194D01*
X35594D02*
X36594D01*
X33719D02*
X34894D01*
X31044D02*
X32194D01*
X29294D02*
X30394D01*
X26369D02*
X27444D01*
X23419D02*
X24519D01*
X80219Y120613D02*
X81169D01*
X78444D02*
X78969D01*
X72244D02*
X73369D01*
X66644D02*
X67169D01*
X64444D02*
X65394D01*
X55544D02*
X56519D01*
X50744D02*
X51869D01*
X46194D02*
X47219D01*
X42969D02*
X44069D01*
X40044D02*
X41119D01*
X37094D02*
X38194D01*
X35594D02*
X36594D01*
X33719D02*
X34894D01*
X31044D02*
X32219D01*
X29294D02*
X30394D01*
X26369D02*
X27444D01*
X23419D02*
X24519D01*
X80194Y120588D02*
X81169D01*
X78394D02*
X79019D01*
X72244D02*
X73369D01*
X66594D02*
X67219D01*
X64444D02*
X65419D01*
X55544D02*
X56519D01*
X50744D02*
X51869D01*
X46194D02*
X47219D01*
X42969D02*
X44069D01*
X40044D02*
X41119D01*
X37094D02*
X38194D01*
X35594D02*
X36594D01*
X33694D02*
X34869D01*
X31044D02*
X32244D01*
X29294D02*
X30394D01*
X26369D02*
X27444D01*
X23419D02*
X24519D01*
X80169Y120563D02*
X81194D01*
X78369D02*
X79044D01*
X72244D02*
X73369D01*
X66569D02*
X67244D01*
X64419D02*
X65444D01*
X55544D02*
X56519D01*
X50719D02*
X51844D01*
X46194D02*
X47219D01*
X42969D02*
X44069D01*
X40044D02*
X41119D01*
X37094D02*
X38194D01*
X35594D02*
X36594D01*
X33669D02*
X34869D01*
X31069D02*
X32269D01*
X29294D02*
X30394D01*
X26369D02*
X27444D01*
X23419D02*
X24519D01*
X80169Y120538D02*
X81219D01*
X78319D02*
X79094D01*
X76144D02*
X76419D01*
X72219D02*
X73394D01*
X69194D02*
X69469D01*
X66519D02*
X67294D01*
X64394D02*
X65444D01*
X55544D02*
X56519D01*
X50719D02*
X51844D01*
X46194D02*
X47219D01*
X42969D02*
X44069D01*
X40044D02*
X41119D01*
X37094D02*
X38194D01*
X35594D02*
X36594D01*
X33644D02*
X34869D01*
X31069D02*
X32294D01*
X29294D02*
X30394D01*
X26369D02*
X27444D01*
X23419D02*
X24519D01*
X80144Y120513D02*
X81219D01*
X78294D02*
X79119D01*
X76069D02*
X76494D01*
X72219D02*
X73394D01*
X69119D02*
X69544D01*
X66494D02*
X67319D01*
X64394D02*
X65469D01*
X55544D02*
X56519D01*
X50694D02*
X51844D01*
X46194D02*
X47219D01*
X42969D02*
X44069D01*
X40044D02*
X41119D01*
X37094D02*
X38194D01*
X35594D02*
X36594D01*
X33619D02*
X34844D01*
X31069D02*
X32294D01*
X29294D02*
X30394D01*
X26369D02*
X27444D01*
X23419D02*
X24519D01*
X80144Y120488D02*
X81244D01*
X78269D02*
X79144D01*
X76019D02*
X76544D01*
X72219D02*
X73394D01*
X69069D02*
X69594D01*
X66469D02*
X67344D01*
X64369D02*
X65469D01*
X55544D02*
X56519D01*
X50694D02*
X51819D01*
X46194D02*
X47219D01*
X42969D02*
X44069D01*
X40044D02*
X41119D01*
X37094D02*
X38194D01*
X35594D02*
X36594D01*
X33594D02*
X34844D01*
X31094D02*
X32319D01*
X29294D02*
X30394D01*
X26369D02*
X27444D01*
X23419D02*
X24519D01*
X80119Y120463D02*
X81244D01*
X78244D02*
X79169D01*
X75969D02*
X76594D01*
X72219D02*
X73394D01*
X69019D02*
X69644D01*
X66444D02*
X67369D01*
X64369D02*
X65494D01*
X55544D02*
X56519D01*
X50669D02*
X51819D01*
X46194D02*
X47219D01*
X42969D02*
X44069D01*
X40044D02*
X41119D01*
X37094D02*
X38194D01*
X35594D02*
X36594D01*
X33569D02*
X34844D01*
X31094D02*
X32369D01*
X29294D02*
X30394D01*
X26369D02*
X27444D01*
X23419D02*
X24519D01*
X80119Y120438D02*
X81244D01*
X78244D02*
X79194D01*
X75944D02*
X76644D01*
X72219D02*
X73394D01*
X68969D02*
X69669D01*
X66419D02*
X67369D01*
X64369D02*
X65494D01*
X55544D02*
X56519D01*
X50644D02*
X51794D01*
X47919D02*
X49069D01*
X46194D02*
X47219D01*
X42969D02*
X44069D01*
X40044D02*
X41119D01*
X37094D02*
X38194D01*
X35594D02*
X36594D01*
X33544D02*
X34819D01*
X31119D02*
X32394D01*
X29294D02*
X30394D01*
X26369D02*
X27444D01*
X23419D02*
X24519D01*
X80119Y120413D02*
X81269D01*
X78219D02*
X79194D01*
X75894D02*
X76669D01*
X72219D02*
X73394D01*
X68944D02*
X69719D01*
X66419D02*
X67394D01*
X64344D02*
X65494D01*
X55544D02*
X56519D01*
X50644D02*
X51794D01*
X47919D02*
X49094D01*
X46194D02*
X47219D01*
X42969D02*
X44069D01*
X40044D02*
X41119D01*
X37094D02*
X38194D01*
X35594D02*
X36594D01*
X33519D02*
X34819D01*
X31119D02*
X32419D01*
X29294D02*
X30394D01*
X26369D02*
X27444D01*
X23419D02*
X24519D01*
X80119Y120388D02*
X81269D01*
X78194D02*
X79219D01*
X75869D02*
X76694D01*
X72219D02*
X73394D01*
X68919D02*
X69744D01*
X66394D02*
X67419D01*
X64344D02*
X65494D01*
X55544D02*
X56519D01*
X50619D02*
X51769D01*
X47944D02*
X49119D01*
X46194D02*
X47219D01*
X42969D02*
X44069D01*
X40044D02*
X41119D01*
X37094D02*
X38194D01*
X35594D02*
X36594D01*
X33469D02*
X34794D01*
X31119D02*
X32469D01*
X29294D02*
X30394D01*
X26369D02*
X27444D01*
X23419D02*
X24519D01*
X80094Y120363D02*
X81269D01*
X78194D02*
X79219D01*
X75844D02*
X76719D01*
X72219D02*
X73394D01*
X68894D02*
X69769D01*
X66394D02*
X67419D01*
X64344D02*
X65519D01*
X55544D02*
X56519D01*
X50594D02*
X51769D01*
X47944D02*
X49119D01*
X46194D02*
X47219D01*
X42969D02*
X44069D01*
X40044D02*
X41119D01*
X37094D02*
X38194D01*
X35594D02*
X36594D01*
X33444D02*
X34794D01*
X31144D02*
X32494D01*
X29294D02*
X30394D01*
X26369D02*
X27444D01*
X23419D02*
X24519D01*
X80094Y120338D02*
X81269D01*
X78169D02*
X79244D01*
X75819D02*
X76744D01*
X72219D02*
X73394D01*
X68869D02*
X69794D01*
X66369D02*
X67444D01*
X64344D02*
X65519D01*
X55544D02*
X56519D01*
X50569D02*
X51744D01*
X47969D02*
X49144D01*
X46194D02*
X47219D01*
X42969D02*
X44069D01*
X40044D02*
X41119D01*
X37094D02*
X38194D01*
X35594D02*
X36594D01*
X33394D02*
X34769D01*
X31144D02*
X32544D01*
X29294D02*
X30394D01*
X26369D02*
X27444D01*
X23419D02*
X24519D01*
X80094Y120313D02*
X81269D01*
X78169D02*
X79244D01*
X75819D02*
X76769D01*
X72219D02*
X73394D01*
X68844D02*
X69794D01*
X66369D02*
X67444D01*
X64344D02*
X65519D01*
X55544D02*
X56519D01*
X50544D02*
X51744D01*
X47969D02*
X49169D01*
X46194D02*
X47219D01*
X42969D02*
X44069D01*
X40044D02*
X41119D01*
X37094D02*
X38194D01*
X35594D02*
X36594D01*
X33344D02*
X34769D01*
X31169D02*
X32594D01*
X29294D02*
X30394D01*
X26369D02*
X27444D01*
X23419D02*
X24519D01*
X80094Y120288D02*
X81269D01*
X78144D02*
X79269D01*
X75794D02*
X76769D01*
X72219D02*
X73394D01*
X68844D02*
X69819D01*
X66344D02*
X67469D01*
X64344D02*
X65519D01*
X55544D02*
X56519D01*
X50519D02*
X51719D01*
X47994D02*
X49194D01*
X46194D02*
X47219D01*
X42969D02*
X44069D01*
X40044D02*
X41119D01*
X37094D02*
X38194D01*
X35594D02*
X36594D01*
X33269D02*
X34744D01*
X31169D02*
X32669D01*
X29294D02*
X30394D01*
X26369D02*
X27444D01*
X23419D02*
X24519D01*
X80094Y120263D02*
X81269D01*
X78144D02*
X79269D01*
X75769D02*
X76794D01*
X72244D02*
X73369D01*
X68819D02*
X69844D01*
X66344D02*
X67469D01*
X64344D02*
X65519D01*
X55544D02*
X56519D01*
X50494D02*
X51719D01*
X48019D02*
X49219D01*
X46194D02*
X47219D01*
X42969D02*
X44069D01*
X40044D02*
X41119D01*
X37094D02*
X38194D01*
X35594D02*
X36594D01*
X33194D02*
X34744D01*
X31194D02*
X32744D01*
X29294D02*
X30394D01*
X26369D02*
X27444D01*
X23419D02*
X24519D01*
X80094Y120238D02*
X81269D01*
X78144D02*
X79269D01*
X75769D02*
X76819D01*
X72244D02*
X73369D01*
X68794D02*
X69844D01*
X66344D02*
X67469D01*
X64344D02*
X65519D01*
X55544D02*
X56519D01*
X50469D02*
X51694D01*
X48019D02*
X49269D01*
X46194D02*
X47219D01*
X42969D02*
X44069D01*
X40044D02*
X41119D01*
X37094D02*
X38194D01*
X35594D02*
X36594D01*
X33019D02*
X34719D01*
X31194D02*
X32894D01*
X29294D02*
X30394D01*
X26369D02*
X27444D01*
X23419D02*
X24519D01*
X80094Y120213D02*
X81269D01*
X78144D02*
X79294D01*
X75744D02*
X76819D01*
X72244D02*
X73369D01*
X68794D02*
X69869D01*
X66319D02*
X67469D01*
X64344D02*
X65519D01*
X55544D02*
X56519D01*
X50419D02*
X51694D01*
X48044D02*
X49294D01*
X46194D02*
X47219D01*
X42969D02*
X44069D01*
X40044D02*
X41119D01*
X37094D02*
X38194D01*
X35594D02*
X36594D01*
X31219D02*
X34719D01*
X29294D02*
X30394D01*
X26369D02*
X27444D01*
X23419D02*
X24519D01*
X80094Y120188D02*
X81269D01*
X78119D02*
X79294D01*
X75744D02*
X76844D01*
X72269D02*
X73344D01*
X68794D02*
X69869D01*
X66319D02*
X67494D01*
X64344D02*
X65519D01*
X55544D02*
X56519D01*
X50394D02*
X51669D01*
X48044D02*
X49319D01*
X46194D02*
X47219D01*
X42969D02*
X44069D01*
X40044D02*
X41119D01*
X37094D02*
X38194D01*
X35594D02*
X36594D01*
X31244D02*
X34694D01*
X29294D02*
X30394D01*
X26369D02*
X27444D01*
X23419D02*
X24519D01*
X80094Y120163D02*
X81269D01*
X78119D02*
X79294D01*
X75719D02*
X76844D01*
X72269D02*
X73344D01*
X68769D02*
X69894D01*
X66319D02*
X67494D01*
X64344D02*
X65519D01*
X55544D02*
X56519D01*
X50344D02*
X51644D01*
X48069D02*
X49369D01*
X46194D02*
X47219D01*
X42969D02*
X44069D01*
X40044D02*
X41119D01*
X37094D02*
X38194D01*
X35594D02*
X36594D01*
X31244D02*
X34669D01*
X29294D02*
X30394D01*
X26369D02*
X27444D01*
X23419D02*
X24519D01*
X80119Y120138D02*
X81269D01*
X78119D02*
X79294D01*
X75719D02*
X76844D01*
X72294D02*
X73319D01*
X68769D02*
X69894D01*
X66319D02*
X67494D01*
X64344D02*
X65519D01*
X55544D02*
X56519D01*
X50294D02*
X51644D01*
X48094D02*
X49419D01*
X46194D02*
X47219D01*
X42969D02*
X44069D01*
X40044D02*
X41119D01*
X37094D02*
X38169D01*
X35594D02*
X36594D01*
X31269D02*
X34669D01*
X29294D02*
X30394D01*
X26369D02*
X27444D01*
X23419D02*
X24519D01*
X80119Y120113D02*
X81269D01*
X78119D02*
X79294D01*
X75719D02*
X76869D01*
X72294D02*
X73319D01*
X68769D02*
X69894D01*
X66319D02*
X67494D01*
X64344D02*
X65494D01*
X55544D02*
X56519D01*
X50244D02*
X51619D01*
X48094D02*
X49469D01*
X46194D02*
X47219D01*
X42969D02*
X44069D01*
X40044D02*
X41119D01*
X37094D02*
X38169D01*
X35594D02*
X36594D01*
X31269D02*
X34644D01*
X29294D02*
X30394D01*
X26369D02*
X27444D01*
X23419D02*
X24519D01*
X80119Y120088D02*
X81244D01*
X78119D02*
X79294D01*
X75719D02*
X76869D01*
X72319D02*
X73294D01*
X68744D02*
X69919D01*
X66319D02*
X67494D01*
X64369D02*
X65494D01*
X55544D02*
X56519D01*
X50194D02*
X51594D01*
X48119D02*
X49544D01*
X46194D02*
X47219D01*
X42969D02*
X44069D01*
X40044D02*
X41119D01*
X37094D02*
X38169D01*
X35594D02*
X36594D01*
X31294D02*
X34644D01*
X29294D02*
X30394D01*
X26369D02*
X27444D01*
X23419D02*
X24494D01*
X80119Y120063D02*
X81244D01*
X78119D02*
X79294D01*
X75694D02*
X76869D01*
X72344D02*
X73269D01*
X68744D02*
X69919D01*
X66319D02*
X67494D01*
X64369D02*
X65494D01*
X55544D02*
X56519D01*
X50119D02*
X51594D01*
X48144D02*
X49619D01*
X46194D02*
X47219D01*
X42969D02*
X44069D01*
X40044D02*
X41119D01*
X37094D02*
X38169D01*
X35594D02*
X36594D01*
X31319D02*
X34619D01*
X29294D02*
X30394D01*
X26369D02*
X27444D01*
X23419D02*
X24494D01*
X80144Y120038D02*
X81244D01*
X78119D02*
X79294D01*
X75694D02*
X76869D01*
X72369D02*
X73269D01*
X68744D02*
X69919D01*
X66319D02*
X67494D01*
X64369D02*
X65469D01*
X55544D02*
X56519D01*
X49969D02*
X51569D01*
X48144D02*
X49744D01*
X46194D02*
X47219D01*
X42969D02*
X44069D01*
X40044D02*
X41119D01*
X37094D02*
X38169D01*
X35594D02*
X36594D01*
X31344D02*
X34594D01*
X29294D02*
X30394D01*
X26369D02*
X27444D01*
X23419D02*
X24494D01*
X80144Y120013D02*
X81219D01*
X78119D02*
X79294D01*
X75694D02*
X76869D01*
X72369D02*
X73244D01*
X68744D02*
X69919D01*
X66319D02*
X67494D01*
X64394D02*
X65469D01*
X55544D02*
X56519D01*
X48169D02*
X51544D01*
X46194D02*
X47219D01*
X42969D02*
X44069D01*
X40044D02*
X41119D01*
X37094D02*
X38169D01*
X35594D02*
X36594D01*
X31344D02*
X34569D01*
X29294D02*
X30394D01*
X26369D02*
X27444D01*
X23419D02*
X24494D01*
X80169Y119988D02*
X81219D01*
X78119D02*
X79294D01*
X75694D02*
X76869D01*
X72394D02*
X73219D01*
X68744D02*
X69919D01*
X66319D02*
X67494D01*
X64394D02*
X65444D01*
X55544D02*
X56519D01*
X48194D02*
X51519D01*
X46194D02*
X47219D01*
X42969D02*
X44069D01*
X40044D02*
X41119D01*
X37094D02*
X38144D01*
X35594D02*
X36594D01*
X31369D02*
X34569D01*
X29294D02*
X30394D01*
X26369D02*
X27444D01*
X23419D02*
X24494D01*
X80169Y119963D02*
X81194D01*
X78119D02*
X79294D01*
X75694D02*
X76869D01*
X72444D02*
X73169D01*
X68744D02*
X69919D01*
X66319D02*
X67494D01*
X64419D02*
X65444D01*
X55544D02*
X56519D01*
X48219D02*
X51519D01*
X46194D02*
X47219D01*
X42969D02*
X44069D01*
X40044D02*
X41119D01*
X37094D02*
X38144D01*
X35594D02*
X36594D01*
X31394D02*
X34544D01*
X29294D02*
X30394D01*
X26369D02*
X27444D01*
X23419D02*
X24469D01*
X80194Y119938D02*
X81169D01*
X78144D02*
X79294D01*
X75694D02*
X76869D01*
X72469D02*
X73144D01*
X68744D02*
X69919D01*
X66344D02*
X67469D01*
X64444D02*
X65419D01*
X55544D02*
X56519D01*
X48219D02*
X51494D01*
X46194D02*
X47219D01*
X42969D02*
X44069D01*
X40044D02*
X41119D01*
X37094D02*
X38144D01*
X35594D02*
X36594D01*
X31419D02*
X34519D01*
X29294D02*
X30394D01*
X26369D02*
X27444D01*
X23419D02*
X24469D01*
X80219Y119913D02*
X81169D01*
X78144D02*
X79269D01*
X75694D02*
X76869D01*
X72494D02*
X73119D01*
X68744D02*
X69919D01*
X66344D02*
X67469D01*
X64444D02*
X65394D01*
X55544D02*
X56519D01*
X48244D02*
X51469D01*
X46194D02*
X47219D01*
X42969D02*
X44069D01*
X40044D02*
X41119D01*
X37094D02*
X38119D01*
X35594D02*
X36594D01*
X31419D02*
X34494D01*
X29294D02*
X30394D01*
X26369D02*
X27444D01*
X23419D02*
X24469D01*
X80219Y119888D02*
X81144D01*
X78144D02*
X79269D01*
X75694D02*
X76869D01*
X72544D02*
X73069D01*
X68744D02*
X69919D01*
X66344D02*
X67469D01*
X64469D02*
X65394D01*
X55544D02*
X56519D01*
X48269D02*
X51444D01*
X46194D02*
X47219D01*
X42969D02*
X44069D01*
X40044D02*
X41119D01*
X37094D02*
X38119D01*
X35594D02*
X36594D01*
X31444D02*
X34469D01*
X29294D02*
X30394D01*
X26369D02*
X27444D01*
X23419D02*
X24444D01*
X80244Y119863D02*
X81119D01*
X78169D02*
X79269D01*
X75694D02*
X76869D01*
X72619D02*
X72994D01*
X68744D02*
X69919D01*
X66344D02*
X67444D01*
X64494D02*
X65369D01*
X55544D02*
X56519D01*
X48294D02*
X51419D01*
X46194D02*
X47219D01*
X42969D02*
X44069D01*
X40044D02*
X41119D01*
X37094D02*
X38119D01*
X35594D02*
X36594D01*
X31469D02*
X34444D01*
X29294D02*
X30394D01*
X26369D02*
X27444D01*
X23419D02*
X24444D01*
X80269Y119838D02*
X81094D01*
X78169D02*
X79244D01*
X75694D02*
X76869D01*
X72719D02*
X72894D01*
X68744D02*
X69919D01*
X66369D02*
X67444D01*
X64519D02*
X65344D01*
X55544D02*
X56519D01*
X48319D02*
X51394D01*
X46194D02*
X47219D01*
X42969D02*
X44069D01*
X40044D02*
X41119D01*
X37094D02*
X38094D01*
X35594D02*
X36594D01*
X31494D02*
X34444D01*
X29294D02*
X30394D01*
X26369D02*
X27444D01*
X23419D02*
X24444D01*
X80294Y119813D02*
X81069D01*
X78194D02*
X79244D01*
X75719D02*
X76869D01*
X68769D02*
X69894D01*
X66369D02*
X67419D01*
X64544D02*
X65319D01*
X55544D02*
X56519D01*
X48344D02*
X51369D01*
X46194D02*
X47219D01*
X42969D02*
X44069D01*
X40044D02*
X41119D01*
X37094D02*
X38094D01*
X35594D02*
X36594D01*
X31519D02*
X34419D01*
X29294D02*
X30394D01*
X26369D02*
X27444D01*
X23419D02*
X24419D01*
X80344Y119788D02*
X81044D01*
X78194D02*
X79219D01*
X75719D02*
X76844D01*
X68769D02*
X69894D01*
X66394D02*
X67419D01*
X64569D02*
X65269D01*
X55544D02*
X56519D01*
X48369D02*
X51344D01*
X46194D02*
X47219D01*
X42969D02*
X44069D01*
X40044D02*
X41119D01*
X37094D02*
X38069D01*
X35594D02*
X36594D01*
X31544D02*
X34394D01*
X29294D02*
X30394D01*
X26369D02*
X27444D01*
X23419D02*
X24419D01*
X80369Y119763D02*
X80994D01*
X78219D02*
X79194D01*
X75719D02*
X76844D01*
X68769D02*
X69894D01*
X66419D02*
X67394D01*
X64619D02*
X65244D01*
X55544D02*
X56519D01*
X48394D02*
X51319D01*
X46194D02*
X47219D01*
X42969D02*
X44069D01*
X40044D02*
X41119D01*
X37094D02*
X38069D01*
X35594D02*
X36594D01*
X31569D02*
X34369D01*
X29294D02*
X30394D01*
X26369D02*
X27444D01*
X23419D02*
X24394D01*
X80419Y119738D02*
X80969D01*
X78219D02*
X79194D01*
X75744D02*
X76844D01*
X68794D02*
X69869D01*
X66419D02*
X67394D01*
X64644D02*
X65194D01*
X55544D02*
X56519D01*
X48419D02*
X51294D01*
X46194D02*
X47219D01*
X42969D02*
X44069D01*
X40044D02*
X41119D01*
X37094D02*
X38044D01*
X35594D02*
X36594D01*
X31594D02*
X34344D01*
X29294D02*
X30394D01*
X26369D02*
X27444D01*
X23419D02*
X24394D01*
X80469Y119713D02*
X80894D01*
X78244D02*
X79169D01*
X75744D02*
X76819D01*
X73894D02*
X74144D01*
X71469D02*
X71719D01*
X68794D02*
X69869D01*
X66444D02*
X67369D01*
X64719D02*
X65144D01*
X55544D02*
X56519D01*
X48444D02*
X51269D01*
X46194D02*
X47219D01*
X42969D02*
X44069D01*
X40044D02*
X41119D01*
X37094D02*
X38044D01*
X35594D02*
X36594D01*
X31619D02*
X34294D01*
X29294D02*
X30394D01*
X26369D02*
X27444D01*
X23419D02*
X24369D01*
X80544Y119688D02*
X80819D01*
X78269D02*
X79144D01*
X75769D02*
X76819D01*
X73794D02*
X74219D01*
X71394D02*
X71819D01*
X68794D02*
X69844D01*
X66469D02*
X67344D01*
X64794D02*
X65069D01*
X55544D02*
X56519D01*
X48469D02*
X51244D01*
X46194D02*
X47219D01*
X42969D02*
X44069D01*
X40044D02*
X41119D01*
X37094D02*
X38019D01*
X35594D02*
X36594D01*
X31644D02*
X34269D01*
X29294D02*
X30394D01*
X26369D02*
X27444D01*
X23419D02*
X24344D01*
X78294Y119663D02*
X79119D01*
X75769D02*
X76794D01*
X73744D02*
X74294D01*
X71319D02*
X71869D01*
X68819D02*
X69844D01*
X66494D02*
X67319D01*
X55544D02*
X56519D01*
X48519D02*
X51219D01*
X46194D02*
X47219D01*
X42969D02*
X44069D01*
X40044D02*
X41119D01*
X37094D02*
X37994D01*
X35594D02*
X36594D01*
X31694D02*
X34244D01*
X29294D02*
X30394D01*
X26369D02*
X27444D01*
X23419D02*
X24344D01*
X78319Y119638D02*
X79094D01*
X75794D02*
X76769D01*
X73694D02*
X74319D01*
X71294D02*
X71919D01*
X68844D02*
X69819D01*
X66519D02*
X67294D01*
X55544D02*
X56519D01*
X48544D02*
X51194D01*
X46194D02*
X47219D01*
X42969D02*
X44069D01*
X40044D02*
X41119D01*
X37094D02*
X37994D01*
X35594D02*
X36594D01*
X31719D02*
X34219D01*
X29294D02*
X30394D01*
X26369D02*
X27444D01*
X23419D02*
X24319D01*
X78344Y119613D02*
X79069D01*
X77269D02*
X77619D01*
X75819D02*
X76769D01*
X73669D02*
X74369D01*
X71244D02*
X71944D01*
X68844D02*
X69794D01*
X67994D02*
X68344D01*
X66544D02*
X67269D01*
X55544D02*
X56519D01*
X48569D02*
X51144D01*
X46194D02*
X47219D01*
X42969D02*
X44069D01*
X40044D02*
X41119D01*
X37094D02*
X37969D01*
X35594D02*
X36594D01*
X31744D02*
X34194D01*
X29294D02*
X30394D01*
X26369D02*
X27444D01*
X23419D02*
X24294D01*
X78394Y119588D02*
X79019D01*
X77219D02*
X77694D01*
X75819D02*
X76744D01*
X73644D02*
X74394D01*
X71219D02*
X71969D01*
X68869D02*
X69794D01*
X67919D02*
X68419D01*
X66594D02*
X67219D01*
X55544D02*
X56519D01*
X48594D02*
X51119D01*
X46194D02*
X47219D01*
X42969D02*
X44069D01*
X40044D02*
X41119D01*
X37094D02*
X37944D01*
X35594D02*
X36594D01*
X31769D02*
X34144D01*
X29294D02*
X30394D01*
X26369D02*
X27444D01*
X23419D02*
X24294D01*
X78419Y119563D02*
X78994D01*
X77169D02*
X77744D01*
X75844D02*
X76719D01*
X73594D02*
X74419D01*
X71194D02*
X72019D01*
X68894D02*
X69769D01*
X67869D02*
X68469D01*
X66619D02*
X67194D01*
X55544D02*
X56519D01*
X48644D02*
X51094D01*
X46194D02*
X47219D01*
X42969D02*
X44069D01*
X40044D02*
X41119D01*
X37094D02*
X37919D01*
X35594D02*
X36594D01*
X31819D02*
X34119D01*
X29294D02*
X30394D01*
X26369D02*
X27444D01*
X23419D02*
X24269D01*
X78494Y119538D02*
X78944D01*
X77119D02*
X77769D01*
X75869D02*
X76694D01*
X73569D02*
X74444D01*
X71169D02*
X72044D01*
X68919D02*
X69744D01*
X67844D02*
X68494D01*
X66669D02*
X67119D01*
X55544D02*
X56519D01*
X48669D02*
X51044D01*
X46194D02*
X47219D01*
X42969D02*
X44069D01*
X40044D02*
X41119D01*
X37094D02*
X37894D01*
X35594D02*
X36594D01*
X31844D02*
X34069D01*
X29294D02*
X30394D01*
X26369D02*
X27444D01*
X23419D02*
X24244D01*
X78569Y119513D02*
X78869D01*
X77069D02*
X77819D01*
X75894D02*
X76669D01*
X73569D02*
X74469D01*
X71144D02*
X72044D01*
X68944D02*
X69719D01*
X67794D02*
X68544D01*
X66744D02*
X67069D01*
X55544D02*
X56519D01*
X48719D02*
X51019D01*
X46194D02*
X47219D01*
X42969D02*
X44069D01*
X40044D02*
X41119D01*
X37094D02*
X37894D01*
X35594D02*
X36594D01*
X31894D02*
X34044D01*
X29294D02*
X30394D01*
X26369D02*
X27444D01*
X23419D02*
X24219D01*
X77044Y119488D02*
X77844D01*
X75919D02*
X76644D01*
X73544D02*
X74494D01*
X71119D02*
X72069D01*
X68969D02*
X69694D01*
X67769D02*
X68569D01*
X55544D02*
X56519D01*
X48744D02*
X50969D01*
X46194D02*
X47219D01*
X42969D02*
X44069D01*
X40044D02*
X41119D01*
X37094D02*
X37869D01*
X35594D02*
X36594D01*
X31919D02*
X33994D01*
X29294D02*
X30394D01*
X26369D02*
X27444D01*
X23419D02*
X24194D01*
X77019Y119463D02*
X77869D01*
X75969D02*
X76594D01*
X73519D02*
X74519D01*
X71094D02*
X72094D01*
X69019D02*
X69644D01*
X67744D02*
X68594D01*
X55544D02*
X56519D01*
X48794D02*
X50919D01*
X46194D02*
X47219D01*
X42969D02*
X44069D01*
X40044D02*
X41119D01*
X37094D02*
X37819D01*
X35594D02*
X36594D01*
X31969D02*
X33944D01*
X29294D02*
X30394D01*
X26369D02*
X27444D01*
X23419D02*
X24169D01*
X76994Y119438D02*
X77894D01*
X76019D02*
X76569D01*
X73494D02*
X74519D01*
X71094D02*
X72119D01*
X69044D02*
X69594D01*
X67719D02*
X68619D01*
X55544D02*
X56519D01*
X48844D02*
X50894D01*
X46194D02*
X47219D01*
X42969D02*
X44069D01*
X40044D02*
X41119D01*
X37094D02*
X37794D01*
X35594D02*
X36594D01*
X32019D02*
X33919D01*
X29294D02*
X30394D01*
X26369D02*
X27444D01*
X23419D02*
X24144D01*
X76969Y119413D02*
X77919D01*
X76069D02*
X76494D01*
X73494D02*
X74544D01*
X71069D02*
X72119D01*
X69119D02*
X69544D01*
X67694D02*
X68644D01*
X55544D02*
X56519D01*
X48894D02*
X50844D01*
X46194D02*
X47219D01*
X42969D02*
X44069D01*
X40044D02*
X41119D01*
X37094D02*
X37769D01*
X35594D02*
X36594D01*
X32069D02*
X33869D01*
X29294D02*
X30394D01*
X26369D02*
X27444D01*
X23419D02*
X24094D01*
X76969Y119388D02*
X77919D01*
X76144D02*
X76419D01*
X73469D02*
X74544D01*
X71069D02*
X72144D01*
X69194D02*
X69469D01*
X67694D02*
X68644D01*
X55544D02*
X56519D01*
X48944D02*
X50794D01*
X46194D02*
X47219D01*
X42969D02*
X44069D01*
X40044D02*
X41119D01*
X37094D02*
X37744D01*
X35594D02*
X36594D01*
X32119D02*
X33819D01*
X29294D02*
X30394D01*
X26369D02*
X27444D01*
X23419D02*
X24069D01*
X76944Y119363D02*
X77944D01*
X73469D02*
X74569D01*
X71044D02*
X72144D01*
X67669D02*
X68669D01*
X55544D02*
X56519D01*
X48994D02*
X50744D01*
X46194D02*
X47219D01*
X42969D02*
X44069D01*
X40044D02*
X41119D01*
X37094D02*
X37694D01*
X35594D02*
X36594D01*
X32169D02*
X33744D01*
X29294D02*
X30394D01*
X26369D02*
X27444D01*
X23419D02*
X24019D01*
X79269Y119338D02*
X79369D01*
X76919D02*
X77969D01*
X73469D02*
X74569D01*
X71044D02*
X72144D01*
X67644D02*
X68694D01*
X66244D02*
X66344D01*
X55544D02*
X56519D01*
X49044D02*
X50669D01*
X46194D02*
X47219D01*
X42969D02*
X44069D01*
X40044D02*
X41119D01*
X37094D02*
X37644D01*
X35594D02*
X36594D01*
X32244D02*
X33694D01*
X29294D02*
X30394D01*
X26369D02*
X27444D01*
X23419D02*
X23994D01*
X79144Y119313D02*
X79494D01*
X76919D02*
X77969D01*
X73444D02*
X74569D01*
X71044D02*
X72169D01*
X67644D02*
X68694D01*
X66119D02*
X66469D01*
X55544D02*
X56519D01*
X49119D02*
X50619D01*
X46194D02*
X47219D01*
X42969D02*
X44069D01*
X40044D02*
X41119D01*
X37094D02*
X37619D01*
X35594D02*
X36594D01*
X32294D02*
X33619D01*
X29294D02*
X30394D01*
X26369D02*
X27444D01*
X23419D02*
X23944D01*
X79069Y119288D02*
X79569D01*
X76894D02*
X77994D01*
X73444D02*
X74594D01*
X71019D02*
X72169D01*
X67619D02*
X68719D01*
X66044D02*
X66544D01*
X55544D02*
X56519D01*
X49169D02*
X50544D01*
X46194D02*
X47219D01*
X42969D02*
X44069D01*
X40044D02*
X41119D01*
X37094D02*
X37544D01*
X35594D02*
X36594D01*
X32394D02*
X33544D01*
X29294D02*
X30394D01*
X26369D02*
X27444D01*
X23419D02*
X23894D01*
X79019Y119263D02*
X79619D01*
X76894D02*
X77994D01*
X73444D02*
X74594D01*
X71019D02*
X72169D01*
X67619D02*
X68719D01*
X65994D02*
X66594D01*
X55544D02*
X56519D01*
X49269D02*
X50469D01*
X46194D02*
X47219D01*
X42969D02*
X44069D01*
X40044D02*
X41119D01*
X37094D02*
X37494D01*
X35594D02*
X36594D01*
X32469D02*
X33469D01*
X29294D02*
X30394D01*
X26369D02*
X27444D01*
X23419D02*
X23819D01*
X78994Y119238D02*
X79644D01*
X76894D02*
X77994D01*
X73444D02*
X74594D01*
X71019D02*
X72194D01*
X67619D02*
X68719D01*
X65969D02*
X66619D01*
X55544D02*
X56519D01*
X49344D02*
X50369D01*
X46194D02*
X47219D01*
X42969D02*
X44069D01*
X40044D02*
X41119D01*
X37094D02*
X37419D01*
X35594D02*
X36594D01*
X32594D02*
X33344D01*
X29294D02*
X30394D01*
X26369D02*
X27444D01*
X23419D02*
X23744D01*
X78944Y119213D02*
X79694D01*
X76869D02*
X78019D01*
X73419D02*
X74594D01*
X71019D02*
X72194D01*
X67594D02*
X68744D01*
X65919D02*
X66669D01*
X55544D02*
X56519D01*
X49469D02*
X50269D01*
X46219D02*
X47219D01*
X42969D02*
X44069D01*
X40044D02*
X41119D01*
X37094D02*
X37294D01*
X35594D02*
X36594D01*
X32769D02*
X33169D01*
X29319D02*
X30394D01*
X26369D02*
X27444D01*
X23419D02*
X23619D01*
X78919Y119188D02*
X79719D01*
X76869D02*
X78019D01*
X73419D02*
X74594D01*
X71019D02*
X72194D01*
X67594D02*
X68744D01*
X65894D02*
X66694D01*
X55544D02*
X56519D01*
X49644D02*
X50094D01*
X78894Y119163D02*
X79744D01*
X76869D02*
X78019D01*
X73419D02*
X74594D01*
X71019D02*
X72194D01*
X67594D02*
X68744D01*
X65869D02*
X66719D01*
X55544D02*
X56519D01*
X78869Y119138D02*
X79769D01*
X76869D02*
X78019D01*
X73419D02*
X74594D01*
X71019D02*
X72194D01*
X67594D02*
X68744D01*
X65844D02*
X66744D01*
X78869Y119113D02*
X79794D01*
X76844D02*
X78044D01*
X73419D02*
X74594D01*
X71019D02*
X72194D01*
X67569D02*
X68769D01*
X65819D02*
X66769D01*
X78844Y119088D02*
X79819D01*
X76844D02*
X78044D01*
X73419D02*
X74594D01*
X71019D02*
X72194D01*
X67569D02*
X68769D01*
X65794D02*
X66769D01*
X78819Y119063D02*
X79819D01*
X76844D02*
X78044D01*
X73419D02*
X74594D01*
X71019D02*
X72194D01*
X67569D02*
X68769D01*
X65794D02*
X66794D01*
X78819Y119038D02*
X79844D01*
X76844D02*
X78044D01*
X73419D02*
X74594D01*
X71019D02*
X72194D01*
X67569D02*
X68769D01*
X65769D02*
X66819D01*
X78794Y119013D02*
X79844D01*
X76844D02*
X78044D01*
X73444D02*
X74594D01*
X71019D02*
X72169D01*
X67569D02*
X68769D01*
X65769D02*
X66819D01*
X78794Y118988D02*
X79869D01*
X76844D02*
X78044D01*
X73444D02*
X74594D01*
X71019D02*
X72169D01*
X67569D02*
X68769D01*
X65744D02*
X66844D01*
X78769Y118963D02*
X79869D01*
X76869D02*
X78019D01*
X73444D02*
X74569D01*
X71044D02*
X72169D01*
X67594D02*
X68744D01*
X65744D02*
X66844D01*
X78769Y118938D02*
X79894D01*
X76869D02*
X78019D01*
X73469D02*
X74569D01*
X71044D02*
X72144D01*
X67594D02*
X68744D01*
X65719D02*
X66844D01*
X78744Y118913D02*
X79894D01*
X76869D02*
X78019D01*
X73469D02*
X74569D01*
X71044D02*
X72144D01*
X67594D02*
X68744D01*
X65719D02*
X66869D01*
X78744Y118888D02*
X79894D01*
X76869D02*
X78019D01*
X73469D02*
X74544D01*
X71069D02*
X72144D01*
X67594D02*
X68744D01*
X65719D02*
X66869D01*
X78744Y118863D02*
X79894D01*
X76894D02*
X78019D01*
X75944D02*
X76069D01*
X73494D02*
X74544D01*
X71069D02*
X72119D01*
X69544D02*
X69669D01*
X67594D02*
X68744D01*
X65719D02*
X66869D01*
X78744Y118838D02*
X79919D01*
X76894D02*
X77994D01*
X75819D02*
X76194D01*
X73494D02*
X74519D01*
X71094D02*
X72119D01*
X69444D02*
X69794D01*
X67619D02*
X68719D01*
X65694D02*
X66869D01*
X78744Y118813D02*
X79919D01*
X76894D02*
X77994D01*
X75744D02*
X76244D01*
X73519D02*
X74519D01*
X71094D02*
X72094D01*
X69369D02*
X69869D01*
X67619D02*
X68719D01*
X65694D02*
X66869D01*
X78744Y118788D02*
X79919D01*
X76919D02*
X77969D01*
X75719D02*
X76294D01*
X73544D02*
X74494D01*
X71119D02*
X72069D01*
X69319D02*
X69894D01*
X67644D02*
X68694D01*
X65694D02*
X66869D01*
X78744Y118763D02*
X79919D01*
X76919D02*
X77969D01*
X75669D02*
X76344D01*
X73544D02*
X74469D01*
X71144D02*
X72069D01*
X69269D02*
X69944D01*
X67644D02*
X68694D01*
X65694D02*
X66894D01*
X78744Y118738D02*
X79919D01*
X76944D02*
X77944D01*
X75644D02*
X76369D01*
X73569D02*
X74444D01*
X71169D02*
X72044D01*
X69244D02*
X69969D01*
X67669D02*
X68669D01*
X65694D02*
X66894D01*
X78744Y118713D02*
X79919D01*
X76944D02*
X77944D01*
X75594D02*
X76394D01*
X73594D02*
X74419D01*
X71194D02*
X72019D01*
X69219D02*
X70019D01*
X67669D02*
X68669D01*
X65694D02*
X66869D01*
X80519Y118688D02*
X80819D01*
X78744D02*
X79919D01*
X76969D02*
X77919D01*
X75569D02*
X76419D01*
X73619D02*
X74394D01*
X71219D02*
X71994D01*
X69194D02*
X70044D01*
X67694D02*
X68644D01*
X65694D02*
X66869D01*
X64794D02*
X65094D01*
X80444Y118663D02*
X80894D01*
X78744D02*
X79919D01*
X76994D02*
X77894D01*
X75544D02*
X76444D01*
X73669D02*
X74369D01*
X71244D02*
X71944D01*
X69169D02*
X70069D01*
X67719D02*
X68619D01*
X65694D02*
X66869D01*
X64719D02*
X65169D01*
X80394Y118638D02*
X80969D01*
X78744D02*
X79894D01*
X77019D02*
X77869D01*
X75544D02*
X76469D01*
X73694D02*
X74344D01*
X71269D02*
X71919D01*
X69144D02*
X70069D01*
X67744D02*
X68594D01*
X65719D02*
X66869D01*
X64669D02*
X65219D01*
X80344Y118613D02*
X80994D01*
X78744D02*
X79894D01*
X77044D02*
X77844D01*
X75519D02*
X76494D01*
X73744D02*
X74294D01*
X71319D02*
X71869D01*
X69119D02*
X70094D01*
X67769D02*
X68569D01*
X65719D02*
X66869D01*
X64619D02*
X65269D01*
X80319Y118588D02*
X81044D01*
X78744D02*
X79894D01*
X77069D02*
X77819D01*
X75494D02*
X76494D01*
X73794D02*
X74244D01*
X71369D02*
X71819D01*
X69119D02*
X70119D01*
X67794D02*
X68544D01*
X65719D02*
X66869D01*
X64569D02*
X65294D01*
X80294Y118563D02*
X81069D01*
X78769D02*
X79894D01*
X77094D02*
X77794D01*
X75494D02*
X76519D01*
X73869D02*
X74169D01*
X71444D02*
X71744D01*
X69094D02*
X70119D01*
X67819D02*
X68519D01*
X65719D02*
X66844D01*
X64544D02*
X65319D01*
X80269Y118538D02*
X81094D01*
X78769D02*
X79869D01*
X77144D02*
X77744D01*
X75469D02*
X76519D01*
X69094D02*
X70144D01*
X67869D02*
X68469D01*
X65744D02*
X66844D01*
X64519D02*
X65344D01*
X80244Y118513D02*
X81119D01*
X78769D02*
X79869D01*
X77194D02*
X77694D01*
X75469D02*
X76544D01*
X69069D02*
X70144D01*
X67919D02*
X68419D01*
X65744D02*
X66844D01*
X64494D02*
X65369D01*
X80219Y118488D02*
X81144D01*
X78794D02*
X79844D01*
X77244D02*
X77644D01*
X75444D02*
X76544D01*
X69069D02*
X70169D01*
X67969D02*
X68369D01*
X65769D02*
X66819D01*
X64469D02*
X65394D01*
X80194Y118463D02*
X81144D01*
X78794D02*
X79844D01*
X77344D02*
X77544D01*
X75444D02*
X76569D01*
X69044D02*
X70169D01*
X68069D02*
X68269D01*
X65769D02*
X66819D01*
X64469D02*
X65419D01*
X80169Y118438D02*
X81169D01*
X78819D02*
X79819D01*
X75444D02*
X76569D01*
X69044D02*
X70169D01*
X65794D02*
X66794D01*
X64444D02*
X65444D01*
X80169Y118413D02*
X81194D01*
X78844D02*
X79819D01*
X75419D02*
X76569D01*
X69044D02*
X70194D01*
X65794D02*
X66769D01*
X64419D02*
X65444D01*
X80144Y118388D02*
X81194D01*
X78844D02*
X79794D01*
X75419D02*
X76594D01*
X74369D02*
X74494D01*
X71119D02*
X71244D01*
X69044D02*
X70194D01*
X65819D02*
X66769D01*
X64419D02*
X65469D01*
X80144Y118363D02*
X81219D01*
X78869D02*
X79769D01*
X75419D02*
X76594D01*
X74244D02*
X74619D01*
X70994D02*
X71369D01*
X69019D02*
X70194D01*
X65844D02*
X66744D01*
X64394D02*
X65469D01*
X80119Y118338D02*
X81219D01*
X78894D02*
X79744D01*
X75419D02*
X76594D01*
X74194D02*
X74669D01*
X70944D02*
X71419D01*
X69019D02*
X70194D01*
X65869D02*
X66719D01*
X64394D02*
X65494D01*
X80119Y118313D02*
X81244D01*
X78919D02*
X79719D01*
X75419D02*
X76594D01*
X74144D02*
X74719D01*
X70894D02*
X71469D01*
X69019D02*
X70194D01*
X65894D02*
X66694D01*
X64369D02*
X65494D01*
X80119Y118288D02*
X81244D01*
X78944D02*
X79694D01*
X75419D02*
X76594D01*
X74094D02*
X74769D01*
X70844D02*
X71519D01*
X69019D02*
X70194D01*
X65919D02*
X66669D01*
X64369D02*
X65494D01*
X80094Y118263D02*
X81244D01*
X78994D02*
X79669D01*
X75419D02*
X76594D01*
X74069D02*
X74794D01*
X70819D02*
X71544D01*
X69019D02*
X70194D01*
X65944D02*
X66619D01*
X64369D02*
X65519D01*
X80094Y118238D02*
X81244D01*
X79019D02*
X79619D01*
X75419D02*
X76594D01*
X74044D02*
X74844D01*
X70769D02*
X71569D01*
X69019D02*
X70194D01*
X65994D02*
X66594D01*
X64369D02*
X65519D01*
X80094Y118213D02*
X81269D01*
X79069D02*
X79569D01*
X75419D02*
X76594D01*
X74019D02*
X74869D01*
X72669D02*
X72944D01*
X70744D02*
X71594D01*
X69019D02*
X70194D01*
X66044D02*
X66544D01*
X64344D02*
X65519D01*
X80094Y118188D02*
X81269D01*
X79144D02*
X79519D01*
X75419D02*
X76594D01*
X73994D02*
X74894D01*
X72594D02*
X73019D01*
X70744D02*
X71619D01*
X69019D02*
X70194D01*
X66094D02*
X66469D01*
X64344D02*
X65519D01*
X80094Y118163D02*
X81269D01*
X79244D02*
X79394D01*
X75419D02*
X76594D01*
X73969D02*
X74894D01*
X72519D02*
X73094D01*
X70719D02*
X71644D01*
X69044D02*
X70194D01*
X66219D02*
X66369D01*
X64344D02*
X65519D01*
X80094Y118138D02*
X81269D01*
X77594D02*
X77769D01*
X75419D02*
X76569D01*
X73944D02*
X74919D01*
X72494D02*
X73119D01*
X70694D02*
X71669D01*
X69044D02*
X70194D01*
X67844D02*
X68019D01*
X64344D02*
X65519D01*
X80094Y118113D02*
X81269D01*
X77494D02*
X77869D01*
X75444D02*
X76569D01*
X73944D02*
X74944D01*
X72444D02*
X73169D01*
X70669D02*
X71669D01*
X69044D02*
X70169D01*
X67744D02*
X68119D01*
X64344D02*
X65519D01*
X80094Y118088D02*
X81269D01*
X77419D02*
X77919D01*
X75444D02*
X76569D01*
X73919D02*
X74944D01*
X72419D02*
X73194D01*
X70669D02*
X71694D01*
X69044D02*
X70169D01*
X67694D02*
X68194D01*
X64344D02*
X65519D01*
X80094Y118063D02*
X81269D01*
X77369D02*
X77969D01*
X75444D02*
X76544D01*
X73894D02*
X74969D01*
X72394D02*
X73219D01*
X70644D02*
X71719D01*
X69069D02*
X70169D01*
X67644D02*
X68244D01*
X64344D02*
X65519D01*
X80094Y118038D02*
X81269D01*
X77344D02*
X78019D01*
X75469D02*
X76544D01*
X73894D02*
X74969D01*
X72369D02*
X73244D01*
X70644D02*
X71719D01*
X69069D02*
X70144D01*
X67594D02*
X68269D01*
X64344D02*
X65519D01*
X80094Y118013D02*
X81269D01*
X77294D02*
X78044D01*
X75469D02*
X76544D01*
X73894D02*
X74994D01*
X72344D02*
X73269D01*
X70619D02*
X71719D01*
X69094D02*
X70144D01*
X67569D02*
X68319D01*
X64344D02*
X65519D01*
X80094Y117988D02*
X81244D01*
X77269D02*
X78069D01*
X75494D02*
X76519D01*
X73869D02*
X74994D01*
X72319D02*
X73294D01*
X70619D02*
X71744D01*
X69094D02*
X70119D01*
X67544D02*
X68344D01*
X64369D02*
X65519D01*
X80094Y117963D02*
X81244D01*
X77244D02*
X78094D01*
X75494D02*
X76494D01*
X73869D02*
X74994D01*
X72319D02*
X73294D01*
X70619D02*
X71744D01*
X69119D02*
X70119D01*
X67519D02*
X68369D01*
X64369D02*
X65519D01*
X80119Y117938D02*
X81244D01*
X77219D02*
X78119D01*
X75519D02*
X76494D01*
X73869D02*
X75019D01*
X72294D02*
X73319D01*
X70594D02*
X71744D01*
X69119D02*
X70094D01*
X67494D02*
X68394D01*
X64369D02*
X65494D01*
X24669D02*
X25094D01*
X80119Y117913D02*
X81244D01*
X77194D02*
X78144D01*
X75544D02*
X76469D01*
X73844D02*
X75019D01*
X72294D02*
X73319D01*
X70594D02*
X71769D01*
X69144D02*
X70069D01*
X67469D02*
X68419D01*
X64394D02*
X65494D01*
X24444D02*
X25294D01*
X80119Y117888D02*
X81219D01*
X77194D02*
X78169D01*
X75544D02*
X76444D01*
X73844D02*
X75019D01*
X72269D02*
X73344D01*
X70594D02*
X71769D01*
X69169D02*
X70069D01*
X67444D02*
X68419D01*
X64394D02*
X65494D01*
X36319D02*
X36594D01*
X32044D02*
X32344D01*
X28244D02*
X29919D01*
X24319D02*
X25419D01*
X80144Y117863D02*
X81219D01*
X77169D02*
X78169D01*
X75569D02*
X76419D01*
X73844D02*
X75019D01*
X72269D02*
X73344D01*
X70594D02*
X71769D01*
X69194D02*
X70044D01*
X67444D02*
X68444D01*
X64394D02*
X65469D01*
X36319D02*
X36594D01*
X32019D02*
X32369D01*
X28044D02*
X29919D01*
X24244D02*
X25519D01*
X80144Y117838D02*
X81194D01*
X77169D02*
X78194D01*
X75594D02*
X76394D01*
X73844D02*
X75019D01*
X72244D02*
X73369D01*
X70594D02*
X71769D01*
X69219D02*
X70019D01*
X67419D02*
X68444D01*
X64419D02*
X65469D01*
X36319D02*
X36594D01*
X32019D02*
X32369D01*
X27944D02*
X29919D01*
X24169D02*
X25594D01*
X80169Y117813D02*
X81194D01*
X77144D02*
X78219D01*
X75619D02*
X76369D01*
X73844D02*
X75019D01*
X72244D02*
X73369D01*
X70594D02*
X71769D01*
X69244D02*
X69969D01*
X67394D02*
X68469D01*
X64419D02*
X65444D01*
X36319D02*
X36594D01*
X31994D02*
X32394D01*
X27844D02*
X29919D01*
X24119D02*
X25669D01*
X80194Y117788D02*
X81169D01*
X77144D02*
X78219D01*
X75669D02*
X76344D01*
X73844D02*
X75019D01*
X72244D02*
X73369D01*
X70594D02*
X71769D01*
X69269D02*
X69944D01*
X67394D02*
X68469D01*
X64444D02*
X65419D01*
X36319D02*
X36594D01*
X31994D02*
X32394D01*
X27769D02*
X29919D01*
X24044D02*
X25719D01*
X80194Y117763D02*
X81144D01*
X77119D02*
X78219D01*
X75694D02*
X76294D01*
X73844D02*
X75019D01*
X72219D02*
X73394D01*
X70594D02*
X71769D01*
X69319D02*
X69919D01*
X67394D02*
X68494D01*
X64469D02*
X65419D01*
X36319D02*
X36594D01*
X31969D02*
X32419D01*
X27719D02*
X29919D01*
X24019D02*
X25794D01*
X80219Y117738D02*
X81119D01*
X77119D02*
X78244D01*
X75744D02*
X76244D01*
X73844D02*
X75019D01*
X72219D02*
X73394D01*
X70594D02*
X71769D01*
X69369D02*
X69869D01*
X67369D02*
X68494D01*
X64494D02*
X65394D01*
X36319D02*
X36594D01*
X31969D02*
X32419D01*
X27669D02*
X29919D01*
X23969D02*
X25819D01*
X80244Y117713D02*
X81119D01*
X77119D02*
X78244D01*
X75819D02*
X76194D01*
X73844D02*
X75019D01*
X72219D02*
X73394D01*
X70594D02*
X71769D01*
X69419D02*
X69794D01*
X67369D02*
X68519D01*
X64494D02*
X65369D01*
X36319D02*
X36594D01*
X31944D02*
X32419D01*
X27619D02*
X29919D01*
X23919D02*
X25869D01*
X80269Y117688D02*
X81094D01*
X77094D02*
X78244D01*
X75919D02*
X76069D01*
X73844D02*
X75019D01*
X72219D02*
X73394D01*
X70594D02*
X71769D01*
X69544D02*
X69694D01*
X67369D02*
X68519D01*
X64519D02*
X65344D01*
X36319D02*
X36594D01*
X31944D02*
X32444D01*
X27569D02*
X29919D01*
X23894D02*
X25919D01*
X80294Y117663D02*
X81044D01*
X77094D02*
X78269D01*
X73869D02*
X75019D01*
X72219D02*
X73394D01*
X70594D02*
X71744D01*
X67344D02*
X68519D01*
X64569D02*
X65319D01*
X36319D02*
X36594D01*
X31919D02*
X32444D01*
X27544D02*
X29919D01*
X25144D02*
X25944D01*
X23844D02*
X24644D01*
X80319Y117638D02*
X81019D01*
X77094D02*
X78269D01*
X73869D02*
X74994D01*
X72219D02*
X73394D01*
X70619D02*
X71744D01*
X67344D02*
X68519D01*
X64594D02*
X65294D01*
X36319D02*
X36594D01*
X31919D02*
X32469D01*
X29619D02*
X29919D01*
X27519D02*
X28244D01*
X25294D02*
X25994D01*
X23819D02*
X24469D01*
X80369Y117613D02*
X80994D01*
X77094D02*
X78269D01*
X73869D02*
X74994D01*
X72219D02*
X73394D01*
X70619D02*
X71744D01*
X67344D02*
X68519D01*
X64619D02*
X65244D01*
X36319D02*
X36594D01*
X31894D02*
X32469D01*
X29619D02*
X29919D01*
X27469D02*
X28094D01*
X25394D02*
X26019D01*
X23794D02*
X24369D01*
X80419Y117588D02*
X80944D01*
X77094D02*
X78269D01*
X73894D02*
X74994D01*
X72219D02*
X73394D01*
X70619D02*
X71719D01*
X67344D02*
X68519D01*
X64669D02*
X65194D01*
X36319D02*
X36594D01*
X31894D02*
X32494D01*
X29619D02*
X29919D01*
X27444D02*
X27994D01*
X25469D02*
X26044D01*
X23769D02*
X24294D01*
X80469Y117563D02*
X80894D01*
X77094D02*
X78269D01*
X73894D02*
X74969D01*
X72219D02*
X73394D01*
X70644D02*
X71719D01*
X67344D02*
X68519D01*
X64719D02*
X65144D01*
X36319D02*
X36594D01*
X32219D02*
X32494D01*
X31894D02*
X32169D01*
X29619D02*
X29919D01*
X27419D02*
X27919D01*
X25544D02*
X26069D01*
X23744D02*
X24219D01*
X80569Y117538D02*
X80794D01*
X77094D02*
X78269D01*
X73894D02*
X74969D01*
X72219D02*
X73394D01*
X70644D02*
X71719D01*
X67344D02*
X68519D01*
X64819D02*
X65069D01*
X36319D02*
X36594D01*
X32219D02*
X32519D01*
X31869D02*
X32169D01*
X29619D02*
X29919D01*
X27394D02*
X27844D01*
X25594D02*
X26094D01*
X23719D02*
X24169D01*
X77094Y117513D02*
X78269D01*
X73919D02*
X74944D01*
X72219D02*
X73394D01*
X70669D02*
X71694D01*
X67344D02*
X68519D01*
X36319D02*
X36594D01*
X32244D02*
X32519D01*
X31869D02*
X32144D01*
X29619D02*
X29919D01*
X27369D02*
X27794D01*
X25644D02*
X26119D01*
X23694D02*
X24119D01*
X77094Y117488D02*
X78269D01*
X73944D02*
X74944D01*
X72244D02*
X73369D01*
X70669D02*
X71669D01*
X67344D02*
X68519D01*
X36319D02*
X36594D01*
X32244D02*
X32519D01*
X31844D02*
X32144D01*
X29619D02*
X29919D01*
X27344D02*
X27769D01*
X25694D02*
X26144D01*
X23669D02*
X24094D01*
X77094Y117463D02*
X78269D01*
X73944D02*
X74919D01*
X72244D02*
X73369D01*
X70694D02*
X71669D01*
X67344D02*
X68519D01*
X36319D02*
X36594D01*
X32269D02*
X32544D01*
X31844D02*
X32119D01*
X29619D02*
X29919D01*
X27319D02*
X27719D01*
X25744D02*
X26169D01*
X23644D02*
X24044D01*
X77094Y117438D02*
X78244D01*
X73969D02*
X74894D01*
X72244D02*
X73369D01*
X70719D02*
X71644D01*
X67369D02*
X68519D01*
X36319D02*
X36594D01*
X32269D02*
X32544D01*
X31819D02*
X32119D01*
X29619D02*
X29919D01*
X27319D02*
X27694D01*
X25769D02*
X26169D01*
X23619D02*
X24019D01*
X77094Y117413D02*
X78244D01*
X73994D02*
X74894D01*
X72269D02*
X73344D01*
X70719D02*
X71619D01*
X67369D02*
X68519D01*
X36319D02*
X36594D01*
X32269D02*
X32569D01*
X31819D02*
X32094D01*
X29619D02*
X29919D01*
X27294D02*
X27669D01*
X25819D02*
X26194D01*
X23619D02*
X23969D01*
X77119Y117388D02*
X78244D01*
X74019D02*
X74869D01*
X72269D02*
X73344D01*
X70744D02*
X71594D01*
X67369D02*
X68494D01*
X36319D02*
X36594D01*
X32294D02*
X32569D01*
X31794D02*
X32094D01*
X29619D02*
X29919D01*
X27269D02*
X27619D01*
X25844D02*
X26219D01*
X23594D02*
X23944D01*
X77119Y117363D02*
X78244D01*
X74044D02*
X74844D01*
X72294D02*
X73319D01*
X70769D02*
X71569D01*
X67369D02*
X68494D01*
X36319D02*
X36594D01*
X32294D02*
X32594D01*
X31794D02*
X32094D01*
X29619D02*
X29919D01*
X27269D02*
X27594D01*
X25869D02*
X26219D01*
X23569D02*
X23919D01*
X77119Y117338D02*
X78219D01*
X74069D02*
X74794D01*
X72294D02*
X73319D01*
X70819D02*
X71544D01*
X67394D02*
X68494D01*
X36319D02*
X36594D01*
X32319D02*
X32594D01*
X31794D02*
X32069D01*
X29619D02*
X29919D01*
X27244D02*
X27594D01*
X25894D02*
X26244D01*
X23544D02*
X23894D01*
X77144Y117313D02*
X78219D01*
X75744D02*
X75869D01*
X74094D02*
X74769D01*
X72319D02*
X73294D01*
X70844D02*
X71519D01*
X69744D02*
X69869D01*
X67394D02*
X68469D01*
X36319D02*
X36594D01*
X32319D02*
X32619D01*
X31769D02*
X32069D01*
X29619D02*
X29919D01*
X27244D02*
X27569D01*
X25919D02*
X26244D01*
X23544D02*
X23869D01*
X77144Y117288D02*
X78194D01*
X75644D02*
X75994D01*
X74144D02*
X74719D01*
X72344D02*
X73294D01*
X70894D02*
X71469D01*
X69619D02*
X69969D01*
X67419D02*
X68469D01*
X36319D02*
X36594D01*
X32344D02*
X32619D01*
X31769D02*
X32044D01*
X29619D02*
X29919D01*
X27219D02*
X27544D01*
X25919D02*
X26269D01*
X23569D02*
X23844D01*
X77169Y117263D02*
X78194D01*
X75569D02*
X76069D01*
X74194D02*
X74694D01*
X72344D02*
X73269D01*
X70919D02*
X71419D01*
X69544D02*
X70044D01*
X67419D02*
X68444D01*
X36319D02*
X36594D01*
X32344D02*
X32619D01*
X31744D02*
X32044D01*
X29619D02*
X29919D01*
X27219D02*
X27519D01*
X25944D02*
X26269D01*
X23594D02*
X23844D01*
X77169Y117238D02*
X78169D01*
X75519D02*
X76119D01*
X74244D02*
X74619D01*
X72369D02*
X73244D01*
X70994D02*
X71369D01*
X69494D02*
X70094D01*
X67444D02*
X68444D01*
X36319D02*
X36594D01*
X32369D02*
X32644D01*
X31744D02*
X32019D01*
X29619D02*
X29919D01*
X27194D02*
X27519D01*
X25969D02*
X26294D01*
X23644D02*
X23819D01*
X77194Y117213D02*
X78169D01*
X75469D02*
X76144D01*
X74369D02*
X74494D01*
X72394D02*
X73219D01*
X71119D02*
X71244D01*
X69469D02*
X70144D01*
X67444D02*
X68419D01*
X36319D02*
X36594D01*
X32369D02*
X32644D01*
X31719D02*
X32019D01*
X29619D02*
X29919D01*
X27194D02*
X27494D01*
X25969D02*
X26294D01*
X23694D02*
X23794D01*
X77219Y117188D02*
X78144D01*
X75444D02*
X76194D01*
X72419D02*
X73194D01*
X69419D02*
X70169D01*
X67469D02*
X68394D01*
X36319D02*
X36594D01*
X32369D02*
X32669D01*
X31719D02*
X31994D01*
X29619D02*
X29919D01*
X27194D02*
X27494D01*
X25994D02*
X26294D01*
X23719D02*
X23794D01*
X77219Y117163D02*
X78119D01*
X75419D02*
X76219D01*
X72469D02*
X73144D01*
X69394D02*
X70194D01*
X67494D02*
X68394D01*
X36319D02*
X36594D01*
X32394D02*
X32669D01*
X31694D02*
X31994D01*
X29619D02*
X29919D01*
X27169D02*
X27469D01*
X25994D02*
X26294D01*
X77244Y117138D02*
X78094D01*
X75394D02*
X76244D01*
X72494D02*
X73119D01*
X69369D02*
X70219D01*
X67519D02*
X68369D01*
X36319D02*
X36594D01*
X32394D02*
X32694D01*
X31694D02*
X31994D01*
X29619D02*
X29919D01*
X27169D02*
X27469D01*
X26019D02*
X26319D01*
X77269Y117113D02*
X78069D01*
X75369D02*
X76269D01*
X72544D02*
X73069D01*
X69344D02*
X70244D01*
X67544D02*
X68344D01*
X36319D02*
X36594D01*
X32419D02*
X32694D01*
X31669D02*
X31969D01*
X29619D02*
X29919D01*
X27169D02*
X27444D01*
X26019D02*
X26319D01*
X77319Y117088D02*
X78044D01*
X75344D02*
X76294D01*
X72594D02*
X73019D01*
X69319D02*
X70269D01*
X67569D02*
X68294D01*
X36319D02*
X36594D01*
X32419D02*
X32719D01*
X31669D02*
X31969D01*
X29619D02*
X29919D01*
X27169D02*
X27444D01*
X26019D02*
X26319D01*
X77344Y117063D02*
X78019D01*
X75319D02*
X76294D01*
X72669D02*
X72944D01*
X69319D02*
X70294D01*
X67594D02*
X68269D01*
X36319D02*
X36594D01*
X32444D02*
X32719D01*
X31669D02*
X31944D01*
X29619D02*
X29919D01*
X27169D02*
X27444D01*
X26019D02*
X26319D01*
X77394Y117038D02*
X77969D01*
X75319D02*
X76319D01*
X69294D02*
X70294D01*
X67644D02*
X68219D01*
X36319D02*
X36594D01*
X32444D02*
X32744D01*
X31644D02*
X31944D01*
X29619D02*
X29919D01*
X27144D02*
X27444D01*
X26044D02*
X26319D01*
X77444Y117013D02*
X77919D01*
X75294D02*
X76344D01*
X69269D02*
X70319D01*
X67694D02*
X68169D01*
X36319D02*
X36594D01*
X32469D02*
X32744D01*
X31644D02*
X31919D01*
X29619D02*
X29919D01*
X27144D02*
X27419D01*
X26044D02*
X26319D01*
X77494Y116988D02*
X77844D01*
X75294D02*
X76344D01*
X69269D02*
X70319D01*
X67769D02*
X68119D01*
X36319D02*
X36594D01*
X32469D02*
X32744D01*
X31619D02*
X31919D01*
X29619D02*
X29919D01*
X27144D02*
X27419D01*
X26044D02*
X26344D01*
X77644Y116963D02*
X77719D01*
X75269D02*
X76369D01*
X69244D02*
X70344D01*
X67894D02*
X67969D01*
X36319D02*
X36594D01*
X32469D02*
X32769D01*
X31619D02*
X31919D01*
X29619D02*
X29919D01*
X27144D02*
X27419D01*
X26044D02*
X26344D01*
X75269Y116938D02*
X76369D01*
X69244D02*
X70344D01*
X36319D02*
X36594D01*
X32494D02*
X32769D01*
X31594D02*
X31894D01*
X29619D02*
X29919D01*
X27144D02*
X27419D01*
X26044D02*
X26344D01*
X75244Y116913D02*
X76369D01*
X69244D02*
X70369D01*
X36319D02*
X36594D01*
X32494D02*
X32794D01*
X31594D02*
X31894D01*
X29619D02*
X29919D01*
X27144D02*
X27419D01*
X26044D02*
X26344D01*
X75244Y116888D02*
X76394D01*
X73744D02*
X73894D01*
X71719D02*
X71869D01*
X69219D02*
X70369D01*
X36319D02*
X36594D01*
X32519D02*
X32794D01*
X31569D02*
X31869D01*
X29619D02*
X29919D01*
X27144D02*
X27419D01*
X26044D02*
X26344D01*
X75244Y116863D02*
X76394D01*
X73644D02*
X74019D01*
X71594D02*
X71969D01*
X69219D02*
X70369D01*
X36319D02*
X36594D01*
X32519D02*
X32819D01*
X31569D02*
X31869D01*
X29619D02*
X29919D01*
X27144D02*
X27419D01*
X26044D02*
X26344D01*
X75244Y116838D02*
X76394D01*
X73569D02*
X74069D01*
X71544D02*
X72044D01*
X69219D02*
X70369D01*
X36319D02*
X36594D01*
X32544D02*
X32819D01*
X31569D02*
X31844D01*
X29619D02*
X29919D01*
X27144D02*
X27419D01*
X26044D02*
X26344D01*
X75219Y116813D02*
X76394D01*
X73519D02*
X74119D01*
X71494D02*
X72094D01*
X69219D02*
X70394D01*
X36319D02*
X36594D01*
X32544D02*
X32844D01*
X31544D02*
X31844D01*
X29619D02*
X29919D01*
X27144D02*
X27419D01*
X26044D02*
X26319D01*
X75219Y116788D02*
X76394D01*
X73494D02*
X74169D01*
X71444D02*
X72119D01*
X69219D02*
X70394D01*
X36319D02*
X36594D01*
X32544D02*
X32844D01*
X31544D02*
X31819D01*
X29619D02*
X29919D01*
X27144D02*
X27419D01*
X26019D02*
X26319D01*
X75219Y116763D02*
X76394D01*
X73444D02*
X74194D01*
X71419D02*
X72169D01*
X69219D02*
X70394D01*
X36319D02*
X36594D01*
X32569D02*
X32844D01*
X31519D02*
X31819D01*
X29619D02*
X29919D01*
X27144D02*
X27419D01*
X26019D02*
X26319D01*
X75219Y116738D02*
X76419D01*
X73419D02*
X74219D01*
X71394D02*
X72194D01*
X69194D02*
X70394D01*
X36319D02*
X36594D01*
X32569D02*
X32869D01*
X31519D02*
X31819D01*
X29619D02*
X29919D01*
X27144D02*
X27419D01*
X26019D02*
X26319D01*
X75219Y116713D02*
X76419D01*
X73394D02*
X74244D01*
X71369D02*
X72219D01*
X69194D02*
X70394D01*
X36319D02*
X36594D01*
X32594D02*
X32869D01*
X31494D02*
X31794D01*
X29619D02*
X29919D01*
X27144D02*
X27419D01*
X25994D02*
X26319D01*
X75219Y116688D02*
X76394D01*
X73369D02*
X74269D01*
X71344D02*
X72244D01*
X69219D02*
X70394D01*
X36319D02*
X36594D01*
X32594D02*
X32894D01*
X31494D02*
X31794D01*
X29619D02*
X29919D01*
X27169D02*
X27444D01*
X25994D02*
X26319D01*
X75219Y116663D02*
X76394D01*
X73344D02*
X74294D01*
X71319D02*
X72269D01*
X69219D02*
X70394D01*
X36319D02*
X36594D01*
X32619D02*
X32894D01*
X31469D02*
X31769D01*
X29619D02*
X29919D01*
X27169D02*
X27444D01*
X25969D02*
X26294D01*
X75219Y116638D02*
X76394D01*
X73344D02*
X74319D01*
X71294D02*
X72269D01*
X69219D02*
X70394D01*
X36319D02*
X36594D01*
X32619D02*
X32919D01*
X31469D02*
X31769D01*
X29619D02*
X29919D01*
X27169D02*
X27444D01*
X25969D02*
X26294D01*
X75244Y116613D02*
X76394D01*
X73319D02*
X74319D01*
X71294D02*
X72294D01*
X69219D02*
X70369D01*
X36319D02*
X36594D01*
X32644D02*
X32919D01*
X31469D02*
X31744D01*
X29619D02*
X29919D01*
X27169D02*
X27469D01*
X25944D02*
X26294D01*
X75244Y116588D02*
X76394D01*
X73319D02*
X74344D01*
X71269D02*
X72319D01*
X69219D02*
X70369D01*
X36319D02*
X36594D01*
X32644D02*
X32944D01*
X31444D02*
X31744D01*
X29619D02*
X29919D01*
X27194D02*
X27469D01*
X25919D02*
X26269D01*
X75244Y116563D02*
X76394D01*
X73294D02*
X74344D01*
X71269D02*
X72319D01*
X69219D02*
X70369D01*
X36319D02*
X36594D01*
X32644D02*
X32944D01*
X31444D02*
X31719D01*
X29619D02*
X29919D01*
X27194D02*
X27469D01*
X25894D02*
X26269D01*
X75244Y116538D02*
X76369D01*
X73294D02*
X74369D01*
X71244D02*
X72344D01*
X69244D02*
X70369D01*
X36319D02*
X36594D01*
X32669D02*
X32944D01*
X31419D02*
X31719D01*
X29619D02*
X29919D01*
X27194D02*
X27494D01*
X25869D02*
X26244D01*
X75269Y116513D02*
X76369D01*
X73269D02*
X74369D01*
X71244D02*
X72344D01*
X69244D02*
X70344D01*
X36319D02*
X36594D01*
X32669D02*
X32969D01*
X31419D02*
X31719D01*
X29619D02*
X29919D01*
X27219D02*
X27519D01*
X25844D02*
X26244D01*
X75269Y116488D02*
X76369D01*
X73269D02*
X74394D01*
X71219D02*
X72344D01*
X69244D02*
X70344D01*
X36319D02*
X36594D01*
X32694D02*
X32969D01*
X31394D02*
X31694D01*
X29619D02*
X29919D01*
X27219D02*
X27519D01*
X25819D02*
X26219D01*
X75294Y116463D02*
X76344D01*
X73244D02*
X74394D01*
X71219D02*
X72369D01*
X69269D02*
X70319D01*
X36319D02*
X36594D01*
X32694D02*
X32994D01*
X31394D02*
X31694D01*
X29619D02*
X29919D01*
X27244D02*
X27544D01*
X25769D02*
X26194D01*
X75294Y116438D02*
X76344D01*
X73244D02*
X74394D01*
X71219D02*
X72369D01*
X69269D02*
X70319D01*
X36319D02*
X36594D01*
X32719D02*
X32994D01*
X31369D02*
X31669D01*
X29619D02*
X29919D01*
X27244D02*
X27569D01*
X25719D02*
X26194D01*
X75319Y116413D02*
X76319D01*
X73244D02*
X74394D01*
X71219D02*
X72369D01*
X69294D02*
X70294D01*
X36319D02*
X36594D01*
X32719D02*
X33019D01*
X31369D02*
X31669D01*
X29619D02*
X29919D01*
X27269D02*
X27594D01*
X25669D02*
X26169D01*
X75319Y116388D02*
X76294D01*
X73244D02*
X74419D01*
X71194D02*
X72369D01*
X69319D02*
X70294D01*
X36319D02*
X36594D01*
X32744D02*
X33019D01*
X31344D02*
X31644D01*
X29619D02*
X29919D01*
X27294D02*
X27619D01*
X25619D02*
X26144D01*
X75344Y116363D02*
X76294D01*
X73244D02*
X74419D01*
X71194D02*
X72369D01*
X69319D02*
X70269D01*
X36319D02*
X36594D01*
X32744D02*
X33044D01*
X31344D02*
X31644D01*
X29619D02*
X29919D01*
X27294D02*
X27644D01*
X25544D02*
X26119D01*
X75369Y116338D02*
X76269D01*
X73244D02*
X74419D01*
X71194D02*
X72369D01*
X69344D02*
X70244D01*
X36319D02*
X36594D01*
X32744D02*
X33044D01*
X31344D02*
X31619D01*
X29619D02*
X29919D01*
X27319D02*
X27694D01*
X25469D02*
X26094D01*
X75394Y116313D02*
X76244D01*
X73244D02*
X74419D01*
X71194D02*
X72369D01*
X69369D02*
X70219D01*
X36319D02*
X36594D01*
X32769D02*
X33069D01*
X31319D02*
X31619D01*
X29619D02*
X29919D01*
X27344D02*
X27744D01*
X25394D02*
X26044D01*
X75419Y116288D02*
X76219D01*
X73244D02*
X74419D01*
X71194D02*
X72369D01*
X69394D02*
X70194D01*
X36319D02*
X36594D01*
X32769D02*
X33069D01*
X31319D02*
X31619D01*
X29619D02*
X29919D01*
X27369D02*
X27794D01*
X25294D02*
X26019D01*
X75444Y116263D02*
X76194D01*
X73244D02*
X74419D01*
X71194D02*
X72369D01*
X69419D02*
X70169D01*
X36319D02*
X36594D01*
X32794D02*
X33069D01*
X31294D02*
X31594D01*
X29619D02*
X29919D01*
X27394D02*
X27844D01*
X25169D02*
X25994D01*
X75494Y116238D02*
X76144D01*
X73244D02*
X74419D01*
X71194D02*
X72369D01*
X69469D02*
X70144D01*
X36319D02*
X36594D01*
X32794D02*
X33094D01*
X31294D02*
X31594D01*
X29619D02*
X29919D01*
X27419D02*
X27919D01*
X25069D02*
X25944D01*
X75519Y116213D02*
X76119D01*
X73244D02*
X74419D01*
X71194D02*
X72369D01*
X69494D02*
X70094D01*
X36319D02*
X36594D01*
X32819D02*
X33094D01*
X31269D02*
X31569D01*
X29619D02*
X29919D01*
X27444D02*
X28044D01*
X24919D02*
X25894D01*
X75569Y116188D02*
X76069D01*
X73244D02*
X74394D01*
X71219D02*
X72369D01*
X69544D02*
X70044D01*
X36319D02*
X36594D01*
X32819D02*
X33119D01*
X31269D02*
X31569D01*
X27494D02*
X29919D01*
X24794D02*
X25844D01*
X75644Y116163D02*
X75994D01*
X73244D02*
X74394D01*
X71219D02*
X72369D01*
X69619D02*
X69969D01*
X36319D02*
X36594D01*
X32844D02*
X33119D01*
X31244D02*
X31544D01*
X27519D02*
X29919D01*
X24669D02*
X25794D01*
X75744Y116138D02*
X75894D01*
X73244D02*
X74394D01*
X71219D02*
X72369D01*
X69719D02*
X69869D01*
X36319D02*
X36594D01*
X32844D02*
X33144D01*
X31244D02*
X31544D01*
X27569D02*
X29919D01*
X24544D02*
X25744D01*
X73269Y116113D02*
X74394D01*
X71219D02*
X72344D01*
X36319D02*
X36594D01*
X32844D02*
X33144D01*
X31244D02*
X31519D01*
X27619D02*
X29919D01*
X24444D02*
X25669D01*
X73269Y116088D02*
X74369D01*
X71244D02*
X72344D01*
X36319D02*
X36594D01*
X32869D02*
X33169D01*
X31219D02*
X31519D01*
X27669D02*
X29919D01*
X24344D02*
X25594D01*
X73294Y116063D02*
X74369D01*
X71244D02*
X72319D01*
X36319D02*
X36594D01*
X32869D02*
X33169D01*
X31219D02*
X31519D01*
X27719D02*
X29919D01*
X24244D02*
X25519D01*
X73294Y116038D02*
X74344D01*
X71269D02*
X72319D01*
X36319D02*
X36594D01*
X32894D02*
X33169D01*
X31194D02*
X31494D01*
X27669D02*
X29919D01*
X24169D02*
X25419D01*
X73319Y116013D02*
X74344D01*
X71269D02*
X72294D01*
X36319D02*
X36594D01*
X32894D02*
X33194D01*
X31194D02*
X31494D01*
X27619D02*
X29919D01*
X24094D02*
X25319D01*
X73319Y115988D02*
X74319D01*
X71294D02*
X72294D01*
X36319D02*
X36594D01*
X32919D02*
X33194D01*
X31169D02*
X31469D01*
X27544D02*
X29919D01*
X24044D02*
X25194D01*
X73344Y115963D02*
X74319D01*
X71294D02*
X72269D01*
X36319D02*
X36594D01*
X32919D02*
X33219D01*
X31169D02*
X31469D01*
X27494D02*
X29919D01*
X23969D02*
X25069D01*
X73369Y115938D02*
X74294D01*
X71319D02*
X72244D01*
X36319D02*
X36594D01*
X32919D02*
X33219D01*
X31144D02*
X31444D01*
X27469D02*
X29919D01*
X23919D02*
X24944D01*
X73369Y115913D02*
X74269D01*
X71344D02*
X72244D01*
X36319D02*
X36594D01*
X32944D02*
X33244D01*
X31144D02*
X31444D01*
X29619D02*
X29919D01*
X27419D02*
X28244D01*
X23869D02*
X24819D01*
X73394Y115888D02*
X74244D01*
X71369D02*
X72219D01*
X36319D02*
X36594D01*
X32944D02*
X33244D01*
X31144D02*
X31444D01*
X29619D02*
X29919D01*
X27394D02*
X28019D01*
X23844D02*
X24694D01*
X73419Y115863D02*
X74219D01*
X71394D02*
X72194D01*
X36319D02*
X36594D01*
X32969D02*
X33269D01*
X31119D02*
X31419D01*
X29619D02*
X29919D01*
X27369D02*
X27919D01*
X23794D02*
X24569D01*
X73469Y115838D02*
X74194D01*
X71419D02*
X72144D01*
X36319D02*
X36594D01*
X32969D02*
X33269D01*
X31119D02*
X31419D01*
X29619D02*
X29919D01*
X27319D02*
X27844D01*
X23769D02*
X24469D01*
X73494Y115813D02*
X74169D01*
X71444D02*
X72119D01*
X36319D02*
X36594D01*
X32994D02*
X33269D01*
X31094D02*
X31394D01*
X29619D02*
X29919D01*
X27294D02*
X27769D01*
X23719D02*
X24394D01*
X73544Y115788D02*
X74119D01*
X71494D02*
X72069D01*
X36319D02*
X36594D01*
X32994D02*
X33294D01*
X31094D02*
X31394D01*
X29619D02*
X29919D01*
X27269D02*
X27719D01*
X23694D02*
X24319D01*
X73594Y115763D02*
X74069D01*
X71544D02*
X72019D01*
X36319D02*
X36594D01*
X33019D02*
X33294D01*
X31069D02*
X31369D01*
X29619D02*
X29919D01*
X27244D02*
X27669D01*
X23669D02*
X24244D01*
X73644Y115738D02*
X73994D01*
X71619D02*
X71969D01*
X36319D02*
X36594D01*
X33019D02*
X33319D01*
X31069D02*
X31369D01*
X29619D02*
X29919D01*
X27244D02*
X27619D01*
X23644D02*
X24169D01*
X73769Y115713D02*
X73869D01*
X71744D02*
X71844D01*
X36319D02*
X36594D01*
X33019D02*
X33319D01*
X31044D02*
X31344D01*
X29619D02*
X29919D01*
X27219D02*
X27594D01*
X23619D02*
X24119D01*
X36319Y115688D02*
X36594D01*
X33044D02*
X33344D01*
X31044D02*
X31344D01*
X29619D02*
X29919D01*
X27194D02*
X27569D01*
X23594D02*
X24069D01*
X36319Y115663D02*
X36594D01*
X33044D02*
X33344D01*
X31019D02*
X31344D01*
X29619D02*
X29919D01*
X27169D02*
X27519D01*
X23569D02*
X24019D01*
X36319Y115638D02*
X36594D01*
X33069D02*
X33369D01*
X31019D02*
X31319D01*
X29619D02*
X29919D01*
X27169D02*
X27494D01*
X23569D02*
X23994D01*
X36319Y115613D02*
X36594D01*
X33069D02*
X33369D01*
X31019D02*
X31319D01*
X29619D02*
X29919D01*
X27144D02*
X27469D01*
X23544D02*
X23944D01*
X36319Y115588D02*
X36594D01*
X33094D02*
X33394D01*
X30994D02*
X31294D01*
X29619D02*
X29919D01*
X27119D02*
X27469D01*
X23519D02*
X23919D01*
X36319Y115563D02*
X36594D01*
X33094D02*
X33394D01*
X30994D02*
X31294D01*
X29619D02*
X29919D01*
X27119D02*
X27444D01*
X23519D02*
X23894D01*
X36319Y115538D02*
X36594D01*
X33119D02*
X33394D01*
X30969D02*
X31269D01*
X29619D02*
X29919D01*
X27094D02*
X27419D01*
X23494D02*
X23869D01*
X36319Y115513D02*
X36594D01*
X33119D02*
X33419D01*
X30969D02*
X31269D01*
X29619D02*
X29919D01*
X27094D02*
X27394D01*
X23494D02*
X23844D01*
X36319Y115488D02*
X36594D01*
X33119D02*
X33419D01*
X30944D02*
X31244D01*
X29619D02*
X29919D01*
X27094D02*
X27394D01*
X23469D02*
X23819D01*
X36319Y115463D02*
X36594D01*
X33144D02*
X33444D01*
X30944D02*
X31244D01*
X29619D02*
X29919D01*
X27069D02*
X27369D01*
X23469D02*
X23794D01*
X72694Y115438D02*
X72919D01*
X36319D02*
X36594D01*
X33144D02*
X33444D01*
X30919D02*
X31244D01*
X29619D02*
X29919D01*
X27069D02*
X27369D01*
X23469D02*
X23794D01*
X72594Y115413D02*
X73019D01*
X36319D02*
X36594D01*
X33169D02*
X33469D01*
X30919D02*
X31219D01*
X29619D02*
X29919D01*
X27044D02*
X27344D01*
X23444D02*
X23769D01*
X72544Y115388D02*
X73069D01*
X36319D02*
X36594D01*
X33169D02*
X33469D01*
X30919D02*
X31219D01*
X29619D02*
X29919D01*
X27044D02*
X27344D01*
X23444D02*
X23769D01*
X72494Y115363D02*
X73119D01*
X36319D02*
X36594D01*
X33194D02*
X33494D01*
X30894D02*
X31194D01*
X29619D02*
X29919D01*
X27044D02*
X27344D01*
X23444D02*
X23744D01*
X72469Y115338D02*
X73144D01*
X36319D02*
X36594D01*
X33194D02*
X33494D01*
X30894D02*
X31194D01*
X29619D02*
X29919D01*
X27044D02*
X27319D01*
X23444D02*
X23744D01*
X72419Y115313D02*
X73194D01*
X36319D02*
X36594D01*
X30869D02*
X33494D01*
X29619D02*
X29919D01*
X27019D02*
X27319D01*
X23444D02*
X23744D01*
X72394Y115288D02*
X73219D01*
X36319D02*
X36594D01*
X30869D02*
X33519D01*
X29619D02*
X29919D01*
X27019D02*
X27319D01*
X23419D02*
X23719D01*
X72369Y115263D02*
X73244D01*
X36319D02*
X36594D01*
X30844D02*
X33519D01*
X29619D02*
X29919D01*
X27019D02*
X27319D01*
X23419D02*
X23719D01*
X72344Y115238D02*
X73269D01*
X36319D02*
X36594D01*
X30844D02*
X33544D01*
X29619D02*
X29919D01*
X27019D02*
X27294D01*
X23419D02*
X23719D01*
X72344Y115213D02*
X73269D01*
X36319D02*
X36594D01*
X30819D02*
X33544D01*
X29619D02*
X29919D01*
X27019D02*
X27294D01*
X23419D02*
X23719D01*
X72319Y115188D02*
X73294D01*
X36319D02*
X36594D01*
X30819D02*
X33569D01*
X29619D02*
X29919D01*
X27019D02*
X27294D01*
X23419D02*
X23719D01*
X72294Y115163D02*
X73319D01*
X36319D02*
X36594D01*
X30794D02*
X33569D01*
X29619D02*
X29919D01*
X27019D02*
X27294D01*
X23419D02*
X23719D01*
X72294Y115138D02*
X73319D01*
X36319D02*
X36594D01*
X30794D02*
X33594D01*
X29619D02*
X29919D01*
X27019D02*
X27294D01*
X23419D02*
X23719D01*
X72269Y115113D02*
X73344D01*
X36319D02*
X36594D01*
X30794D02*
X33594D01*
X29619D02*
X29919D01*
X27019D02*
X27294D01*
X23419D02*
X23719D01*
X72269Y115088D02*
X73344D01*
X36319D02*
X36594D01*
X30769D02*
X33619D01*
X29619D02*
X29919D01*
X27019D02*
X27294D01*
X23419D02*
X23719D01*
X72244Y115063D02*
X73369D01*
X36319D02*
X36594D01*
X30769D02*
X33619D01*
X29619D02*
X29919D01*
X27019D02*
X27294D01*
X23419D02*
X23719D01*
X72244Y115038D02*
X73369D01*
X36319D02*
X36594D01*
X33319D02*
X33619D01*
X30744D02*
X31069D01*
X29619D02*
X29919D01*
X27019D02*
X27294D01*
X23419D02*
X23719D01*
X72244Y115013D02*
X73369D01*
X36319D02*
X36594D01*
X33344D02*
X33644D01*
X30744D02*
X31044D01*
X29619D02*
X29919D01*
X27019D02*
X27294D01*
X23419D02*
X23719D01*
X72219Y114988D02*
X73394D01*
X36319D02*
X36594D01*
X33344D02*
X33644D01*
X30719D02*
X31044D01*
X29619D02*
X29919D01*
X27019D02*
X27319D01*
X26169D02*
X26244D01*
X23419D02*
X23719D01*
X72219Y114963D02*
X73394D01*
X36319D02*
X36594D01*
X33344D02*
X33669D01*
X30719D02*
X31019D01*
X29619D02*
X29919D01*
X27019D02*
X27319D01*
X26144D02*
X26294D01*
X23419D02*
X23719D01*
X72219Y114938D02*
X73394D01*
X36319D02*
X36594D01*
X33369D02*
X33669D01*
X30694D02*
X31019D01*
X29619D02*
X29919D01*
X27019D02*
X27319D01*
X26144D02*
X26344D01*
X23444D02*
X23744D01*
X72219Y114913D02*
X73394D01*
X36319D02*
X36594D01*
X33369D02*
X33694D01*
X30694D02*
X30994D01*
X29619D02*
X29919D01*
X27019D02*
X27319D01*
X26119D02*
X26394D01*
X23444D02*
X23744D01*
X72219Y114888D02*
X73394D01*
X36319D02*
X36594D01*
X33394D02*
X33694D01*
X30694D02*
X30994D01*
X29619D02*
X29919D01*
X27044D02*
X27344D01*
X26119D02*
X26444D01*
X23444D02*
X23744D01*
X72219Y114863D02*
X73394D01*
X36319D02*
X36594D01*
X33394D02*
X33719D01*
X30669D02*
X30994D01*
X29619D02*
X29919D01*
X27044D02*
X27344D01*
X26094D02*
X26444D01*
X23444D02*
X23769D01*
X72219Y114838D02*
X73394D01*
X36319D02*
X36594D01*
X33419D02*
X33719D01*
X30669D02*
X30969D01*
X29619D02*
X29919D01*
X27044D02*
X27344D01*
X26069D02*
X26419D01*
X23469D02*
X23769D01*
X72219Y114813D02*
X73394D01*
X36319D02*
X36594D01*
X33419D02*
X33719D01*
X30644D02*
X30969D01*
X29619D02*
X29919D01*
X27044D02*
X27369D01*
X26044D02*
X26394D01*
X23469D02*
X23769D01*
X72219Y114788D02*
X73394D01*
X36319D02*
X36594D01*
X33444D02*
X33744D01*
X30644D02*
X30944D01*
X29619D02*
X29919D01*
X27069D02*
X27369D01*
X26019D02*
X26394D01*
X23469D02*
X23794D01*
X72219Y114763D02*
X73394D01*
X36319D02*
X36594D01*
X33444D02*
X33744D01*
X30619D02*
X30944D01*
X29619D02*
X29919D01*
X27069D02*
X27394D01*
X25994D02*
X26369D01*
X23494D02*
X23819D01*
X72219Y114738D02*
X73394D01*
X36319D02*
X36594D01*
X33444D02*
X33769D01*
X30619D02*
X30919D01*
X29619D02*
X29919D01*
X27094D02*
X27419D01*
X25969D02*
X26344D01*
X23494D02*
X23819D01*
X72244Y114713D02*
X73369D01*
X36319D02*
X36594D01*
X33469D02*
X33769D01*
X30594D02*
X30919D01*
X29619D02*
X29919D01*
X27094D02*
X27444D01*
X25944D02*
X26344D01*
X23494D02*
X23844D01*
X72244Y114688D02*
X73369D01*
X36319D02*
X36594D01*
X33469D02*
X33794D01*
X30594D02*
X30894D01*
X29619D02*
X29919D01*
X27094D02*
X27469D01*
X25919D02*
X26319D01*
X23519D02*
X23869D01*
X72244Y114663D02*
X73369D01*
X36319D02*
X36594D01*
X33494D02*
X33794D01*
X30594D02*
X30894D01*
X29619D02*
X29919D01*
X27119D02*
X27494D01*
X25894D02*
X26294D01*
X23519D02*
X23894D01*
X72269Y114638D02*
X73344D01*
X36319D02*
X36594D01*
X33494D02*
X33819D01*
X30569D02*
X30894D01*
X29619D02*
X29919D01*
X27144D02*
X27519D01*
X25844D02*
X26269D01*
X23544D02*
X23919D01*
X72269Y114613D02*
X73344D01*
X36319D02*
X36594D01*
X33519D02*
X33819D01*
X30569D02*
X30869D01*
X29619D02*
X29919D01*
X27144D02*
X27544D01*
X25819D02*
X26269D01*
X23569D02*
X23944D01*
X72269Y114588D02*
X73344D01*
X36319D02*
X36594D01*
X33519D02*
X33819D01*
X30544D02*
X30869D01*
X29619D02*
X29919D01*
X27169D02*
X27594D01*
X25769D02*
X26244D01*
X23569D02*
X23969D01*
X72294Y114563D02*
X73319D01*
X36319D02*
X36594D01*
X33544D02*
X33844D01*
X30544D02*
X30844D01*
X29619D02*
X29919D01*
X27194D02*
X27619D01*
X25744D02*
X26219D01*
X23594D02*
X23994D01*
X72319Y114538D02*
X73294D01*
X36319D02*
X36594D01*
X33544D02*
X33844D01*
X30519D02*
X30844D01*
X29619D02*
X29919D01*
X27194D02*
X27669D01*
X25694D02*
X26194D01*
X23619D02*
X24044D01*
X72319Y114513D02*
X73294D01*
X36319D02*
X36594D01*
X33544D02*
X33869D01*
X30519D02*
X30819D01*
X29619D02*
X29919D01*
X27219D02*
X27744D01*
X25644D02*
X26169D01*
X23644D02*
X24094D01*
X72344Y114488D02*
X73269D01*
X36319D02*
X36594D01*
X33569D02*
X33869D01*
X30494D02*
X30819D01*
X29619D02*
X29919D01*
X27244D02*
X27794D01*
X25594D02*
X26119D01*
X23669D02*
X24144D01*
X72369Y114463D02*
X73244D01*
X36319D02*
X36594D01*
X33569D02*
X33894D01*
X30494D02*
X30794D01*
X29619D02*
X29919D01*
X27269D02*
X27894D01*
X25519D02*
X26094D01*
X23669D02*
X24194D01*
X72394Y114438D02*
X73219D01*
X36319D02*
X36594D01*
X33594D02*
X33894D01*
X30469D02*
X30794D01*
X29619D02*
X29919D01*
X27294D02*
X28019D01*
X25469D02*
X26069D01*
X23719D02*
X24244D01*
X72419Y114413D02*
X73194D01*
X36294D02*
X36594D01*
X33594D02*
X33919D01*
X30469D02*
X30794D01*
X27344D02*
X29919D01*
X25394D02*
X26044D01*
X23744D02*
X24344D01*
X72444Y114388D02*
X73169D01*
X34194D02*
X36594D01*
X33619D02*
X33919D01*
X30469D02*
X30769D01*
X27369D02*
X29919D01*
X25294D02*
X25994D01*
X23769D02*
X24419D01*
X72494Y114363D02*
X73119D01*
X34194D02*
X36594D01*
X33619D02*
X33944D01*
X30444D02*
X30769D01*
X27394D02*
X29919D01*
X25169D02*
X25969D01*
X23794D02*
X24569D01*
X72519Y114338D02*
X73094D01*
X34194D02*
X36594D01*
X33644D02*
X33944D01*
X30444D02*
X30744D01*
X27444D02*
X29919D01*
X23844D02*
X25919D01*
X72569Y114313D02*
X73044D01*
X34194D02*
X36594D01*
X33644D02*
X33944D01*
X30419D02*
X30744D01*
X27494D02*
X29919D01*
X23869D02*
X25869D01*
X72644Y114288D02*
X72969D01*
X34194D02*
X36594D01*
X33644D02*
X33969D01*
X30419D02*
X30719D01*
X27544D02*
X29919D01*
X23919D02*
X25819D01*
X34194Y114263D02*
X36594D01*
X33669D02*
X33969D01*
X30394D02*
X30719D01*
X27594D02*
X29919D01*
X23969D02*
X25769D01*
X34194Y114238D02*
X36594D01*
X33669D02*
X33994D01*
X30394D02*
X30694D01*
X27669D02*
X29919D01*
X24019D02*
X25719D01*
X34194Y114213D02*
X36594D01*
X33694D02*
X33994D01*
X30369D02*
X30694D01*
X27744D02*
X29919D01*
X24069D02*
X25669D01*
X34194Y114188D02*
X36594D01*
X33694D02*
X34019D01*
X30369D02*
X30694D01*
X27844D02*
X29919D01*
X24144D02*
X25594D01*
X34194Y114163D02*
X36594D01*
X33719D02*
X34019D01*
X30369D02*
X30669D01*
X27969D02*
X29919D01*
X24219D02*
X25519D01*
X34194Y114138D02*
X36594D01*
X33719D02*
X34019D01*
X30369D02*
X30644D01*
X28219D02*
X29894D01*
X24319D02*
X25419D01*
X24444Y114113D02*
X25319D01*
X24619Y114088D02*
X25144D01*
M02*
