G04*
G04 #@! TF.GenerationSoftware,Altium Limited,Altium Designer,23.10.1 (27)*
G04*
G04 Layer_Physical_Order=1*
G04 Layer_Color=255*
%FSLAX25Y25*%
%MOIN*%
G70*
G04*
G04 #@! TF.SameCoordinates,6BE5E326-444D-4DDB-8984-30915AB2A72B*
G04*
G04*
G04 #@! TF.FilePolarity,Positive*
G04*
G01*
G75*
%ADD14C,0.01000*%
%ADD18R,0.02362X0.05709*%
%ADD19R,0.03740X0.03347*%
%ADD20R,0.03347X0.03740*%
%ADD21R,0.03543X0.03937*%
%ADD22R,0.03150X0.01968*%
%ADD23R,0.02165X0.02126*%
%ADD24R,0.02126X0.02165*%
%ADD25O,0.00984X0.03740*%
%ADD26O,0.03740X0.00984*%
%ADD27R,0.05709X0.05709*%
%ADD28R,0.03937X0.03543*%
%ADD29R,0.05118X0.05512*%
%ADD30R,0.05512X0.02362*%
%ADD31R,0.03937X0.02362*%
%ADD55C,0.03937*%
%ADD56C,0.01200*%
%ADD57C,0.07874*%
%ADD58C,0.07284*%
%ADD59C,0.06693*%
%ADD60R,0.06693X0.06693*%
%ADD61O,0.06496X0.15158*%
%ADD62O,0.15158X0.06496*%
%ADD63O,0.16535X0.06496*%
%ADD64C,0.03150*%
G36*
X109217Y101568D02*
X109217Y1020D01*
X29144D01*
X28905Y2220D01*
X29655Y2530D01*
X30687Y3322D01*
X31478Y4353D01*
X31975Y5554D01*
X32079Y6343D01*
X27165D01*
X22252D01*
X22355Y5554D01*
X22853Y4353D01*
X23644Y3322D01*
X24676Y2530D01*
X25425Y2220D01*
X25187Y1020D01*
X1020D01*
X1020Y98425D01*
Y98441D01*
D01*
Y98454D01*
Y98536D01*
D01*
Y98621D01*
Y98941D01*
D01*
Y99283D01*
Y99647D01*
D01*
Y99941D01*
Y99946D01*
D01*
Y99961D01*
Y100346D01*
D01*
Y100441D01*
Y119546D01*
Y119736D01*
D01*
Y120953D01*
Y121035D01*
D01*
Y122047D01*
D01*
Y148587D01*
X109217D01*
Y101568D01*
D02*
G37*
%LPC*%
G36*
X55000Y144778D02*
X53893Y144632D01*
X53259Y144370D01*
D01*
X52861Y144205D01*
X51975Y143525D01*
X51295Y142639D01*
X50867Y141607D01*
X50722Y140500D01*
X50867Y139393D01*
X51295Y138361D01*
X51600Y137963D01*
X51013Y136763D01*
X49917D01*
Y135200D01*
X52000D01*
Y134700D01*
X52500D01*
Y132637D01*
X53298D01*
Y129313D01*
Y126566D01*
X53162Y126064D01*
X52605Y125329D01*
X52558Y125320D01*
X52505Y125285D01*
X52091Y125367D01*
X51598Y125697D01*
X51516Y125713D01*
Y122913D01*
X50516D01*
Y125713D01*
X50434Y125697D01*
X50032Y125428D01*
X49630Y125697D01*
X49547Y125713D01*
Y122913D01*
X49047D01*
Y122413D01*
X47526D01*
Y121974D01*
X47087D01*
Y120453D01*
X46587D01*
Y119953D01*
X43764D01*
X43711Y119736D01*
X43072Y118805D01*
X25591Y118845D01*
Y117706D01*
X25536Y117574D01*
X25441Y117346D01*
X25441Y117345D01*
X25441Y117345D01*
X25441Y108229D01*
X24431Y107029D01*
X24431D01*
Y102286D01*
X24032Y102114D01*
Y101568D01*
Y99843D01*
X27000D01*
Y99343D01*
X27500D01*
Y96571D01*
X29969D01*
X29969Y96571D01*
X30287Y96689D01*
X31131Y96925D01*
X31547Y96650D01*
X31634Y96563D01*
Y95220D01*
X25135Y88722D01*
X20627D01*
X20198Y88636D01*
X19834Y88393D01*
X19834Y88393D01*
X17036Y85595D01*
X16793Y85231D01*
X16736Y84947D01*
X13329D01*
Y84155D01*
X12610Y83741D01*
X11891Y84155D01*
Y84947D01*
X8329D01*
Y78038D01*
X11891D01*
Y78829D01*
X12610Y79244D01*
X13329Y78829D01*
Y78038D01*
X16708D01*
Y69388D01*
X16708Y69388D01*
X16793Y68959D01*
X17036Y68595D01*
X18989Y66642D01*
Y65031D01*
X17789Y64534D01*
X17540Y64783D01*
X17176Y65026D01*
X16747Y65111D01*
X16747Y65111D01*
X12391D01*
X11962Y65026D01*
X11598Y64783D01*
X11598Y64783D01*
X10899Y64083D01*
X10837Y64060D01*
X10456Y63706D01*
X10314Y63592D01*
X10191Y63506D01*
X10164Y63490D01*
X9927D01*
X9865Y63515D01*
X9815Y63494D01*
X9762Y63507D01*
X9734Y63490D01*
X8329D01*
Y58915D01*
X8304Y58852D01*
X8243Y58741D01*
X8157Y58610D01*
X7644Y58001D01*
X7415Y57765D01*
X7389Y57700D01*
X4741Y55052D01*
X4498Y54688D01*
X4412Y54259D01*
X4412Y54259D01*
Y49785D01*
X4412Y49785D01*
X4498Y49356D01*
X4741Y48992D01*
X5440Y48293D01*
X5463Y48231D01*
X5814Y47853D01*
X5927Y47712D01*
X6011Y47590D01*
X6034Y47551D01*
Y47349D01*
X5996Y47259D01*
X6017Y47210D01*
X6004Y47158D01*
X6034Y47109D01*
Y44739D01*
X10974D01*
Y48657D01*
X10974Y49285D01*
X10974D01*
Y49698D01*
X11677Y50193D01*
X12534Y49698D01*
X12534Y48657D01*
Y44739D01*
X17474D01*
Y44739D01*
X18254Y45075D01*
X19034Y44739D01*
Y44739D01*
X23974D01*
Y44739D01*
X25151Y44951D01*
X26000Y44783D01*
X26849Y44951D01*
X27568Y45432D01*
X28049Y46151D01*
X28217Y47000D01*
X28049Y47849D01*
X27885Y48094D01*
X28477Y49294D01*
X29755D01*
X30383Y49294D01*
Y49294D01*
X30955D01*
Y49294D01*
X35502D01*
Y49365D01*
X36292Y49822D01*
X37081Y49365D01*
Y49195D01*
X41196D01*
X41824Y49195D01*
X42526D01*
X43532Y48021D01*
Y46815D01*
X43504Y46753D01*
X43500Y46580D01*
X43489Y46453D01*
X43473Y46356D01*
X43471Y46348D01*
X42479D01*
Y43180D01*
X44545D01*
X44548Y43169D01*
X44563Y43073D01*
X44575Y42946D01*
X44579Y42775D01*
X44607Y42712D01*
Y32589D01*
X44582Y32544D01*
X44569Y32410D01*
X44530Y32251D01*
X44461Y32039D01*
X43176Y29365D01*
X42838Y28749D01*
X42838Y28747D01*
X42836Y28747D01*
X42829Y28675D01*
X42546Y27992D01*
X42454Y27969D01*
X41404D01*
X41312Y27992D01*
X40971Y28816D01*
X40244Y29763D01*
X39296Y30491D01*
X38192Y30948D01*
X37008Y31104D01*
X35824Y30948D01*
X34720Y30491D01*
X33772Y29763D01*
X33045Y28816D01*
X32588Y27712D01*
X32432Y26528D01*
X32588Y25343D01*
X33045Y24239D01*
X33772Y23292D01*
X34720Y22565D01*
X35824Y22107D01*
X37008Y21951D01*
X38192Y22107D01*
X39296Y22565D01*
X40244Y23292D01*
X40971Y24239D01*
X41312Y25063D01*
X41404Y25086D01*
X42454D01*
X42546Y25063D01*
X42887Y24239D01*
X43615Y23292D01*
X44562Y22565D01*
X45666Y22107D01*
X46850Y21951D01*
X48035Y22107D01*
X49139Y22565D01*
X50086Y23292D01*
X50814Y24239D01*
X51271Y25343D01*
X51340Y25870D01*
X52580Y26299D01*
X52724Y26020D01*
X52644Y26284D01*
X52608Y26309D01*
X52608D01*
X52644Y26284D01*
X52764Y25886D01*
X53016Y25058D01*
X53620Y23927D01*
X54433Y22937D01*
X55423Y22124D01*
X56554Y21520D01*
X57780Y21148D01*
X59055Y21022D01*
X60330Y21148D01*
X61557Y21520D01*
X62687Y22124D01*
X63678Y22937D01*
X64490Y23927D01*
X65095Y25058D01*
X65466Y26284D01*
X65592Y27559D01*
X65466Y28834D01*
X65095Y30061D01*
X64490Y31191D01*
X63678Y32181D01*
X62687Y32994D01*
X61557Y33599D01*
X60330Y33970D01*
X59055Y34096D01*
X57780Y33970D01*
X56554Y33599D01*
X55423Y32994D01*
X54433Y32181D01*
X53620Y31191D01*
X53016Y30061D01*
X52644Y28834D01*
X52544Y27826D01*
X52518Y27559D01*
X52504Y27534D01*
D01*
X52518Y27559D01*
X52528Y27662D01*
X52487Y27536D01*
X51397Y27694D01*
X51255Y27750D01*
X50814Y28816D01*
X50086Y29763D01*
X49139Y30491D01*
X49043Y30530D01*
X49008Y30575D01*
X48555Y30828D01*
X48170Y31073D01*
X47837Y31315D01*
X47557Y31552D01*
X47331Y31782D01*
X47155Y32003D01*
X47028Y32212D01*
X46943Y32408D01*
X46896Y32594D01*
X46876Y32832D01*
X46850Y32882D01*
Y32960D01*
X46850Y32964D01*
X46850Y32965D01*
Y42724D01*
X46878Y42792D01*
X46876Y42795D01*
X46878Y42799D01*
X46866Y43799D01*
X46850Y43836D01*
Y44280D01*
X46828Y44388D01*
Y46348D01*
X45836D01*
X45834Y46356D01*
X45818Y46453D01*
X45807Y46580D01*
X45803Y46753D01*
X45775Y46815D01*
Y48728D01*
X45803Y48790D01*
X45807Y48963D01*
X45818Y49091D01*
X45834Y49187D01*
X45836Y49195D01*
X47139D01*
Y54332D01*
X43024D01*
X42426Y54332D01*
X42403Y54333D01*
X42384Y54334D01*
X41269Y54508D01*
X41264Y54565D01*
X41260Y54737D01*
X41232Y54799D01*
Y56114D01*
X41260Y56176D01*
X41264Y56346D01*
X41275Y56471D01*
X41291Y56565D01*
X41295Y56581D01*
X41891D01*
Y63490D01*
X38329D01*
Y56581D01*
X38925D01*
X38930Y56565D01*
X38945Y56471D01*
X38956Y56346D01*
X38961Y56176D01*
X38989Y56114D01*
Y54799D01*
X38961Y54737D01*
X38956Y54565D01*
X38945Y54437D01*
X38930Y54341D01*
X38927Y54332D01*
X37081D01*
Y54162D01*
X36292Y53706D01*
X35502Y54162D01*
Y54234D01*
X34894D01*
X34169Y55394D01*
X34353Y55925D01*
X35355Y56544D01*
X35405Y56564D01*
X35457Y56552D01*
X35505Y56581D01*
X36891D01*
Y63490D01*
X33329D01*
Y59145D01*
X33091Y58827D01*
X32122Y59127D01*
X31987Y59267D01*
X31891Y59468D01*
Y63490D01*
X28329D01*
Y63490D01*
X27291Y63881D01*
Y63890D01*
X25610D01*
Y60035D01*
X24610D01*
Y63890D01*
X22929D01*
X22929Y63890D01*
X21779Y64010D01*
X21268Y64366D01*
X21232Y64417D01*
Y66152D01*
X22000Y66783D01*
X22849Y66951D01*
X23568Y67432D01*
X24049Y68151D01*
X24217Y69000D01*
X24049Y69849D01*
X23568Y70568D01*
X22849Y71049D01*
X22024Y71213D01*
X21998Y71224D01*
X21854Y71227D01*
X21740Y71237D01*
X21635Y71254D01*
X21539Y71277D01*
X21450Y71306D01*
X21369Y71340D01*
X21293Y71380D01*
X21222Y71425D01*
X21154Y71478D01*
X21122Y71507D01*
Y77571D01*
X21149Y77633D01*
X21154Y77803D01*
X21165Y77928D01*
X21180Y78022D01*
X21185Y78038D01*
X21891D01*
Y82384D01*
X22129Y82706D01*
X23073Y82471D01*
X23329Y82045D01*
Y78038D01*
X24433D01*
X24481Y78008D01*
X24533Y78021D01*
X24582Y78000D01*
X24673Y78038D01*
X24981D01*
X25050Y77998D01*
X25196Y77897D01*
X25598Y77557D01*
X25828Y77334D01*
X25888Y77310D01*
X30836Y72363D01*
X31233Y72098D01*
X31701Y72005D01*
X43759D01*
X44516Y71106D01*
X44565Y70875D01*
X44567Y70769D01*
X44567Y70766D01*
X44535Y70685D01*
X44535Y69822D01*
Y68413D01*
X47504D01*
X50472D01*
Y69822D01*
X50472Y70685D01*
X50441Y70766D01*
X50441Y70769D01*
X50443Y70875D01*
X50492Y71106D01*
X51249Y72005D01*
X55013D01*
X67338Y59680D01*
Y53023D01*
X67312Y52965D01*
X67306Y52757D01*
X67292Y52598D01*
X67272Y52474D01*
X67248Y52388D01*
X67239Y52364D01*
X67231Y52360D01*
X65992D01*
Y48245D01*
X65992Y47616D01*
X65992Y46417D01*
Y42302D01*
X68972D01*
X69000Y42284D01*
X69053Y42297D01*
X69103Y42276D01*
X69165Y42302D01*
X69402D01*
X69429Y42286D01*
X69545Y42205D01*
X69875Y41924D01*
X70066Y41739D01*
X70131Y41714D01*
X76061Y35783D01*
X76086Y35719D01*
X76232Y35567D01*
X76346Y35436D01*
X76436Y35319D01*
X76503Y35218D01*
X76547Y35136D01*
X76572Y35076D01*
X76581Y35042D01*
X76581Y35040D01*
X76571Y35004D01*
X76576Y34966D01*
X76548Y34752D01*
X76680Y33747D01*
X77068Y32811D01*
X77685Y32008D01*
X78488Y31391D01*
X79425Y31003D01*
X80429Y30871D01*
X89091D01*
X90095Y31003D01*
X91031Y31391D01*
X91835Y32008D01*
X92452Y32811D01*
X92839Y33747D01*
X92972Y34752D01*
X92839Y35756D01*
X92452Y36693D01*
X91835Y37496D01*
X91031Y38113D01*
X90095Y38501D01*
X89091Y38633D01*
X80429D01*
X79425Y38501D01*
X78488Y38113D01*
X77685Y37496D01*
X76769Y38248D01*
X71723Y43294D01*
X71700Y43356D01*
X71346Y43737D01*
X71231Y43879D01*
X71145Y44002D01*
X71130Y44029D01*
Y44266D01*
X71155Y44328D01*
X71134Y44378D01*
X71147Y44431D01*
X71130Y44459D01*
X71130Y47045D01*
Y47839D01*
X72289Y48765D01*
X79219D01*
X79687Y48858D01*
X80084Y49123D01*
X81611Y50651D01*
X81669Y50672D01*
X82126Y51097D01*
X82303Y51238D01*
X82456Y51345D01*
X82525Y51384D01*
X82833D01*
X82924Y51347D01*
X82973Y51367D01*
X83025Y51355D01*
X83073Y51384D01*
X88507D01*
Y59277D01*
X87279D01*
X87271Y59296D01*
X87248Y59384D01*
X87227Y59510D01*
X87213Y59672D01*
X87208Y59882D01*
X87182Y59940D01*
Y72111D01*
X87208Y72169D01*
X87213Y72379D01*
X87227Y72541D01*
X87248Y72667D01*
X87271Y72755D01*
X87279Y72774D01*
X89895D01*
Y74803D01*
X102362D01*
Y86614D01*
X89895D01*
Y88147D01*
X83183D01*
Y88105D01*
X82195Y87694D01*
X81122Y88312D01*
Y90361D01*
X81147Y90647D01*
X81138Y90676D01*
X81149Y90705D01*
X81122Y90772D01*
Y98854D01*
X81122Y98854D01*
X81036Y99283D01*
X80793Y99647D01*
X79981Y100460D01*
X77793Y102647D01*
X77793Y102647D01*
X77162Y103278D01*
X77140Y103340D01*
X76788Y103718D01*
X76675Y103859D01*
X76591Y103981D01*
X76569Y104020D01*
Y104222D01*
X76606Y104312D01*
X76586Y104361D01*
X76598Y104413D01*
X76569Y104462D01*
Y107029D01*
X76310D01*
Y109229D01*
X68683Y120079D01*
X60212Y120079D01*
X59905Y120453D01*
X59820Y120879D01*
X59579Y121240D01*
X59218Y121482D01*
X58791Y121566D01*
X56066D01*
Y122857D01*
X56078Y122917D01*
X56078Y122917D01*
Y125775D01*
X56106Y125838D01*
X56110Y126007D01*
X56121Y126133D01*
X56137Y126226D01*
X56141Y126243D01*
X56624D01*
Y129313D01*
Y131981D01*
X56626Y131986D01*
Y131986D01*
X56753Y133037D01*
X56753Y133037D01*
Y136048D01*
X56985Y136345D01*
X57616Y137048D01*
X57994Y137426D01*
X58009Y137463D01*
X58025Y137475D01*
X58705Y138361D01*
X59133Y139393D01*
X59278Y140500D01*
X59133Y141607D01*
X58705Y142639D01*
X58025Y143525D01*
X57764Y143725D01*
D01*
X57139Y144205D01*
X56107Y144632D01*
X55000Y144778D01*
D02*
G37*
G36*
X51500Y134200D02*
X49917D01*
Y132637D01*
X51500D01*
Y134200D01*
D02*
G37*
G36*
X98425Y144332D02*
X97150Y144207D01*
X95924Y143835D01*
X94793Y143231D01*
X93803Y142418D01*
X92990Y141427D01*
X92386Y140297D01*
X92014Y139071D01*
X91888Y137795D01*
X92014Y136520D01*
X92386Y135294D01*
X92990Y134163D01*
X93803Y133173D01*
X94793Y132360D01*
X95924Y131756D01*
X97150Y131384D01*
X98425Y131258D01*
X99700Y131384D01*
X100927Y131756D01*
X102057Y132360D01*
X103048Y133173D01*
X103860Y134163D01*
X104465Y135294D01*
X104837Y136520D01*
X104962Y137795D01*
X104837Y139071D01*
X104465Y140297D01*
X103860Y141427D01*
X103048Y142418D01*
X102057Y143231D01*
X100927Y143835D01*
X99700Y144207D01*
X98425Y144332D01*
D02*
G37*
G36*
X11811D02*
X10536Y144207D01*
X9309Y143835D01*
X8179Y143231D01*
X7189Y142418D01*
X6376Y141427D01*
X5772Y140297D01*
X5400Y139071D01*
X5274Y137795D01*
X5400Y136520D01*
X5772Y135294D01*
X6376Y134163D01*
X7189Y133173D01*
X8179Y132360D01*
X9309Y131756D01*
X10536Y131384D01*
X11811Y131258D01*
X13086Y131384D01*
X14313Y131756D01*
X15443Y132360D01*
X16433Y133173D01*
X17246Y134163D01*
X17850Y135294D01*
X18222Y136520D01*
X18348Y137795D01*
X18222Y139071D01*
X17850Y140297D01*
X17246Y141427D01*
X16433Y142418D01*
X15443Y143231D01*
X14313Y143835D01*
X13086Y144207D01*
X11811Y144332D01*
D02*
G37*
G36*
X83259Y139764D02*
X82095D01*
X80955Y139537D01*
X79880Y139092D01*
X78913Y138445D01*
X78090Y137623D01*
X77444Y136656D01*
X76999Y135581D01*
X76772Y134440D01*
Y133277D01*
X76999Y132136D01*
X77444Y131061D01*
X78090Y130094D01*
X78913Y129271D01*
X79880Y128625D01*
X80955Y128180D01*
X82095Y127953D01*
X83259D01*
X84400Y128180D01*
X85474Y128625D01*
X86442Y129271D01*
X87264Y130094D01*
X87911Y131061D01*
X88356Y132136D01*
X88583Y133277D01*
Y134440D01*
X88356Y135581D01*
X87911Y136656D01*
X87264Y137623D01*
X86442Y138445D01*
X85474Y139092D01*
X84400Y139537D01*
X83259Y139764D01*
D02*
G37*
G36*
X48547Y125713D02*
X48465Y125697D01*
X47971Y125367D01*
X47642Y124874D01*
X47526Y124291D01*
Y123413D01*
X48547D01*
Y125713D01*
D02*
G37*
G36*
X46087Y121974D02*
X45209D01*
X44627Y121858D01*
X44133Y121528D01*
X43803Y121035D01*
X43787Y120953D01*
X46087D01*
Y121974D01*
D02*
G37*
G36*
X98425Y128584D02*
X97150Y128459D01*
X95924Y128087D01*
X94793Y127482D01*
X93803Y126670D01*
X92990Y125679D01*
X92386Y124549D01*
X92014Y123322D01*
X91888Y122047D01*
X92014Y120772D01*
X92386Y119546D01*
X92990Y118415D01*
X93803Y117425D01*
X94793Y116612D01*
X95924Y116008D01*
X97150Y115636D01*
X98425Y115510D01*
X99700Y115636D01*
X100927Y116008D01*
X102057Y116612D01*
X103048Y117425D01*
X103860Y118415D01*
X104465Y119546D01*
X104837Y120772D01*
X104962Y122047D01*
X104837Y123322D01*
X104465Y124549D01*
X103860Y125679D01*
X103048Y126670D01*
X102057Y127482D01*
X100927Y128087D01*
X99700Y128459D01*
X98425Y128584D01*
D02*
G37*
G36*
X11811D02*
X10536Y128459D01*
X9309Y128087D01*
X8179Y127482D01*
X7189Y126670D01*
X6376Y125679D01*
X5772Y124549D01*
X5400Y123322D01*
X5274Y122047D01*
X5400Y120772D01*
X5606Y120091D01*
D01*
X5772Y119546D01*
X6376Y118415D01*
X7189Y117425D01*
X8179Y116612D01*
X9309Y116008D01*
X10536Y115636D01*
X11811Y115510D01*
X13086Y115636D01*
X14313Y116008D01*
X15443Y116612D01*
X16433Y117425D01*
X17246Y118415D01*
X17850Y119546D01*
X18222Y120772D01*
X18348Y122047D01*
X18222Y123322D01*
X17850Y124549D01*
X17246Y125679D01*
X16433Y126670D01*
X15443Y127482D01*
X14313Y128087D01*
X13086Y128459D01*
X11811Y128584D01*
D02*
G37*
G36*
X26500Y98843D02*
X24032D01*
Y98425D01*
Y96571D01*
X26500D01*
Y98843D01*
D02*
G37*
G36*
X50472Y67413D02*
X48004D01*
Y66166D01*
X48504D01*
X48409Y66156D01*
X48324Y66125D01*
X48249Y66075D01*
X48184Y66004D01*
X48129Y65913D01*
X48084Y65801D01*
X48049Y65670D01*
X48038Y65604D01*
X48058Y65512D01*
X48100Y65377D01*
X48155Y65244D01*
X48207Y65142D01*
X50472D01*
Y67413D01*
D02*
G37*
G36*
X47004D02*
X44535D01*
Y65142D01*
X46801D01*
X46853Y65244D01*
X46908Y65377D01*
X46950Y65512D01*
X46970Y65604D01*
X46959Y65670D01*
X46924Y65801D01*
X46879Y65913D01*
X46824Y66004D01*
X46759Y66075D01*
X46684Y66125D01*
X46599Y66156D01*
X46504Y66166D01*
X47004D01*
Y67413D01*
D02*
G37*
G36*
X94904Y59649D02*
Y55831D01*
X98722D01*
X98638Y56465D01*
X98200Y57523D01*
X97504Y58431D01*
X96596Y59127D01*
X95538Y59565D01*
X94904Y59649D01*
D02*
G37*
G36*
X93904D02*
X93269Y59565D01*
X92212Y59127D01*
X91304Y58431D01*
X90607Y57523D01*
X90169Y56465D01*
X90085Y55831D01*
X93904D01*
Y59649D01*
D02*
G37*
G36*
X98722Y54831D02*
X94904D01*
Y51013D01*
X95538Y51096D01*
X96596Y51534D01*
X97504Y52231D01*
X98200Y53139D01*
X98638Y54196D01*
X98722Y54831D01*
D02*
G37*
G36*
X93904D02*
X90085D01*
X90169Y54196D01*
X90607Y53139D01*
X91304Y52231D01*
X92212Y51534D01*
X93269Y51096D01*
X93904Y51013D01*
Y54831D01*
D02*
G37*
G36*
X40142Y46748D02*
X38067D01*
Y45264D01*
X40142D01*
Y46748D01*
D02*
G37*
G36*
X37067D02*
X34992D01*
Y45264D01*
X35004D01*
D01*
X35194Y45268D01*
X35364Y45283D01*
X35514Y45306D01*
X35644Y45339D01*
X35754Y45382D01*
X35844Y45434D01*
X35914Y45495D01*
X35964Y45566D01*
X35994Y45646D01*
X36004Y45736D01*
Y45264D01*
X37067D01*
Y46748D01*
D02*
G37*
G36*
Y44264D02*
X36004D01*
Y43791D01*
X35994Y43881D01*
X35964Y43962D01*
X35914Y44032D01*
X35844Y44094D01*
X35754Y44146D01*
X35644Y44188D01*
X35514Y44221D01*
X35364Y44245D01*
X35194Y44259D01*
X35004Y44264D01*
X34992D01*
Y42779D01*
X37067D01*
Y44264D01*
D02*
G37*
G36*
X40142D02*
X38067D01*
Y42779D01*
X40142D01*
Y44264D01*
D02*
G37*
G36*
X17323Y31104D02*
X16138Y30948D01*
X15035Y30491D01*
X14087Y29763D01*
X13360Y28816D01*
X13019Y27992D01*
X12927Y27969D01*
X11877D01*
X11784Y27992D01*
X11443Y28816D01*
X10716Y29763D01*
X9768Y30491D01*
X8665Y30948D01*
X7480Y31104D01*
X6296Y30948D01*
X5192Y30491D01*
X4245Y29763D01*
X3517Y28816D01*
X3060Y27712D01*
X2904Y26528D01*
X3060Y25343D01*
X3517Y24239D01*
X4245Y23292D01*
X5192Y22565D01*
X6296Y22107D01*
X7480Y21951D01*
X8665Y22107D01*
X9768Y22565D01*
X10716Y23292D01*
X11443Y24239D01*
X11784Y25063D01*
X11877Y25086D01*
X12927D01*
X13019Y25063D01*
X13360Y24239D01*
X14087Y23292D01*
X15035Y22565D01*
X16138Y22107D01*
X17323Y21951D01*
X18507Y22107D01*
X19611Y22565D01*
X20559Y23292D01*
X21286Y24239D01*
X21743Y25343D01*
X21899Y26528D01*
X21743Y27712D01*
X21286Y28816D01*
X20559Y29763D01*
X19611Y30491D01*
X18507Y30948D01*
X17323Y31104D01*
D02*
G37*
G36*
X103567Y31687D02*
Y23638D01*
X107352D01*
Y27468D01*
X107206Y28578D01*
X106778Y29611D01*
X106097Y30498D01*
X105209Y31179D01*
X104176Y31607D01*
X103567Y31687D01*
D02*
G37*
G36*
X102567D02*
X101958Y31607D01*
X100925Y31179D01*
X100037Y30498D01*
X99356Y29611D01*
X98928Y28578D01*
X98782Y27468D01*
Y23638D01*
X102567D01*
Y31687D01*
D02*
G37*
G36*
X107352Y22638D02*
X103567D01*
Y14588D01*
X104176Y14668D01*
X105209Y15096D01*
X106097Y15777D01*
X106778Y16665D01*
X107206Y17698D01*
X107352Y18807D01*
Y22638D01*
D02*
G37*
G36*
X102567D02*
X98782D01*
Y18807D01*
X98928Y17698D01*
X99356Y16665D01*
X100037Y15777D01*
X100925Y15096D01*
X101958Y14668D01*
X102567Y14588D01*
Y22638D01*
D02*
G37*
G36*
X89780Y14627D02*
X85260D01*
Y10842D01*
X93998D01*
X93918Y11451D01*
X93490Y12485D01*
X92809Y13372D01*
X91922Y14053D01*
X90889Y14481D01*
X89780Y14627D01*
D02*
G37*
G36*
X84260D02*
X79740D01*
X78631Y14481D01*
X77598Y14053D01*
X76710Y13372D01*
X76029Y12485D01*
X75602Y11451D01*
X75521Y10842D01*
X84260D01*
Y14627D01*
D02*
G37*
G36*
X27665Y11756D02*
Y7343D01*
X32079D01*
X31975Y8131D01*
X31478Y9332D01*
X30687Y10364D01*
X29655Y11155D01*
X28454Y11653D01*
X27665Y11756D01*
D02*
G37*
G36*
X26665D02*
X25877Y11653D01*
X24676Y11155D01*
X23644Y10364D01*
X22853Y9332D01*
X22355Y8131D01*
X22252Y7343D01*
X26665D01*
Y11756D01*
D02*
G37*
G36*
X93998Y9843D02*
X85260D01*
Y6058D01*
X89780D01*
X90889Y6204D01*
X91922Y6632D01*
X92809Y7313D01*
X93490Y8200D01*
X93918Y9234D01*
X93998Y9843D01*
D02*
G37*
G36*
X84260D02*
X75521D01*
X75602Y9234D01*
X76029Y8200D01*
X76710Y7313D01*
X77598Y6632D01*
X78631Y6204D01*
X79740Y6058D01*
X84260D01*
Y9843D01*
D02*
G37*
G36*
X59055Y18348D02*
X57780Y18222D01*
X56554Y17850D01*
X55423Y17246D01*
X54433Y16433D01*
X53620Y15443D01*
X53016Y14313D01*
X52644Y13086D01*
X52518Y11811D01*
X52644Y10536D01*
X53016Y9309D01*
X53620Y8179D01*
X54433Y7189D01*
X55423Y6376D01*
X56554Y5772D01*
X57780Y5400D01*
X59055Y5274D01*
X60330Y5400D01*
X61557Y5772D01*
X62687Y6376D01*
X63678Y7189D01*
X64490Y8179D01*
X65095Y9309D01*
X65466Y10536D01*
X65592Y11811D01*
X65466Y13086D01*
X65095Y14313D01*
X64490Y15443D01*
X63678Y16433D01*
X62687Y17246D01*
X61557Y17850D01*
X60330Y18222D01*
X59055Y18348D01*
D02*
G37*
G36*
X46850Y10829D02*
X45818Y10694D01*
X44857Y10295D01*
X44031Y9662D01*
X43398Y8836D01*
X42999Y7875D01*
X42864Y6843D01*
X42999Y5811D01*
X43398Y4849D01*
X44031Y4023D01*
X44857Y3390D01*
X45818Y2992D01*
X46850Y2856D01*
X47882Y2992D01*
X48844Y3390D01*
X49670Y4023D01*
X50303Y4849D01*
X50701Y5811D01*
X50837Y6843D01*
X50701Y7875D01*
X50303Y8836D01*
X49670Y9662D01*
X48844Y10295D01*
X47882Y10694D01*
X46850Y10829D01*
D02*
G37*
G36*
X7480D02*
X6448Y10694D01*
X5487Y10295D01*
X4661Y9662D01*
X4028Y8836D01*
X3629Y7875D01*
X3494Y6843D01*
X3629Y5811D01*
X4028Y4849D01*
X4661Y4023D01*
X5487Y3390D01*
X6448Y2992D01*
X7480Y2856D01*
X8512Y2992D01*
X9474Y3390D01*
X10300Y4023D01*
X10933Y4849D01*
X11331Y5811D01*
X11467Y6843D01*
X11331Y7875D01*
X10933Y8836D01*
X10300Y9662D01*
X9474Y10295D01*
X8512Y10694D01*
X7480Y10829D01*
D02*
G37*
%LPD*%
G36*
X57535Y137886D02*
X57145Y137495D01*
X56487Y136762D01*
X56220Y136420D01*
X55994Y136094D01*
X55809Y135784D01*
X55806Y135778D01*
X55885Y135750D01*
X55980Y135739D01*
X55788Y135740D01*
X55665Y135490D01*
X55563Y135212D01*
X55501Y134951D01*
X55480Y134705D01*
X54480Y134711D01*
X54460Y134955D01*
X54399Y135215D01*
X54296Y135493D01*
X54172Y135750D01*
X54000Y135751D01*
X54091Y135761D01*
X54155Y135784D01*
X54153Y135788D01*
X53969Y136100D01*
X53745Y136429D01*
X53479Y136774D01*
X52825Y137517D01*
X52437Y137913D01*
X57535Y137886D01*
D02*
G37*
G36*
X55885Y133650D02*
X55800Y133620D01*
X55725Y133569D01*
X55660Y133498D01*
X55605Y133406D01*
X55560Y133295D01*
X55525Y133164D01*
X55500Y133012D01*
X55487Y132858D01*
X55500Y132702D01*
X55525Y132551D01*
X55560Y132419D01*
X55605Y132308D01*
X55660Y132217D01*
X55725Y132146D01*
X55800Y132095D01*
X55885Y132065D01*
X55980Y132055D01*
X53980D01*
X54075Y132065D01*
X54160Y132095D01*
X54235Y132146D01*
X54300Y132217D01*
X54355Y132308D01*
X54400Y132419D01*
X54435Y132551D01*
X54460Y132702D01*
X54474Y132858D01*
X54461Y133009D01*
X54437Y133159D01*
X54404Y133289D01*
X54360Y133399D01*
X54308Y133489D01*
X54245Y133559D01*
X54173Y133609D01*
X54091Y133639D01*
X54000Y133649D01*
X55980Y133661D01*
X55885Y133650D01*
D02*
G37*
G36*
X55862Y126845D02*
X55777Y126815D01*
X55702Y126765D01*
X55637Y126695D01*
X55582Y126605D01*
X55537Y126495D01*
X55502Y126365D01*
X55477Y126215D01*
X55462Y126045D01*
X55457Y125855D01*
X54457D01*
X54452Y126045D01*
X54437Y126215D01*
X54412Y126365D01*
X54377Y126495D01*
X54332Y126605D01*
X54277Y126695D01*
X54212Y126765D01*
X54137Y126815D01*
X54052Y126845D01*
X53957Y126855D01*
X55957D01*
X55862Y126845D01*
D02*
G37*
G36*
X51521Y121150D02*
X51536Y120978D01*
X51561Y120826D01*
X51596Y120695D01*
X51641Y120583D01*
X51696Y120492D01*
X51761Y120421D01*
X51836Y120371D01*
X51921Y120341D01*
X52016Y120330D01*
X50016D01*
X50111Y120341D01*
X50196Y120371D01*
X50271Y120421D01*
X50336Y120492D01*
X50391Y120583D01*
X50436Y120695D01*
X50471Y120826D01*
X50496Y120978D01*
X50511Y121150D01*
X50516Y121342D01*
X51516D01*
X51521Y121150D01*
D02*
G37*
G36*
X68346Y119429D02*
X75661Y109024D01*
Y107429D01*
X74500D01*
Y104657D01*
X73500D01*
Y107429D01*
X71031D01*
Y107429D01*
X69968D01*
Y107429D01*
X67500D01*
Y104657D01*
X66500D01*
Y107429D01*
X64031D01*
Y107429D01*
X62968D01*
Y107429D01*
X60500D01*
Y104657D01*
X60000D01*
Y104157D01*
X57032D01*
Y102362D01*
X55454D01*
Y106832D01*
X52137D01*
Y108147D01*
X52984Y109187D01*
X53566Y109303D01*
X53969Y109572D01*
X54371Y109303D01*
X54453Y109287D01*
Y112087D01*
X54953D01*
Y112587D01*
X56474D01*
Y113434D01*
X58791D01*
X59218Y113519D01*
X59579Y113760D01*
X59820Y114121D01*
X59905Y114547D01*
X59820Y114973D01*
X59785Y115026D01*
X59867Y115440D01*
X60197Y115934D01*
X60213Y116016D01*
X57413D01*
Y117016D01*
X60213D01*
X60197Y117098D01*
X59928Y117500D01*
X60197Y117902D01*
X60280Y118321D01*
X60313Y118484D01*
X61288Y119429D01*
X68346Y119429D01*
D02*
G37*
G36*
X43070Y118156D02*
X43152Y118149D01*
X43595Y117545D01*
X43845Y117161D01*
X43803Y117098D01*
X43787Y117016D01*
X46587D01*
Y116016D01*
X43787D01*
X43803Y115934D01*
X44072Y115532D01*
X43803Y115129D01*
X43787Y115047D01*
X46587D01*
Y114547D01*
X47087D01*
Y113026D01*
X47934D01*
Y110709D01*
X48019Y110283D01*
X48260Y109921D01*
X48621Y109680D01*
X49047Y109595D01*
X49894Y108628D01*
Y107923D01*
X49155Y107029D01*
X48944Y107029D01*
X44018D01*
Y104890D01*
X43999Y104853D01*
X43863Y104720D01*
X42818Y104327D01*
X42470Y104706D01*
Y106832D01*
X37530D01*
Y106832D01*
X36370Y106929D01*
Y107232D01*
X34000D01*
Y107220D01*
D01*
X34005Y107030D01*
X34020Y106860D01*
X34045Y106710D01*
X34080Y106580D01*
X34125Y106470D01*
X34180Y106380D01*
X34245Y106310D01*
X34320Y106260D01*
X34405Y106230D01*
X34500Y106220D01*
X34000D01*
Y104559D01*
X33000D01*
Y106220D01*
X32500D01*
X32595Y106230D01*
X32680Y106260D01*
X32755Y106310D01*
X32820Y106380D01*
X32875Y106470D01*
X32920Y106580D01*
X32955Y106710D01*
X32980Y106860D01*
X32995Y107030D01*
X33000Y107220D01*
Y107232D01*
X30630D01*
X30630Y107232D01*
X29969Y107429D01*
Y107429D01*
X29511Y107429D01*
X27500D01*
Y104657D01*
X26500D01*
Y107429D01*
X26091D01*
X26090Y117345D01*
X26940Y118193D01*
X43070Y118156D01*
D02*
G37*
G36*
X75900Y104234D02*
X75872Y104142D01*
Y104036D01*
X75900Y103916D01*
X75956Y103782D01*
X76041Y103633D01*
X76155Y103471D01*
X76296Y103294D01*
X76664Y102898D01*
X75956Y102191D01*
X75751Y102389D01*
X75384Y102700D01*
X75221Y102813D01*
X75073Y102898D01*
X74938Y102954D01*
X74818Y102983D01*
X74712D01*
X74620Y102954D01*
X74542Y102898D01*
X75956Y104312D01*
X75900Y104234D01*
D02*
G37*
G36*
X48487D02*
X48458Y104142D01*
Y104036D01*
X48487Y103916D01*
X48543Y103782D01*
X48628Y103633D01*
X48741Y103471D01*
X48882Y103294D01*
X49250Y102898D01*
X48543Y102191D01*
X48338Y102389D01*
X47970Y102700D01*
X47808Y102813D01*
X47659Y102898D01*
X47525Y102954D01*
X47405Y102983D01*
X47299D01*
X47207Y102954D01*
X47129Y102898D01*
X48543Y104312D01*
X48487Y104234D01*
D02*
G37*
G36*
X41791Y104235D02*
X41764Y104144D01*
X41765Y104039D01*
X41794Y103919D01*
X41852Y103785D01*
X41938Y103636D01*
X42053Y103473D01*
X42195Y103296D01*
X42565Y102898D01*
X41858Y102191D01*
X41652Y102390D01*
X41283Y102703D01*
X41120Y102818D01*
X40971Y102904D01*
X40837Y102962D01*
X40717Y102991D01*
X40612Y102992D01*
X40521Y102965D01*
X40444Y102910D01*
X41846Y104312D01*
X41791Y104235D01*
D02*
G37*
G36*
X38154Y98441D02*
X38144Y98536D01*
X38113Y98621D01*
X38063Y98696D01*
X37992Y98761D01*
X37901Y98816D01*
X37790Y98861D01*
X37658Y98896D01*
X37506Y98921D01*
X37334Y98936D01*
X37142Y98941D01*
Y99941D01*
X37334Y99946D01*
X37506Y99961D01*
X37658Y99986D01*
X37790Y100021D01*
X37901Y100066D01*
X37992Y100121D01*
X38063Y100186D01*
X38113Y100261D01*
X38144Y100346D01*
X38154Y100441D01*
Y98441D01*
D02*
G37*
G36*
X35356Y100346D02*
X35387Y100261D01*
X35437Y100186D01*
X35508Y100121D01*
X35599Y100066D01*
X35710Y100021D01*
X35842Y99986D01*
X35994Y99961D01*
X36166Y99946D01*
X36358Y99941D01*
Y98941D01*
X36166Y98936D01*
X35994Y98921D01*
X35842Y98896D01*
X35710Y98861D01*
X35599Y98816D01*
X35508Y98761D01*
X35437Y98696D01*
X35387Y98621D01*
X35356Y98536D01*
X35346Y98441D01*
Y100441D01*
X35356Y100346D01*
D02*
G37*
G36*
X57032Y99843D02*
X60000D01*
Y99343D01*
X60500D01*
Y96571D01*
X62968D01*
Y96571D01*
X64031D01*
Y96571D01*
X66500D01*
Y99343D01*
X67500D01*
Y96571D01*
X69968D01*
Y96571D01*
X71031D01*
Y96571D01*
X73500D01*
Y99343D01*
X74500D01*
Y96571D01*
X76968D01*
Y98732D01*
X78077Y99191D01*
X78878Y98390D01*
Y90784D01*
X78851Y90721D01*
X78846Y90550D01*
X78835Y90423D01*
X78819Y90327D01*
X78817Y90316D01*
X76903D01*
X76841Y90624D01*
X76598Y90988D01*
X76598Y90988D01*
X74793Y92793D01*
X74429Y93036D01*
X74000Y93122D01*
X74000Y93122D01*
X38945D01*
X38945Y93122D01*
X38516Y93036D01*
X38152Y92793D01*
X38152Y92793D01*
X30899Y85540D01*
X30837Y85517D01*
X30456Y85163D01*
X30314Y85048D01*
X30191Y84962D01*
X30164Y84947D01*
X30057D01*
X30029Y84962D01*
X29914Y85043D01*
X29584Y85324D01*
X29392Y85509D01*
X29327Y85534D01*
X28622Y86239D01*
X28258Y86483D01*
X27829Y86568D01*
X27829Y86568D01*
X27354Y87768D01*
X33793Y94207D01*
X34036Y94571D01*
X34122Y95000D01*
X34122Y95000D01*
Y96701D01*
X34149Y96763D01*
X34154Y96935D01*
X34165Y97063D01*
X34181Y97159D01*
X34183Y97168D01*
X35970D01*
Y97168D01*
X36750Y97505D01*
X37530Y97168D01*
Y97168D01*
X42470D01*
Y98060D01*
X43670Y98692D01*
X44018Y98454D01*
Y96971D01*
X49155D01*
Y97857D01*
X50355Y98490D01*
X50514Y98381D01*
Y97168D01*
X55454D01*
Y101568D01*
X57032D01*
Y99843D01*
D02*
G37*
G36*
X33905Y97782D02*
X33820Y97751D01*
X33745Y97701D01*
X33680Y97630D01*
X33625Y97539D01*
X33580Y97427D01*
X33545Y97296D01*
X33520Y97144D01*
X33505Y96972D01*
X33500Y96780D01*
X32500D01*
X32495Y96972D01*
X32480Y97144D01*
X32455Y97296D01*
X32420Y97427D01*
X32375Y97539D01*
X32320Y97630D01*
X32255Y97701D01*
X32180Y97751D01*
X32095Y97782D01*
X32000Y97792D01*
X34000D01*
X33905Y97782D01*
D02*
G37*
G36*
X80411Y89705D02*
X79000Y89692D01*
X79095Y89703D01*
X79180Y89734D01*
X79255Y89785D01*
X79320Y89856D01*
X79375Y89948D01*
X79420Y90059D01*
X79455Y90190D01*
X79480Y90342D01*
X79495Y90513D01*
X79500Y90705D01*
X80500D01*
X80411Y89705D01*
D02*
G37*
G36*
X83807Y85366D02*
X83797Y85461D01*
X83767Y85546D01*
X83716Y85621D01*
X83646Y85686D01*
X83555Y85741D01*
X83443Y85786D01*
X83312Y85821D01*
X83160Y85846D01*
X82988Y85861D01*
X82796Y85866D01*
Y86866D01*
X82988Y86871D01*
X83160Y86886D01*
X83312Y86911D01*
X83443Y86946D01*
X83555Y86991D01*
X83646Y87046D01*
X83716Y87111D01*
X83767Y87186D01*
X83797Y87271D01*
X83807Y87366D01*
Y85366D01*
D02*
G37*
G36*
X80421Y87271D02*
X80451Y87186D01*
X80501Y87111D01*
X80571Y87046D01*
X80661Y86991D01*
X80771Y86946D01*
X80901Y86911D01*
X81051Y86886D01*
X81221Y86871D01*
X81411Y86866D01*
Y85866D01*
X81221Y85861D01*
X81051Y85846D01*
X80901Y85821D01*
X80771Y85786D01*
X80661Y85741D01*
X80571Y85686D01*
X80501Y85621D01*
X80451Y85546D01*
X80421Y85461D01*
X80411Y85366D01*
Y87366D01*
X80421Y87271D01*
D02*
G37*
G36*
X31986Y84334D02*
X31787Y84128D01*
X31474Y83759D01*
X31359Y83596D01*
X31273Y83448D01*
X31216Y83313D01*
X31186Y83193D01*
X31185Y83088D01*
X31212Y82997D01*
X31267Y82920D01*
X30110Y84077D01*
X28953Y82920D01*
X29008Y82997D01*
X29036Y83088D01*
X29034Y83193D01*
X29005Y83313D01*
X28947Y83448D01*
X28861Y83596D01*
X28747Y83759D01*
X28604Y83937D01*
X28234Y84334D01*
X28941Y85042D01*
X29147Y84842D01*
X29516Y84529D01*
X29679Y84414D01*
X29828Y84329D01*
X29883Y84305D01*
X29865Y84323D01*
X29899Y84298D01*
X29962Y84271D01*
X30082Y84241D01*
X30110Y84241D01*
X30138Y84241D01*
X30258Y84271D01*
X30321Y84298D01*
X30355Y84323D01*
X30338Y84305D01*
X30393Y84329D01*
X30541Y84414D01*
X30704Y84529D01*
X30881Y84671D01*
X31279Y85042D01*
X31986Y84334D01*
D02*
G37*
G36*
X21986D02*
X21787Y84128D01*
X21474Y83759D01*
X21359Y83596D01*
X21273Y83448D01*
X21216Y83313D01*
X21186Y83193D01*
X21185Y83088D01*
X21212Y82997D01*
X21267Y82920D01*
X19865Y84323D01*
X19942Y84267D01*
X20033Y84240D01*
X20138Y84241D01*
X20258Y84271D01*
X20392Y84329D01*
X20541Y84414D01*
X20704Y84529D01*
X20881Y84671D01*
X21279Y85042D01*
X21986Y84334D01*
D02*
G37*
G36*
X13953Y80492D02*
X13943Y80587D01*
X13913Y80672D01*
X13862Y80747D01*
X13791Y80812D01*
X13700Y80867D01*
X13589Y80912D01*
X13457Y80947D01*
X13306Y80972D01*
X13133Y80987D01*
X12941Y80992D01*
Y81992D01*
X13133Y81997D01*
X13306Y82012D01*
X13457Y82037D01*
X13589Y82072D01*
X13700Y82117D01*
X13791Y82172D01*
X13862Y82237D01*
X13913Y82312D01*
X13943Y82397D01*
X13953Y82492D01*
Y80492D01*
D02*
G37*
G36*
X11277Y82397D02*
X11308Y82312D01*
X11358Y82237D01*
X11429Y82172D01*
X11520Y82117D01*
X11632Y82072D01*
X11763Y82037D01*
X11915Y82012D01*
X12087Y81997D01*
X12279Y81992D01*
Y80992D01*
X12087Y80987D01*
X11915Y80972D01*
X11763Y80947D01*
X11632Y80912D01*
X11520Y80867D01*
X11429Y80812D01*
X11358Y80747D01*
X11308Y80672D01*
X11277Y80587D01*
X11267Y80492D01*
Y82492D01*
X11277Y82397D01*
D02*
G37*
G36*
X38953Y80292D02*
X38941Y80406D01*
X38905Y80508D01*
X38844Y80598D01*
X38759Y80676D01*
X38650Y80742D01*
X38517Y80796D01*
X38359Y80838D01*
X38177Y80868D01*
X37971Y80886D01*
X37741Y80892D01*
Y82092D01*
X37971Y82098D01*
X38177Y82116D01*
X38359Y82146D01*
X38517Y82188D01*
X38650Y82242D01*
X38759Y82308D01*
X38844Y82386D01*
X38905Y82476D01*
X38941Y82578D01*
X38953Y82692D01*
Y80292D01*
D02*
G37*
G36*
X36279Y82578D02*
X36316Y82476D01*
X36376Y82386D01*
X36461Y82308D01*
X36570Y82242D01*
X36704Y82188D01*
X36861Y82146D01*
X37043Y82116D01*
X37249Y82098D01*
X37479Y82092D01*
Y80892D01*
X37249Y80886D01*
X37043Y80868D01*
X36861Y80838D01*
X36704Y80796D01*
X36570Y80742D01*
X36461Y80676D01*
X36376Y80598D01*
X36316Y80508D01*
X36279Y80406D01*
X36267Y80292D01*
Y82692D01*
X36279Y82578D01*
D02*
G37*
G36*
X83807Y79461D02*
X83797Y79556D01*
X83767Y79641D01*
X83716Y79716D01*
X83646Y79781D01*
X83555Y79836D01*
X83443Y79881D01*
X83312Y79916D01*
X83160Y79941D01*
X82988Y79956D01*
X82796Y79961D01*
Y80961D01*
X82988Y80966D01*
X83160Y80981D01*
X83312Y81006D01*
X83443Y81041D01*
X83555Y81086D01*
X83646Y81141D01*
X83716Y81206D01*
X83767Y81281D01*
X83797Y81366D01*
X83807Y81461D01*
Y79461D01*
D02*
G37*
G36*
X68006Y90716D02*
Y87461D01*
X71565D01*
Y86961D01*
X72065D01*
Y84229D01*
X72565D01*
X72470Y84219D01*
X72385Y84188D01*
X72310Y84138D01*
X72245Y84067D01*
X72190Y83976D01*
X72145Y83864D01*
X72110Y83733D01*
X72085Y83581D01*
X72070Y83409D01*
X72065Y83217D01*
Y83205D01*
X75124D01*
Y83605D01*
X81000D01*
Y81340D01*
X81107Y81260D01*
X81233Y81180D01*
X81362Y81113D01*
X81494Y81058D01*
X81629Y81016D01*
X81766Y80985D01*
X81907Y80967D01*
X82051Y80961D01*
X82032Y79961D01*
X81889Y79955D01*
X81748Y79937D01*
X81610Y79907D01*
X81474Y79866D01*
X81341Y79812D01*
X81209Y79747D01*
X81081Y79670D01*
X81000Y79613D01*
Y77911D01*
X75124D01*
Y78311D01*
X72109D01*
X72092Y78242D01*
X72072Y78101D01*
X72071Y78092D01*
X72085Y77935D01*
X72110Y77783D01*
X72145Y77651D01*
X72190Y77540D01*
X72245Y77449D01*
X72310Y77378D01*
X72385Y77328D01*
X72470Y77297D01*
X72565Y77287D01*
X72065D01*
Y74555D01*
Y70799D01*
X75124D01*
Y71199D01*
X81023D01*
Y73225D01*
X81028Y73233D01*
X81051Y73243D01*
X81137Y73266D01*
X81261Y73286D01*
X81420Y73300D01*
X81628Y73306D01*
X81686Y73332D01*
X82521D01*
X82579Y73306D01*
X82788Y73301D01*
X82950Y73287D01*
X83076Y73267D01*
X83165Y73245D01*
X83183Y73237D01*
Y72774D01*
X83795Y72737D01*
X84216Y72446D01*
X84735Y72008D01*
Y59940D01*
X84709Y59882D01*
X84704Y59672D01*
X84689Y59510D01*
X84669Y59384D01*
X84645Y59296D01*
X84638Y59277D01*
X80615D01*
Y53843D01*
X80585Y53795D01*
X80598Y53743D01*
X80577Y53693D01*
X80615Y53603D01*
Y53295D01*
X80575Y53226D01*
X80474Y53080D01*
X80134Y52678D01*
X79911Y52447D01*
X79887Y52387D01*
X78712Y51212D01*
X71792D01*
X71734Y51237D01*
X71524Y51243D01*
X71362Y51257D01*
X71236Y51278D01*
X71148Y51301D01*
X71130Y51309D01*
Y52360D01*
X69891D01*
X69883Y52364D01*
X69874Y52388D01*
X69850Y52474D01*
X69830Y52598D01*
X69816Y52757D01*
X69810Y52965D01*
X69785Y53023D01*
Y60187D01*
X69691Y60655D01*
X69426Y61052D01*
X56385Y74094D01*
X55988Y74359D01*
X55520Y74452D01*
X50735D01*
X50677Y74478D01*
X50467Y74483D01*
X50305Y74497D01*
X50179Y74518D01*
X50091Y74541D01*
X50072Y74549D01*
Y75600D01*
X44935D01*
Y74549D01*
X44917Y74541D01*
X44829Y74518D01*
X44703Y74497D01*
X44541Y74483D01*
X44330Y74478D01*
X44273Y74452D01*
X32208D01*
X29730Y76929D01*
X30189Y78038D01*
X31891D01*
Y82384D01*
X32129Y82706D01*
X33073Y82471D01*
X33329Y82045D01*
Y78038D01*
X36891D01*
Y78562D01*
X37610Y78981D01*
X38329Y78562D01*
Y78038D01*
X41891D01*
Y84947D01*
X38329D01*
Y84423D01*
X37610Y84003D01*
X36891Y84423D01*
Y84947D01*
X35045D01*
X34586Y86055D01*
X39409Y90878D01*
X66873D01*
X68006Y90716D01*
D02*
G37*
G36*
X26212Y80253D02*
X26177Y80143D01*
Y80016D01*
X26212Y79872D01*
X26279Y79711D01*
X26381Y79532D01*
X26517Y79337D01*
X26687Y79125D01*
X27128Y78650D01*
X26279Y77801D01*
X26033Y78039D01*
X25592Y78412D01*
X25397Y78548D01*
X25219Y78650D01*
X25058Y78718D01*
X24913Y78752D01*
X24786D01*
X24676Y78718D01*
X24582Y78650D01*
X26279Y80347D01*
X26212Y80253D01*
D02*
G37*
G36*
X20905Y78640D02*
X20820Y78610D01*
X20745Y78560D01*
X20680Y78490D01*
X20625Y78400D01*
X20580Y78290D01*
X20545Y78160D01*
X20520Y78010D01*
X20505Y77840D01*
X20500Y77650D01*
X19500D01*
X19495Y77840D01*
X19480Y78010D01*
X19455Y78160D01*
X19420Y78290D01*
X19375Y78400D01*
X19320Y78490D01*
X19255Y78560D01*
X19180Y78610D01*
X19095Y78640D01*
X19000Y78650D01*
X21000D01*
X20905Y78640D01*
D02*
G37*
G36*
X100319Y83709D02*
X100319Y77213D01*
X99827Y76720D01*
X90280D01*
X87721Y79280D01*
Y81642D01*
X90280Y84201D01*
X99827D01*
X100319Y83709D01*
D02*
G37*
G36*
X83795Y73386D02*
X83784Y73494D01*
X83748Y73591D01*
X83688Y73676D01*
X83604Y73750D01*
X83495Y73813D01*
X83363Y73864D01*
X83207Y73904D01*
X83027Y73932D01*
X82823Y73949D01*
X82595Y73955D01*
Y75155D01*
X82823Y75161D01*
X83027Y75178D01*
X83207Y75206D01*
X83363Y75246D01*
X83495Y75297D01*
X83604Y75360D01*
X83688Y75434D01*
X83748Y75519D01*
X83784Y75616D01*
X83795Y75724D01*
Y73386D01*
D02*
G37*
G36*
X80423Y75641D02*
X80459Y75539D01*
X80519Y75449D01*
X80603Y75371D01*
X80711Y75305D01*
X80843Y75251D01*
X80999Y75209D01*
X81179Y75179D01*
X81383Y75161D01*
X81611Y75155D01*
Y73955D01*
X81383Y73949D01*
X81179Y73931D01*
X80999Y73901D01*
X80843Y73859D01*
X80711Y73805D01*
X80603Y73739D01*
X80519Y73661D01*
X80459Y73571D01*
X80423Y73469D01*
X80411Y73355D01*
Y75755D01*
X80423Y75641D01*
D02*
G37*
G36*
X87044Y73386D02*
X86942Y73349D01*
X86852Y73289D01*
X86774Y73204D01*
X86708Y73095D01*
X86654Y72962D01*
X86612Y72804D01*
X86582Y72622D01*
X86564Y72416D01*
X86558Y72186D01*
X85358D01*
X85352Y72416D01*
X85334Y72622D01*
X85304Y72804D01*
X85262Y72962D01*
X85208Y73095D01*
X85142Y73204D01*
X85064Y73289D01*
X84974Y73349D01*
X84872Y73386D01*
X84758Y73398D01*
X87158D01*
X87044Y73386D01*
D02*
G37*
G36*
X49461Y74314D02*
X49497Y74212D01*
X49558Y74122D01*
X49642Y74044D01*
X49751Y73978D01*
X49885Y73924D01*
X50042Y73882D01*
X50224Y73852D01*
X50430Y73834D01*
X50660Y73828D01*
Y72628D01*
X50430Y72622D01*
X50224Y72604D01*
X50042Y72574D01*
X49885Y72532D01*
X49751Y72478D01*
X49642Y72412D01*
X49558Y72334D01*
X49497Y72244D01*
X49461Y72142D01*
X49448Y72028D01*
Y74428D01*
X49461Y74314D01*
D02*
G37*
G36*
X45559Y72028D02*
X45547Y72142D01*
X45511Y72244D01*
X45450Y72334D01*
X45366Y72412D01*
X45256Y72478D01*
X45123Y72532D01*
X44966Y72574D01*
X44784Y72604D01*
X44578Y72622D01*
X44347Y72628D01*
Y73828D01*
X44578Y73834D01*
X44784Y73852D01*
X44966Y73882D01*
X45123Y73924D01*
X45256Y73978D01*
X45366Y74044D01*
X45450Y74122D01*
X45511Y74212D01*
X45547Y74314D01*
X45559Y74428D01*
Y72028D01*
D02*
G37*
G36*
X20735Y70981D02*
X20847Y70894D01*
X20966Y70818D01*
X21092Y70752D01*
X21224Y70696D01*
X21363Y70651D01*
X21508Y70616D01*
X21660Y70592D01*
X21819Y70578D01*
X21984Y70575D01*
X20425Y69016D01*
X20422Y69181D01*
X20408Y69340D01*
X20384Y69492D01*
X20349Y69637D01*
X20304Y69776D01*
X20248Y69908D01*
X20182Y70034D01*
X20106Y70153D01*
X20019Y70265D01*
X19922Y70371D01*
X20629Y71078D01*
X20735Y70981D01*
D02*
G37*
G36*
X20615Y63686D02*
X20630Y63513D01*
X20655Y63362D01*
X20690Y63230D01*
X20735Y63119D01*
X20790Y63028D01*
X20855Y62957D01*
X20930Y62906D01*
X21015Y62876D01*
X21110Y62866D01*
X19110D01*
X19205Y62876D01*
X19290Y62906D01*
X19365Y62957D01*
X19430Y63028D01*
X19485Y63119D01*
X19530Y63230D01*
X19565Y63362D01*
X19590Y63513D01*
X19605Y63686D01*
X19610Y63878D01*
X20610D01*
X20615Y63686D01*
D02*
G37*
G36*
X11987Y62878D02*
X11787Y62672D01*
X11474Y62303D01*
X11359Y62139D01*
X11273Y61991D01*
X11216Y61857D01*
X11186Y61737D01*
X11185Y61631D01*
X11212Y61540D01*
X11267Y61464D01*
X9865Y62866D01*
X9942Y62810D01*
X10033Y62783D01*
X10138Y62784D01*
X10258Y62814D01*
X10392Y62872D01*
X10541Y62958D01*
X10704Y63072D01*
X10881Y63215D01*
X11279Y63585D01*
X11987Y62878D01*
D02*
G37*
G36*
X86564Y59635D02*
X86582Y59429D01*
X86612Y59247D01*
X86654Y59089D01*
X86708Y58956D01*
X86774Y58847D01*
X86852Y58762D01*
X86942Y58702D01*
X87044Y58665D01*
X87158Y58653D01*
X84758D01*
X84872Y58665D01*
X84974Y58702D01*
X85064Y58762D01*
X85142Y58847D01*
X85208Y58956D01*
X85262Y59089D01*
X85304Y59247D01*
X85334Y59429D01*
X85352Y59635D01*
X85358Y59865D01*
X86558D01*
X86564Y59635D01*
D02*
G37*
G36*
X9882Y57205D02*
X9827Y57282D01*
X9752Y57325D01*
X9658Y57336D01*
X9546Y57313D01*
X9414Y57258D01*
X9263Y57169D01*
X9093Y57048D01*
X8904Y56894D01*
X8468Y56486D01*
X7880Y57313D01*
X8126Y57565D01*
X8677Y58221D01*
X8800Y58406D01*
X8892Y58574D01*
X8953Y58726D01*
X8984Y58861D01*
X8984Y58979D01*
X8953Y59080D01*
X9882Y57205D01*
D02*
G37*
G36*
X35355Y57193D02*
X35278Y57250D01*
X35186Y57278D01*
X35080D01*
X34959Y57250D01*
X34825Y57193D01*
X34677Y57108D01*
X34514Y56995D01*
X34337Y56854D01*
X33941Y56486D01*
X33234Y57193D01*
X33432Y57398D01*
X33743Y57766D01*
X33856Y57929D01*
X33941Y58077D01*
X33998Y58211D01*
X34026Y58332D01*
Y58438D01*
X33998Y58530D01*
X33941Y58607D01*
X35355Y57193D01*
D02*
G37*
G36*
X30355D02*
X30278Y57250D01*
X30186Y57278D01*
X30080D01*
X29959Y57250D01*
X29825Y57193D01*
X29676Y57108D01*
X29514Y56995D01*
X29337Y56854D01*
X28941Y56486D01*
X28234Y57193D01*
X28432Y57398D01*
X28743Y57766D01*
X28856Y57929D01*
X28941Y58077D01*
X28998Y58211D01*
X29026Y58332D01*
Y58438D01*
X28998Y58530D01*
X28941Y58607D01*
X30355Y57193D01*
D02*
G37*
G36*
X41015Y57183D02*
X40930Y57153D01*
X40855Y57103D01*
X40790Y57033D01*
X40735Y56943D01*
X40690Y56833D01*
X40655Y56703D01*
X40630Y56553D01*
X40615Y56383D01*
X40610Y56193D01*
X39610D01*
X39605Y56383D01*
X39590Y56553D01*
X39565Y56703D01*
X39530Y56833D01*
X39485Y56943D01*
X39430Y57033D01*
X39365Y57103D01*
X39290Y57153D01*
X39205Y57183D01*
X39110Y57193D01*
X41110D01*
X41015Y57183D01*
D02*
G37*
G36*
X16015D02*
X15930Y57153D01*
X15855Y57103D01*
X15790Y57033D01*
X15735Y56943D01*
X15690Y56833D01*
X15655Y56703D01*
X15630Y56553D01*
X15615Y56383D01*
X15610Y56193D01*
X14610D01*
X14605Y56383D01*
X14590Y56553D01*
X14565Y56703D01*
X14530Y56833D01*
X14485Y56943D01*
X14430Y57033D01*
X14365Y57103D01*
X14290Y57153D01*
X14205Y57183D01*
X14110Y57193D01*
X16110D01*
X16015Y57183D01*
D02*
G37*
G36*
X15615Y54601D02*
X15630Y54431D01*
X15655Y54281D01*
X15690Y54151D01*
X15735Y54041D01*
X15790Y53951D01*
X15855Y53881D01*
X15930Y53831D01*
X16015Y53801D01*
X16110Y53791D01*
X14110D01*
X14205Y53801D01*
X14290Y53831D01*
X14365Y53881D01*
X14430Y53951D01*
X14485Y54041D01*
X14530Y54151D01*
X14565Y54281D01*
X14590Y54431D01*
X14605Y54601D01*
X14610Y54791D01*
X15610D01*
X15615Y54601D01*
D02*
G37*
G36*
X40615Y54528D02*
X40630Y54356D01*
X40655Y54204D01*
X40690Y54073D01*
X40735Y53961D01*
X40790Y53870D01*
X40855Y53799D01*
X40930Y53749D01*
X41015Y53718D01*
X41110Y53708D01*
X39110D01*
X39205Y53718D01*
X39290Y53749D01*
X39365Y53799D01*
X39430Y53870D01*
X39485Y53961D01*
X39530Y54073D01*
X39565Y54204D01*
X39590Y54356D01*
X39605Y54528D01*
X39610Y54720D01*
X40610D01*
X40615Y54528D01*
D02*
G37*
G36*
X30479Y53622D02*
X30281Y53417D01*
X29969Y53049D01*
X29856Y52886D01*
X29772Y52738D01*
X29715Y52604D01*
X29687Y52483D01*
Y52377D01*
X29715Y52285D01*
X29772Y52208D01*
X28357Y53622D01*
X28435Y53565D01*
X28527Y53537D01*
X28633D01*
X28753Y53565D01*
X28888Y53622D01*
X29036Y53707D01*
X29199Y53820D01*
X29375Y53961D01*
X29772Y54329D01*
X30479Y53622D01*
D02*
G37*
G36*
X82924Y51996D02*
X82830Y52064D01*
X82720Y52098D01*
X82593D01*
X82449Y52064D01*
X82287Y51996D01*
X82109Y51894D01*
X81914Y51759D01*
X81702Y51589D01*
X81227Y51148D01*
X80378Y51996D01*
X80616Y52242D01*
X80989Y52684D01*
X81125Y52879D01*
X81227Y53057D01*
X81295Y53218D01*
X81328Y53362D01*
Y53490D01*
X81295Y53600D01*
X81227Y53693D01*
X82924Y51996D01*
D02*
G37*
G36*
X69167Y52720D02*
X69185Y52516D01*
X69215Y52336D01*
X69257Y52180D01*
X69311Y52048D01*
X69377Y51940D01*
X69455Y51856D01*
X69545Y51796D01*
X69647Y51760D01*
X69761Y51748D01*
X67361D01*
X67475Y51760D01*
X67577Y51796D01*
X67667Y51856D01*
X67745Y51940D01*
X67811Y52048D01*
X67865Y52180D01*
X67907Y52336D01*
X67937Y52516D01*
X67955Y52720D01*
X67961Y52948D01*
X69161D01*
X69167Y52720D01*
D02*
G37*
G36*
X13158Y51130D02*
X13148Y51225D01*
X13117Y51310D01*
X13067Y51385D01*
X12996Y51450D01*
X12905Y51505D01*
X12794Y51550D01*
X12662Y51585D01*
X12510Y51610D01*
X12338Y51625D01*
X12146Y51630D01*
Y52630D01*
X12338Y52635D01*
X12510Y52650D01*
X12662Y52675D01*
X12794Y52710D01*
X12905Y52755D01*
X12996Y52810D01*
X13067Y52875D01*
X13117Y52950D01*
X13148Y53035D01*
X13158Y53130D01*
Y51130D01*
D02*
G37*
G36*
X10360Y53035D02*
X10390Y52950D01*
X10441Y52875D01*
X10512Y52810D01*
X10603Y52755D01*
X10714Y52710D01*
X10846Y52675D01*
X10998Y52650D01*
X11170Y52635D01*
X11362Y52630D01*
Y51630D01*
X11170Y51625D01*
X10998Y51610D01*
X10846Y51585D01*
X10714Y51550D01*
X10603Y51505D01*
X10512Y51450D01*
X10441Y51385D01*
X10390Y51310D01*
X10360Y51225D01*
X10350Y51130D01*
Y53130D01*
X10360Y53035D01*
D02*
G37*
G36*
X26461Y51130D02*
X26451Y51225D01*
X26421Y51310D01*
X26370Y51385D01*
X26299Y51450D01*
X26208Y51505D01*
X26097Y51550D01*
X25965Y51585D01*
X25813Y51610D01*
X25641Y51625D01*
X25449Y51630D01*
Y52630D01*
X25641Y52635D01*
X25813Y52650D01*
X25965Y52675D01*
X26097Y52710D01*
X26208Y52755D01*
X26299Y52810D01*
X26370Y52875D01*
X26421Y52950D01*
X26451Y53035D01*
X26461Y53130D01*
Y51130D01*
D02*
G37*
G36*
X23360Y53035D02*
X23391Y52950D01*
X23441Y52875D01*
X23512Y52810D01*
X23603Y52755D01*
X23714Y52710D01*
X23846Y52675D01*
X23998Y52650D01*
X24170Y52635D01*
X24362Y52630D01*
Y51630D01*
X24170Y51625D01*
X23998Y51610D01*
X23846Y51585D01*
X23714Y51550D01*
X23603Y51505D01*
X23512Y51450D01*
X23441Y51385D01*
X23391Y51310D01*
X23360Y51225D01*
X23350Y51130D01*
Y53130D01*
X23360Y53035D01*
D02*
G37*
G36*
X37705Y50764D02*
X37695Y50859D01*
X37665Y50944D01*
X37614Y51019D01*
X37543Y51084D01*
X37452Y51139D01*
X37341Y51184D01*
X37209Y51219D01*
X37057Y51244D01*
X36885Y51259D01*
X36693Y51264D01*
Y52264D01*
X36885Y52269D01*
X37057Y52284D01*
X37209Y52309D01*
X37341Y52344D01*
X37452Y52389D01*
X37543Y52444D01*
X37614Y52509D01*
X37665Y52584D01*
X37695Y52669D01*
X37705Y52764D01*
Y50764D01*
D02*
G37*
G36*
X34900Y52669D02*
X34930Y52584D01*
X34980Y52509D01*
X35050Y52444D01*
X35140Y52389D01*
X35250Y52344D01*
X35380Y52309D01*
X35530Y52284D01*
X35700Y52269D01*
X35890Y52264D01*
Y51264D01*
X35700Y51259D01*
X35530Y51244D01*
X35380Y51219D01*
X35250Y51184D01*
X35140Y51139D01*
X35050Y51084D01*
X34980Y51019D01*
X34930Y50944D01*
X34900Y50859D01*
X34890Y50764D01*
Y52764D01*
X34900Y52669D01*
D02*
G37*
G36*
X45559Y49809D02*
X45474Y49779D01*
X45399Y49728D01*
X45334Y49657D01*
X45279Y49566D01*
X45234Y49455D01*
X45199Y49323D01*
X45174Y49172D01*
X45159Y49000D01*
X45154Y48807D01*
X44154D01*
X44149Y49000D01*
X44134Y49172D01*
X44109Y49323D01*
X44074Y49455D01*
X44029Y49566D01*
X43974Y49657D01*
X43909Y49728D01*
X43834Y49779D01*
X43749Y49809D01*
X43654Y49819D01*
X45654D01*
X45559Y49809D01*
D02*
G37*
G36*
X70518Y51074D02*
X70554Y50972D01*
X70615Y50882D01*
X70700Y50804D01*
X70809Y50738D01*
X70942Y50684D01*
X71099Y50642D01*
X71281Y50612D01*
X71487Y50594D01*
X71718Y50588D01*
Y49388D01*
X71487Y49382D01*
X71281Y49364D01*
X71099Y49334D01*
X70942Y49292D01*
X70809Y49238D01*
X70700Y49172D01*
X70615Y49094D01*
X70554Y49004D01*
X70518Y48902D01*
X70505Y48788D01*
Y51188D01*
X70518Y51074D01*
D02*
G37*
G36*
X24867Y45906D02*
X24749Y46021D01*
X24628Y46124D01*
X24504Y46215D01*
X24377Y46294D01*
X24247Y46360D01*
X24115Y46415D01*
X23980Y46457D01*
X23898Y46475D01*
X23846Y46467D01*
X23714Y46432D01*
X23603Y46387D01*
X23512Y46332D01*
X23441Y46267D01*
X23391Y46192D01*
X23360Y46107D01*
X23350Y46012D01*
Y48012D01*
X23360Y47917D01*
X23391Y47832D01*
X23441Y47757D01*
X23512Y47692D01*
X23603Y47637D01*
X23714Y47592D01*
X23846Y47557D01*
X23903Y47547D01*
X23988Y47566D01*
X24123Y47608D01*
X24256Y47662D01*
X24387Y47728D01*
X24515Y47805D01*
X24640Y47895D01*
X24763Y47997D01*
X24884Y48111D01*
X24867Y45906D01*
D02*
G37*
G36*
X6851Y49182D02*
X7219Y48871D01*
X7381Y48758D01*
X7530Y48673D01*
X7664Y48616D01*
X7784Y48588D01*
X7890D01*
X7982Y48616D01*
X8060Y48673D01*
X6646Y47259D01*
X6702Y47337D01*
X6731Y47429D01*
Y47535D01*
X6702Y47655D01*
X6646Y47789D01*
X6561Y47938D01*
X6448Y48100D01*
X6306Y48277D01*
X5939Y48673D01*
X6646Y49380D01*
X6851Y49182D01*
D02*
G37*
G36*
X19658Y46012D02*
X19648Y46107D01*
X19617Y46192D01*
X19567Y46267D01*
X19496Y46332D01*
X19405Y46387D01*
X19294Y46432D01*
X19162Y46467D01*
X19010Y46492D01*
X18838Y46507D01*
X18646Y46512D01*
Y47512D01*
X18838Y47517D01*
X19010Y47532D01*
X19162Y47557D01*
X19294Y47592D01*
X19405Y47637D01*
X19496Y47692D01*
X19567Y47757D01*
X19617Y47832D01*
X19648Y47917D01*
X19658Y48012D01*
Y46012D01*
D02*
G37*
G36*
X16860Y47917D02*
X16891Y47832D01*
X16941Y47757D01*
X17012Y47692D01*
X17103Y47637D01*
X17214Y47592D01*
X17346Y47557D01*
X17498Y47532D01*
X17670Y47517D01*
X17862Y47512D01*
Y46512D01*
X17670Y46507D01*
X17498Y46492D01*
X17346Y46467D01*
X17214Y46432D01*
X17103Y46387D01*
X17012Y46332D01*
X16941Y46267D01*
X16891Y46192D01*
X16860Y46107D01*
X16850Y46012D01*
Y48012D01*
X16860Y47917D01*
D02*
G37*
G36*
X45159Y46544D02*
X45174Y46372D01*
X45199Y46220D01*
X45234Y46088D01*
X45279Y45977D01*
X45334Y45886D01*
X45399Y45815D01*
X45474Y45764D01*
X45559Y45734D01*
X45654Y45724D01*
X43654D01*
X43749Y45734D01*
X43834Y45764D01*
X43909Y45815D01*
X43974Y45886D01*
X44029Y45977D01*
X44074Y46088D01*
X44109Y46220D01*
X44134Y46372D01*
X44149Y46544D01*
X44154Y46736D01*
X45154D01*
X45159Y46544D01*
D02*
G37*
G36*
X46216Y43791D02*
X46228Y42792D01*
X45228D01*
X45223Y42983D01*
X45208Y43155D01*
X45183Y43306D01*
X45148Y43437D01*
X45103Y43549D01*
X45048Y43640D01*
X44983Y43711D01*
X44908Y43762D01*
X44823Y43793D01*
X44728Y43804D01*
X46216Y43791D01*
D02*
G37*
G36*
X70450Y44251D02*
X70423Y44160D01*
X70424Y44054D01*
X70454Y43935D01*
X70512Y43801D01*
X70598Y43652D01*
X70712Y43489D01*
X70855Y43312D01*
X71225Y42914D01*
X70517Y42206D01*
X70311Y42406D01*
X69942Y42719D01*
X69779Y42834D01*
X69631Y42920D01*
X69496Y42977D01*
X69377Y43007D01*
X69271Y43008D01*
X69180Y42981D01*
X69103Y42926D01*
X70505Y44328D01*
X70450Y44251D01*
D02*
G37*
G36*
X77126Y37020D02*
X77271Y36895D01*
X77404Y36798D01*
X77525Y36726D01*
X77633Y36682D01*
X77729Y36664D01*
X77812Y36673D01*
X77883Y36709D01*
X77942Y36770D01*
X77988Y36859D01*
X77197Y34830D01*
X77226Y34934D01*
X77234Y35044D01*
X77222Y35161D01*
X77188Y35285D01*
X77134Y35416D01*
X77060Y35553D01*
X76965Y35697D01*
X76849Y35847D01*
X76713Y36004D01*
X76556Y36169D01*
X76968Y37171D01*
X77126Y37020D01*
D02*
G37*
G36*
X46253Y32486D02*
X46327Y32197D01*
X46450Y31912D01*
X46622Y31630D01*
X46844Y31351D01*
X47115Y31076D01*
X47435Y30804D01*
X47804Y30535D01*
X48223Y30270D01*
X48691Y30008D01*
X43407Y28437D01*
X43753Y29068D01*
X45064Y31796D01*
X45156Y32073D01*
X45210Y32300D01*
X45228Y32477D01*
X46228Y32777D01*
X46253Y32486D01*
D02*
G37*
%LPC*%
G36*
X56474Y111587D02*
X55453D01*
Y109287D01*
X55535Y109303D01*
X56028Y109633D01*
X56358Y110126D01*
X56474Y110709D01*
Y111587D01*
D02*
G37*
G36*
X59500Y107429D02*
X57032D01*
Y105157D01*
X59500D01*
Y107429D01*
D02*
G37*
G36*
X46087Y114047D02*
X43787D01*
X43803Y113965D01*
X44133Y113471D01*
X44627Y113142D01*
X45209Y113026D01*
X46087D01*
Y114047D01*
D02*
G37*
G36*
X59500Y98843D02*
X57032D01*
Y96571D01*
X59500D01*
Y98843D01*
D02*
G37*
G36*
X71065Y86461D02*
X68006D01*
Y83205D01*
X71065D01*
Y83217D01*
D01*
X71060Y83409D01*
X71045Y83581D01*
X71020Y83733D01*
X70985Y83864D01*
X70940Y83976D01*
X70885Y84067D01*
X70820Y84138D01*
X70745Y84188D01*
X70660Y84219D01*
X70565Y84229D01*
X71065D01*
Y86461D01*
D02*
G37*
G36*
X71058Y78311D02*
X68006D01*
Y75055D01*
X71065D01*
Y77287D01*
X70565D01*
X70660Y77297D01*
X70745Y77328D01*
X70820Y77378D01*
X70885Y77449D01*
X70940Y77540D01*
X70985Y77651D01*
X71020Y77783D01*
X71045Y77935D01*
X71060Y78107D01*
X71063Y78217D01*
X71060Y78295D01*
X71058Y78311D01*
D02*
G37*
G36*
X71065Y74055D02*
X68006D01*
Y70799D01*
X71065D01*
Y74055D01*
D02*
G37*
%LPD*%
D14*
X60000Y104657D02*
Y108965D01*
X67000Y104657D02*
Y108197D01*
X74000Y104657D02*
Y109071D01*
X57413Y116516D02*
X62618D01*
X57413Y118484D02*
X62618D01*
X33500Y104559D02*
Y108232D01*
X51016Y118484D02*
X52000Y117500D01*
X51016Y118484D02*
Y122913D01*
X77000Y86000D02*
Y86961D01*
X20000Y79709D02*
X20110Y79819D01*
X20000Y71000D02*
Y79709D01*
Y71000D02*
X22000Y69000D01*
X17829Y69388D02*
Y84802D01*
Y69388D02*
X20110Y67107D01*
Y60035D02*
Y67107D01*
X46784Y104657D02*
X50827Y100614D01*
X46587Y104657D02*
X46784D01*
X50827Y100614D02*
X51811D01*
X52984Y108016D02*
Y112087D01*
X38945Y92000D02*
X74000D01*
X75805Y90195D01*
Y89217D02*
Y90195D01*
Y89217D02*
X76022Y89000D01*
X77000D01*
X80000Y88000D02*
Y98854D01*
X77000Y101854D02*
X80000Y98854D01*
X20110Y81492D02*
Y83165D01*
Y79819D02*
Y81492D01*
X77000Y101638D02*
Y101854D01*
Y101638D02*
X77069Y101570D01*
X74197Y104657D02*
X77000Y101854D01*
X74000Y104657D02*
X74197D01*
X27829Y85447D02*
X30110Y83165D01*
X22391Y85447D02*
X27829D01*
X20110Y83165D02*
X22391Y85447D01*
X78459Y86366D02*
X86539D01*
X30110Y83165D02*
X38945Y92000D01*
X30110Y81492D02*
Y83165D01*
X33000Y98941D02*
X33500Y99441D01*
X33000Y95000D02*
Y98941D01*
X25600Y87600D02*
X33000Y95000D01*
X20627Y87600D02*
X25600D01*
X17829Y84802D02*
X20627Y87600D01*
X25988Y47012D02*
X26000Y47000D01*
X21504Y47012D02*
X25988D01*
X15004D02*
X21504D01*
X54980Y131016D02*
Y140480D01*
X55000Y140500D01*
X54961Y130996D02*
X54980Y131016D01*
X33500Y99441D02*
X40000D01*
X47504Y63496D02*
Y67913D01*
X83708Y35804D02*
X84760Y34752D01*
X77627Y35804D02*
X83708D01*
X68758Y44673D02*
X77627Y35804D01*
X68561Y44673D02*
X68758D01*
X44654Y44764D02*
X45244D01*
X45728Y44280D01*
Y27650D02*
Y44280D01*
Y27650D02*
X46850Y26528D01*
X54957Y127921D02*
X54961Y127925D01*
X54957Y122917D02*
Y127921D01*
X54953Y122913D02*
X54957Y122917D01*
X71565Y74555D02*
Y80758D01*
X71862Y80461D02*
X85752D01*
X71565Y80758D02*
X71862Y80461D01*
X71565Y80758D02*
Y86961D01*
X41547Y114547D02*
X46587D01*
X41516Y116516D02*
X46587D01*
X32311Y44764D02*
X37567D01*
X17610Y56944D02*
X18474Y56081D01*
X16747Y63990D02*
X17610Y63126D01*
X10110Y58362D02*
Y61709D01*
X18474Y56081D02*
X27829D01*
X30110Y58362D01*
X10110Y61709D02*
X12391Y63990D01*
X17610Y56944D02*
Y63126D01*
X12391Y63990D02*
X16747D01*
X30110Y58362D02*
Y60035D01*
X21504Y52130D02*
X27744D01*
X28110Y51764D01*
X8504Y52130D02*
X15004D01*
X15110Y52236D01*
X51811Y100614D02*
X52984Y99441D01*
X52788Y104559D02*
X52984D01*
X51016Y106331D02*
X52788Y104559D01*
X51016Y106331D02*
Y112087D01*
X45315Y100614D02*
X46587Y99343D01*
X44142Y100614D02*
X45315D01*
X40197Y104559D02*
X44142Y100614D01*
X40000Y104559D02*
X40197D01*
X15110Y52236D02*
Y60035D01*
X8307Y47012D02*
X8504D01*
X5534Y49785D02*
X8307Y47012D01*
X5534Y49785D02*
Y54259D01*
X9429Y57681D02*
X10110Y58362D01*
X8956Y57681D02*
X9429D01*
X5534Y54259D02*
X8956Y57681D01*
X10110Y81492D02*
X15110D01*
X28110Y51764D02*
Y51961D01*
X31557Y55408D01*
X32155D01*
X35110Y58362D01*
Y60035D01*
X33228Y51764D02*
X39453D01*
X40110Y52421D01*
Y60035D01*
X44654Y51650D02*
X44768Y51764D01*
X44654Y44764D02*
Y51650D01*
D18*
X10110Y60035D02*
D03*
X15110D02*
D03*
X20110D02*
D03*
X25110D02*
D03*
X30110D02*
D03*
X35110D02*
D03*
X40110D02*
D03*
X10110Y81492D02*
D03*
X15110D02*
D03*
X20110D02*
D03*
X25110D02*
D03*
X30110D02*
D03*
X35110D02*
D03*
X40110D02*
D03*
D19*
X8504Y47012D02*
D03*
Y52130D02*
D03*
X15004Y52130D02*
D03*
Y47012D02*
D03*
X21504D02*
D03*
Y52130D02*
D03*
X33500Y99441D02*
D03*
Y104559D02*
D03*
X40000Y99441D02*
D03*
Y104559D02*
D03*
X52984Y99441D02*
D03*
Y104559D02*
D03*
D20*
X28110Y51764D02*
D03*
X33228D02*
D03*
D21*
X39453D02*
D03*
X44768D02*
D03*
D22*
X44654Y44764D02*
D03*
X37567D02*
D03*
D23*
X52000Y134700D02*
D03*
X55071D02*
D03*
D24*
X54961Y130996D02*
D03*
Y127925D02*
D03*
D25*
X54953Y122913D02*
D03*
X52984D02*
D03*
X51016D02*
D03*
X49047D02*
D03*
Y112087D02*
D03*
X51016D02*
D03*
X52984D02*
D03*
X54953D02*
D03*
D26*
X46587Y120453D02*
D03*
Y118484D02*
D03*
Y116516D02*
D03*
Y114547D02*
D03*
X57413D02*
D03*
Y116516D02*
D03*
Y118484D02*
D03*
Y120453D02*
D03*
D27*
X52000Y117500D02*
D03*
D28*
X27000Y104657D02*
D03*
Y99343D02*
D03*
X46587Y104657D02*
D03*
Y99343D02*
D03*
X60000Y104657D02*
D03*
Y99343D02*
D03*
X67000Y104657D02*
D03*
Y99343D02*
D03*
X74000Y104657D02*
D03*
Y99343D02*
D03*
X68561Y44673D02*
D03*
Y49988D02*
D03*
X47504Y67913D02*
D03*
Y73228D02*
D03*
D29*
X71565Y86961D02*
D03*
X77864D02*
D03*
X71565Y74555D02*
D03*
X77864D02*
D03*
D30*
X86539D02*
D03*
Y86366D02*
D03*
D31*
X85752Y80461D02*
D03*
D55*
X82677Y133858D02*
D03*
D56*
X31701Y73228D02*
X47504D01*
X25110Y79819D02*
X31701Y73228D01*
X25110Y79819D02*
Y81492D01*
X55520Y73228D02*
X68561Y60187D01*
X47504Y73228D02*
X55520D01*
X68561Y49988D02*
Y60187D01*
X35110Y81492D02*
X40110D01*
X85377Y74555D02*
X85958Y73974D01*
X77864Y74555D02*
X85377D01*
X85958Y56728D02*
Y73974D01*
X84561Y55331D02*
X85958Y56728D01*
X79219Y49988D02*
X84561Y55331D01*
X68561Y49988D02*
X79219D01*
D57*
X46850Y26528D02*
D03*
X37008D02*
D03*
X7480D02*
D03*
X17323D02*
D03*
X27165Y6843D02*
D03*
D58*
X55000Y140500D02*
D03*
D59*
X94404Y55331D02*
D03*
D60*
X84561D02*
D03*
D61*
X103067Y23138D02*
D03*
D62*
X84760Y34752D02*
D03*
D63*
Y10343D02*
D03*
D64*
X59055Y133858D02*
D03*
Y125984D02*
D03*
X66929D02*
D03*
X43307D02*
D03*
X66929Y141732D02*
D03*
Y133858D02*
D03*
X43307D02*
D03*
Y141732D02*
D03*
X78740Y145669D02*
D03*
X70866D02*
D03*
X62992D02*
D03*
X31102Y145669D02*
D03*
X38976D02*
D03*
X46850D02*
D03*
X82677Y19685D02*
D03*
X4500Y83000D02*
D03*
Y75000D02*
D03*
Y66500D02*
D03*
X13000Y74500D02*
D03*
Y68500D02*
D03*
X26000Y73000D02*
D03*
X32000Y68500D02*
D03*
X40000Y68000D02*
D03*
X61776Y82323D02*
D03*
X47949Y82854D02*
D03*
X73500Y95000D02*
D03*
X64000D02*
D03*
X55000D02*
D03*
X46000D02*
D03*
X37000D02*
D03*
X15354Y90551D02*
D03*
X38976Y122047D02*
D03*
X31102D02*
D03*
X23228D02*
D03*
X46850Y137795D02*
D03*
Y129921D02*
D03*
X62599Y137795D02*
D03*
X70473Y122047D02*
D03*
X78347Y114173D02*
D03*
X86221Y98425D02*
D03*
X94488Y19685D02*
D03*
X51181Y15748D02*
D03*
X35433D02*
D03*
X19685D02*
D03*
X3937D02*
D03*
X101969Y106299D02*
D03*
Y98425D02*
D03*
Y66929D02*
D03*
Y43307D02*
D03*
X94095Y106299D02*
D03*
Y98425D02*
D03*
Y66929D02*
D03*
Y43307D02*
D03*
X86221Y122047D02*
D03*
Y114173D02*
D03*
Y106299D02*
D03*
X78347Y122047D02*
D03*
X70473Y137795D02*
D03*
Y129921D02*
D03*
Y19685D02*
D03*
X62599Y129921D02*
D03*
X54724Y82677D02*
D03*
Y59055D02*
D03*
Y51181D02*
D03*
Y43307D02*
D03*
X38976Y137795D02*
D03*
Y129921D02*
D03*
X31102Y137795D02*
D03*
Y129921D02*
D03*
X23228D02*
D03*
X15354Y106299D02*
D03*
Y98425D02*
D03*
X7480Y106299D02*
D03*
Y98425D02*
D03*
Y90551D02*
D03*
X22000Y69000D02*
D03*
X63000Y109000D02*
D03*
X42000D02*
D03*
X26000Y47000D02*
D03*
X47504Y63496D02*
D03*
X79603Y80489D02*
D03*
X75603D02*
D03*
X71862Y80461D02*
D03*
X32311Y44764D02*
D03*
M02*
