G04*
G04 #@! TF.GenerationSoftware,Altium Limited,Altium Designer,23.10.1 (27)*
G04*
G04 Layer_Color=8421504*
%FSLAX25Y25*%
%MOIN*%
G70*
G04*
G04 #@! TF.SameCoordinates,6BE5E326-444D-4DDB-8984-30915AB2A72B*
G04*
G04*
G04 #@! TF.FilePolarity,Positive*
G04*
G01*
G75*
%ADD18R,0.02362X0.05709*%
%ADD19R,0.03740X0.03347*%
%ADD20R,0.03347X0.03740*%
%ADD21R,0.03543X0.03937*%
%ADD22R,0.03150X0.01968*%
%ADD23R,0.02165X0.02126*%
%ADD24R,0.02126X0.02165*%
%ADD25O,0.00984X0.03740*%
%ADD26O,0.03740X0.00984*%
%ADD27R,0.05709X0.05709*%
%ADD28R,0.03937X0.03543*%
%ADD29R,0.05118X0.05512*%
%ADD30R,0.05512X0.02362*%
%ADD31R,0.03937X0.02362*%
G36*
X100319Y83709D02*
X100319Y77213D01*
X99827Y76720D01*
X90280D01*
X87721Y79280D01*
Y81642D01*
X90280Y84201D01*
X99827D01*
X100319Y83709D01*
D02*
G37*
D18*
X10110Y60035D02*
D03*
X15110D02*
D03*
X20110D02*
D03*
X25110D02*
D03*
X30110D02*
D03*
X35110D02*
D03*
X40110D02*
D03*
X10110Y81492D02*
D03*
X15110D02*
D03*
X20110D02*
D03*
X25110D02*
D03*
X30110D02*
D03*
X35110D02*
D03*
X40110D02*
D03*
D19*
X8504Y47012D02*
D03*
Y52130D02*
D03*
X15004Y52130D02*
D03*
Y47012D02*
D03*
X21504D02*
D03*
Y52130D02*
D03*
X33500Y99441D02*
D03*
Y104559D02*
D03*
X40000Y99441D02*
D03*
Y104559D02*
D03*
X52984Y99441D02*
D03*
Y104559D02*
D03*
D20*
X28110Y51764D02*
D03*
X33228D02*
D03*
D21*
X39453D02*
D03*
X44768D02*
D03*
D22*
X44654Y44764D02*
D03*
X37567D02*
D03*
D23*
X52000Y134700D02*
D03*
X55071D02*
D03*
D24*
X54961Y130996D02*
D03*
Y127925D02*
D03*
D25*
X54953Y122913D02*
D03*
X52984D02*
D03*
X51016D02*
D03*
X49047D02*
D03*
Y112087D02*
D03*
X51016D02*
D03*
X52984D02*
D03*
X54953D02*
D03*
D26*
X46587Y120453D02*
D03*
Y118484D02*
D03*
Y116516D02*
D03*
Y114547D02*
D03*
X57413D02*
D03*
Y116516D02*
D03*
Y118484D02*
D03*
Y120453D02*
D03*
D27*
X52000Y117500D02*
D03*
D28*
X27000Y104657D02*
D03*
Y99343D02*
D03*
X46587Y104657D02*
D03*
Y99343D02*
D03*
X60000Y104657D02*
D03*
Y99343D02*
D03*
X67000Y104657D02*
D03*
Y99343D02*
D03*
X74000Y104657D02*
D03*
Y99343D02*
D03*
X68561Y44673D02*
D03*
Y49988D02*
D03*
X47504Y67913D02*
D03*
Y73228D02*
D03*
D29*
X71565Y86961D02*
D03*
X77864D02*
D03*
X71565Y74555D02*
D03*
X77864D02*
D03*
D30*
X86539D02*
D03*
Y86366D02*
D03*
D31*
X85752Y80461D02*
D03*
M02*
