G04*
G04 #@! TF.GenerationSoftware,Altium Limited,Altium Designer,23.10.1 (27)*
G04*
G04 Layer_Physical_Order=2*
G04 Layer_Color=16711680*
%FSLAX25Y25*%
%MOIN*%
G70*
G04*
G04 #@! TF.SameCoordinates,6BE5E326-444D-4DDB-8984-30915AB2A72B*
G04*
G04*
G04 #@! TF.FilePolarity,Positive*
G04*
G01*
G75*
%ADD14C,0.01000*%
%ADD57C,0.07874*%
%ADD58C,0.07284*%
%ADD59C,0.06693*%
%ADD60R,0.06693X0.06693*%
%ADD61O,0.06496X0.15158*%
%ADD62O,0.15158X0.06496*%
%ADD63O,0.16535X0.06496*%
%ADD64C,0.03150*%
G36*
X109217Y1020D02*
X29144D01*
X28905Y2220D01*
X29655Y2530D01*
X30687Y3322D01*
X31478Y4353D01*
X31975Y5554D01*
X32079Y6343D01*
X27165D01*
X22252D01*
X22355Y5554D01*
X22853Y4353D01*
X23644Y3322D01*
X24676Y2530D01*
X25425Y2220D01*
X25187Y1020D01*
X1020D01*
X1020Y148587D01*
X109217D01*
X109217Y1020D01*
D02*
G37*
%LPC*%
G36*
X55000Y144778D02*
X53893Y144632D01*
X52861Y144205D01*
X51975Y143525D01*
X51295Y142639D01*
X50867Y141607D01*
X50722Y140500D01*
X50867Y139393D01*
X51295Y138361D01*
X51975Y137475D01*
X52861Y136795D01*
X53893Y136367D01*
X55000Y136222D01*
X56107Y136367D01*
X57139Y136795D01*
X58025Y137475D01*
X58705Y138361D01*
X59133Y139393D01*
X59278Y140500D01*
X59133Y141607D01*
X58705Y142639D01*
X58025Y143525D01*
X57139Y144205D01*
X56107Y144632D01*
X55000Y144778D01*
D02*
G37*
G36*
X98425Y144332D02*
X97150Y144207D01*
X95924Y143835D01*
X94793Y143231D01*
X93803Y142418D01*
X92990Y141427D01*
X92386Y140297D01*
X92014Y139071D01*
X91888Y137795D01*
X92014Y136520D01*
X92386Y135294D01*
X92990Y134163D01*
X93803Y133173D01*
X94793Y132360D01*
X95924Y131756D01*
X97150Y131384D01*
X98425Y131258D01*
X99700Y131384D01*
X100927Y131756D01*
X102057Y132360D01*
X103048Y133173D01*
X103860Y134163D01*
X104465Y135294D01*
X104837Y136520D01*
X104962Y137795D01*
X104837Y139071D01*
X104465Y140297D01*
X103860Y141427D01*
X103048Y142418D01*
X102057Y143231D01*
X100927Y143835D01*
X99700Y144207D01*
X98425Y144332D01*
D02*
G37*
G36*
X11811D02*
X10536Y144207D01*
X9309Y143835D01*
X8179Y143231D01*
X7189Y142418D01*
X6376Y141427D01*
X5772Y140297D01*
X5400Y139071D01*
X5274Y137795D01*
X5400Y136520D01*
X5772Y135294D01*
X6376Y134163D01*
X7189Y133173D01*
X8179Y132360D01*
X9309Y131756D01*
X10536Y131384D01*
X11811Y131258D01*
X13086Y131384D01*
X14313Y131756D01*
X15443Y132360D01*
X16433Y133173D01*
X17246Y134163D01*
X17850Y135294D01*
X18222Y136520D01*
X18348Y137795D01*
X18222Y139071D01*
X17850Y140297D01*
X17246Y141427D01*
X16433Y142418D01*
X15443Y143231D01*
X14313Y143835D01*
X13086Y144207D01*
X11811Y144332D01*
D02*
G37*
G36*
X98425Y128584D02*
X97150Y128459D01*
X95924Y128087D01*
X94793Y127482D01*
X93803Y126670D01*
X92990Y125679D01*
X92386Y124549D01*
X92014Y123322D01*
X91888Y122047D01*
X92014Y120772D01*
X92386Y119546D01*
X92990Y118415D01*
X93803Y117425D01*
X94793Y116612D01*
X95924Y116008D01*
X97150Y115636D01*
X98425Y115510D01*
X99700Y115636D01*
X100927Y116008D01*
X102057Y116612D01*
X103048Y117425D01*
X103860Y118415D01*
X104465Y119546D01*
X104837Y120772D01*
X104962Y122047D01*
X104837Y123322D01*
X104465Y124549D01*
X103860Y125679D01*
X103048Y126670D01*
X102057Y127482D01*
X100927Y128087D01*
X99700Y128459D01*
X98425Y128584D01*
D02*
G37*
G36*
X11811D02*
X10536Y128459D01*
X9309Y128087D01*
X8179Y127482D01*
X7189Y126670D01*
X6376Y125679D01*
X5772Y124549D01*
X5400Y123322D01*
X5274Y122047D01*
X5400Y120772D01*
X5772Y119546D01*
X6376Y118415D01*
X7189Y117425D01*
X8179Y116612D01*
X9309Y116008D01*
X10536Y115636D01*
X11811Y115510D01*
X13086Y115636D01*
X14313Y116008D01*
X15443Y116612D01*
X16433Y117425D01*
X17246Y118415D01*
X17850Y119546D01*
X18222Y120772D01*
X18348Y122047D01*
X18222Y123322D01*
X17850Y124549D01*
X17246Y125679D01*
X16433Y126670D01*
X15443Y127482D01*
X14313Y128087D01*
X13086Y128459D01*
X11811Y128584D01*
D02*
G37*
G36*
X63000Y111217D02*
X62151Y111049D01*
X61432Y110568D01*
X60951Y109849D01*
X60783Y109000D01*
X60951Y108151D01*
X61418Y107452D01*
X61429Y107426D01*
X61528Y107322D01*
X61602Y107234D01*
X61664Y107148D01*
X61716Y107064D01*
X61758Y106981D01*
X61792Y106899D01*
X61817Y106818D01*
X61835Y106735D01*
X61846Y106650D01*
X61851Y106535D01*
X61878Y106476D01*
Y106465D01*
X58535Y103122D01*
X46465D01*
X43122Y106465D01*
Y106476D01*
X43149Y106535D01*
X43154Y106650D01*
X43165Y106735D01*
X43183Y106817D01*
X43208Y106899D01*
X43242Y106981D01*
X43284Y107064D01*
X43336Y107148D01*
X43398Y107234D01*
X43472Y107322D01*
X43571Y107426D01*
X43582Y107452D01*
X44049Y108151D01*
X44217Y109000D01*
X44049Y109849D01*
X43568Y110568D01*
X42849Y111049D01*
X42000Y111217D01*
X41151Y111049D01*
X40432Y110568D01*
X39951Y109849D01*
X39783Y109000D01*
X39951Y108151D01*
X40418Y107452D01*
X40429Y107426D01*
X40528Y107322D01*
X40602Y107234D01*
X40664Y107148D01*
X40716Y107064D01*
X40758Y106981D01*
X40792Y106899D01*
X40817Y106818D01*
X40835Y106735D01*
X40846Y106650D01*
X40851Y106535D01*
X40878Y106476D01*
Y106000D01*
X40878Y106000D01*
X40964Y105571D01*
X41207Y105207D01*
X45207Y101207D01*
X45207Y101207D01*
X45571Y100964D01*
X46000Y100878D01*
X59000D01*
X59000Y100878D01*
X59429Y100964D01*
X59793Y101207D01*
X63793Y105207D01*
X63793Y105207D01*
X64036Y105571D01*
X64122Y106000D01*
Y106476D01*
X64149Y106535D01*
X64154Y106650D01*
X64165Y106735D01*
X64183Y106817D01*
X64208Y106899D01*
X64242Y106981D01*
X64284Y107064D01*
X64336Y107148D01*
X64398Y107234D01*
X64472Y107322D01*
X64571Y107426D01*
X64582Y107452D01*
X65049Y108151D01*
X65217Y109000D01*
X65049Y109849D01*
X64568Y110568D01*
X63849Y111049D01*
X63000Y111217D01*
D02*
G37*
G36*
X94904Y59649D02*
Y55831D01*
X98722D01*
X98638Y56465D01*
X98200Y57523D01*
X97504Y58431D01*
X96596Y59127D01*
X95538Y59565D01*
X94904Y59649D01*
D02*
G37*
G36*
X93904D02*
X93269Y59565D01*
X92212Y59127D01*
X91304Y58431D01*
X90607Y57523D01*
X90169Y56465D01*
X90085Y55831D01*
X93904D01*
Y59649D01*
D02*
G37*
G36*
X88507Y59277D02*
X80615D01*
Y51384D01*
X88507D01*
Y59277D01*
D02*
G37*
G36*
X98722Y54831D02*
X94904D01*
Y51013D01*
X95538Y51096D01*
X96596Y51534D01*
X97504Y52231D01*
X98200Y53139D01*
X98638Y54196D01*
X98722Y54831D01*
D02*
G37*
G36*
X93904D02*
X90085D01*
X90169Y54196D01*
X90607Y53139D01*
X91304Y52231D01*
X92212Y51534D01*
X93269Y51096D01*
X93904Y51013D01*
Y54831D01*
D02*
G37*
G36*
X22000Y71217D02*
X21151Y71049D01*
X20432Y70568D01*
X19951Y69849D01*
X19783Y69000D01*
X19951Y68151D01*
X20418Y67452D01*
X20429Y67426D01*
X20528Y67322D01*
X20602Y67234D01*
X20664Y67148D01*
X20716Y67064D01*
X20758Y66981D01*
X20792Y66899D01*
X20817Y66818D01*
X20835Y66735D01*
X20846Y66650D01*
X20851Y66535D01*
X20878Y66476D01*
Y51000D01*
X20878Y51000D01*
X20964Y50571D01*
X21207Y50207D01*
X23422Y47992D01*
X23444Y47931D01*
X23523Y47846D01*
X23575Y47778D01*
X23620Y47707D01*
X23660Y47631D01*
X23695Y47550D01*
X23723Y47461D01*
X23746Y47365D01*
X23763Y47260D01*
X23773Y47146D01*
X23776Y47002D01*
X23787Y46976D01*
X23951Y46151D01*
X24432Y45432D01*
X25151Y44951D01*
X26000Y44783D01*
X26849Y44951D01*
X27568Y45432D01*
X28049Y46151D01*
X28217Y47000D01*
X28049Y47849D01*
X27568Y48568D01*
X26849Y49049D01*
X26024Y49213D01*
X25998Y49224D01*
X25854Y49227D01*
X25740Y49237D01*
X25635Y49254D01*
X25539Y49277D01*
X25450Y49305D01*
X25369Y49340D01*
X25293Y49380D01*
X25222Y49425D01*
X25154Y49478D01*
X25069Y49556D01*
X25008Y49578D01*
X23122Y51465D01*
Y66476D01*
X23149Y66535D01*
X23154Y66650D01*
X23165Y66735D01*
X23183Y66817D01*
X23208Y66899D01*
X23242Y66981D01*
X23284Y67064D01*
X23336Y67148D01*
X23398Y67234D01*
X23472Y67322D01*
X23571Y67426D01*
X23582Y67452D01*
X24049Y68151D01*
X24217Y69000D01*
X24049Y69849D01*
X23568Y70568D01*
X22849Y71049D01*
X22000Y71217D01*
D02*
G37*
G36*
X89091Y38633D02*
X80429D01*
X79425Y38501D01*
X78488Y38113D01*
X77685Y37496D01*
X77068Y36693D01*
X76680Y35756D01*
X76548Y34752D01*
X76680Y33747D01*
X77068Y32811D01*
X77685Y32008D01*
X78488Y31391D01*
X79425Y31003D01*
X80429Y30871D01*
X89091D01*
X90095Y31003D01*
X91031Y31391D01*
X91835Y32008D01*
X92452Y32811D01*
X92839Y33747D01*
X92972Y34752D01*
X92839Y35756D01*
X92452Y36693D01*
X91835Y37496D01*
X91031Y38113D01*
X90095Y38501D01*
X89091Y38633D01*
D02*
G37*
G36*
X17323Y31104D02*
X16138Y30948D01*
X15035Y30491D01*
X14087Y29763D01*
X13360Y28816D01*
X13019Y27992D01*
X12927Y27969D01*
X11877D01*
X11784Y27992D01*
X11443Y28816D01*
X10716Y29763D01*
X9768Y30491D01*
X8665Y30948D01*
X7480Y31104D01*
X6296Y30948D01*
X5192Y30491D01*
X4245Y29763D01*
X3517Y28816D01*
X3060Y27712D01*
X2904Y26528D01*
X3060Y25343D01*
X3517Y24239D01*
X4245Y23292D01*
X5192Y22565D01*
X6296Y22107D01*
X7480Y21951D01*
X8665Y22107D01*
X9768Y22565D01*
X10716Y23292D01*
X11443Y24239D01*
X11784Y25063D01*
X11877Y25086D01*
X12927D01*
X13019Y25063D01*
X13360Y24239D01*
X14087Y23292D01*
X15035Y22565D01*
X16138Y22107D01*
X17323Y21951D01*
X18507Y22107D01*
X19611Y22565D01*
X20559Y23292D01*
X21286Y24239D01*
X21743Y25343D01*
X21899Y26528D01*
X21743Y27712D01*
X21286Y28816D01*
X20559Y29763D01*
X19611Y30491D01*
X18507Y30948D01*
X17323Y31104D01*
D02*
G37*
G36*
X59055Y34096D02*
X57780Y33970D01*
X56554Y33599D01*
X55423Y32994D01*
X54433Y32181D01*
X53620Y31191D01*
X53016Y30061D01*
X52644Y28834D01*
X52544Y27826D01*
X52518Y27559D01*
X52504Y27534D01*
D01*
X52518Y27559D01*
X52528Y27662D01*
X52487Y27536D01*
X51397Y27694D01*
X51255Y27750D01*
X50814Y28816D01*
X50086Y29763D01*
X49139Y30491D01*
X48035Y30948D01*
X46850Y31104D01*
X45666Y30948D01*
X44562Y30491D01*
X43615Y29763D01*
X42887Y28816D01*
X42546Y27992D01*
X42454Y27969D01*
X41404D01*
X41312Y27992D01*
X40971Y28816D01*
X40244Y29763D01*
X39296Y30491D01*
X38192Y30948D01*
X37008Y31104D01*
X35824Y30948D01*
X34720Y30491D01*
X33772Y29763D01*
X33045Y28816D01*
X32588Y27712D01*
X32432Y26528D01*
X32588Y25343D01*
X33045Y24239D01*
X33772Y23292D01*
X34720Y22565D01*
X35824Y22107D01*
X37008Y21951D01*
X38192Y22107D01*
X39296Y22565D01*
X40244Y23292D01*
X40971Y24239D01*
X41312Y25063D01*
X41404Y25086D01*
X42454D01*
X42546Y25063D01*
X42887Y24239D01*
X43615Y23292D01*
X44562Y22565D01*
X45666Y22107D01*
X46850Y21951D01*
X48035Y22107D01*
X49139Y22565D01*
X50086Y23292D01*
X50814Y24239D01*
X51271Y25343D01*
X51340Y25870D01*
X52580Y26299D01*
X52724Y26020D01*
X52644Y26284D01*
X52608Y26309D01*
X52608D01*
X52644Y26284D01*
X52764Y25886D01*
X53016Y25058D01*
X53620Y23927D01*
X54433Y22937D01*
X55423Y22124D01*
X56554Y21520D01*
X57780Y21148D01*
X59055Y21022D01*
X60330Y21148D01*
X61557Y21520D01*
X62687Y22124D01*
X63678Y22937D01*
X64490Y23927D01*
X65095Y25058D01*
X65466Y26284D01*
X65592Y27559D01*
X65466Y28834D01*
X65095Y30061D01*
X64490Y31191D01*
X63678Y32181D01*
X62687Y32994D01*
X61557Y33599D01*
X60330Y33970D01*
X59055Y34096D01*
D02*
G37*
G36*
X103567Y31687D02*
Y23638D01*
X107352D01*
Y27468D01*
X107206Y28578D01*
X106778Y29611D01*
X106097Y30498D01*
X105209Y31179D01*
X104176Y31607D01*
X103567Y31687D01*
D02*
G37*
G36*
X102567D02*
X101958Y31607D01*
X100925Y31179D01*
X100037Y30498D01*
X99356Y29611D01*
X98928Y28578D01*
X98782Y27468D01*
Y23638D01*
X102567D01*
Y31687D01*
D02*
G37*
G36*
X107352Y22638D02*
X103567D01*
Y14588D01*
X104176Y14668D01*
X105209Y15096D01*
X106097Y15777D01*
X106778Y16665D01*
X107206Y17698D01*
X107352Y18807D01*
Y22638D01*
D02*
G37*
G36*
X102567D02*
X98782D01*
Y18807D01*
X98928Y17698D01*
X99356Y16665D01*
X100037Y15777D01*
X100925Y15096D01*
X101958Y14668D01*
X102567Y14588D01*
Y22638D01*
D02*
G37*
G36*
X89780Y14627D02*
X85260D01*
Y10842D01*
X93998D01*
X93918Y11451D01*
X93490Y12485D01*
X92809Y13372D01*
X91922Y14053D01*
X90889Y14481D01*
X89780Y14627D01*
D02*
G37*
G36*
X84260D02*
X79740D01*
X78631Y14481D01*
X77598Y14053D01*
X76710Y13372D01*
X76029Y12485D01*
X75602Y11451D01*
X75521Y10842D01*
X84260D01*
Y14627D01*
D02*
G37*
G36*
X27665Y11756D02*
Y7343D01*
X32079D01*
X31975Y8131D01*
X31478Y9332D01*
X30687Y10364D01*
X29655Y11155D01*
X28454Y11653D01*
X27665Y11756D01*
D02*
G37*
G36*
X26665D02*
X25877Y11653D01*
X24676Y11155D01*
X23644Y10364D01*
X22853Y9332D01*
X22355Y8131D01*
X22252Y7343D01*
X26665D01*
Y11756D01*
D02*
G37*
G36*
X93998Y9843D02*
X85260D01*
Y6058D01*
X89780D01*
X90889Y6204D01*
X91922Y6632D01*
X92809Y7313D01*
X93490Y8200D01*
X93918Y9234D01*
X93998Y9843D01*
D02*
G37*
G36*
X84260D02*
X75521D01*
X75602Y9234D01*
X76029Y8200D01*
X76710Y7313D01*
X77598Y6632D01*
X78631Y6204D01*
X79740Y6058D01*
X84260D01*
Y9843D01*
D02*
G37*
G36*
X59055Y18348D02*
X57780Y18222D01*
X56554Y17850D01*
X55423Y17246D01*
X54433Y16433D01*
X53620Y15443D01*
X53016Y14313D01*
X52644Y13086D01*
X52518Y11811D01*
X52644Y10536D01*
X53016Y9309D01*
X53620Y8179D01*
X54433Y7189D01*
X55423Y6376D01*
X56554Y5772D01*
X57780Y5400D01*
X59055Y5274D01*
X60330Y5400D01*
X61557Y5772D01*
X62687Y6376D01*
X63678Y7189D01*
X64490Y8179D01*
X65095Y9309D01*
X65466Y10536D01*
X65592Y11811D01*
X65466Y13086D01*
X65095Y14313D01*
X64490Y15443D01*
X63678Y16433D01*
X62687Y17246D01*
X61557Y17850D01*
X60330Y18222D01*
X59055Y18348D01*
D02*
G37*
G36*
X46850Y10829D02*
X45818Y10694D01*
X44857Y10295D01*
X44031Y9662D01*
X43398Y8836D01*
X42999Y7875D01*
X42864Y6843D01*
X42999Y5811D01*
X43398Y4849D01*
X44031Y4023D01*
X44857Y3390D01*
X45818Y2992D01*
X46850Y2856D01*
X47882Y2992D01*
X48844Y3390D01*
X49670Y4023D01*
X50303Y4849D01*
X50701Y5811D01*
X50837Y6843D01*
X50701Y7875D01*
X50303Y8836D01*
X49670Y9662D01*
X48844Y10295D01*
X47882Y10694D01*
X46850Y10829D01*
D02*
G37*
G36*
X7480D02*
X6448Y10694D01*
X5487Y10295D01*
X4661Y9662D01*
X4028Y8836D01*
X3629Y7875D01*
X3494Y6843D01*
X3629Y5811D01*
X4028Y4849D01*
X4661Y4023D01*
X5487Y3390D01*
X6448Y2992D01*
X7480Y2856D01*
X8512Y2992D01*
X9474Y3390D01*
X10300Y4023D01*
X10933Y4849D01*
X11331Y5811D01*
X11467Y6843D01*
X11331Y7875D01*
X10933Y8836D01*
X10300Y9662D01*
X9474Y10295D01*
X8512Y10694D01*
X7480Y10829D01*
D02*
G37*
%LPD*%
G36*
X63988Y107756D02*
X63885Y107634D01*
X63795Y107509D01*
X63717Y107382D01*
X63651Y107252D01*
X63596Y107119D01*
X63554Y106984D01*
X63524Y106846D01*
X63506Y106705D01*
X63500Y106562D01*
X62500D01*
X62494Y106705D01*
X62476Y106846D01*
X62446Y106984D01*
X62404Y107119D01*
X62349Y107252D01*
X62283Y107382D01*
X62205Y107509D01*
X62115Y107634D01*
X62012Y107756D01*
X61898Y107875D01*
X64102D01*
X63988Y107756D01*
D02*
G37*
G36*
X42988D02*
X42886Y107634D01*
X42795Y107509D01*
X42717Y107382D01*
X42651Y107252D01*
X42596Y107119D01*
X42554Y106984D01*
X42524Y106846D01*
X42506Y106705D01*
X42500Y106562D01*
X41500D01*
X41494Y106705D01*
X41476Y106846D01*
X41446Y106984D01*
X41404Y107119D01*
X41349Y107252D01*
X41283Y107382D01*
X41205Y107509D01*
X41115Y107634D01*
X41012Y107756D01*
X40898Y107875D01*
X43102D01*
X42988Y107756D01*
D02*
G37*
G36*
X22988Y67756D02*
X22885Y67634D01*
X22795Y67509D01*
X22717Y67382D01*
X22651Y67252D01*
X22596Y67119D01*
X22554Y66984D01*
X22524Y66846D01*
X22506Y66705D01*
X22500Y66562D01*
X21500D01*
X21494Y66705D01*
X21476Y66846D01*
X21446Y66984D01*
X21404Y67119D01*
X21349Y67252D01*
X21283Y67382D01*
X21205Y67509D01*
X21114Y67634D01*
X21012Y67756D01*
X20898Y67875D01*
X23102D01*
X22988Y67756D01*
D02*
G37*
G36*
X24735Y48981D02*
X24847Y48894D01*
X24966Y48818D01*
X25092Y48752D01*
X25224Y48696D01*
X25363Y48651D01*
X25508Y48616D01*
X25660Y48592D01*
X25819Y48578D01*
X25984Y48575D01*
X24425Y47016D01*
X24422Y47181D01*
X24408Y47340D01*
X24384Y47492D01*
X24349Y47637D01*
X24304Y47776D01*
X24248Y47908D01*
X24182Y48034D01*
X24106Y48153D01*
X24019Y48265D01*
X23922Y48371D01*
X24630Y49078D01*
X24735Y48981D01*
D02*
G37*
D14*
X22000Y51000D02*
X26000Y47000D01*
X22000Y51000D02*
Y69000D01*
X63000Y106000D02*
Y109000D01*
X59000Y102000D02*
X63000Y106000D01*
X46000Y102000D02*
X59000D01*
X42000Y106000D02*
X46000Y102000D01*
X42000Y106000D02*
Y109000D01*
D57*
X46850Y26528D02*
D03*
X37008D02*
D03*
X7480D02*
D03*
X17323D02*
D03*
X27165Y6843D02*
D03*
D58*
X55000Y140500D02*
D03*
D59*
X94404Y55331D02*
D03*
D60*
X84561D02*
D03*
D61*
X103067Y23138D02*
D03*
D62*
X84760Y34752D02*
D03*
D63*
Y10343D02*
D03*
D64*
X59055Y133858D02*
D03*
Y125984D02*
D03*
X66929D02*
D03*
X43307D02*
D03*
X66929Y141732D02*
D03*
Y133858D02*
D03*
X43307D02*
D03*
Y141732D02*
D03*
X78740Y145669D02*
D03*
X70866D02*
D03*
X62992D02*
D03*
X31102Y145669D02*
D03*
X38976D02*
D03*
X46850D02*
D03*
X82677Y19685D02*
D03*
X4500Y83000D02*
D03*
Y75000D02*
D03*
Y66500D02*
D03*
X13000Y74500D02*
D03*
Y68500D02*
D03*
X26000Y73000D02*
D03*
X32000Y68500D02*
D03*
X40000Y68000D02*
D03*
X61776Y82323D02*
D03*
X47949Y82854D02*
D03*
X73500Y95000D02*
D03*
X64000D02*
D03*
X55000D02*
D03*
X46000D02*
D03*
X37000D02*
D03*
X15354Y90551D02*
D03*
X38976Y122047D02*
D03*
X31102D02*
D03*
X23228D02*
D03*
X46850Y137795D02*
D03*
Y129921D02*
D03*
X62599Y137795D02*
D03*
X70473Y122047D02*
D03*
X78347Y114173D02*
D03*
X86221Y98425D02*
D03*
X94488Y19685D02*
D03*
X51181Y15748D02*
D03*
X35433D02*
D03*
X19685D02*
D03*
X3937D02*
D03*
X101969Y106299D02*
D03*
Y98425D02*
D03*
Y66929D02*
D03*
Y43307D02*
D03*
X94095Y106299D02*
D03*
Y98425D02*
D03*
Y66929D02*
D03*
Y43307D02*
D03*
X86221Y122047D02*
D03*
Y114173D02*
D03*
Y106299D02*
D03*
X78347Y122047D02*
D03*
X70473Y137795D02*
D03*
Y129921D02*
D03*
Y19685D02*
D03*
X62599Y129921D02*
D03*
X54724Y82677D02*
D03*
Y59055D02*
D03*
Y51181D02*
D03*
Y43307D02*
D03*
X38976Y137795D02*
D03*
Y129921D02*
D03*
X31102Y137795D02*
D03*
Y129921D02*
D03*
X23228D02*
D03*
X15354Y106299D02*
D03*
Y98425D02*
D03*
X7480Y106299D02*
D03*
Y98425D02*
D03*
Y90551D02*
D03*
X22000Y69000D02*
D03*
X63000Y109000D02*
D03*
X42000D02*
D03*
X26000Y47000D02*
D03*
X47504Y63496D02*
D03*
X79603Y80489D02*
D03*
X75603D02*
D03*
X71862Y80461D02*
D03*
X32311Y44764D02*
D03*
M02*
