M48
;Layer_Color=9474304
;FILE_FORMAT=2:5
INCH,LZ
;TYPE=PLATED
T1F00S00C0.01378
T2F00S00C0.01575
T4F00S00C0.03346
T5F00S00C0.04724
;TYPE=NON_PLATED
T6F00S00C0.05906
%
T01
X06Y011
X0605Y012
X0615
X062Y011
X061Y013
X0615Y014
X0605
X0595
Y012
X061Y015
X0625Y014
X0635
X0645
X065Y013
X066
X067
X0675Y012
X067Y011
X066
X065
X064
X0645Y012
X0635
X0625
X064Y013
X066Y015
X067
X068
X0675Y0141
X068Y011
Y017
X067
X0675Y018
X068Y019
Y021
X0675Y022
X068Y023
X067
X066
X065
X0645669Y0232283
Y0236221
Y0240158
X0649606
X0653543
X065748
X0661417
X0665354
X0669291
X0673228
X0677165
X0681102
X0634094Y0236221
X0633858Y0232283
X0629921
Y0228346
Y0236221
Y0240158
X0625984
X06365Y0219
X065Y017
X0645Y016
X0624016Y0179134
X061811
X0605Y018
X0600394Y0181102
X0595Y018
X0588583Y017126
Y0163386
X059252Y0159449
X0608268Y0185039
X0606299Y0206693
X0616142
X0594488
X059Y021
X0582677Y0206693
Y0216535
Y0228346
X0586614Y0234252
Y0240158
X0582677
X0590551
X0594488
X0598425
X0602362
X0606299
X0610236
X0614173
X061811
X0622047
X062Y023
X0582677Y019685
T02
X06025Y0148
X06195
X06135Y0155
X0629Y0211
X0646
X067Y01975
X0609941Y0229
X0596941
T04
X06605Y01605
X0670343
T05
X0610185Y01115
X0600343Y0131185
X05905
X0620028
X062987
T06
X05905Y01115
X062987
M30
